<svg xmlns="http://www.w3.org/2000/svg" fill="none" viewBox="0 0 20 20"><path fill="#000" fill-rule="evenodd" d="M15.726 2.364h1.149a1.25 1.25 0 011.25 1.25v13.75a1.25 1.25 0 01-1.25 1.25H3.125a1.25 1.25 0 01-1.25-1.25V3.614a1.25 1.25 0 011.25-1.25H4.29v-.353a.625.625 0 111.25 0v.353h1.296v-.353a.625.625 0 111.25 0v.353h1.297v-.353a.625.625 0 111.25 0v.353h1.297v-.353a.625.625 0 111.25 0v.353h1.296v-.353a.625.625 0 111.25 0v.353zM4.29 3.886a.625.625 0 001.25 0v-.272h1.296v.272a.625.625 0 001.25 0v-.272h1.297v.272a.625.625 0 001.25 0v-.272h1.297v.272a.625.625 0 101.25 0v-.272h1.296v.272a.625.625 0 101.25 0v-.272h1.149v2.5H3.125v-2.5H4.29v.272zm12.585 3.478h-2.399v4.375h2.399V7.364zm-6.25 0h2.601v4.375h-2.601V7.364zm0 5.625h2.601v4.375h-2.601v-4.375zm6.25 4.375h-2.399v-4.375h2.399v4.375zM6.836 11.739h2.539V7.364H6.836v4.375zm-1.25 0V7.364H3.125v4.375h2.461zm0 1.25v4.375H3.125v-4.375h2.461zm1.25 4.375v-4.375h2.539v4.375H6.836z" clip-rule="evenodd"/></svg>