<svg xmlns="http://www.w3.org/2000/svg" fill="none" viewBox="0 0 20 20"><path fill="#fff" stroke="#fff" stroke-linejoin="round" stroke-width=".5" d="M18.157 4.01c-1.556.448-3.118.476-4.686.434-.448-.013-.896-.04-1.342-.096-.23-.03-.351-.175-.334-.382.016-.2.172-.331.402-.315.579.044 1.156.085 1.736.094 1.249.018 2.493-.026 3.71-.336.272-.07.534-.165.79-.28.304-.138.56.024.553.35-.01.567-.22 1.083-.47 1.582-.739 1.47-1.785 2.717-2.987 3.847-.785.737-1.634 1.39-2.616 1.866-.5.242-1.02.425-1.58.478-.08.008-.161.016-.241.016-.277.003-.417-.129-.42-.397-.002-.426-.008-.851.003-1.277.004-.16-.046-.194-.205-.167-1.34.228-2.555.764-3.721 1.42-.07.04-.138.083-.208.124-.225.13-.442.092-.552-.094-.11-.183-.047-.377.167-.507a13.583 13.583 0 012.25-1.102c.682-.26 1.376-.472 2.104-.559.124-.014.165-.056.165-.18-.004-2.006-.003-4.013-.002-6.019 0-.109-.005-.183-.156-.176-1.97.091-3.848.5-5.564 1.49-.372.216-.704.48-1.036.746-.088.07-.044.14-.024.214.37 1.394.743 2.786 1.115 4.179l2.467 9.24c.008.03.014.06.02.089.045.226-.061.401-.27.449-.193.043-.378-.07-.435-.28-.13-.476-.255-.953-.383-1.428-1.069-4.004-2.14-8.006-3.203-12.01-.04-.15-.114-.15-.236-.144-.964.04-1.793-.62-1.932-1.532-.145-.943.451-1.815 1.394-2.044 1.116-.269 2.22.512 2.293 1.63.009.144.026.181.175.102 1.62-.865 3.37-1.273 5.202-1.388.274-.017.549-.026.822-.03.352-.006.473.112.473.455v6.986c0 .432.006.863-.002 1.295-.003.144.038.177.182.144.767-.179 1.442-.54 2.069-.988 1.656-1.183 2.999-2.645 4.018-4.387.2-.342.372-.699.493-1.114l.002.001zM2.872 1.964c-.622 0-1.132.496-1.134 1.102 0 .602.51 1.092 1.134 1.104.556.01 1.14-.49 1.134-1.106a1.124 1.124 0 00-1.134-1.1z"/></svg>