<svg xmlns="http://www.w3.org/2000/svg" fill="none" viewBox="0 0 17 17"><path fill="#fff" fill-rule="evenodd" d="M15.126 11.517c-1.03 1.31-5.549 4.452-6.606 5.093-.43.262-.976-.055-.976-.572v-1.599C5.018 14.336.5 12.048.5 7.596.5 2.957 5.032.704 8.493.704c3.744 0 8.007 2.543 8.007 6.85a6.3 6.3 0 01-1.374 3.963zM6.547 5.411c-.209 0-.377.184-.377.413V9c0 .23.168.414.377.414s.377-.185.377-.414V5.824c0-.229-.168-.413-.377-.413zm3.037.413c0-.229.168-.413.377-.413s.377.184.37.413V9a.417.417 0 01-.262.392.29.29 0 01-.115.022.367.367 0 01-.303-.17L8.291 7.19V9c0 .228-.168.413-.377.413s-.377-.185-.377-.414V5.913c0-.177.108-.332.263-.391.154-.06.33 0 .424.147l1.36 2.053V5.824zM5.49 8.594H4.486V5.831c0-.23-.168-.414-.377-.414s-.377.185-.377.414v3.175c0 .229.168.413.377.413h1.38c.21 0 .378-.184.378-.413 0-.23-.175-.414-.377-.414zm6.107-.075h1.495c.209 0 .377.185.377.414 0 .229-.168.413-.377.413H11.22c-.209 0-.377-.184-.377-.413V5.758c0-.23.168-.414.377-.414h1.812c.208 0 .377.185.377.414 0 .229-.169.413-.377.413h-1.435v.76h1.165c.209 0 .377.185.377.414 0 .23-.168.414-.377.414h-1.165v.76z" clip-rule="evenodd"/></svg>