<svg xmlns="http://www.w3.org/2000/svg" fill="none" viewBox="0 0 33 33"><path fill="#d4d7e8" fill-rule="evenodd" d="M12.135 27.832a2 2 0 01-.78.484l-6 2a2 2 0 01-2.532-2.53l2-6a2 2 0 01.484-.782L20.893 5.418a4 4 0 015.656 0L27.72 6.59a4 4 0 010 5.656L12.135 27.832zM6.72 22.418L22.307 6.832a2 2 0 012.828 0l1.172 1.172a2 2 0 010 2.828L10.72 26.418l-6 2 2-6z" clip-rule="evenodd"/><path fill="#d4d7e8" fill-rule="evenodd" d="M20.429 5.538a1 1 0 00-1.416 0l-6.584 6.59a1.001 1.001 0 11-1.416-1.416l6.588-6.586a3 3 0 014.244 0l.586.584a1 1 0 11-1.414 1.416l-.586-.586-.002-.002z" clip-rule="evenodd"/><path fill="#d4d7e8" d="M27.307 2.832a2 2 0 012.828 0l.06.06a2 2 0 01.06 2.766l-2.534 2.76-3-3 2.586-2.586z"/></svg>