<svg xmlns="http://www.w3.org/2000/svg" fill="none" viewBox="0 0 16 17"><path fill="#1D478D" d="M2 11.704H1v-9a1.001 1.001 0 011-1h9v1H2v9zM10.5 9.204a1.5 1.5 0 100-3 1.5 1.5 0 000 3zm0-2a.5.5 0 110 1 .5.5 0 010-1z"/><path fill="#1D478D" d="M14 4.204H4.5a1.001 1.001 0 00-1 1v9.5a1.001 1.001 0 001 1H14a1.001 1.001 0 001-1v-9.5a1.001 1.001 0 00-1-1zm0 10.5H4.5v-3l2-1.999 2.793 2.793a1 1 0 001.414 0l.793-.792 2.5 2.498v.5zm0-1.914l-1.793-1.793a1 1 0 00-1.414 0L10 11.79 7.207 8.997a1 1 0 00-1.414 0L4.5 10.29V5.204H14v7.586z"/></svg>