<svg xmlns="http://www.w3.org/2000/svg" fill="none" viewBox="0 0 16 17"><path fill="#fff" d="M8.333.526C5.406.526 3 2.81 3 6.065c0 1.162.274 1.97.782 2.865l4.192 7.385a.41.41 0 00.718 0l4.193-7.385c.508-.895.782-1.703.782-2.865 0-3.256-2.407-5.539-5.334-5.539zm0 .82c2.511 0 4.513 1.857 4.513 4.719 0 1.043-.202 1.632-.673 2.461l-3.84 6.757-3.84-6.757c-.47-.829-.672-1.418-.672-2.461 0-2.862 2.002-4.718 4.512-4.718zm0 2.462c1.138 0 2.052.914 2.052 2.052a2.045 2.045 0 01-2.052 2.05 2.045 2.045 0 01-2.051-2.05c0-1.138.914-2.052 2.051-2.052z"/></svg>