<?xml version="1.0" standalone="no"?>
<!DOCTYPE svg PUBLIC "-//W3C//DTD SVG 20010904//EN"
 "http://www.w3.org/TR/2001/REC-SVG-20010904/DTD/svg10.dtd">
<svg version="1.0" xmlns="http://www.w3.org/2000/svg"
 width="512.000000pt" height="512.000000pt" viewBox="0 0 512.000000 512.000000"
 preserveAspectRatio="xMidYMid meet">
<metadata>
Created by potrace 1.14, written by Peter Selinger 2001-2017
</metadata>
<g transform="translate(0.000000,512.000000) scale(0.100000,-0.100000)"
fill="#000000" stroke="none">
<path d="M675 5109 c-344 -57 -613 -330 -665 -674 -7 -48 -10 -661 -8 -1920
l3 -1850 22 -70 c32 -103 58 -160 108 -234 85 -128 237 -254 362 -301 158 -59
2 -55 2063 -55 1800 0 1888 1 1950 18 154 44 270 110 373 214 107 107 171 219
215 378 16 55 17 216 17 1945 0 1800 -1 1888 -18 1950 -44 154 -110 270 -214
373 -104 105 -210 166 -373 215 -50 16 -209 17 -1920 18 -1026 1 -1887 -2
-1915 -7z m3557 -582 c9 -2 26 -11 37 -21 25 -23 112 -175 183 -321 29 -60 73
-148 98 -195 40 -76 45 -92 44 -150 -1 -36 -11 -101 -23 -144 -28 -97 -153
-361 -215 -453 -73 -109 -236 -269 -344 -338 -31 -20 -83 -55 -114 -76 -32
-22 -90 -55 -130 -74 -40 -19 -109 -54 -153 -77 -44 -24 -93 -48 -110 -55
-133 -53 -202 -75 -293 -93 -59 -12 -109 -24 -112 -26 -3 -3 4 -12 15 -20 138
-99 281 -244 374 -380 92 -137 210 -401 328 -739 22 -62 107 -366 119 -421 4
-20 -1 -21 -133 -27 -179 -9 -263 -9 -261 1 1 4 -3 30 -10 57 -7 28 -14 59
-17 70 -46 213 -172 562 -268 745 -47 90 -136 229 -233 364 -63 88 -232 261
-264 271 -20 6 -158 -35 -185 -55 -5 -5 -34 -15 -64 -24 -30 -9 -65 -23 -78
-31 -58 -38 -192 -373 -237 -590 -49 -234 -57 -327 -59 -617 -2 -286 5 -421
28 -523 10 -49 17 -147 9 -143 -75 40 -344 140 -523 194 -12 4 -13 44 -8 247
7 265 29 457 72 629 31 122 122 393 143 425 13 21 13 23 -2 23 -9 0 -33 -7
-54 -15 -121 -51 -315 -80 -537 -80 -173 0 -249 9 -388 44 -146 38 -253 90
-321 155 -68 66 -84 103 -91 211 -3 50 -15 174 -26 277 -27 263 -28 250 14
311 101 145 216 216 451 279 70 19 108 22 281 22 180 0 212 -3 325 -27 206
-44 245 -56 380 -114 91 -40 156 -71 341 -164 33 -17 40 -17 90 -3 30 9 77 20
104 25 28 5 81 17 119 27 l70 17 54 95 c48 83 135 216 345 530 32 47 66 99 76
115 29 46 113 174 139 209 12 17 33 47 47 66 168 235 172 241 282 360 37 40
85 74 170 122 112 62 182 87 323 112 23 4 153 -1 192 -7z"/>
<path d="M3975 3941 c-118 -42 -227 -124 -345 -261 -25 -29 -50 -57 -55 -63
-6 -7 -30 -43 -55 -82 -45 -69 -136 -195 -149 -205 -4 -3 -14 -16 -23 -29 -24
-34 -135 -158 -196 -216 -29 -28 -50 -54 -47 -57 11 -11 199 83 261 131 95 71
343 282 404 343 30 29 80 82 110 117 30 35 64 73 75 86 61 68 95 116 137 191
24 45 26 53 12 58 -28 11 -78 6 -129 -13z"/>
<path d="M1320 2660 c-97 -13 -133 -20 -208 -40 -89 -25 -178 -68 -165 -81 5
-5 58 -18 118 -29 178 -33 354 -28 575 14 71 14 197 52 260 79 43 19 37 22
-100 43 -115 17 -393 25 -480 14z"/>
</g>
</svg>
