<svg xmlns="http://www.w3.org/2000/svg" fill="none" viewBox="0 0 25 26"><path stroke="#000" d="M24.378 13.026c0 6.631-5.338 12-11.915 12-6.578 0-11.915-5.369-11.915-12 0-6.63 5.337-12 11.915-12 6.577 0 11.915 5.37 11.915 12z"/><path fill="#000" fill-rule="evenodd" d="M10.52 16.799c0-1.17-.006-2.34.007-3.508 0-.199-.053-.258-.25-.252-.36.014-.721 0-1.089.007-.144.007-.203-.04-.197-.191.007-.727.007-1.46 0-2.187 0-.14.04-.185.184-.185.368.006.742-.014 1.109.006.217.013.256-.066.256-.264a35.27 35.27 0 010-1.665c.013-.68.197-1.315.597-1.863.505-.7 1.227-1.017 2.06-1.057.854-.04 1.713-.02 2.573-.027.118 0 .157.04.157.159-.006.74-.006 1.48 0 2.213 0 .132-.04.172-.17.172a38.437 38.437 0 00-1.234 0c-.551 0-.88.284-.912.833-.026.436-.007.878-.02 1.32-.006.16.092.146.19.146.624 0 1.254.007 1.877-.006.184 0 .243.04.223.23a119.84 119.84 0 00-.21 2.207c-.013.166-.092.199-.236.199-.492-.007-.99-.007-1.483 0-.354 0-.322-.053-.322.31 0 2.293-.006 4.579.007 6.871 0 .245-.059.304-.295.298a81.85 81.85 0 00-2.546 0c-.236.006-.276-.08-.276-.291v-3.475z" clip-rule="evenodd"/></svg>