<svg xmlns="http://www.w3.org/2000/svg" fill="none" viewBox="0 0 25 26"><path stroke="#000" d="M24.452 13.026c0 6.631-5.337 12-11.915 12-6.577 0-11.915-5.369-11.915-12 0-6.63 5.338-12 11.915-12 6.578 0 11.915 5.37 11.915 12z"/><path fill="#000" fill-rule="evenodd" d="M18.297 15.597c-.897 1.121-4.83 3.813-5.75 4.361a.563.563 0 01-.85-.49V18.1c-2.199-.088-6.132-2.048-6.132-5.86 0-3.973 3.945-5.903 6.958-5.903 3.26 0 6.97 2.178 6.97 5.867a5.339 5.339 0 01-1.196 3.394zm-7.468-5.23c-.182 0-.329.158-.329.354v2.72c0 .196.147.354.329.354.181 0 .328-.158.328-.354v-2.72c0-.196-.147-.354-.328-.354zm2.643.354c0-.196.147-.354.329-.354.181 0 .328.158.322.354v2.72a.357.357 0 01-.228.335.256.256 0 01-.1.019c-.1 0-.2-.05-.264-.146l-1.184-1.758v1.55c0 .196-.147.354-.328.354-.182 0-.329-.158-.329-.354v-2.644c0-.152.094-.284.229-.335a.31.31 0 01.37.127l1.183 1.758V10.72zm-3.564 2.372h-.873v-2.365c0-.196-.147-.354-.329-.354-.181 0-.328.158-.328.354v2.719c0 .196.147.354.328.354h1.202c.182 0 .329-.158.329-.354 0-.196-.153-.354-.329-.354zm5.317-.063h1.301c.182 0 .329.158.329.354 0 .196-.147.354-.329.354h-1.63c-.181 0-.328-.158-.328-.354v-2.72c0-.196.147-.354.329-.354h1.577c.181 0 .328.158.328.354 0 .197-.147.355-.328.355h-1.249v.65h1.014c.182 0 .328.159.328.355 0 .196-.146.354-.328.354h-1.014v.652z" clip-rule="evenodd"/></svg>