<svg width="58" height="58" viewBox="0 0 58 58" fill="none" xmlns="http://www.w3.org/2000/svg">
<rect width="57.8345" height="57.8345" rx="4" fill="white"/>
<path d="M7.8768 16.312C7.8768 16.202 7.9068 16.102 7.9668 16.012C8.0268 15.922 8.1068 15.852 8.2068 15.812C8.0868 15.772 7.9268 15.742 7.7168 15.732C7.7268 15.542 7.7868 15.382 7.8768 15.242C7.9668 15.102 8.0968 14.992 8.2568 14.912C8.4168 14.832 8.5968 14.792 8.8068 14.792C9.1068 14.792 9.3468 14.872 9.5268 15.042C9.7068 15.212 9.7968 15.432 9.7968 15.712V17.462H9.4068V15.752C9.4068 15.552 9.3468 15.402 9.2368 15.282C9.1168 15.162 8.9668 15.112 8.7668 15.112C8.6068 15.112 8.4668 15.152 8.3368 15.222C8.2168 15.292 8.1268 15.402 8.0768 15.522C8.1868 15.532 8.2868 15.562 8.3868 15.602C8.4868 15.642 8.5568 15.692 8.6068 15.752V15.832C8.4968 15.862 8.3968 15.922 8.3368 16.012C8.2768 16.102 8.2368 16.192 8.2368 16.302V17.462H7.8468V16.312H7.8768Z" fill="#1D478D"/>
<path d="M12.1769 15.002C12.3669 15.142 12.4569 15.332 12.4569 15.572V17.462H12.0769V16.392C12.0769 16.252 12.0069 16.152 11.8769 16.072C11.7469 15.992 11.5969 15.952 11.4369 15.952C11.2769 15.952 11.1369 15.992 11.0269 16.072C10.9169 16.152 10.8669 16.252 10.8669 16.392V16.602C10.8669 16.602 10.9569 16.582 10.9969 16.582C11.1269 16.582 11.2369 16.622 11.3269 16.712C11.4069 16.802 11.4569 16.912 11.4569 17.052C11.4569 17.192 11.4169 17.292 11.3269 17.382C11.2369 17.472 11.1169 17.512 10.9769 17.512C10.8369 17.512 10.7169 17.472 10.6169 17.382C10.5269 17.292 10.4769 17.172 10.4769 17.032V16.392C10.4769 16.242 10.5169 16.112 10.5969 16.002C10.6769 15.892 10.7869 15.812 10.9369 15.752C11.0769 15.692 11.2369 15.662 11.4069 15.662C11.5269 15.662 11.6469 15.682 11.7669 15.722C11.8869 15.762 11.9869 15.822 12.0669 15.912V15.572C12.0669 15.432 12.0069 15.322 11.8869 15.242C11.7669 15.162 11.6069 15.122 11.3969 15.122C11.1869 15.122 11.0369 15.162 10.9069 15.242C10.7769 15.322 10.6969 15.432 10.6669 15.562H10.2969C10.3169 15.332 10.4269 15.152 10.6269 15.012C10.8269 14.872 11.0769 14.812 11.3969 14.812C11.7169 14.812 11.9769 14.882 12.1669 15.022L12.1769 15.002ZM11.1469 16.892C11.1469 16.892 11.0569 16.832 10.9969 16.832C10.9369 16.832 10.8769 16.852 10.8369 16.892C10.7969 16.932 10.7769 16.982 10.7769 17.042C10.7769 17.102 10.7969 17.152 10.8369 17.192C10.8769 17.232 10.9269 17.252 10.9969 17.252C11.0569 17.252 11.1069 17.232 11.1469 17.192C11.1869 17.152 11.2069 17.102 11.2069 17.042C11.2069 16.982 11.1869 16.932 11.1469 16.892Z" fill="#1D478D"/>
<path d="M12.0972 18.4617C12.0972 18.4617 12.0172 18.4817 11.9672 18.4817C11.8572 18.4817 11.7672 18.4517 11.6972 18.3817C11.6272 18.3117 11.5972 18.2217 11.5972 18.1117C11.5972 18.0017 11.6372 17.9117 11.7172 17.8417C11.7972 17.7717 11.8972 17.7417 12.0172 17.7417C12.1472 17.7417 12.2572 17.7817 12.3372 17.8517C12.4172 17.9217 12.4572 18.0117 12.4572 18.1217V18.9817H12.0972V18.4817V18.4617ZM12.0972 18.2217C12.0972 18.2217 12.1472 18.1517 12.1472 18.1017C12.1472 18.0517 12.1272 18.0117 12.0972 17.9817C12.0672 17.9517 12.0272 17.9317 11.9772 17.9317C11.9272 17.9317 11.8872 17.9517 11.8572 17.9817C11.8272 18.0117 11.8072 18.0517 11.8072 18.1017C11.8072 18.1517 11.8272 18.1917 11.8572 18.2217C11.8872 18.2517 11.9272 18.2717 11.9772 18.2717C12.0272 18.2717 12.0672 18.2517 12.0972 18.2217Z" fill="#1D478D"/>
<path d="M12.0469 13.3521H12.4069V14.3221H12.0469V13.3521Z" fill="#1D478D"/>
<path d="M15.257 14.8417V17.4617H14.897C14.767 17.3417 14.617 17.2417 14.457 17.1517C14.297 17.0617 14.147 16.9917 14.007 16.9517C14.007 16.9617 14.007 16.9817 14.007 17.0017C14.007 17.1517 13.957 17.2617 13.857 17.3617C13.757 17.4517 13.637 17.5017 13.487 17.5017C13.337 17.5017 13.217 17.4517 13.127 17.3617C13.037 17.2717 12.987 17.1517 12.987 17.0117C12.987 16.8717 13.037 16.7517 13.127 16.6617C13.217 16.5717 13.347 16.5317 13.497 16.5317C13.517 16.5317 13.537 16.5317 13.547 16.5317V15.6917C13.547 15.6917 13.457 15.7117 13.417 15.7117C13.287 15.7117 13.177 15.6717 13.087 15.5817C12.997 15.4917 12.957 15.3817 12.957 15.2417C12.957 15.1017 12.997 15.0017 13.087 14.9117C13.177 14.8217 13.297 14.7817 13.437 14.7817C13.577 14.7817 13.697 14.8217 13.797 14.9117C13.897 15.0017 13.937 15.1217 13.937 15.2617V16.5917C14.107 16.6417 14.277 16.7117 14.447 16.7917C14.617 16.8717 14.747 16.9617 14.867 17.0517V14.8417H15.257ZM13.277 15.4117C13.277 15.4117 13.367 15.4717 13.427 15.4717C13.487 15.4717 13.547 15.4517 13.587 15.4117C13.627 15.3717 13.647 15.3217 13.647 15.2617C13.647 15.2017 13.627 15.1517 13.587 15.1117C13.547 15.0717 13.497 15.0517 13.427 15.0517C13.357 15.0517 13.317 15.0717 13.277 15.1117C13.237 15.1517 13.217 15.2017 13.217 15.2617C13.217 15.3217 13.237 15.3717 13.277 15.4117ZM13.647 17.1817C13.647 17.1817 13.707 17.0817 13.707 17.0217C13.707 16.9617 13.687 16.9017 13.647 16.8617C13.607 16.8217 13.547 16.8017 13.487 16.8017C13.427 16.8017 13.367 16.8217 13.327 16.8617C13.287 16.9017 13.267 16.9517 13.267 17.0217C13.267 17.0917 13.287 17.1417 13.327 17.1817C13.367 17.2217 13.417 17.2417 13.487 17.2417C13.557 17.2417 13.607 17.2217 13.647 17.1817Z" fill="#1D478D"/>
<path d="M8.31715 29.9519C8.90715 29.5219 9.49715 29.0119 10.0871 28.4119C10.6771 27.8119 11.1771 27.1819 11.5871 26.5019C11.9971 25.8219 12.2071 25.1919 12.2071 24.5819C12.2071 24.1219 12.0771 23.7519 11.8071 23.4919C11.5371 23.2319 11.1871 23.0919 10.7271 23.0919C10.3171 23.0919 9.92715 23.1919 9.55715 23.3919C9.18715 23.5919 8.89715 23.8519 8.68715 24.1819L8.07715 23.5019C8.33715 23.0819 8.69715 22.7519 9.16715 22.5119C9.63715 22.2719 10.1671 22.1519 10.7271 22.1519C11.5371 22.1519 12.1771 22.3719 12.6471 22.8019C13.1171 23.2319 13.3471 23.8219 13.3471 24.5519C13.3471 25.4219 13.0071 26.3319 12.3171 27.2819C11.6271 28.2319 10.7871 29.1419 9.78715 30.0219H13.7271V30.9219H8.28715V29.9419L8.31715 29.9519Z" fill="#1D478D"/>
<path d="M18.657 29.442H14.687V28.482L18.407 22.272H19.787V28.502H20.767V29.442H19.787V30.922H18.647V29.442H18.657ZM18.657 28.502V23.592L15.727 28.502H18.657Z" fill="#1D478D"/>
<path d="M27.7971 23.8119V30.9319H26.8071C26.4571 30.6219 26.0571 30.3419 25.6171 30.1019C25.1771 29.8619 24.7671 29.6819 24.3971 29.5619C24.3971 29.5919 24.4071 29.6419 24.4071 29.7119C24.4071 30.1119 24.2771 30.4319 24.0171 30.6819C23.7571 30.9319 23.4171 31.0619 23.0171 31.0619C22.6171 31.0619 22.2871 30.9319 22.0371 30.6819C21.7871 30.4319 21.6571 30.1119 21.6571 29.7219C21.6571 29.3319 21.7871 29.0219 22.0371 28.7719C22.2871 28.5219 22.6271 28.4119 23.0371 28.4119C23.0971 28.4119 23.1371 28.4119 23.1771 28.4219V26.1519C23.0571 26.1919 22.9371 26.2119 22.8171 26.2119C22.4571 26.2119 22.1571 26.0919 21.9271 25.8619C21.6971 25.6219 21.5771 25.3219 21.5771 24.9419C21.5771 24.5619 21.6971 24.2819 21.9371 24.0419C22.1771 23.8119 22.4971 23.6919 22.8871 23.6919C23.2771 23.6919 23.6071 23.8119 23.8471 24.0519C24.0971 24.2919 24.2171 24.6119 24.2171 25.0019V28.6019C24.6871 28.7419 25.1471 28.9219 25.5871 29.1419C26.0271 29.3619 26.4171 29.5919 26.7371 29.8319V23.8119H27.7871H27.7971ZM22.4171 25.3619C22.5271 25.4719 22.6571 25.5319 22.8271 25.5319C22.9971 25.5319 23.1471 25.4719 23.2571 25.3619C23.3671 25.2519 23.4271 25.1119 23.4271 24.9519C23.4271 24.7919 23.3671 24.6519 23.2571 24.5419C23.1471 24.4319 23.0071 24.3719 22.8271 24.3719C22.6471 24.3719 22.5271 24.4319 22.4171 24.5419C22.3071 24.6519 22.2571 24.7919 22.2571 24.9519C22.2571 25.1119 22.3071 25.2519 22.4171 25.3619ZM23.4171 30.1719C23.5271 30.0619 23.5871 29.9119 23.5871 29.7319C23.5871 29.5519 23.5271 29.4119 23.4171 29.3019C23.2971 29.1919 23.1571 29.1319 22.9771 29.1319C22.7971 29.1319 22.6571 29.1919 22.5471 29.3019C22.4371 29.4119 22.3771 29.5519 22.3771 29.7319C22.3771 29.9119 22.4371 30.0619 22.5471 30.1719C22.6571 30.2819 22.7971 30.3419 22.9771 30.3419C23.1571 30.3419 23.3071 30.2819 23.4171 30.1719Z" fill="#1D478D"/>
<path d="M25.8171 22.1921C25.0371 22.0621 24.2871 22.0021 23.5471 22.0021C23.0371 22.0021 22.6071 22.0321 22.2471 22.0921C22.2871 21.4121 22.5471 20.8621 23.0271 20.4621C23.5071 20.0621 24.1271 19.8521 24.9071 19.8521C25.7671 19.8521 26.4571 20.1021 26.9771 20.6121C27.4971 21.1221 27.8071 21.8321 27.8871 22.7421C27.2871 22.5021 26.5971 22.3221 25.8171 22.1921ZM26.1271 20.8621C25.7771 20.6421 25.3671 20.5321 24.9071 20.5321C24.4971 20.5321 24.1371 20.6121 23.8471 20.7821C23.5471 20.9421 23.3571 21.1621 23.2571 21.4221C23.4171 21.4021 23.6571 21.4021 23.9971 21.4021C24.5171 21.4021 25.0371 21.4421 25.5671 21.5221C26.0971 21.6021 26.5571 21.7221 26.9471 21.8721C26.7571 21.4221 26.4871 21.0921 26.1271 20.8721V20.8621Z" fill="#1D478D"/>
<path d="M34.237 24.3619C34.727 24.8119 34.9771 25.4219 34.9771 26.1819V30.9319H33.937V26.2819C33.937 25.7519 33.7771 25.3319 33.4571 25.0119C33.1371 24.6919 32.707 24.5319 32.167 24.5319C31.727 24.5319 31.3271 24.6319 30.9771 24.8319C30.6271 25.0319 30.387 25.3119 30.257 25.6519C30.557 25.6819 30.837 25.7619 31.097 25.8719C31.357 25.9819 31.5671 26.1219 31.7071 26.2719V26.4919C31.3971 26.5819 31.147 26.7419 30.967 26.9719C30.787 27.2019 30.6971 27.4619 30.6971 27.7719V28.6119C30.8471 28.5819 30.967 28.5619 31.057 28.5619C31.427 28.5619 31.7271 28.6719 31.9571 28.9019C32.1871 29.1319 32.307 29.4319 32.307 29.8019C32.307 30.1719 32.1871 30.4719 31.9471 30.7019C31.7071 30.9319 31.3871 31.0519 30.9971 31.0519C30.6071 31.0519 30.2771 30.9319 30.0271 30.6919C29.7771 30.4519 29.6471 30.1319 29.6471 29.7419V27.8119C29.6471 27.5119 29.7271 27.2319 29.8871 26.9819C30.0471 26.7319 30.2671 26.5519 30.5471 26.4219C30.2171 26.3019 29.7771 26.2319 29.2271 26.2119C29.2571 25.7119 29.4071 25.2619 29.6671 24.8819C29.9271 24.5019 30.2771 24.2019 30.7171 23.9919C31.1571 23.7819 31.6671 23.6719 32.2271 23.6719C33.0571 23.6719 33.727 23.9019 34.217 24.3519L34.237 24.3619ZM31.4771 29.3919C31.3671 29.2819 31.2271 29.2319 31.0671 29.2319C30.9071 29.2319 30.7571 29.2819 30.6471 29.3919C30.5371 29.5019 30.4871 29.6319 30.4871 29.8019C30.4871 29.9719 30.5371 30.1119 30.6471 30.2219C30.7571 30.3319 30.8971 30.3819 31.0671 30.3819C31.2371 30.3819 31.3671 30.3319 31.4771 30.2219C31.5871 30.1119 31.647 29.9719 31.647 29.8019C31.647 29.6419 31.5871 29.5019 31.4771 29.3919Z" fill="#1D478D"/>
<path d="M34.017 33.6516C33.917 33.6816 33.797 33.7016 33.657 33.7016C33.357 33.7016 33.117 33.6116 32.927 33.4216C32.737 33.2316 32.647 32.9916 32.647 32.6916C32.647 32.3916 32.757 32.1516 32.977 31.9616C33.197 31.7716 33.467 31.6816 33.787 31.6816C34.147 31.6816 34.437 31.7816 34.657 31.9716C34.877 32.1616 34.987 32.4016 34.987 32.6916V35.0116H34.027V33.6516H34.017ZM33.997 33.0116C34.077 32.9316 34.117 32.8216 34.117 32.6916C34.117 32.5616 34.077 32.4516 33.997 32.3716C33.917 32.2916 33.807 32.2516 33.677 32.2516C33.547 32.2516 33.437 32.2916 33.357 32.3716C33.277 32.4516 33.237 32.5616 33.237 32.6916C33.237 32.8216 33.277 32.9316 33.357 33.0116C33.437 33.0916 33.547 33.1316 33.677 33.1316C33.807 33.1316 33.917 33.0916 33.997 33.0116Z" fill="#1D478D"/>
<path d="M42.9772 29.0616C43.1272 29.2616 43.1972 29.4816 43.1972 29.7316C43.1972 30.1316 43.0772 30.4516 42.8272 30.6916C42.5772 30.9316 42.2672 31.0516 41.8872 31.0516C41.5072 31.0516 41.2072 30.9316 40.9772 30.6916C40.7372 30.4516 40.6172 30.1416 40.6172 29.7616V29.7116C40.2772 29.8416 39.9572 30.0116 39.6372 30.2316C39.3272 30.4416 39.0772 30.6716 38.8872 30.9216H37.7872V26.1416C37.6672 26.1816 37.5472 26.2016 37.4272 26.2016C37.0672 26.2016 36.7672 26.0816 36.5272 25.8516C36.2872 25.6116 36.1772 25.3116 36.1772 24.9316C36.1772 24.5516 36.2972 24.2716 36.5472 24.0316C36.7972 23.8016 37.1072 23.6816 37.4872 23.6816C37.8672 23.6816 38.2072 23.8016 38.4572 24.0416C38.7072 24.2816 38.8372 24.6016 38.8372 24.9916V29.8816C39.0572 29.6416 39.5172 29.3616 40.2072 29.0316C40.6572 28.8216 40.9972 28.6316 41.2172 28.4716C41.4372 28.3116 41.5972 28.1516 41.6772 27.9916C41.7572 27.8316 41.7972 27.6316 41.7972 27.4016V23.7916H42.8472V27.4416C42.8472 27.7016 42.8072 27.9316 42.7272 28.1316C42.6472 28.3416 42.5272 28.5016 42.3672 28.6116C42.6272 28.7016 42.8272 28.8516 42.9772 29.0416V29.0616ZM37.0272 25.3616C37.1372 25.4716 37.2772 25.5316 37.4372 25.5316C37.5972 25.5316 37.7472 25.4716 37.8572 25.3616C37.9672 25.2516 38.0172 25.1116 38.0172 24.9516C38.0172 24.7916 37.9672 24.6516 37.8572 24.5416C37.7472 24.4316 37.6072 24.3716 37.4372 24.3716C37.2672 24.3716 37.1372 24.4316 37.0272 24.5416C36.9172 24.6516 36.8572 24.7916 36.8572 24.9516C36.8572 25.1116 36.9172 25.2516 37.0272 25.3616ZM42.3072 30.2116C42.4172 30.1016 42.4672 29.9616 42.4672 29.8016C42.4672 29.6416 42.4172 29.5016 42.3072 29.3916C42.1972 29.2816 42.0572 29.2216 41.8872 29.2216C41.7172 29.2216 41.5872 29.2816 41.4772 29.3916C41.3672 29.5016 41.3172 29.6416 41.3172 29.8016C41.3172 29.9616 41.3672 30.1016 41.4772 30.2116C41.5872 30.3216 41.7172 30.3816 41.8872 30.3816C42.0572 30.3816 42.1972 30.3216 42.3072 30.2116Z" fill="#1D478D"/>
<path d="M47.7972 25.6617C47.7972 25.3117 47.6872 25.0417 47.4572 24.8417C47.2272 24.6417 46.9172 24.5417 46.5272 24.5417C46.1372 24.5417 45.7872 24.6617 45.5372 24.8917C45.2872 25.1217 45.1672 25.4317 45.1672 25.8317H44.1372C44.1372 25.1717 44.3472 24.6517 44.7772 24.2717C45.2072 23.8917 45.7872 23.7017 46.5172 23.7017C47.2472 23.7017 47.7972 23.8817 48.2172 24.2317C48.6372 24.5817 48.8372 25.0617 48.8372 25.6617V30.9517H47.7872V25.6817L47.7972 25.6617Z" fill="#1D478D"/>
<path d="M12.067 38.042V43.412C12.067 43.742 11.917 44.002 11.627 44.182C11.337 44.372 10.927 44.462 10.397 44.462C9.86703 44.462 9.47703 44.372 9.17703 44.182C8.87703 43.992 8.72703 43.742 8.72703 43.412V41.362C8.64703 41.392 8.57703 41.402 8.49703 41.402C8.26703 41.402 8.07703 41.332 7.92703 41.182C7.77703 41.032 7.70703 40.842 7.70703 40.602C7.70703 40.362 7.78703 40.182 7.93703 40.032C8.08703 39.882 8.28703 39.812 8.52703 39.812C8.76703 39.812 8.97703 39.892 9.13703 40.042C9.29703 40.192 9.37703 40.392 9.37703 40.642V43.342C9.37703 43.522 9.46703 43.662 9.65703 43.772C9.83703 43.882 10.087 43.932 10.387 43.932C10.707 43.932 10.947 43.882 11.127 43.772C11.307 43.672 11.387 43.522 11.387 43.342V38.042H12.047H12.067ZM8.24703 40.872C8.31703 40.942 8.40703 40.982 8.50703 40.982C8.60703 40.982 8.70703 40.942 8.76703 40.872C8.82703 40.802 8.86703 40.712 8.86703 40.612C8.86703 40.512 8.83703 40.422 8.76703 40.352C8.69703 40.282 8.60703 40.242 8.50703 40.242C8.40703 40.242 8.31703 40.282 8.24703 40.352C8.17703 40.422 8.13703 40.512 8.13703 40.612C8.13703 40.712 8.17703 40.802 8.24703 40.872Z" fill="#1D478D"/>
<path d="M13.7772 40.482C13.6772 40.562 13.6272 40.682 13.6172 40.832C14.1972 40.902 14.6972 41.032 15.0972 41.212C15.5072 41.392 15.7072 41.622 15.7072 41.892V43.652C15.7072 43.892 15.6272 44.092 15.4672 44.252C15.3072 44.402 15.1072 44.482 14.8572 44.482C14.6072 44.482 14.4172 44.412 14.2572 44.262C14.1072 44.112 14.0272 43.922 14.0272 43.692C14.0272 43.462 14.0972 43.262 14.2472 43.112C14.3972 42.962 14.5872 42.892 14.8172 42.892C14.8872 42.892 14.9672 42.902 15.0472 42.932V41.992C15.0472 41.842 14.8572 41.712 14.4672 41.582C14.0772 41.452 13.5572 41.352 12.9072 41.262C12.9072 40.802 13.0172 40.452 13.2172 40.202C13.4172 39.952 13.6872 39.832 14.0372 39.832C14.1672 39.832 14.2972 39.842 14.4172 39.872C14.5372 39.902 14.6972 39.942 14.9072 39.992C15.1272 40.062 15.2772 40.092 15.3472 40.092C15.4072 40.092 15.4672 40.062 15.5172 40.012C15.5672 39.962 15.6072 39.892 15.6272 39.792L16.1272 39.932C16.0672 40.152 15.9772 40.322 15.8572 40.442C15.7372 40.562 15.5972 40.622 15.4472 40.622C15.3772 40.622 15.2772 40.612 15.1672 40.582C15.0572 40.552 14.9372 40.532 14.8172 40.492C14.7872 40.482 14.6872 40.452 14.5372 40.422C14.3772 40.382 14.2472 40.362 14.1372 40.362C14.0072 40.362 13.8972 40.402 13.7972 40.482H13.7772ZM15.0972 43.942C15.1672 43.872 15.1972 43.782 15.1972 43.682C15.1972 43.582 15.1672 43.492 15.0972 43.422C15.0272 43.352 14.9372 43.312 14.8272 43.312C14.7172 43.312 14.6272 43.342 14.5572 43.422C14.4872 43.492 14.4572 43.582 14.4572 43.682C14.4572 43.782 14.4872 43.872 14.5572 43.942C14.6272 44.012 14.7172 44.052 14.8272 44.052C14.9372 44.052 15.0272 44.022 15.0972 43.942Z" fill="#1D478D"/>
<path d="M17.5169 41.7319C17.2869 41.6419 17.1069 41.5219 16.9769 41.3719C16.8469 41.2119 16.7769 41.0319 16.7769 40.8319C16.7769 40.6019 16.8569 40.4019 17.0169 40.2519C17.1769 40.1019 17.3769 40.0219 17.6069 40.0219C17.8369 40.0219 18.0269 40.1019 18.1869 40.2519C18.3469 40.4019 18.4169 40.6019 18.4169 40.8319C18.4169 41.0419 18.3369 41.2219 18.1669 41.3519C18.1969 41.3519 18.2369 41.3519 18.2769 41.3519C18.6469 41.3519 18.9369 41.2319 19.1369 40.9919C19.3369 40.7519 19.4469 40.4119 19.4569 39.9819H20.1169C20.1069 40.3419 20.0269 40.6619 19.8869 40.9419C19.7469 41.2219 19.5369 41.4519 19.2669 41.6119C18.9969 41.7719 18.6669 41.8519 18.2869 41.8519C18.0069 41.8519 17.7569 41.8119 17.5369 41.7219L17.5169 41.7319ZM17.5169 44.1119C17.2869 44.0219 17.1069 43.9019 16.9769 43.7519C16.8469 43.5919 16.7769 43.4119 16.7769 43.2119C16.7769 42.9819 16.8569 42.7819 17.0169 42.6319C17.1769 42.4819 17.3769 42.4019 17.6069 42.4019C17.8369 42.4019 18.0269 42.4819 18.1869 42.6319C18.3469 42.7819 18.4169 42.9819 18.4169 43.2119C18.4169 43.4219 18.3369 43.6019 18.1669 43.7319C18.1969 43.7319 18.2369 43.7319 18.2769 43.7319C18.6569 43.7119 18.9469 43.5919 19.1469 43.3519C19.3469 43.1119 19.4469 42.7819 19.4569 42.3519H20.1169C20.1069 42.7119 20.0269 43.0319 19.8869 43.3119C19.7469 43.5919 19.5369 43.8219 19.2669 43.9819C18.9969 44.1419 18.6669 44.2219 18.2869 44.2219C18.0069 44.2219 17.7569 44.1819 17.5369 44.0919L17.5169 44.1119ZM17.8469 41.0519C17.9069 40.9919 17.9369 40.9019 17.9369 40.8019C17.9369 40.6919 17.9069 40.6019 17.8469 40.5419C17.7869 40.4819 17.6969 40.4519 17.5869 40.4519C17.4769 40.4519 17.3969 40.4819 17.3369 40.5419C17.2769 40.6019 17.2469 40.6919 17.2469 40.8019C17.2469 40.9119 17.2769 40.9919 17.3369 41.0519C17.3969 41.1119 17.4869 41.1419 17.5869 41.1419C17.6869 41.1419 17.7869 41.1119 17.8469 41.0519ZM17.8469 43.4419C17.9069 43.3719 17.9369 43.2919 17.9369 43.1919C17.9369 43.0919 17.9069 43.0019 17.8469 42.9419C17.7869 42.8819 17.6969 42.8419 17.5869 42.8419C17.4769 42.8419 17.3969 42.8719 17.3369 42.9419C17.2769 43.0119 17.2469 43.0919 17.2469 43.1919C17.2469 43.2919 17.2769 43.3819 17.3369 43.4419C17.3969 43.5119 17.4869 43.5419 17.5869 43.5419C17.6869 43.5419 17.7869 43.5119 17.8469 43.4419Z" fill="#1D478D"/>
<path d="M24.7468 41.6018V43.3718C24.7468 43.7218 24.6368 43.9918 24.4068 44.1818C24.1768 44.3718 23.8568 44.4718 23.4468 44.4718C23.0368 44.4718 22.7168 44.3718 22.4868 44.1818C22.2568 43.9918 22.1468 43.7218 22.1468 43.3618V42.4918C22.1468 42.3518 22.1668 42.2218 22.2168 42.1218C22.2668 42.0118 22.3368 41.8718 22.4368 41.7118C22.5368 41.5618 22.6168 41.4218 22.6668 41.3018C22.7168 41.1818 22.7468 41.0418 22.7468 40.9018C22.7468 40.6918 22.6768 40.5418 22.5468 40.4418C22.4168 40.3418 22.2468 40.2918 22.0368 40.2918C21.7868 40.2918 21.5868 40.3518 21.4368 40.4818C21.4668 40.4818 21.5068 40.4818 21.5668 40.4818C21.7668 40.4818 21.9368 40.5518 22.0668 40.6818C22.1968 40.8118 22.2668 40.9918 22.2668 41.2118C22.2668 41.4318 22.1968 41.6018 22.0668 41.7418C21.9268 41.8818 21.7468 41.9518 21.5168 41.9518C21.2668 41.9518 21.0768 41.8718 20.9268 41.7018C20.7868 41.5418 20.7168 41.3218 20.7168 41.0418C20.7168 40.6918 20.8368 40.4018 21.0768 40.1718C21.3168 39.9418 21.6468 39.8218 22.0668 39.8218C22.4468 39.8218 22.7468 39.9118 22.9768 40.0918C23.2068 40.2718 23.3268 40.5318 23.3268 40.8718C23.3268 41.0518 23.3068 41.2018 23.2568 41.3418C23.2068 41.4818 23.1368 41.6218 23.0468 41.7918C22.9668 41.9418 22.9068 42.0618 22.8668 42.1718C22.8268 42.2818 22.8068 42.4018 22.8068 42.5318V43.4118C22.8068 43.5818 22.8668 43.7118 22.9768 43.8018C23.0868 43.8918 23.2468 43.9418 23.4468 43.9418C23.6468 43.9418 23.8068 43.8918 23.9168 43.8018C24.0268 43.7118 24.0768 43.5818 24.0768 43.4118V41.6318C24.0768 41.4718 24.0468 41.3418 23.9768 41.2518C23.9068 41.1618 23.7968 41.0818 23.6368 41.0318V40.6618C23.8368 40.5718 23.9968 40.4418 24.0968 40.2818C24.1968 40.1218 24.2568 39.9018 24.2768 39.6318H24.9668C24.9468 39.9118 24.8668 40.1518 24.7368 40.3718C24.5968 40.5918 24.4568 40.7418 24.2968 40.8318C24.6068 40.9518 24.7568 41.2118 24.7568 41.6118L24.7468 41.6018ZM21.7868 40.9518C21.7168 40.8918 21.6368 40.8618 21.5368 40.8618C21.4368 40.8618 21.3468 40.8918 21.2868 40.9518C21.2168 41.0118 21.1868 41.1018 21.1868 41.2018C21.1868 41.3018 21.2168 41.3918 21.2868 41.4518C21.3568 41.5218 21.4368 41.5518 21.5368 41.5518C21.6368 41.5518 21.7268 41.5218 21.7868 41.4518C21.8568 41.3818 21.8868 41.3018 21.8868 41.2018C21.8868 41.1018 21.8568 41.0118 21.7868 40.9518Z" fill="#1D478D"/>
<path d="M27.8669 41.0718C27.8669 40.8518 27.7969 40.6818 27.6569 40.5518C27.5169 40.4218 27.3169 40.3618 27.0669 40.3618C26.8169 40.3618 26.5969 40.4318 26.4469 40.5818C26.2869 40.7318 26.2169 40.9218 26.2169 41.1718H25.5669C25.5669 40.7518 25.6969 40.4218 25.9769 40.1818C26.2469 39.9418 26.6169 39.8218 27.0769 39.8218C27.5369 39.8218 27.8869 39.9318 28.1469 40.1518C28.4069 40.3718 28.5369 40.6718 28.5369 41.0518V44.3918H27.8769V41.0618L27.8669 41.0718Z" fill="#1D478D"/>
<path d="M30.107 44.2018C29.837 44.0218 29.6971 43.7818 29.6971 43.4618V41.8518H30.357V43.4518C30.357 43.6018 30.4371 43.7218 30.5871 43.8018C30.7371 43.8818 30.957 43.9218 31.237 43.9218C31.517 43.9218 31.7271 43.8818 31.8771 43.8018C32.0271 43.7218 32.1071 43.6018 32.1071 43.4518V42.1118C32.1071 42.0018 32.0771 41.9118 31.9971 41.8318C31.9271 41.7518 31.7971 41.6918 31.6071 41.6318C31.3871 41.5618 31.0771 41.4918 30.6571 41.4218C30.2471 41.3418 29.8471 41.2918 29.4771 41.2618C29.4771 40.8018 29.5971 40.4518 29.8371 40.1918C30.0671 39.9418 30.3771 39.8118 30.7471 39.8118C30.8771 39.8118 31.017 39.8218 31.167 39.8518C31.317 39.8818 31.4871 39.9218 31.6971 39.9818C31.7171 39.9818 31.7971 40.0018 31.9271 40.0418C32.0571 40.0818 32.1571 40.0918 32.2271 40.0918C32.4071 40.0918 32.5171 39.9918 32.5671 39.8018L33.057 39.9218C32.997 40.1418 32.897 40.3218 32.7771 40.4318C32.647 40.5518 32.4971 40.6118 32.3171 40.6118C32.1771 40.6118 31.937 40.5718 31.597 40.4818C31.567 40.4818 31.4571 40.4518 31.2771 40.4118C31.097 40.3718 30.9471 40.3518 30.8371 40.3518C30.6771 40.3518 30.547 40.3918 30.437 40.4718C30.327 40.5518 30.2571 40.6718 30.2371 40.8118C30.6071 40.8518 30.9671 40.9118 31.3171 40.9918C31.6671 41.0718 31.9371 41.1418 32.1271 41.2118C32.5571 41.3818 32.7671 41.6218 32.7671 41.9518V43.4518C32.7671 43.7718 32.6371 44.0118 32.3571 44.1918C32.0871 44.3718 31.707 44.4618 31.237 44.4618C30.767 44.4618 30.3871 44.3718 30.1171 44.1918L30.107 44.2018Z" fill="#1D478D"/>
<path d="M31.5068 38.8819C31.0168 38.8019 30.5368 38.7619 30.0768 38.7619C29.7568 38.7619 29.4768 38.7819 29.2568 38.8119C29.2868 38.3819 29.4468 38.0319 29.7468 37.7819C30.0468 37.5319 30.4468 37.4019 30.9368 37.4019C31.4768 37.4019 31.9168 37.5619 32.2468 37.8819C32.5768 38.2019 32.7668 38.6519 32.8168 39.2319C32.4368 39.0819 31.9968 38.9619 31.5068 38.8819ZM31.7068 38.0419C31.4868 37.9019 31.2268 37.8319 30.9368 37.8319C30.6768 37.8319 30.4568 37.8819 30.2668 37.9919C30.0768 38.0919 29.9568 38.2319 29.8868 38.4019C29.9868 38.3919 30.1468 38.3819 30.3568 38.3819C30.6868 38.3819 31.0168 38.4119 31.3468 38.4619C31.6768 38.5119 31.9668 38.5819 32.2168 38.6819C32.0968 38.4019 31.9268 38.1919 31.6968 38.0519L31.7068 38.0419Z" fill="#1D478D"/>
<path d="M37.8771 38.042V43.412C37.8771 43.742 37.7271 44.002 37.4371 44.182C37.1471 44.372 36.7371 44.462 36.2071 44.462C35.6771 44.462 35.2871 44.372 34.9871 44.182C34.6871 43.992 34.5371 43.742 34.5371 43.412V41.362C34.4571 41.392 34.3871 41.402 34.3071 41.402C34.0771 41.402 33.8871 41.332 33.7371 41.182C33.5871 41.032 33.5171 40.842 33.5171 40.602C33.5171 40.362 33.5971 40.182 33.7471 40.032C33.8971 39.882 34.0971 39.812 34.3371 39.812C34.5771 39.812 34.7871 39.892 34.9471 40.042C35.1071 40.192 35.1871 40.392 35.1871 40.642V43.342C35.1871 43.522 35.2771 43.662 35.4671 43.772C35.6471 43.882 35.8971 43.932 36.1971 43.932C36.5171 43.932 36.7571 43.882 36.9371 43.772C37.1171 43.672 37.1971 43.522 37.1971 43.342V38.042H37.8571H37.8771ZM34.0571 40.872C34.1271 40.942 34.2171 40.982 34.3171 40.982C34.4171 40.982 34.5171 40.942 34.5771 40.872C34.6371 40.802 34.6771 40.712 34.6771 40.612C34.6771 40.512 34.6471 40.422 34.5771 40.352C34.5071 40.282 34.4171 40.242 34.3171 40.242C34.2171 40.242 34.1271 40.282 34.0571 40.352C33.9871 40.422 33.9471 40.512 33.9471 40.612C33.9471 40.712 33.9871 40.802 34.0571 40.872Z" fill="#1D478D"/>
<path d="M41.0873 43.1019C41.2373 43.2519 41.3073 43.4419 41.3073 43.6819C41.3073 43.9219 41.2273 44.1019 41.0773 44.2519C40.9173 44.4019 40.7273 44.4719 40.4873 44.4719C40.2473 44.4719 40.0373 44.3919 39.8773 44.2419C39.7173 44.0919 39.6373 43.8919 39.6373 43.6419V37.6019L38.7673 38.8019L38.2373 38.6119C38.2173 38.1719 38.1173 37.5119 37.9473 36.6519H38.4773C38.5973 37.1919 38.6673 37.6919 38.6973 38.1619L39.6773 36.7719H40.2973V42.9119C40.3773 42.8819 40.4473 42.8719 40.5273 42.8719C40.7573 42.8719 40.9473 42.9519 41.0973 43.1019H41.0873ZM40.7773 43.9319C40.8473 43.8619 40.8873 43.7719 40.8873 43.6719C40.8873 43.5719 40.8473 43.4819 40.7773 43.4119C40.7073 43.3419 40.6173 43.3019 40.5173 43.3019C40.4173 43.3019 40.3173 43.3319 40.2573 43.4119C40.1873 43.4819 40.1573 43.5719 40.1573 43.6719C40.1573 43.7719 40.1873 43.8619 40.2573 43.9319C40.3273 44.0019 40.4173 44.0419 40.5173 44.0419C40.6173 44.0419 40.7073 44.0119 40.7773 43.9319Z" fill="#1D478D"/>
<path d="M45.3569 40.322C45.5569 40.602 45.6569 40.952 45.6569 41.372V44.392H44.9969V41.402C44.9969 41.142 44.9669 40.942 44.8969 40.782C44.8269 40.622 44.7169 40.492 44.5669 40.392L43.7769 40.982L42.9569 40.382C42.7869 40.492 42.6669 40.632 42.5869 40.802C42.5069 40.972 42.4669 41.192 42.4669 41.442C42.4669 41.552 42.4769 41.682 42.5069 41.822C42.5369 41.962 42.5769 42.132 42.6369 42.342C42.6869 42.542 42.7269 42.712 42.7569 42.842C42.7869 42.972 42.7969 43.092 42.7969 43.202V43.452C42.8769 43.342 42.9669 43.232 43.0769 43.132C43.1869 43.032 43.3669 42.872 43.6169 42.652C43.4469 42.632 43.3069 42.562 43.1969 42.442C43.0869 42.322 43.0369 42.172 43.0369 41.992C43.0369 41.792 43.1069 41.632 43.2369 41.502C43.3669 41.372 43.5369 41.302 43.7469 41.302C43.9569 41.302 44.1169 41.372 44.2569 41.502C44.3969 41.632 44.4569 41.802 44.4569 42.012C44.4569 42.202 44.3969 42.382 44.2669 42.542C44.1369 42.702 43.9469 42.902 43.6869 43.132C43.4169 43.372 43.2069 43.592 43.0669 43.772C42.9269 43.952 42.8369 44.162 42.8169 44.392H42.1569V43.302C42.1569 43.192 42.1069 42.942 42.0069 42.552C41.9369 42.312 41.8869 42.092 41.8469 41.922C41.8069 41.742 41.7969 41.582 41.7969 41.442C41.7969 41.022 41.8969 40.672 42.1069 40.372C42.3169 40.072 42.6069 39.892 42.9869 39.812L43.7469 40.412L44.5169 39.812C44.8569 39.862 45.1269 40.032 45.3269 40.312L45.3569 40.322ZM43.5269 42.232C43.5869 42.292 43.6669 42.322 43.7669 42.322C43.8669 42.322 43.9469 42.292 44.0069 42.232C44.0669 42.172 44.0969 42.092 44.0969 41.992C44.0969 41.902 44.0669 41.822 44.0069 41.762C43.9469 41.702 43.8669 41.672 43.7669 41.672C43.6669 41.672 43.5869 41.702 43.5269 41.762C43.4669 41.822 43.4369 41.902 43.4369 41.992C43.4369 42.092 43.4669 42.172 43.5269 42.232Z" fill="#1D478D"/>
<path d="M50.127 39.892V43.312C50.127 43.672 49.977 43.952 49.667 44.162C49.367 44.372 48.947 44.472 48.427 44.472C47.907 44.472 47.487 44.372 47.177 44.162C46.877 43.952 46.717 43.672 46.717 43.312V42.802C46.717 42.632 46.757 42.472 46.847 42.342C46.937 42.202 47.067 42.092 47.227 42.022C47.027 41.932 46.887 41.792 46.787 41.592C46.687 41.392 46.647 41.182 46.647 40.942C46.647 40.602 46.737 40.332 46.917 40.132C47.097 39.932 47.337 39.832 47.637 39.832C47.877 39.832 48.067 39.902 48.207 40.032C48.347 40.162 48.417 40.332 48.417 40.552C48.417 40.772 48.347 40.932 48.217 41.062C48.087 41.192 47.907 41.252 47.687 41.252C47.507 41.252 47.367 41.212 47.267 41.132C47.267 41.322 47.327 41.472 47.447 41.592C47.557 41.712 47.697 41.772 47.857 41.772H48.587V42.302H47.847C47.707 42.302 47.597 42.352 47.507 42.442C47.417 42.532 47.377 42.662 47.377 42.822V43.292C47.377 43.502 47.467 43.662 47.657 43.782C47.837 43.902 48.097 43.962 48.417 43.962C48.737 43.962 48.997 43.902 49.177 43.782C49.357 43.662 49.457 43.502 49.457 43.292V39.922H50.117L50.127 39.892ZM47.437 40.272C47.367 40.332 47.337 40.422 47.337 40.522C47.337 40.622 47.367 40.702 47.437 40.772C47.507 40.842 47.587 40.872 47.687 40.872C47.787 40.872 47.877 40.842 47.937 40.772C47.997 40.702 48.027 40.622 48.027 40.522C48.027 40.422 47.997 40.332 47.937 40.272C47.877 40.212 47.787 40.182 47.687 40.182C47.587 40.182 47.507 40.212 47.437 40.272Z" fill="#1D478D"/>
</svg>
