<svg width="59" height="59" viewBox="0 0 59 59" fill="none" xmlns="http://www.w3.org/2000/svg">
<rect x="0.834473" y="0.50293" width="57.8345" height="57.8345" rx="4" fill="white"/>
<path d="M50.2566 24.8501C50.2566 31.5501 50.2566 38.2401 50.2566 44.9401C50.2566 45.0901 50.2366 45.1401 50.0666 45.1401C36.5266 45.1401 22.9766 45.1401 9.43658 45.1401C9.26658 45.1401 9.24658 45.0901 9.24658 44.9401C9.24658 38.2401 9.24658 31.5501 9.24658 24.8501C12.2566 24.8501 15.2766 24.8501 18.2866 24.8501C18.4166 24.8501 18.5466 24.8801 18.6666 24.8201C18.7866 24.8701 18.9066 24.8701 19.0266 24.8201C19.1466 24.8701 19.2766 24.8501 19.4066 24.8501C19.7066 24.8501 19.7066 24.8501 19.7066 24.5601C19.7066 21.7901 19.7066 19.0301 19.7066 16.2601C19.7066 15.8801 19.7066 15.4901 19.7066 15.1101C19.7066 15.1701 19.7066 15.2401 19.7066 15.3001C19.7066 18.3701 19.7066 21.4401 19.7066 24.5101C19.7066 24.5601 19.7066 24.6101 19.7066 24.6601C19.6966 24.7901 19.7566 24.8301 19.8866 24.8301C20.0866 24.8301 20.2866 24.8001 20.4766 24.8601C20.3466 24.8601 20.3466 24.9401 20.3466 25.0501C20.3466 28.4001 20.3466 31.7401 20.3466 35.0901C20.3466 35.2501 20.3966 35.2801 20.5466 35.2801C20.9566 35.2801 21.3566 35.2701 21.7666 35.2801C21.9766 35.2801 22.0266 35.2201 22.0266 35.0201C22.0266 33.8901 22.0266 32.7601 22.0266 31.6201C22.0266 31.3101 22.0266 30.9901 22.0666 30.6801C22.2066 29.4901 23.1266 28.8001 24.3066 29.0001C24.7666 29.0801 25.0866 29.3301 25.2066 29.7901C25.2566 29.9801 25.2766 30.1801 25.2666 30.3801C25.2666 31.9301 25.2666 33.4801 25.2666 35.0301C25.2666 35.2201 25.3266 35.2801 25.5066 35.2701C25.8966 35.2601 26.2866 35.2601 26.6766 35.2701C26.8666 35.2701 26.9166 35.2101 26.9166 35.0301C26.9166 33.4801 26.9166 31.9301 26.9166 30.3801C26.9166 30.1001 26.8966 29.8101 26.8466 29.5301C26.7366 28.9101 26.4766 28.3501 25.9066 28.0201C24.9566 27.4701 23.9366 27.4301 22.9066 27.7701C22.5866 27.8801 22.3066 28.0701 22.0266 28.3501C22.0266 28.2001 22.0266 28.1001 22.0266 28.0001C22.0266 27.0201 22.0266 26.0501 22.0266 25.0701C22.0266 24.9101 21.9866 24.8601 21.8266 24.8601C21.4666 24.8601 21.1066 24.8601 20.7366 24.8601C21.0866 24.8601 21.4466 24.8401 21.7966 24.8601C21.9866 24.8601 22.0366 24.7901 22.0366 24.6101C22.0366 23.8101 22.0366 23.0001 22.0366 22.2001C22.0366 21.1901 22.0366 20.1801 22.0366 19.1701C22.0366 19.1201 21.9766 19.0301 22.0966 19.0101C22.0266 19.0601 22.0466 19.1401 22.0466 19.2101C22.0466 21.0201 22.0466 22.8401 22.0466 24.6501C22.0466 24.8001 22.0866 24.8501 22.2366 24.8401C23.2366 24.8401 24.2266 24.8401 25.2266 24.8401C25.2966 24.8401 25.3766 24.8701 25.4066 24.7701C25.4666 24.8201 25.5266 24.8301 25.6066 24.8301C26.2466 24.8301 26.8866 24.8301 27.5366 24.8201C27.6566 24.8201 27.7766 24.8601 27.8966 24.8101C28.3066 24.8801 28.7266 24.8301 29.1366 24.8401C29.2566 24.8401 29.2366 24.7501 29.2466 24.6801C29.2466 24.8101 29.3166 24.8401 29.4366 24.8401C29.7866 24.8401 30.1466 24.8401 30.4966 24.8401C30.7566 24.8401 31.0166 24.8401 31.2766 24.8301C31.3266 24.8601 31.3866 24.8601 31.4466 24.8601C32.5166 24.8601 33.5766 24.8601 34.6466 24.8601C34.8466 24.8601 34.8766 24.7901 34.8766 24.6101C34.8766 22.1401 34.8766 19.6601 34.8766 17.1901C34.8766 19.7301 34.8766 22.2801 34.8766 24.8301C34.8166 24.9501 34.8266 25.0901 34.8266 25.2201C34.8266 28.4201 34.8266 31.6101 34.8266 34.8101C34.8266 34.9201 34.8266 35.0201 34.8266 35.1301C34.8266 35.2501 34.8766 35.2901 34.9866 35.2901C35.4366 35.2901 35.8866 35.2901 36.3366 35.2901C36.4566 35.2901 36.4966 35.2401 36.4966 35.1301C36.4966 34.9601 36.4966 34.8001 36.4966 34.6101C37.4366 35.3101 37.7766 35.4601 38.6566 35.4601C40.0766 35.4601 41.1866 34.9101 41.8166 33.5901C42.3666 32.4601 42.4066 31.2901 42.0666 30.0801C41.5566 28.3001 39.9766 27.3901 38.2466 27.6101C37.5866 27.6901 37.0166 27.9601 36.5266 28.4201C36.4666 28.3301 36.4966 28.2401 36.4966 28.1601C36.4966 27.1401 36.4966 26.1201 36.4966 25.1101C36.4966 24.9301 36.4466 24.8601 36.2666 24.8901C36.2366 24.8901 36.2066 24.8901 36.1866 24.8801C36.4266 24.8601 36.6666 24.8501 36.9066 24.8301C36.9566 24.8801 37.0266 24.8601 37.0866 24.8601C38.1466 24.8601 39.2166 24.8601 40.2766 24.8601C40.3366 24.8601 40.4066 24.8601 40.4566 24.8301C40.8966 24.8301 41.3466 24.8401 41.7866 24.8401C42.0166 24.8401 42.2566 24.8901 42.4866 24.8301C42.5766 24.8901 42.6766 24.8601 42.7766 24.8601C45.2666 24.8601 47.7566 24.8601 50.2466 24.8601L50.2566 24.8501ZM32.5366 34.6701C32.5366 34.8101 32.5366 34.9501 32.5366 35.0801C32.5366 35.2201 32.5766 35.2701 32.7166 35.2701C33.1266 35.2701 33.5266 35.2701 33.9366 35.2701C34.0766 35.2701 34.1266 35.2301 34.1266 35.0901C34.1266 32.6901 34.1266 30.2901 34.1266 27.8901C34.1266 27.7501 34.0766 27.7101 33.9466 27.7101C33.5366 27.7101 33.1166 27.7201 32.7066 27.7101C32.5366 27.7101 32.4966 27.7601 32.4966 27.9301C32.4966 29.1901 32.4966 30.4501 32.4966 31.7101C32.4966 31.9101 32.4966 32.1101 32.4666 32.3101C32.3766 33.1301 31.8966 33.7201 31.1566 33.9201C30.7966 34.0201 30.4266 34.0201 30.0566 33.9201C29.5266 33.7901 29.2466 33.4001 29.2466 32.7901C29.2466 31.8901 29.2466 30.9801 29.2466 30.0801C29.2466 29.3801 29.2466 28.6701 29.2466 27.9701C29.2466 27.7701 29.2166 27.6901 28.9966 27.7101C28.6166 27.7301 28.2466 27.7101 27.8666 27.7101C27.6799 27.7101 27.5866 27.8001 27.5866 27.9801C27.5866 29.4501 27.5866 30.9301 27.5866 32.4001C27.5866 32.8301 27.6066 33.2501 27.7166 33.6701C27.9166 34.4001 28.3166 34.9701 29.0566 35.2101C30.2966 35.6201 31.4766 35.5201 32.5566 34.6601L32.5366 34.6701Z" fill="#1D478D"/>
<path d="M19.7166 15.1199C19.6766 14.9199 19.7666 14.8699 19.9566 14.8699C20.4866 14.8799 21.0066 14.8599 21.5366 14.8799C21.7466 14.8899 21.9666 14.9599 22.0966 15.1699C23.3066 17.1599 24.5166 19.1599 25.7366 21.1499C25.7666 21.1999 25.7966 21.2599 25.8266 21.3199C25.9066 21.2699 25.8666 21.1999 25.8666 21.1399C25.8666 19.1699 25.8666 17.1999 25.8666 15.2299C25.8666 14.9799 25.9766 14.8699 26.2166 14.8699C26.6666 14.8699 27.1166 14.8699 27.5566 14.8699C27.7566 14.8699 27.8466 14.9699 27.8866 15.1299C27.8866 18.2899 27.8866 21.4499 27.8866 24.6099C27.8866 24.6799 27.8866 24.7399 27.8866 24.8099C27.7666 24.8599 27.6466 24.8199 27.5266 24.8199C26.8866 24.8199 26.2466 24.8199 25.5966 24.8299C25.5266 24.8299 25.4566 24.8299 25.3966 24.7699C25.3866 24.7499 25.3666 24.7199 25.3566 24.6999C25.3566 24.6999 25.3366 24.6599 25.3266 24.6499C24.8666 23.8499 24.4066 23.0599 23.9466 22.2599C23.3266 21.1799 22.7066 20.0999 22.0866 19.0199C21.9666 19.0399 22.0266 19.1299 22.0266 19.1799C22.0266 20.1899 22.0266 21.1999 22.0266 22.2099C22.0266 23.0099 22.0266 23.8199 22.0266 24.6199C22.0266 24.7999 21.9766 24.8699 21.7866 24.8699C21.4366 24.8599 21.0766 24.8699 20.7266 24.8699C20.6466 24.8699 20.5566 24.8699 20.4766 24.8699C20.2766 24.8099 20.0766 24.8399 19.8866 24.8399C19.7566 24.8399 19.6966 24.7999 19.7066 24.6699C19.7066 24.6199 19.7066 24.5699 19.7066 24.5199C19.7066 21.4499 19.7066 18.3799 19.7066 15.3099C19.7066 15.2499 19.7066 15.1799 19.7066 15.1199H19.7166Z" fill="#1D478D"/>
<path d="M35.0065 24.8702C35.0065 24.8702 34.9065 24.8803 34.8765 24.8203C34.8765 22.2703 34.8765 19.7302 34.8765 17.1802C34.8765 17.0902 34.8765 16.9902 34.8765 16.9002V16.8802C34.8165 16.7802 34.7265 16.8203 34.6465 16.8203C33.8865 16.8203 33.1265 16.8203 32.3665 16.8203C32.1865 16.8203 32.1465 16.7702 32.1465 16.5902C32.1565 16.1202 32.1465 15.6502 32.1465 15.1802C32.1465 15.0502 32.1665 15.0002 32.3165 15.0002C34.6965 15.0002 37.0665 15.0002 39.4465 15.0002C39.5965 15.0002 39.6265 15.0502 39.6265 15.1802C39.6265 15.6602 39.6265 16.1302 39.6265 16.6102C39.6265 16.7702 39.5865 16.8102 39.4265 16.8102C38.6465 16.8102 37.8765 16.8102 37.0965 16.8102C36.9865 16.8102 36.8965 16.8102 36.9065 16.9602C36.9065 19.5102 36.9065 22.0503 36.9065 24.6003C36.9065 24.6702 36.9065 24.7402 36.9065 24.8002C36.6665 24.8202 36.4265 24.8302 36.1865 24.8503C36.1065 24.8503 36.0265 24.8503 35.9465 24.8503C35.7165 24.8302 35.4965 24.8302 35.2665 24.8503C35.2065 24.8503 35.1465 24.8503 35.0965 24.8503C35.0665 24.8302 35.0365 24.8302 35.0065 24.8503V24.8702Z" fill="#1D478D"/>
<path d="M40.4668 24.7103C40.4668 21.6803 40.4668 18.6403 40.4668 15.6103C40.4668 15.4303 40.4668 15.2403 40.4668 15.0603C40.5068 15.0103 40.5668 15.0203 40.6268 15.0203C41.1868 15.0203 41.7568 15.0203 42.3168 15.0203C42.4068 15.0203 42.5168 14.9903 42.5168 15.1403C42.5168 16.5203 42.5168 17.9003 42.5168 19.2703C42.5168 21.0503 42.5168 22.8403 42.5168 24.6203C42.5168 24.6903 42.5168 24.7503 42.5168 24.8203C42.2868 24.8803 42.0568 24.8303 41.8168 24.8303C41.3768 24.8303 40.9268 24.8303 40.4868 24.8203C40.4868 24.7803 40.4868 24.7403 40.4868 24.7003L40.4668 24.7103Z" fill="#1D478D"/>
<path d="M31.2766 24.62C31.2766 24.69 31.2766 24.76 31.2766 24.82C31.0166 24.82 30.7566 24.82 30.4966 24.83C30.1466 24.83 29.7866 24.83 29.4366 24.83C29.3166 24.83 29.2466 24.8 29.2466 24.67C29.2466 21.53 29.2466 18.38 29.2466 15.24C29.2466 15.04 29.3066 14.99 29.4966 15C30.0266 15.01 30.5666 15 31.0966 15C31.2266 15 31.3066 15.02 31.2866 15.17C31.2866 18.31 31.2866 21.46 31.2866 24.61L31.2766 24.62Z" fill="#1D478D"/>
<path d="M18.6768 24.8199C18.6368 24.7399 18.5968 24.6699 18.5668 24.5899C18.5268 24.4999 18.4668 24.4298 18.6168 24.3598C18.7568 24.2998 18.7968 24.3398 18.8468 24.4598C18.8968 24.5798 18.9668 24.6999 19.0368 24.8199C18.9168 24.8699 18.7968 24.8699 18.6768 24.8199Z" fill="#1D478D"/>
<path d="M18.7965 23.3603C18.7765 23.4803 18.7265 23.5703 18.6065 23.6203C18.4565 23.6803 18.3065 23.7503 18.1565 23.8103C17.9465 23.8903 17.8465 23.8603 17.7465 23.6503C17.3665 22.8603 16.9865 22.0803 16.6165 21.2903C16.2765 20.5803 15.9465 19.8703 15.5965 19.1603C15.5265 19.0203 15.5365 18.9603 15.6965 18.9003C16.0765 18.7503 16.4565 18.5903 16.8365 18.4203C16.9565 18.3703 17.0165 18.3703 17.0665 18.5103C17.6365 20.0803 18.2065 21.6503 18.7765 23.2103C18.7965 23.2603 18.8065 23.3103 18.8165 23.3503L18.7965 23.3603ZM16.7165 19.8803C16.7965 19.8803 16.8665 19.8103 16.8365 19.7303C16.7965 19.5703 16.7465 19.4103 16.6465 19.2703C16.6165 19.2303 16.5565 19.1803 16.4865 19.2303C16.4265 19.2703 16.3665 19.3203 16.3965 19.4003C16.4465 19.5403 16.5165 19.6803 16.5865 19.8203C16.6065 19.8703 16.6565 19.8903 16.7165 19.8903V19.8803Z" fill="#1D478D"/>
<path d="M15.5164 15.2601C16.1864 15.2601 16.7764 15.71 16.9864 16.36C17.0264 16.47 16.9864 16.5201 16.8864 16.5701C16.0064 16.9201 15.1364 17.28 14.2664 17.64C14.1264 17.7 14.1064 17.6101 14.0664 17.5301C13.5364 16.4701 14.3264 15.2501 15.5164 15.2601ZM15.4564 15.5901C15.8064 15.5901 16.0964 15.7001 16.3364 15.9301C16.4564 16.0401 16.5364 16.1701 16.6064 16.3101C16.6264 16.3401 16.6464 16.38 16.6864 16.36C16.7464 16.34 16.7164 16.2901 16.7064 16.2501C16.4964 15.6701 15.5764 15.28 15.0264 15.55C14.9864 15.57 14.9364 15.59 14.9564 15.64C14.9764 15.71 15.0264 15.6801 15.0764 15.6601C15.2064 15.6201 15.3364 15.5801 15.4564 15.5901Z" fill="#1D478D"/>
<path d="M17.0564 16.8898C17.0564 17.0998 16.9964 17.2798 16.9364 17.4698C16.8364 17.7498 16.5664 17.7898 16.3464 17.8798C15.9764 18.0398 15.5964 18.1698 15.2364 18.3598C15.1564 18.3998 15.0864 18.4098 14.9864 18.3598C14.7664 18.2398 14.5464 18.1398 14.3664 17.9598C14.2764 17.8698 14.2764 17.8398 14.3964 17.7898C15.2464 17.4498 16.0864 17.0998 16.9364 16.7498C17.1364 16.6698 17.0364 16.8398 17.0664 16.8898H17.0564Z" fill="#1D478D"/>
<path d="M17.0164 18.0699C17.0164 18.1799 16.9364 18.2298 16.8464 18.2698C16.4064 18.4598 15.9664 18.6399 15.5364 18.8199C15.4064 18.8799 15.2964 18.8498 15.2364 18.7098C15.1764 18.5698 15.2364 18.4699 15.3564 18.4099C15.7964 18.2199 16.2364 18.0299 16.6864 17.8499C16.8664 17.7799 17.0264 17.8898 17.0264 18.0498L17.0164 18.0699Z" fill="#1D478D"/>
<path d="M14.5368 14.5201C14.5368 14.6101 14.4968 14.6601 14.4468 14.6801C14.3768 14.7001 14.3268 14.6701 14.3068 14.6201C14.2068 14.3701 14.1068 14.1201 14.0068 13.8701C13.9868 13.8101 14.0168 13.7501 14.0668 13.7201C14.1168 13.6901 14.1968 13.6901 14.2168 13.7501C14.3368 14.0101 14.4368 14.2801 14.5368 14.5301V14.5201Z" fill="#1D478D"/>
<path d="M16.2867 13.9002C16.2567 14.1402 16.2267 14.3802 16.1967 14.6102C16.1867 14.7002 16.1467 14.7602 16.0467 14.7502C15.9567 14.7402 15.9367 14.6702 15.9467 14.5902C15.9767 14.3402 15.9967 14.1002 16.0367 13.8602C16.0467 13.7902 16.0867 13.7202 16.1767 13.7302C16.2667 13.7402 16.2967 13.8102 16.2867 13.9002Z" fill="#1D478D"/>
<path d="M13.4067 15.9399C13.1667 15.8699 12.9267 15.7999 12.6867 15.7099C12.6267 15.6899 12.5567 15.6299 12.5967 15.5399C12.6267 15.4799 12.6767 15.4399 12.7567 15.4699C12.9967 15.5399 13.2467 15.6199 13.4867 15.6899C13.5467 15.7099 13.5967 15.7499 13.5867 15.8299C13.5667 15.9199 13.5067 15.9399 13.4167 15.9299L13.4067 15.9399Z" fill="#1D478D"/>
<path d="M18.7567 24.08C18.7167 24.26 18.5467 24.22 18.4467 24.3C18.4167 24.32 18.1567 24.01 18.1567 23.96C18.1567 23.92 18.5667 23.71 18.6167 23.74C18.7667 23.81 18.6767 23.98 18.7567 24.08Z" fill="#1D478D"/>
<path d="M40.4666 24.71V24.7L40.4565 24.71H40.4666Z" fill="#1D478D"/>
<path d="M36.4966 31.4702C36.4966 30.7302 36.6566 30.0502 37.2066 29.5102C37.8666 28.8602 39.4166 28.6702 40.1566 29.8602C40.8166 30.9102 40.6766 32.6302 40.0166 33.3802C39.6366 33.8002 39.1666 33.9702 38.6166 33.9802C37.2866 33.9902 36.5666 33.0302 36.4966 31.7302C36.4966 31.6402 36.4966 31.5602 36.4966 31.4702Z" fill="#1D478D"/>
<path d="M35.2666 24.8702C35.4966 24.8502 35.7166 24.8502 35.9466 24.8702C35.7166 24.8902 35.4966 24.8902 35.2666 24.8702Z" fill="#1D478D"/>
<path d="M35.0068 24.87C35.0068 24.87 35.0668 24.85 35.0968 24.87C35.0668 24.89 35.0368 24.89 35.0068 24.87Z" fill="#1D478D"/>
<path d="M16.6866 19.4503C16.6866 19.5103 16.6466 19.5603 16.5966 19.5503C16.5166 19.5503 16.4866 19.4703 16.4766 19.4003C16.4766 19.3503 16.4766 19.2903 16.5466 19.2903C16.6466 19.2903 16.6366 19.4003 16.6966 19.4503H16.6866Z" fill="#1D478D"/>
</svg>
