<svg width="58" height="59" viewBox="0 0 58 59" fill="none" xmlns="http://www.w3.org/2000/svg">
<rect y="0.337891" width="57.8345" height="57.8345" rx="4" fill="white"/>
<path d="M48.2599 21.0931C48.4399 20.7231 49.0099 20.3231 48.7899 20.0531C48.5299 19.7331 47.9199 19.9231 47.4599 19.9931C47.4599 19.9931 47.4499 19.9931 47.4399 19.9931C47.6399 20.5431 47.8099 21.1031 47.9599 21.6731C48.0299 21.4631 48.1699 21.2831 48.2699 21.0831L48.2599 21.0931Z" fill="#1D478D"/>
<path d="M35.56 44.8731C35.56 45.0231 35.58 45.1831 35.54 45.3231C35.22 46.4431 35.47 47.4431 36.16 48.3631C36.43 48.7231 36.67 49.0931 36.94 49.4931C36.47 49.6731 36.04 49.6531 35.62 49.6931C35.43 49.7131 35.17 49.7431 35.18 49.9731C35.18 50.2431 35.45 50.1731 35.63 50.1931C35.87 50.2031 36.11 50.2231 36.34 50.1931C37.63 50.0331 38.84 50.2831 40.04 50.7931C41.19 51.2931 42.1 51.0031 42.73 50.1131C42.84 49.9631 42.93 49.8131 42.85 49.6431C42.77 49.4631 42.58 49.5431 42.45 49.5431C41.78 49.5531 41.12 49.5831 40.45 49.6131C39.54 49.6531 38.63 49.7731 37.6 49.7031C37.94 49.4631 37.82 49.2231 37.8 49.0031C37.64 47.3831 37.33 45.7731 37.28 44.1431C36.72 44.4031 36.15 44.6331 35.57 44.8331C35.57 44.8431 35.56 44.8631 35.55 44.8731H35.56Z" fill="#1D478D"/>
<path d="M45.7699 11.2933C45.2599 12.3033 44.8499 13.3533 44.2099 14.2833C44.4199 14.5333 44.6199 14.7933 44.8099 15.0533C44.8099 15.0333 44.8299 15.0233 44.8299 15.0033C45.2199 14.1533 45.6299 13.3033 45.9899 12.4333C46.4099 11.4233 46.8499 10.4233 47.7299 9.70331C47.8699 9.58331 47.9599 9.39331 48.0499 9.23331C48.1099 9.12331 48.1399 8.95331 47.9499 8.95331C47.3499 8.96331 46.7499 8.75331 46.1699 9.22331C44.9099 10.2533 43.9299 11.5133 42.9099 12.7533C42.8999 12.7633 42.8899 12.7833 42.8799 12.7933C43.1899 13.1033 43.4999 13.4333 43.7899 13.7633C44.2599 12.7933 44.9299 11.9633 45.7699 11.2633V11.2933Z" fill="#1D478D"/>
<path d="M47.8999 16.0634C48.2399 15.2534 48.5099 14.4234 48.5299 13.5234C48.5299 13.1234 48.3699 13.0034 48.0099 12.9934C47.2799 12.9734 46.7899 13.3434 46.4499 13.9334C46.0999 14.5434 45.7699 15.1734 45.4299 15.7834C45.4099 15.8134 45.3999 15.8434 45.3799 15.8634C45.9199 16.6834 46.3999 17.5534 46.8199 18.4634C47.1899 17.6634 47.5699 16.8734 47.9099 16.0634H47.8999Z" fill="#1D478D"/>
<path d="M25.7302 45.6235C25.6702 46.2435 25.2702 46.4735 24.7002 46.5335C24.2302 46.5935 23.7702 46.7135 23.3102 46.7635C21.4802 46.9235 19.6902 47.5235 17.8202 47.1935C17.6802 47.1635 17.5202 47.2035 17.3702 47.2035C17.1602 47.2035 16.9902 47.2735 16.9202 47.4935C16.8402 47.7735 17.0902 47.8035 17.2402 47.8735C17.6102 48.0535 18.0202 48.1035 18.4302 48.1235C20.9802 48.2835 23.4802 47.8735 25.9702 47.4135C27.2702 47.1735 27.2702 47.1535 27.3202 45.8535C27.3202 45.8535 27.3202 45.8335 27.3202 45.8235C26.7802 45.7735 26.2502 45.7035 25.7302 45.6035V45.6235Z" fill="#1D478D"/>
<path d="M35.36 43.6033C35.09 43.5433 34.8 43.5133 34.75 43.1433C34.69 42.7633 35 42.6833 35.22 42.5333C36.08 41.9633 37.11 41.8433 38.07 41.5433C38.4 41.4433 38.73 41.3633 39.05 41.2433C40.43 40.7033 41.28 39.7333 41.39 38.2233C41.44 37.5333 41.49 36.8433 41.43 36.1633C41.21 33.8233 41.72 31.6833 42.96 29.6933C44.03 27.9733 44.79 26.0933 45.53 24.2133C45.65 23.9133 45.65 23.9133 45.61 23.4233C45.12 23.7733 44.88 24.2833 44.6 24.7433C43.47 26.5733 42.37 28.4133 41.24 30.2333C40.9 30.7833 40.52 31.3033 40.03 31.7333C39.78 31.9533 39.48 32.3533 39.18 32.1633C38.89 31.9733 39.09 31.5233 39.23 31.2133C39.65 30.2933 40.07 29.3733 40.53 28.4833C41.74 26.1433 43.11 23.8633 43.96 21.3533C44.1 20.9533 44.21 20.5433 44.35 20.1033C43.99 20.1033 43.89 20.3433 43.75 20.5033C42.43 21.9933 41.48 23.7233 40.44 25.4133C39.68 26.6533 39.17 27.9933 38.69 29.3433C38.53 29.7833 38.24 30.1133 37.93 30.4433C37.64 30.7533 37.33 30.6333 37.05 30.5233C36.74 30.4033 36.92 30.1133 36.95 29.9033C37.04 29.2633 37.36 28.7333 37.77 28.2533C38.44 27.4633 38.74 26.5633 38.69 25.5133C38.66 24.9033 39.01 24.3733 39.28 23.8433C40.85 20.8333 42.43 17.8333 44 14.8233C44.07 14.6933 44.09 14.5433 44.14 14.4033C44.16 14.3733 44.18 14.3433 44.2 14.3133C44.06 14.1433 43.93 13.9833 43.79 13.8233C43.79 13.8433 43.77 13.8633 43.76 13.8833C42.41 15.8933 41.09 17.9333 39.68 19.9133C38.17 22.0333 36.86 24.2733 35.63 26.5533C35.3 27.1633 34.86 27.6933 34.22 28.0133C33.93 28.1633 33.59 28.1933 33.36 28.0133C33.07 27.8033 33.32 27.5033 33.42 27.2533C34.07 25.6333 34.41 23.9233 34.94 22.2633C35.48 20.5533 36.47 19.1033 37.52 17.6833C38.04 16.9833 38.64 16.3233 39.01 15.5133C39.09 15.3433 39.28 15.1333 39.15 15.0333C38.97 14.9033 38.79 15.1133 38.64 15.2633C37.38 16.5533 36.39 18.0333 35.55 19.6033C34.17 22.1833 32.97 24.8433 31.7 27.4833C31.42 28.0633 31.15 28.6533 30.69 29.1233C30.4 29.4133 30.06 29.5233 29.7 29.3033C29.32 29.0733 29.58 28.7533 29.66 28.5033C30.04 27.3033 30.75 26.2833 31.5 25.3033C32.68 23.7533 33.24 22.0133 33.53 20.1133C33.7 18.9933 34.24 17.9833 35.22 17.2933C35.52 17.0833 35.82 16.8833 36.13 16.6733C36.74 16.2633 37.23 15.7733 37.69 15.1833C38.39 14.2933 39.27 13.5433 40.14 12.8133C40.47 12.5333 40.99 12.7233 41.48 12.8833C40.9 13.6933 40.34 14.4833 39.78 15.2633C37.92 17.8333 36.77 20.7533 35.57 23.6533C35.52 23.7733 35.36 23.9433 35.59 24.0333C35.76 24.1033 35.83 23.9033 35.92 23.8033C36.56 23.0433 36.95 22.1233 37.41 21.2433C38.58 18.9933 40.09 16.9433 41.48 14.8333C41.93 14.1533 42.41 13.5033 42.88 12.8433C39.37 9.32332 34.52 7.15332 29.16 7.15332C18.45 7.15332 9.77002 15.8333 9.77002 26.5433C9.77002 36.0833 16.66 44.0133 25.73 45.6333C26.81 43.8333 28.46 42.6833 30.47 41.6833C29.62 41.6433 28.95 41.5833 28.29 41.5733C27.38 41.5533 26.79 40.9633 26.45 40.2933C25.25 37.9533 23.38 36.1533 21.78 34.1233C20.94 33.0533 20 32.0333 19.46 30.7433C18.73 29.0033 17.38 28.2433 15.53 28.1933C14.91 28.1733 14.29 27.9333 13.68 27.7633C13.51 27.7133 13.14 27.7233 13.25 27.4233C13.35 27.1433 13.23 26.6833 13.75 26.6433C15.59 26.4933 17.21 25.7033 18.8 24.8633C20.21 24.1233 21.76 23.8933 23.29 23.6133C23.46 23.5833 23.64 23.5633 23.79 23.4833C24.84 22.9133 25.79 23.3933 26.67 23.8633C27.64 24.3733 27.67 25.3433 27.51 26.3033C27.39 26.9733 27.22 27.6433 27.04 28.3033C26.9 28.7933 27.08 29.0133 27.54 29.1433C29.51 29.7233 31.47 30.3433 33.44 30.9033C34.02 31.0633 34.39 31.3833 34.6 31.9133C34.83 32.4933 35.03 33.0833 35.27 33.6533C35.38 33.9333 35.42 34.3133 35.86 34.3033C35.95 34.3033 35.99 34.3433 35.98 34.4633C35.94 34.9333 35.19 35.5533 34.73 35.4933C34.62 35.4833 34.49 35.4733 34.48 35.3433C34.45 34.8633 34.18 35.1333 34.07 35.2433C33.74 35.5733 33.5 35.4333 33.26 35.1533C33.02 34.8733 33.04 34.6433 33.31 34.3533C33.85 33.7833 33.6 32.3333 32.9 31.7733C32.28 31.2733 31.52 31.1033 30.76 30.9433C29.65 30.7133 28.51 30.6133 27.41 30.2833C26.74 30.0833 26.12 29.8133 25.61 29.3233C25.21 28.9433 25.14 28.5533 25.33 28.0433C25.6 27.3433 25.95 26.6733 26.05 25.9133C26.19 24.8333 25.72 24.2633 24.64 24.1933C22.11 24.0333 20.12 25.2733 18.12 26.5333C18.22 26.8633 18.46 26.8333 18.62 26.8633C20.14 27.1433 21.16 28.1333 22.09 29.2633C23.56 31.0433 24.74 33.0233 25.98 34.9633C26.88 36.3733 27.94 37.6833 28.5 39.2933C28.9 40.4533 29.85 40.8133 30.97 40.9033C31.37 40.9433 31.76 41.0133 32.24 41.0833C31.89 41.6033 31.4 41.7833 30.96 42.0133C30.16 42.4133 29.37 42.8433 28.68 43.4233C27.92 44.0533 27.39 44.8433 27.32 45.8633C27.93 45.9233 28.54 45.9533 29.16 45.9533C31.41 45.9533 33.56 45.5733 35.57 44.8633C35.63 44.7233 35.7 44.5933 35.74 44.4533C35.88 44.0533 35.85 43.7433 35.35 43.6333L35.36 43.6033Z" fill="#1D478D"/>
<path d="M44.2803 23.1131C45.1403 21.8731 45.9803 20.6331 47.4403 20.0031C47.2503 19.4831 47.0503 18.9731 46.8203 18.4731C46.8203 18.4831 46.8103 18.5031 46.8003 18.5131C45.8903 20.0031 45.0303 21.5231 44.2903 23.1131H44.2803Z" fill="#1D478D"/>
<path d="M47.9102 21.8431C47.6502 21.9731 47.6002 22.2431 47.4902 22.4631C46.5902 24.1531 45.8702 25.9131 45.2502 27.7231C44.3602 30.3131 43.3302 32.8731 43.3602 35.6831C43.3902 37.7331 42.9302 39.6331 41.6302 41.2731C41.2402 41.6731 40.8002 42.0131 40.3302 42.3131C40.1902 42.3331 40.0702 42.3931 40.0002 42.5231C39.9802 42.5431 39.9502 42.5631 39.9202 42.5731C39.1002 42.8431 38.3302 43.2731 37.4902 43.4731C37.1202 43.5631 37.1802 43.8131 37.2702 44.0731C37.2702 44.1031 37.2702 44.1231 37.2702 44.1431C43.9202 41.0731 48.5402 34.3431 48.5402 26.5231C48.5402 24.8531 48.3302 23.2331 47.9302 21.6831C47.9102 21.7331 47.9002 21.7831 47.9002 21.8431H47.9102Z" fill="#1D478D"/>
<path d="M40.7402 22.8935C40.6902 22.9935 40.5602 23.1135 40.7102 23.2235C40.8602 23.3335 40.9502 23.1735 41.0202 23.1035C41.2102 22.9035 41.3802 22.6835 41.5502 22.4635C43.0802 20.4235 44.1002 18.0735 45.3602 15.8735C45.1802 15.5935 44.9902 15.3235 44.8002 15.0635C43.8102 16.9635 42.8202 18.8735 41.8302 20.7735C41.4602 21.4835 41.1002 22.1835 40.7402 22.8935Z" fill="#1D478D"/>
</svg>
