<svg width="59" height="59" viewBox="0 0 59 59" fill="none" xmlns="http://www.w3.org/2000/svg">
<rect x="0.834473" y="0.337891" width="57.8345" height="57.8345" rx="4" fill="white"/>
<path d="M42.641 7.23119C42.591 7.21119 42.541 7.23118 42.501 7.26118C42.481 7.28118 42.461 7.3112 42.431 7.3212C42.091 7.5012 41.741 7.6912 41.411 7.8812C40.861 8.2012 40.311 8.53119 39.761 8.84119C39.611 8.92119 39.551 9.02119 39.551 9.19119C39.551 10.2812 39.561 11.3712 39.521 12.4612C39.461 14.1712 39.521 15.8912 39.451 17.6112C39.401 18.8312 39.431 20.0412 39.381 21.2612C39.341 22.3412 39.381 23.4212 39.331 24.5012C39.301 25.1512 39.311 25.8112 39.301 26.4612C39.231 26.6812 39.261 26.9012 39.251 27.1212C39.231 28.1412 39.241 29.1712 39.201 30.1912C39.181 30.8612 39.181 31.5312 39.181 32.2012C39.181 32.5112 39.151 32.8312 39.181 33.1412C39.181 33.1412 39.181 33.2212 39.181 33.2712C39.171 33.4812 39.121 33.6912 39.181 33.9012C39.181 34.0012 39.181 34.1012 39.181 34.2112C39.151 34.2812 39.141 34.3612 39.181 34.4312C39.191 34.3712 39.201 34.3212 39.181 34.2612C39.181 34.3212 39.181 34.3712 39.181 34.4312C39.181 34.4612 39.181 34.4812 39.181 34.5112C39.181 34.6912 39.181 34.8712 39.191 35.0612C39.191 34.8812 39.181 34.6912 39.181 34.5112C39.021 34.5912 39.051 34.4612 39.041 34.3812C39.021 34.1012 39.041 33.8212 38.971 33.5512C38.971 33.4912 38.971 33.4412 38.971 33.3812C38.991 33.1112 38.981 32.8412 38.911 32.5812C38.911 32.5412 38.911 32.5012 38.911 32.4612C38.871 31.8612 38.801 31.2712 38.791 30.6712C38.791 29.9512 38.731 29.2312 38.711 28.5112C38.711 28.4212 38.701 28.3412 38.671 28.2512C38.641 28.1312 38.581 28.0912 38.471 28.1612C38.431 28.1912 38.381 28.2112 38.351 28.2412C38.121 28.4312 37.891 28.6312 37.661 28.8212C36.951 29.4012 36.271 30.0112 35.561 30.5912C35.381 30.7412 35.311 30.9112 35.291 31.1312C35.261 31.5612 35.231 31.9912 35.211 32.4212C35.161 33.2412 35.131 34.0712 35.081 34.8912C35.021 35.8612 34.981 36.8412 34.951 37.8112C34.921 38.6912 34.891 39.5812 34.861 40.4612C34.861 40.5112 34.871 40.5712 34.811 40.6212C34.811 40.5612 34.811 40.5212 34.811 40.4912C34.791 39.2312 34.791 37.9812 34.761 36.7212C34.731 35.6512 34.751 34.5712 34.741 33.5012C34.741 32.6312 34.741 31.7512 34.711 30.8812C34.701 30.5912 34.691 30.3112 34.681 30.0212C34.671 29.8012 34.521 29.7212 34.341 29.8412C34.101 29.9912 33.861 30.1512 33.621 30.3112C33.051 30.6712 32.491 31.0412 31.921 31.4012C31.751 31.5112 31.671 31.6412 31.681 31.8612C31.701 32.5512 31.771 33.2412 31.741 33.9312C31.741 34.2212 31.741 34.5112 31.741 34.7912C31.741 34.8512 31.721 34.9212 31.801 34.9512C31.871 34.9812 31.941 34.9512 32.001 34.9112C32.161 34.7712 32.351 34.6712 32.531 34.5512C32.681 34.4512 32.691 34.5312 32.691 34.6512C32.691 35.0412 32.721 35.4212 32.731 35.8112C32.751 36.4212 32.741 37.0312 32.761 37.6412C32.791 38.8712 32.831 40.1012 32.871 41.3212C32.881 41.8412 32.881 42.3612 32.901 42.8812C32.941 44.2612 32.991 45.6312 33.011 47.0112C33.021 47.7512 33.101 48.4912 33.091 49.2312C33.091 49.3312 33.061 49.4612 33.181 49.5112C33.301 49.5612 33.391 49.4412 33.451 49.3612C33.641 49.1312 33.871 48.9412 34.091 48.7412C34.511 48.3712 34.931 48.0212 35.381 47.7012C35.741 47.4412 36.101 47.1612 36.461 46.8912C36.541 46.8312 36.581 46.7712 36.581 46.6712C36.581 46.2212 36.601 45.7812 36.631 45.3312C36.701 44.1512 36.731 42.9812 36.781 41.8012C36.821 40.7712 36.871 39.7512 36.911 38.7212C36.971 37.2212 37.011 35.7112 37.061 34.2112C37.061 34.1512 37.061 34.0912 37.101 34.0412C37.131 34.0012 37.141 33.9412 37.201 33.9512C37.251 33.9612 37.241 34.0212 37.241 34.0612C37.241 34.4112 37.251 34.7712 37.281 35.1212C37.331 35.6912 37.331 36.2612 37.371 36.8312C37.421 37.5712 37.451 38.3212 37.501 39.0612C37.531 39.5212 37.531 39.9812 37.541 40.4412C37.581 42.1712 37.701 43.8912 37.711 45.6212C37.711 45.7112 37.731 45.7812 37.821 45.8212C37.911 45.8712 37.981 45.8512 38.071 45.8012C38.441 45.5512 38.831 45.3312 39.201 45.0912C39.701 44.7612 40.211 44.4412 40.671 44.0412C40.751 43.9712 40.781 43.8912 40.781 43.8012C40.781 43.6112 40.771 43.4112 40.781 43.2212C40.811 42.5512 40.831 41.8912 40.901 41.2212C40.941 40.8212 40.941 40.4312 40.961 40.0312C41.011 39.1412 41.051 38.2512 41.101 37.3612C41.141 36.6412 41.191 35.9112 41.221 35.1912C41.281 34.0012 41.341 32.8012 41.431 31.6112C41.461 31.2212 41.471 30.8312 41.491 30.4312C41.541 29.1112 41.621 27.7912 41.701 26.4712C41.771 25.3512 41.821 24.2312 41.881 23.1112C41.951 21.9012 42.001 20.6812 42.091 19.4712C42.151 18.5812 42.171 17.6912 42.231 16.8012C42.281 16.0912 42.311 15.3812 42.351 14.6612C42.401 13.6512 42.451 12.6512 42.511 11.6412C42.551 11.0412 42.581 10.4512 42.611 9.8512C42.651 9.0212 42.721 8.1812 42.711 7.3512C42.711 7.3012 42.711 7.25119 42.651 7.22119L42.641 7.23119Z" fill="#1D478D"/>
<path d="M30.461 39.2312C30.541 39.1612 30.591 39.0812 30.591 38.9812C30.591 37.9912 30.621 37.0112 30.581 36.0212C30.531 34.9412 30.461 33.8712 30.401 32.7912C30.351 31.8112 30.351 30.8312 30.331 29.8512C30.331 29.5512 30.331 29.2512 30.321 28.9512C30.321 28.7212 30.231 28.6712 30.011 28.7412C29.941 28.7612 29.861 28.7912 29.791 28.8212C29.001 29.1912 28.201 29.5312 27.501 30.0612C27.191 30.2912 26.851 30.5012 26.571 30.7612C25.971 31.3012 25.381 31.8512 24.891 32.4912C24.681 32.7712 24.471 33.0412 24.281 33.3312C24.051 33.6812 23.841 34.0512 23.651 34.4212C23.441 34.8112 23.281 35.2212 23.141 35.6412C23.021 36.0112 22.951 36.3912 22.871 36.7612C22.791 37.1512 22.751 37.5412 22.781 37.9312C22.801 38.2012 23.101 38.3512 23.351 38.2312C23.721 38.0612 24.061 37.8412 24.421 37.6512C24.561 37.5812 24.631 37.4812 24.661 37.3412C24.761 36.8812 24.791 36.4112 24.951 35.9712C25.101 35.7512 25.141 35.4812 25.281 35.2512C25.381 35.0812 25.511 34.9112 25.551 34.7112C25.831 34.2312 26.151 33.7712 26.541 33.3812C26.891 33.1012 27.221 32.8112 27.601 32.5812C27.651 32.5412 27.691 32.5012 27.741 32.4712C27.891 32.3812 28.061 32.4412 28.061 32.5812C28.061 33.1612 28.181 33.7312 28.191 34.3112C28.201 35.0412 28.361 35.7612 28.351 36.4912C28.351 36.5212 28.371 36.5512 28.371 36.5912C28.421 36.8512 28.391 37.1212 28.461 37.3812C28.471 37.4212 28.471 37.4812 28.411 37.4912C28.361 37.4912 28.351 37.4412 28.331 37.4012C28.201 37.1212 28.081 36.8412 27.941 36.5612C27.791 36.2412 27.621 35.9312 27.481 35.6112C27.401 35.4312 27.371 35.4112 27.201 35.5012C26.841 35.7012 26.481 35.8912 26.131 36.1112C26.001 36.1912 25.851 36.2512 25.761 36.3812C25.501 36.7812 25.311 37.2212 25.161 37.6612C25.011 38.0912 24.861 38.5212 24.781 38.9712C24.671 39.5612 24.551 40.1512 24.561 40.7612C24.561 41.0512 24.521 41.3412 24.501 41.6412C24.451 42.4412 24.391 43.2312 24.411 44.0312C24.411 44.1312 24.451 44.2212 24.471 44.3212C24.501 44.4312 24.571 44.4412 24.661 44.4112C24.711 44.3912 24.751 44.3612 24.791 44.3312C25.311 43.9612 25.761 43.5112 26.251 43.1012C26.631 42.7812 26.951 42.3912 27.351 42.0812C27.451 42.0012 27.491 41.8812 27.491 41.7612C27.491 41.5912 27.471 41.4212 27.441 41.2512C27.351 40.8212 27.311 40.3712 27.271 39.9412C27.251 39.7712 27.181 39.6712 27.021 39.6512C26.921 39.6412 26.911 39.5912 26.911 39.5012C26.921 39.2312 27.031 38.9812 27.081 38.7312C27.091 38.6712 27.141 38.6212 27.211 38.6312C27.271 38.6312 27.301 38.6812 27.321 38.7412C27.501 39.3412 27.651 39.9412 27.801 40.5412C27.851 40.7212 27.901 40.9012 27.971 41.0712C28.041 41.2412 28.131 41.2512 28.271 41.1412C28.331 41.0912 28.411 41.0512 28.471 40.9912C29.121 40.4012 29.781 39.8012 30.461 39.2312Z" fill="#1D478D"/>
<path d="M49.4609 23.0509C49.0009 23.3209 48.5309 23.5809 48.0509 23.8309C47.6309 24.0509 47.2309 24.3009 46.8209 24.5309C46.1509 24.9009 45.4909 25.2709 44.8209 25.6409C44.2309 25.9709 43.6409 26.3009 43.0509 26.6309C42.8609 26.7409 42.7309 26.8609 42.7409 27.1009C42.7509 27.5909 42.7409 28.0709 42.6909 28.5609C42.6909 29.0509 42.6909 29.5409 42.6909 30.0409C42.6909 30.1209 42.6909 30.2109 42.7209 30.2909C42.7709 30.4409 42.8309 30.4709 42.9609 30.3909C43.0909 30.3209 43.2209 30.2409 43.3509 30.1609C44.0809 29.7009 44.8009 29.2409 45.5309 28.7709C45.6009 28.7309 45.6609 28.6809 45.7409 28.7209C45.8309 28.7609 45.8109 28.8509 45.8109 28.9209C45.7709 29.6209 45.7209 30.3209 45.6809 31.0209C45.6509 31.4909 45.6409 31.9609 45.5909 32.4309C45.5109 33.1709 45.4809 33.9209 45.4309 34.6609C45.3909 35.2609 45.3509 35.8609 45.3209 36.4709C45.2909 36.9409 45.2609 37.4209 45.2209 37.8909C45.1809 38.3509 45.1709 38.8109 45.1309 39.2609C45.0809 39.8609 45.1009 40.4709 45.0209 41.0609C45.0209 41.1209 45.0209 41.1709 45.0809 41.2009C45.1309 41.2309 45.1709 41.1909 45.2209 41.1609C45.4209 41.0409 45.6209 40.9109 45.8209 40.7909C46.4209 40.4009 47.0209 40.0009 47.6209 39.6009C47.6909 39.5609 47.7809 39.5009 47.7709 39.4109C47.7509 39.3009 47.8009 39.2109 47.8009 39.1109C47.8109 38.7709 47.8909 38.4409 47.9209 38.1109C47.9909 37.2909 48.1309 36.4709 48.2109 35.6509C48.2409 35.3009 48.3009 34.9509 48.3409 34.6009C48.3909 34.2009 48.4309 33.8009 48.4809 33.4009C48.5609 32.7109 48.6509 32.0209 48.7409 31.3309C48.8009 30.8509 48.8509 30.3709 48.9109 29.9009C48.9609 29.4609 49.0209 29.0109 49.0709 28.5709C49.1309 28.0809 49.1609 27.5809 49.2309 27.0909C49.3009 26.6009 49.3609 26.1009 49.4109 25.6009C49.4409 25.3109 49.4609 25.0309 49.5109 24.7409C49.5509 24.5209 49.5409 24.3009 49.5909 24.0809C49.6509 23.7909 49.6709 23.5009 49.7009 23.2109C49.7209 23.0409 49.6209 22.9709 49.4809 23.0609L49.4609 23.0509Z" fill="#1D478D"/>
<path d="M17.481 46.0808C17.421 45.4508 17.371 44.8208 17.291 44.1908C17.261 43.9608 17.271 43.7308 17.231 43.5008C17.151 43.0608 17.171 42.6208 17.111 42.1808C17.061 41.8608 17.051 41.5408 17.021 41.2208C16.951 40.4308 16.851 39.6408 16.781 38.8408C16.731 38.2608 16.641 37.6908 16.631 37.1108C16.631 36.9308 16.431 36.8408 16.281 36.9308C16.191 36.9908 16.101 37.0608 16.021 37.1308C15.721 37.4008 15.431 37.6608 15.121 37.9308C14.631 38.3608 14.131 38.7808 13.631 39.2108C13.561 39.2708 13.531 39.3408 13.521 39.4208C13.461 40.1208 13.411 40.8208 13.331 41.5108C13.271 42.0408 13.241 42.5808 13.191 43.1108C13.131 43.7208 13.091 44.3308 13.041 44.9408C13.041 44.9808 13.051 45.0508 12.981 45.0608C12.911 45.0608 12.921 44.9908 12.921 44.9508C12.921 44.6608 12.851 44.3808 12.851 44.0908C12.851 43.9108 12.841 43.7408 12.811 43.5608C12.751 43.1308 12.721 42.7008 12.661 42.2708C12.601 41.8108 12.581 41.3508 12.541 40.8808C12.531 40.7208 12.511 40.5608 12.501 40.4008C12.481 40.2408 12.411 40.1008 12.271 40.0408C12.161 39.9908 12.081 40.1208 11.991 40.1808C11.591 40.4908 11.181 40.8008 10.781 41.1108C10.491 41.3408 10.181 41.5408 9.92105 41.8208C9.79105 41.9608 9.78105 42.1008 9.82105 42.2608C9.99105 42.9108 10.091 43.5808 10.241 44.2308C10.281 44.3908 10.371 44.4508 10.521 44.3708C10.591 44.3308 10.651 44.2708 10.701 44.2008C10.741 44.1508 10.781 44.1008 10.851 44.1208C10.931 44.1408 10.911 44.2108 10.921 44.2708C10.921 44.3308 10.941 44.3908 10.951 44.4508C11.011 44.7208 11.061 44.9908 11.121 45.2608C11.091 45.4208 11.151 45.5708 11.191 45.7108C11.281 46.1008 11.321 46.4908 11.431 46.8708C11.461 46.9708 11.421 47.1008 11.521 47.1808C11.571 47.4208 11.611 47.6708 11.661 47.9108C11.661 47.9908 11.661 48.0808 11.681 48.1608C11.751 48.4808 11.811 48.8108 11.881 49.1308C11.931 49.3708 11.961 49.6208 12.061 49.8408C12.151 50.2708 12.231 50.6908 12.321 51.1208C12.331 51.1908 12.361 51.2508 12.421 51.2808C12.491 51.3108 12.531 51.2508 12.571 51.2108C12.701 51.0908 12.831 50.9508 12.971 50.8408C13.411 50.5108 13.831 50.1708 14.301 49.8908C14.451 49.8008 14.481 49.6808 14.471 49.5408C14.441 48.7808 14.501 48.0208 14.501 47.2708C14.501 46.5308 14.521 45.7908 14.531 45.0508C14.531 45.0008 14.531 44.9508 14.581 44.9408C14.631 44.9408 14.641 44.9808 14.641 45.0208C14.691 45.2608 14.731 45.4908 14.781 45.7308C14.821 45.9208 14.851 46.1208 14.891 46.3208C14.981 46.7908 15.081 47.2608 15.181 47.7308C15.241 48.0408 15.301 48.3508 15.371 48.6508C15.411 48.8208 15.591 48.8508 15.711 48.7408C16.221 48.2708 16.741 47.8008 17.291 47.3708C17.481 47.2208 17.591 47.0608 17.561 46.8108C17.531 46.5608 17.511 46.3208 17.481 46.0708V46.0808Z" fill="#1D478D"/>
<path d="M34.1712 27.3911C34.2712 27.4411 34.3712 27.4111 34.4612 27.3411C34.5812 27.2511 34.7012 27.1611 34.8112 27.0711C34.8812 27.0111 34.9612 26.9711 35.0512 27.0111C35.1412 27.0511 35.1012 27.1511 35.1112 27.2211C35.1512 27.9211 35.1712 28.6111 35.1712 29.3111C35.1712 29.4211 35.2112 29.5211 35.3112 29.5711C35.4112 29.6211 35.4912 29.5711 35.5712 29.5111C35.7512 29.3811 35.9212 29.2411 36.0812 29.0911C36.5012 28.7111 36.9312 28.3311 37.3512 27.9511C37.7012 27.6311 38.0312 27.2711 38.4012 26.9711C38.6112 26.8011 38.6612 26.5811 38.6812 26.3311C38.7112 25.6411 38.6812 24.9611 38.7512 24.2711C38.7812 23.9611 38.7512 23.6411 38.7612 23.3211C38.7612 23.2511 38.7412 23.1811 38.6712 23.1611C38.6012 23.1311 38.5512 23.1611 38.4912 23.2011C38.3412 23.3211 38.1812 23.4411 38.0212 23.5511C37.5412 23.8911 37.1012 24.3011 36.6012 24.6311C36.5512 24.6611 36.5212 24.7611 36.4412 24.7211C36.3612 24.6811 36.3712 24.5911 36.3812 24.5111C36.4412 23.9711 36.5012 23.4411 36.5512 22.9011C36.6012 22.3911 36.6412 21.8911 36.6812 21.3811C36.6912 21.2511 36.7112 21.1211 36.6512 20.9911C36.6112 20.9011 36.5712 20.9011 36.5012 20.9511C36.3512 21.0611 36.2012 21.1611 36.0612 21.2811C35.4812 21.7711 34.9012 22.2511 34.3112 22.7211C34.2212 22.7911 34.1912 22.8611 34.1812 22.9711C34.1112 23.8311 34.1312 24.7011 34.1112 25.5611C34.1112 26.1011 34.1112 26.6311 34.1112 27.1711C34.1112 27.2511 34.0812 27.3511 34.1712 27.4011V27.3911Z" fill="#1D478D"/>
<path d="M22.3411 40.961C22.3811 40.741 22.2711 40.511 22.2811 40.261C22.2811 40.131 22.2411 40.021 22.2111 39.901C22.1911 39.811 22.1411 39.811 22.0711 39.871C21.8311 40.081 21.5811 40.281 21.3311 40.481C21.1011 40.661 20.8811 40.851 20.6511 41.031C20.5911 41.081 20.5311 41.121 20.4511 41.091C20.3711 41.061 20.3711 40.981 20.3711 40.901C20.3711 40.761 20.3711 40.611 20.3711 40.471C20.3711 40.251 20.3711 40.031 20.3711 39.811C20.3711 39.621 20.2511 39.571 20.0911 39.671C19.7611 39.881 19.4511 40.111 19.1311 40.341C18.7811 40.591 18.4311 40.831 18.1011 41.111C17.9711 41.221 17.7911 41.321 17.8411 41.551C17.9611 42.101 18.0011 42.651 18.0711 43.211C18.1611 43.951 18.2811 44.691 18.3811 45.421C18.4111 45.631 18.4611 45.841 18.5111 46.051C18.5511 46.231 18.6111 46.251 18.7811 46.171C18.9011 46.111 18.9911 46.031 19.0911 45.961C19.4911 45.671 19.8911 45.371 20.2711 45.051C20.8711 44.561 21.5111 44.121 22.1311 43.671C22.5111 43.391 22.5211 43.391 22.4911 42.901C22.4511 42.271 22.4011 41.631 22.3511 40.971L22.3411 40.961Z" fill="#1D478D"/>
<path d="M17.961 40.2412C18.291 39.9812 18.621 39.7312 18.951 39.4712C19.381 39.1312 19.821 38.7912 20.251 38.4512C20.621 38.1612 20.971 37.8512 21.371 37.5912C21.641 37.4112 21.751 37.2112 21.691 36.8912C21.711 36.5912 21.641 36.2812 21.621 35.9612C21.591 35.5912 21.531 35.2212 21.481 34.8612C21.461 34.7212 21.361 34.6812 21.251 34.7712C21.151 34.8512 21.051 34.9412 20.961 35.0312C20.701 35.2812 20.451 35.5312 20.201 35.7812C20.081 35.9012 19.961 35.8812 19.881 35.7312C19.851 35.6712 19.831 35.6112 19.821 35.5412C19.801 35.3412 19.771 35.1412 19.751 34.9512C19.741 34.8712 19.721 34.7912 19.641 34.7612C19.561 34.7312 19.501 34.7812 19.451 34.8312C19.091 35.1512 18.671 35.3912 18.281 35.6812C18.021 35.8712 17.751 36.0412 17.481 36.2312C17.371 36.3112 17.271 36.4012 17.271 36.5512C17.291 36.8212 17.291 37.0912 17.331 37.3612C17.401 37.8212 17.431 38.2912 17.491 38.7612C17.531 39.0912 17.561 39.4212 17.581 39.7512C17.591 39.9112 17.571 40.0712 17.621 40.2312C17.661 40.3512 17.731 40.3912 17.841 40.3312C17.881 40.3112 17.921 40.2712 17.961 40.2412Z" fill="#1D478D"/>
<path d="M31.2609 44.4711C31.2609 43.3011 31.1709 42.1411 31.1509 40.9711C31.1509 40.7111 31.1209 40.4511 31.0809 40.1911C31.0609 40.0111 30.8809 39.9511 30.7309 40.0611C30.6909 40.0911 30.6509 40.1311 30.6009 40.1711C29.9109 40.7311 29.1909 41.2611 28.5409 41.8611C28.4009 41.9911 28.2909 42.1311 28.3209 42.2511C28.3709 42.7611 28.4209 43.1811 28.4509 43.6111C28.4809 43.9511 28.5009 43.9811 28.8409 43.9811C29.0909 43.9811 29.1709 44.0611 29.1809 44.3211C29.1809 44.5311 29.1809 44.7411 29.1909 44.9511C29.2009 45.3011 29.2309 45.6611 29.3109 46.0011C29.3609 46.2011 29.5009 46.2611 29.6709 46.1411C30.1509 45.8111 30.6309 45.4911 31.0909 45.1311C31.2309 45.0111 31.3309 44.8711 31.2609 44.6711C31.2409 44.6011 31.2409 44.5311 31.2409 44.4611L31.2609 44.4711Z" fill="#1D478D"/>
</svg>
