<svg width="59" height="59" viewBox="0 0 59 59" fill="none" xmlns="http://www.w3.org/2000/svg">
<rect x="0.668945" y="0.337891" width="57.8345" height="57.8345" rx="4" fill="white"/>
<path d="M50.9076 20.3003C50.8076 20.2603 50.6376 20.3003 50.5276 20.3603C49.5576 20.8703 48.5976 21.4103 47.6276 21.9203C46.9876 22.2603 46.3276 22.3403 45.6376 22.0603C45.5176 22.0103 45.3376 22.0403 45.2176 22.0903C44.3276 22.4903 43.4376 22.9003 42.5476 23.3103C42.4476 23.3603 42.3476 23.4103 42.1976 23.5003C42.3776 23.5903 42.5176 23.6303 42.6276 23.7103C42.7976 23.8403 43.0576 23.9903 43.0676 24.1403C43.0676 24.2903 42.8476 24.5103 42.6776 24.6203C42.1876 24.9203 41.6876 25.1903 41.1776 25.4503C40.0176 26.0503 38.8476 26.0303 37.6876 25.4503C37.3776 25.2903 36.9776 25.1603 36.9676 24.7203C36.9676 24.3103 37.3376 24.1603 37.6276 23.9703C38.9076 23.1003 40.3676 22.7803 41.8676 22.5603C42.8776 22.4103 43.9076 22.2603 44.8276 21.7903C45.2576 21.5703 45.6676 21.2903 46.0376 20.9703C46.3476 20.7003 46.3076 20.3603 45.9876 20.1003C45.7876 19.9403 45.5776 19.7903 45.3376 19.6903C44.0376 19.1103 42.7376 18.5403 41.4276 17.9803C41.3276 17.9403 41.1676 17.9303 41.0676 17.9703C40.0876 18.3803 39.1176 18.8003 38.1376 19.2203C38.0876 19.2403 38.0476 19.2803 37.9476 19.3503C38.3076 19.5103 38.6176 19.6303 38.9076 19.7803C39.1076 19.8903 39.2976 20.0403 39.4876 20.1703C39.2676 20.3003 39.0576 20.5003 38.8176 20.5503C38.1776 20.6803 37.5276 20.7803 36.8876 20.8403C35.3476 21.0003 33.9476 21.5403 32.6776 22.4303C32.3876 22.6403 32.1076 22.8903 31.8776 23.1603C31.3776 23.7503 31.2976 24.4903 31.7176 25.1403C31.9376 25.4903 32.2176 25.8203 32.5376 26.0803C33.7076 27.0403 35.0976 27.6103 36.5276 28.0603C38.4976 28.6703 40.4976 28.8503 42.5376 28.5303C44.4176 28.2403 46.0376 27.3403 47.5776 26.3003C48.1276 25.9203 48.5376 25.4303 48.2176 24.7003C48.2576 24.6703 48.2676 24.6603 48.2776 24.6603C48.3776 24.6603 48.4876 24.6603 48.5876 24.6603C49.6776 24.7103 50.7376 24.5103 51.7076 24.0203C52.8176 23.4603 53.9076 22.8303 54.9976 22.2303C55.0376 22.2103 55.0576 22.1503 55.1176 22.0803C53.6976 21.4703 52.3076 20.8703 50.9076 20.2803V20.3003Z" fill="#1D478D"/>
<path d="M8.56777 15.0801C8.67777 15.1301 8.84777 15.1101 8.95777 15.0601C9.74777 14.6901 10.5378 14.3001 11.3278 13.9401C11.5178 13.8601 11.7778 13.8001 11.9578 13.8601C12.7378 14.1101 13.5178 14.3901 14.2878 14.6901C14.5278 14.7801 14.7078 14.8101 14.9378 14.6901C15.4378 14.4101 15.9478 14.1601 16.4578 13.9001C16.9378 13.6501 17.4178 13.4001 17.9678 13.1201C17.0378 12.6501 16.1678 12.2601 15.1078 12.1401C16.1678 11.5901 17.1378 11.0601 18.2678 11.0301C19.0478 11.0101 19.7978 11.1901 20.4678 11.6201C20.9378 11.9201 20.9478 12.2901 20.5178 12.6301C20.2978 12.8001 20.0578 12.9501 19.8078 13.0701C17.8078 14.0501 15.8078 15.0201 13.7978 16.0001C13.2978 16.2401 12.7978 16.4901 12.2778 16.7501C12.3478 16.8101 12.3878 16.8501 12.4278 16.8601C13.6378 17.4201 14.8378 17.9801 16.0578 18.5201C16.1778 18.5701 16.3778 18.5301 16.5078 18.4701C18.8878 17.3001 21.2578 16.1301 23.6178 14.9301C24.2478 14.6101 24.8578 14.2201 25.3978 13.7601C26.3378 12.9501 26.3378 11.9501 25.3678 11.1701C24.7778 10.6901 24.1078 10.2701 23.4178 9.96011C19.8078 8.31011 16.1478 8.13011 12.4878 9.81011C10.0378 10.9301 7.60777 12.1001 5.16777 13.2401C5.09777 13.2701 5.04777 13.3301 4.96777 13.3801C5.02777 13.4301 5.06777 13.4601 5.10777 13.4801C6.25777 14.0101 7.41777 14.5501 8.56777 15.0701V15.0801Z" fill="#1D478D"/>
<path d="M25.2273 17.0503C25.4773 17.4903 25.8273 17.8803 26.1573 18.2703C26.4473 18.6303 26.7873 18.9603 27.0673 19.3303C27.2873 19.6103 27.2373 19.8203 26.8973 19.9203C26.5973 20.0103 26.2373 20.0703 25.9373 19.9903C24.3773 19.5503 22.9573 18.8303 21.8673 17.5803C21.7073 17.4003 21.5973 17.4003 21.3973 17.5003C20.4573 17.9803 19.4973 18.4503 18.5473 18.9303C18.4673 18.9703 18.3873 19.0303 18.2773 19.0903C18.3873 19.2203 18.4773 19.3403 18.5873 19.4403C19.5573 20.3203 20.6973 20.9303 21.8773 21.4803C24.1173 22.5303 26.4473 23.0803 28.9373 22.6603C30.1073 22.4603 31.1773 22.0103 32.1173 21.2803C32.8173 20.7403 32.9173 20.2103 32.4373 19.4903C32.1573 19.0603 31.8173 18.6703 31.4773 18.2903C31.1673 17.9303 30.8073 17.6103 30.4873 17.2503C30.2573 16.9903 30.2973 16.7803 30.6373 16.7103C30.9873 16.6303 31.3873 16.5903 31.7273 16.6803C33.1373 17.0603 34.4073 17.7103 35.4673 18.7203C35.6173 18.8603 35.7173 18.8703 35.8873 18.7803C36.4973 18.4503 37.1073 18.1403 37.7173 17.8203C38.0873 17.6303 38.4573 17.4303 38.8673 17.2203C38.7073 17.0903 38.6073 16.9803 38.4773 16.9003C37.6573 16.4103 36.8573 15.8803 35.9973 15.4603C33.6573 14.3203 31.2073 13.7003 28.5773 14.1403C27.4573 14.3303 26.4073 14.7003 25.5173 15.4303C24.9573 15.8903 24.8273 16.4103 25.1973 17.0403L25.2273 17.0503Z" fill="#1D478D"/>
<path d="M39.9972 38.6004C35.5772 36.4804 31.1672 34.3504 26.7572 32.2304C19.6672 28.8104 12.5773 25.3904 5.48725 21.9704C5.12725 21.7904 4.75725 21.6204 4.35725 21.4404C4.35725 21.8004 4.37725 22.1004 4.35725 22.4004C4.33725 22.7004 4.48725 22.8304 4.72725 22.9504C8.69725 24.8704 12.6672 26.7904 16.6372 28.7104C16.8272 28.8004 16.9172 28.9104 16.8872 29.1404C16.7972 29.8504 17.0672 30.4104 17.6072 30.8704C17.7172 30.9604 17.7973 31.1104 17.8273 31.2504C17.9273 31.7004 18.1573 32.0704 18.4873 32.3804C18.9473 32.7904 19.4172 33.2004 19.8672 33.5904C19.7172 33.8304 19.5372 34.1004 19.3772 34.3804C18.9572 35.1104 19.0772 35.6204 19.7972 36.0504C20.6772 36.5804 21.6473 36.6504 22.6373 36.5304C23.2173 36.4604 23.7773 36.3004 24.2673 35.9404C24.7973 35.5504 24.9172 35.0704 24.5972 34.5104C24.4072 34.1804 24.1973 33.8604 23.9973 33.5404C24.2273 33.3904 24.5073 33.2604 24.7173 33.0504C24.9272 32.8304 25.0872 32.8304 25.3472 32.9604C29.5472 35.0104 33.7573 37.0504 37.9673 39.0904C38.7073 39.4504 39.4572 39.8104 40.2972 40.2104C40.2972 39.7804 40.2673 39.4504 40.2972 39.1304C40.3272 38.8604 40.2173 38.7404 39.9873 38.6304L39.9972 38.6004ZM18.0372 30.2704C17.4672 29.9204 17.0972 29.4504 16.9873 28.8804C18.5972 29.6604 20.1773 30.4204 21.7473 31.1904C20.4373 31.1704 19.1672 30.9704 18.0272 30.2704H18.0372Z" fill="#1D478D"/>
<path d="M30.1377 36.4301C29.9077 36.8701 29.7377 37.3502 29.4377 37.7302C28.7577 38.5902 27.8077 39.0802 26.8077 39.4502C24.4377 40.3202 21.9877 40.4801 19.4977 40.0801C18.0577 39.8501 16.6877 39.4202 15.4577 38.6002C14.7177 38.1002 14.0977 37.5001 13.8177 36.6201C13.7977 36.5501 13.7477 36.4802 13.7077 36.4102C13.6777 36.4102 13.6477 36.4302 13.6177 36.4402C13.6577 36.7002 13.6777 36.9702 13.7477 37.2202C13.9177 37.8602 14.2977 38.3702 14.8077 38.7902C15.0577 39.0002 15.2077 39.2402 15.2877 39.5602C15.3677 39.8902 15.4977 40.2502 15.7177 40.5002C16.5177 41.4802 17.4277 42.3502 18.5077 43.0002C18.1777 43.5602 17.8177 44.1002 17.5277 44.6702C17.2577 45.1802 17.2977 45.7102 17.5977 46.2002C17.9177 46.7302 18.3977 47.0701 18.9477 47.3301C20.2577 47.9401 21.6377 48.0802 23.0477 47.8802C24.0077 47.7502 24.9177 47.4801 25.6877 46.8601C26.4677 46.2401 26.8277 45.3801 26.1877 44.3701C25.8977 43.9201 25.6377 43.4602 25.3477 42.9802C26.2477 42.6002 26.8677 41.8501 27.5777 41.2101C28.1277 40.7101 28.5377 40.1302 28.6477 39.3802C28.6677 39.2602 28.7377 39.1401 28.8177 39.0501C29.0577 38.8001 29.3377 38.5802 29.5677 38.3202C30.0877 37.7002 30.3277 36.9802 30.2577 36.1602C30.1977 36.2402 30.1777 36.3401 30.1277 36.4301H30.1377Z" fill="#1D478D"/>
<path d="M39.9975 30.3402C28.1575 24.8602 16.3175 19.3702 4.48747 13.8802C4.35747 13.8202 4.21747 13.7702 4.05747 13.7002C4.05747 14.0502 4.07747 14.3502 4.05747 14.6502C4.03747 14.9402 4.14747 15.0902 4.40747 15.2102C6.03747 15.9602 7.66747 16.7202 9.28747 17.4802C19.5575 22.2702 29.8275 27.0702 40.0975 31.8602C40.1975 31.9102 40.3075 31.9502 40.4875 32.0202C40.4875 31.6602 40.4575 31.3802 40.4875 31.1002C40.5475 30.6802 40.3575 30.5002 39.9975 30.3302V30.3402Z" fill="#1D478D"/>
<path d="M40.1274 32.4901C28.3274 26.9701 16.5274 21.4402 4.72744 15.9102C4.53744 15.8202 4.34744 15.7401 4.12744 15.6401C4.12744 16.0201 4.12744 16.3502 4.12744 16.6902C4.12744 16.9102 4.20744 17.0201 4.40744 17.1101C5.04744 17.4001 5.67744 17.7002 6.30744 18.0002C17.2974 23.1802 28.2974 28.3701 39.2874 33.5501C39.6474 33.7201 39.9974 33.8801 40.4074 34.0602C40.4274 33.6802 40.4074 33.3502 40.4574 33.0302C40.4974 32.7402 40.3974 32.6002 40.1274 32.4702V32.4901Z" fill="#1D478D"/>
<path d="M40.0175 34.5101C28.4475 29.0501 16.8775 23.5801 5.30747 18.1001C4.95747 17.9301 4.59747 17.7701 4.19747 17.5801C4.19747 17.9501 4.20747 18.2601 4.19747 18.5701C4.17747 18.8401 4.29747 18.9601 4.52747 19.0701C15.9175 24.4901 27.2975 29.9101 38.6875 35.3301C39.2175 35.5801 39.7575 35.8301 40.3975 36.1401C40.3975 35.7501 40.3775 35.4401 40.3975 35.1401C40.4275 34.8101 40.3075 34.6501 40.0075 34.5101H40.0175Z" fill="#1D478D"/>
<path d="M40.0773 36.6005C38.1673 35.7005 36.2673 34.7805 34.3573 33.8705C24.4873 29.1605 14.6073 24.4405 4.73734 19.7305C4.59734 19.6605 4.44734 19.6005 4.27734 19.5205C4.27734 19.9005 4.27734 20.2305 4.27734 20.5505C4.27734 20.7805 4.37734 20.8905 4.58734 20.9905C8.16734 22.7005 11.7373 24.4205 15.3073 26.1405C23.0773 29.8705 30.8473 33.6105 38.6173 37.3405C39.1573 37.6005 39.7073 37.8605 40.3373 38.1605C40.3373 37.7105 40.3273 37.3605 40.3373 37.0205C40.3473 36.8005 40.2573 36.6905 40.0673 36.6005H40.0773Z" fill="#1D478D"/>
<path d="M27.1575 46.1901C26.7175 47.0301 25.9675 47.4901 25.1275 47.8101C23.1075 48.5801 21.0675 48.5901 19.0275 47.9101C17.9375 47.5401 16.9675 46.9601 16.5475 45.7801C16.5475 45.7801 16.5075 45.7801 16.4375 45.7801C16.4675 46.2501 16.4275 46.7301 16.5275 47.1701C16.7575 48.1401 17.4975 48.6901 18.3475 49.0701C20.6075 50.0901 22.9275 50.1501 25.2075 49.2101C27.2375 48.3801 27.5975 47.3801 27.3975 45.5601C27.3075 45.8101 27.2475 46.0101 27.1575 46.1901Z" fill="#1D478D"/>
<path d="M44.1577 28.5501C43.4977 28.9201 42.8577 29.3401 42.1677 29.6501C41.4877 29.9501 41.1777 30.3501 41.2677 31.1301C41.3477 31.7801 41.2877 32.4501 41.2877 33.1901C42.3377 32.5901 43.3377 32.0301 44.3277 31.4401C44.4077 31.3901 44.4477 31.2301 44.4577 31.1101C44.4877 30.5501 44.4977 29.9901 44.5077 29.4301C44.5077 29.1001 44.5077 28.7701 44.5077 28.3701C44.3377 28.4501 44.2477 28.4901 44.1577 28.5401V28.5501Z" fill="#1D478D"/>
</svg>
