<svg width="58" height="59" viewBox="0 0 58 59" fill="none" xmlns="http://www.w3.org/2000/svg">
<rect y="0.172363" width="57.8345" height="57.8345" rx="4" fill="white"/>
<path d="M38.12 45.7673C37.97 45.4673 37.66 45.5173 37.42 45.5073C36.71 45.4873 36 45.5073 35.29 45.4973C35 45.4973 34.7001 45.4473 34.4101 45.4073C34.2401 45.3873 34.22 45.2673 34.2 45.1173C34.04 44.2673 33.48 43.7773 32.71 43.4873C32.57 43.4373 32.42 43.3773 32.28 43.2773C31.86 42.9673 31.82 42.8373 32.13 42.4273C32.56 42.0573 32.57 42.0473 32.1 41.8073C31.98 41.7473 31.89 41.6573 31.78 41.5773C31.7 41.5173 31.6 41.4273 31.49 41.4773C31.33 41.5473 31.51 41.6473 31.49 41.7373C31.48 41.8073 31.49 41.8873 31.5 41.9573C31.43 42.2273 31.3701 42.4973 31.3001 42.7573C31.2501 42.9473 31.1 42.8473 31 42.8473C30.76 42.8473 30.95 42.9773 30.93 43.0373H30.94C30.75 43.0173 30.8 43.1173 30.86 43.2173C30.8 43.8273 29.94 44.4173 29.4 44.2073C29.34 44.0673 29.24 44.1073 29.15 44.1473C29.17 44.1773 29.2 44.2073 29.22 44.2373C29.03 44.4573 28.72 44.5273 28.59 44.3273C28.5 44.1773 28.43 44.1973 28.37 44.2873C28.21 44.5373 27.99 44.4573 27.77 44.4573C27.77 44.3073 27.64 44.2873 27.53 44.2473C27.51 44.3173 27.5001 44.3873 27.4801 44.4573C26.7467 44.4773 26.38 44.1273 26.38 43.4073C26.38 42.7673 26.38 42.7673 27.02 42.7573C27.64 42.7573 28.27 42.9573 28.87 42.5873C28.97 42.5273 29.01 42.3073 29.2 42.3973C29.25 42.4473 29.29 42.4973 29.35 42.5373C29.35 42.5373 29.41 42.4873 29.44 42.4573C29.37 42.3973 29.29 42.3473 29.22 42.2873C29.16 42.1273 29.3001 42.0073 29.3001 41.8673C29.3401 40.9573 29.17 40.7273 28.15 40.5873C27.68 40.5273 27.19 40.5473 26.71 40.5573C26.45 40.5573 26.35 40.4773 26.38 40.2173C26.41 39.7973 26.21 39.2673 26.46 38.9973C26.69 38.7473 27.23 38.9473 27.63 38.9173C27.92 38.8973 28.21 38.9773 28.51 38.8473C28.96 38.6673 29.32 38.2173 29.2 37.7773C29.1 37.4073 28.7301 37.2473 28.37 37.2173C27.86 37.1673 27.35 37.1573 26.84 37.1773C26.45 37.1973 26.34 37.0573 26.38 36.6973C26.41 36.4773 26.42 36.2373 26.38 36.0173C26.3 35.5373 26.52 35.4073 26.95 35.4873C26.96 35.5073 26.97 35.5373 26.99 35.5573C27.01 35.5373 27.03 35.5073 27.06 35.4873C27.51 35.4873 27.9601 35.4773 28.4101 35.4673C28.8901 35.6773 29.42 35.6573 29.92 35.8073C30.8 36.0773 31.31 37.4473 31.22 38.1273C31.21 38.2073 31.22 38.2673 31.11 38.2873C30.63 38.3373 30.5701 38.7773 30.4101 39.0973C30.3001 39.3173 30.24 39.5273 29.9 39.5173C30.19 39.8573 30.49 40.0473 30.83 40.1873C30.94 40.2373 31.1301 40.4173 30.9801 40.4273C30.5801 40.4473 30.84 40.7073 30.76 40.8173C30.65 40.9773 30.82 41.2573 30.52 41.3273C30.49 41.3273 30.41 41.5573 30.57 41.6273C30.69 41.6773 30.73 41.5873 30.79 41.4873C30.97 41.1973 31.05 40.8773 31.09 40.5373C31.33 40.6673 31.24 40.9473 31.43 41.0673C31.61 40.8473 31.6 40.8373 32.1 40.6473C32.33 40.5573 32.31 40.4473 32.14 40.3573C31.89 40.2173 31.76 39.9973 31.65 39.7573C31.49 39.4473 31.63 39.1473 31.96 39.1073C32.28 39.0673 32.6 38.9573 32.93 38.9973C33.02 39.0173 33.11 39.0273 33.19 39.0573C34 39.3573 34.8301 39.5873 35.6601 39.7873C36.0701 39.8873 36.5 39.8473 36.9 40.0073C36.74 40.3973 36.35 40.4673 36.03 40.6273C35.68 40.8073 35.84 41.0873 35.86 41.3273C35.87 41.4673 35.91 41.6873 36.19 41.6373C36.96 41.4773 37.7501 41.5373 38.5201 41.3673C39.7201 41.1073 40.92 40.8773 42.05 40.3673C42.29 40.2573 42.7101 40.0973 42.6601 39.9573C42.5701 39.7073 42.1901 39.7373 41.9101 39.7273C42.0201 39.5573 42.25 39.6973 42.36 39.5373C42.45 39.5473 42.53 39.5573 42.62 39.5673C43.02 39.8373 43.03 40.1073 42.62 40.3673C42.27 40.5873 41.89 40.7773 41.51 40.9973C41.57 41.0473 41.6001 41.0873 41.6301 41.0873C41.9301 41.0773 42.24 41.1473 42.34 41.4373C42.45 41.7973 42.3601 42.1573 42.0201 42.3873C41.7901 42.5373 41.5301 42.6373 41.6301 42.9973C41.6501 43.0773 41.55 43.2273 41.47 43.2973C40.76 43.8873 40.24 44.6573 39.64 45.3373C39.34 45.5573 38.95 45.3373 38.65 45.5373C38.3434 45.524 38.1767 45.5806 38.15 45.7073L38.12 45.7673ZM36.4601 41.9573C36.8001 42.1073 37.13 42.3873 37.48 42.3973C38.56 42.4273 39.64 42.5973 40.72 42.4973C41.16 42.4573 41.65 42.4673 41.97 42.0473C42.12 41.8373 42.22 41.5673 41.97 41.4473C41.62 41.2673 41.2 41.1473 40.81 41.2573C39.42 41.6673 38 41.8073 36.56 41.8073H36.05C36.1901 41.9473 36.32 41.9773 36.47 41.9573H36.4601ZM36.59 43.2973C36.75 43.4273 36.9401 43.4073 37.1301 43.4173C37.7801 43.4573 38.43 43.5273 39.08 43.5773C39.78 43.6273 40.5201 43.7473 41.1301 43.2173C41.2101 43.1473 41.37 43.0773 41.33 42.9473C41.28 42.7973 41.1201 42.8773 41.0201 42.8773C40.0901 42.8773 39.17 42.8173 38.26 42.6973C37.96 42.6573 37.63 42.6173 37.36 42.7073C37.08 42.8073 36.87 43.0773 36.59 43.2873V43.2973ZM30.69 42.2473C30.52 42.1573 30.33 42.1673 30.39 41.8873C30.41 41.8073 30.41 41.7073 30.27 41.6973C30.1 41.6973 30.14 41.8073 30.11 41.9073C30.06 42.0673 30.16 42.2673 29.89 42.3873C29.74 42.4573 30.02 42.5873 30.06 42.7373C30.09 42.8473 30.2801 42.8373 30.37 42.7573C30.43 42.7073 30.52 42.5873 30.33 42.4973C30.15 42.4073 30.26 42.3073 30.39 42.2673C30.49 42.2473 30.59 42.2673 30.69 42.2673V42.2473ZM29.4101 42.6273C29.4101 42.6273 29.35 42.6973 29.31 42.7373C29.34 42.7673 29.3701 42.8073 29.4101 42.8073C29.5001 42.8173 29.46 42.7373 29.47 42.6973C29.48 42.6573 29.4701 42.6173 29.4101 42.6273ZM29.51 38.9273C29.61 38.9973 29.7 38.9873 29.82 38.9273C29.7 38.8673 29.6 38.8673 29.51 38.9273ZM29.34 37.1673C29.39 37.1073 29.38 37.0873 29.34 37.0873C29.3 37.0873 29.26 37.1073 29.22 37.1173C29.23 37.1573 29.25 37.1873 29.26 37.2273C29.29 37.1973 29.33 37.1773 29.33 37.1673H29.34Z" fill="#1D478D"/>
<path d="M12.2698 30.5474C12.0698 29.5174 11.6298 28.5474 11.4298 27.4874C11.1798 27.7974 11.1798 28.1474 11.0998 28.4674C10.7298 29.9874 10.2298 31.4674 9.75983 32.9474C9.64983 33.3074 9.59982 33.6874 9.45982 34.0374C9.39982 34.1874 9.34983 34.2774 9.18983 34.2774C8.73983 34.2774 8.28982 34.2674 7.84982 34.3674C7.57982 34.4274 7.55982 34.2774 7.52982 34.0474C7.42982 33.1174 7.65982 32.2474 8.01982 31.4174C8.51982 30.2674 8.81983 29.0574 9.25983 27.8874C9.54983 27.1274 9.80983 26.3474 10.0798 25.5874C10.1398 25.4174 10.2398 25.3274 10.4398 25.3374C11.0698 25.3474 11.7098 25.3374 12.3398 25.3374C12.5098 25.3374 12.5998 25.3774 12.6598 25.5574C13.2998 27.3574 13.9598 29.1574 14.6098 30.9574C14.9998 32.0374 15.3998 33.1274 15.8198 34.2774C15.0398 34.2774 14.3198 34.2774 13.5898 34.2774C13.2598 34.2774 13.1998 33.8774 13.2098 33.7674C13.2398 33.2874 13.0098 32.9074 12.8898 32.4874C12.8298 32.2874 12.6598 32.3774 12.5498 32.3774C11.8098 32.3774 11.0698 32.3774 10.2898 32.3774C10.4398 31.9074 10.5998 31.4574 10.7098 30.9974C10.7698 30.7474 10.8898 30.7274 11.0898 30.7274C11.4798 30.7274 11.8698 30.7274 12.2698 30.7174C12.2998 30.6974 12.3398 30.6874 12.3498 30.6674C12.3698 30.6074 12.3298 30.5674 12.2698 30.5474Z" fill="#1D478D"/>
<path d="M16.08 41.3273C16.23 40.8073 16.36 40.2773 16.54 39.7573C17 38.4273 17.49 37.0973 17.95 35.7673C18.01 35.5973 18.05 35.5273 18.24 35.5373C18.89 35.5473 19.54 35.5373 20.19 35.5373C20.38 35.5373 20.46 35.5973 20.53 35.7973C21.48 38.4573 22.45 41.1073 23.42 43.7573C23.5 43.9873 23.6 44.2173 23.71 44.4873C22.95 44.4873 22.25 44.4873 21.54 44.4873C21.32 44.4873 21.28 44.3473 21.23 44.1773C21.11 43.7573 20.99 43.3373 20.85 42.9173C20.78 42.6873 20.65 42.5573 20.36 42.5673C19.64 42.5973 18.91 42.5673 18.15 42.5673C18.23 42.2773 18.3 42.0173 18.38 41.7573C18.56 41.184 18.95 40.8973 19.55 40.8973C19.76 40.8973 19.97 40.8973 20.2 40.8973C19.89 39.8373 19.58 38.8073 19.23 37.6373C19.06 38.2473 18.92 38.7373 18.78 39.2173C18.39 40.4873 18.01 41.7673 17.6 43.0273C17.48 43.3973 17.37 43.7573 17.33 44.1373C17.31 44.3573 17.2 44.4973 16.92 44.4773C16.5 44.4473 16.08 44.4673 15.65 44.4773C15.43 44.4773 15.31 44.4173 15.34 44.1673C15.4 43.5773 15.41 42.9873 15.59 42.4073C15.68 42.1073 15.83 41.8473 15.97 41.5873C16.32 41.5873 16.14 41.4273 16.06 41.2973L16.08 41.3273ZM16.6 44.0073C16.66 44.0373 16.7 44.0673 16.74 44.0973C16.75 44.0773 16.78 44.0373 16.78 44.0273C16.75 43.9873 16.71 43.9473 16.68 43.9073C16.66 43.9373 16.64 43.9573 16.6 44.0073Z" fill="#1D478D"/>
<path d="M20.3198 25.4874C20.3198 25.6274 20.3198 25.7574 20.3198 25.8974C20.4098 26.5674 20.2498 27.0074 19.4898 27.2374C18.5498 27.5274 18.3898 28.4674 18.1398 29.2974C17.9598 29.9174 18.1798 30.4974 18.3398 31.0674C18.4898 31.5774 18.7698 32.0874 19.2798 32.3374C19.5998 32.4874 19.6798 32.9274 20.0998 32.9374C20.1698 32.9374 20.1598 33.0774 20.1198 33.1274C20.0398 33.2374 19.9198 33.3074 20.1398 33.4274C20.2898 33.5074 20.1398 33.6074 20.0498 33.6274C19.8898 33.6474 19.7198 33.6274 19.5498 33.6274C19.5698 33.7674 19.5798 33.8874 19.5998 34.0174C19.6398 34.2674 19.4598 34.2974 19.3198 34.2074C19.0498 34.0274 18.7298 33.9974 18.4498 33.8774C18.0098 33.6974 17.5998 33.3974 17.2998 32.9874C17.3098 32.9274 17.2998 32.8874 17.2298 32.9174C16.8198 32.4874 16.3798 32.0674 16.3498 31.4174C16.3498 31.3374 16.3798 31.2474 16.3898 31.1574C16.4198 31.1574 16.4598 31.1374 16.4898 31.1274C16.4498 31.1274 16.4198 31.1274 16.3798 31.1274C16.2098 30.9374 16.0598 30.7974 16.1898 30.4674C16.2498 30.3274 16.0298 30.0374 16.0298 29.7774C16.0298 28.6874 16.3298 27.6974 16.9898 26.8274C17.2798 26.4474 17.6598 26.1774 18.0498 25.9174C18.7098 25.4774 19.4198 25.3174 20.1998 25.3874C20.2298 25.4174 20.2498 25.4474 20.2798 25.4774L20.3198 25.4874ZM17.8998 29.9774C17.6898 29.8674 17.4798 29.7474 17.2598 29.6574C17.1798 29.6274 16.9998 29.5774 16.9898 29.7774C16.9898 29.8874 16.9598 29.9774 17.1398 30.0274C17.3898 30.0974 17.6198 30.1174 17.8998 29.9774ZM16.7598 31.2174C16.7598 31.2174 16.7298 31.2574 16.7198 31.2874C16.6998 31.3474 16.7498 31.3674 16.7898 31.3674C16.8198 31.3674 16.8898 31.3774 16.8598 31.3074C16.8398 31.2674 16.7998 31.2474 16.7598 31.2174Z" fill="#1D478D"/>
<path d="M10.09 40.1573C10.09 40.3373 10.08 40.5173 10.07 40.6873C10.02 40.6873 9.98003 40.6873 9.99003 40.7573C10.06 41.5173 10.13 42.2773 10.04 43.0473C10 43.3873 10.15 43.7573 9.92003 44.0973C9.86003 44.1973 10.34 44.4173 9.88003 44.4873C9.70003 44.5173 9.51003 44.4673 9.32003 44.4373C8.96003 44.3773 8.58003 44.4873 8.20003 44.4173C8.04003 44.3873 7.99004 44.3473 8.01004 44.1973C8.09004 43.5173 8.00004 42.8473 8.01004 42.1673C8.01004 42.1073 8.01003 42.0073 8.04003 41.9973C8.55003 41.8873 8.22003 41.6073 8.13003 41.4373C8.03003 41.2373 8.01004 41.0573 8.01004 40.8473C8.01004 39.1973 8.01004 37.5573 8.01004 35.9073C8.01004 35.5873 8.09004 35.4873 8.41004 35.5073C8.79004 35.5373 9.16003 35.5073 9.54003 35.5073C10.14 35.5073 10.18 35.5073 10.08 36.0873C10.04 36.3273 10.1 36.5273 10.1 36.7373C10.1 37.8073 10.1 38.8773 10.09 39.9473C9.97003 40.0073 9.97003 40.0673 10.09 40.1373V40.1573ZM8.84003 41.2473C8.72003 41.3273 8.59003 41.2873 8.54003 41.5173C8.67003 41.4273 8.82003 41.4873 8.84003 41.2473Z" fill="#1D478D"/>
<path d="M25.9199 40.6173C25.8999 40.7773 25.8099 40.9473 25.9499 41.0873C26.0999 41.2273 26.0199 41.3673 25.9499 41.5073C25.9399 41.5773 25.9099 41.6573 26.0199 41.6873C26.0899 42.2873 25.9199 42.8873 26.0199 43.4873C26.0499 43.6573 26.0199 43.8073 25.8099 43.8673C25.6399 43.9173 25.6299 44.0373 25.7099 44.1773C25.6599 44.2173 25.6099 44.2673 25.5599 44.3073C25.2899 44.3773 25.0499 44.4873 24.7399 44.3873C24.5699 44.3373 24.3399 44.4773 24.1099 44.4073C23.9499 44.3573 23.9099 44.3073 23.9299 44.1673C24.0099 43.4873 23.9199 42.8173 23.9299 42.1473C23.9299 42.1073 23.9299 42.0273 23.9399 42.0173C24.4899 41.7673 23.9899 41.5173 23.9399 41.2673C23.9199 41.1773 23.9199 41.0873 23.9199 40.9973C23.9199 39.2973 23.9199 37.5873 23.9199 35.8873C23.9199 35.5673 24.0099 35.4673 24.3199 35.4873C24.6999 35.5173 25.0699 35.4873 25.4499 35.4873C26.0499 35.4873 26.0899 35.4873 25.9899 36.0673C25.9499 36.3073 26.0099 36.5073 26.0099 36.7173C26.0099 37.5473 26.0099 38.3773 25.9999 39.2073C25.6899 39.3573 25.8799 39.5073 25.9999 39.6673C25.9999 39.7573 25.9999 39.8473 25.9999 39.9373C25.8799 39.9973 25.8799 40.0573 25.9999 40.1173C25.9999 40.1773 25.9999 40.2373 25.9999 40.2973C25.8899 40.4373 25.7099 40.3473 25.5199 40.4473C25.6799 40.4973 25.7799 40.5373 25.8899 40.5773L25.9199 40.6173ZM24.9099 40.9573C25.0199 41.0373 25.0699 41.0973 25.1399 41.1173C25.2499 41.1573 25.2199 41.0573 25.2099 41.0273C25.1799 40.9673 25.1499 40.8773 25.0599 40.8873C25.0199 40.8873 24.9799 40.9173 24.9099 40.9573ZM24.8499 41.1773C24.7799 41.1473 24.7399 41.1773 24.7499 41.2173C24.7499 41.2473 24.7899 41.2973 24.8199 41.3073C24.8399 41.3073 24.8799 41.2773 24.9099 41.2573C24.8899 41.2273 24.8599 41.1873 24.8499 41.1673V41.1773Z" fill="#1D478D"/>
<path d="M29.3796 31.9173C29.3796 32.6173 29.3796 33.3173 29.3996 34.0173C29.3996 34.2173 29.3396 34.2673 29.1396 34.2673C28.7096 34.2673 28.2696 34.2673 27.8396 34.2773C27.0596 34.3973 27.3696 33.7873 27.2896 33.4473C27.2896 32.5273 27.2396 31.6073 27.3296 30.7073C27.3696 30.3373 27.1096 29.9173 27.4496 29.5873C27.2096 29.3373 27.3896 29.0373 27.3396 28.7673C27.2796 28.4573 27.3896 28.1773 27.3196 27.8773C27.1896 27.3273 27.6696 27.5173 27.9396 27.4573C28.0896 27.5973 28.2496 27.4373 28.3996 27.4573C28.6696 27.4573 28.9396 27.4573 29.2096 27.4773C29.4596 27.4773 29.4296 27.5973 29.3096 27.7373C29.2896 27.6573 29.2296 27.5873 29.1596 27.6373C29.0696 27.6973 29.1096 27.7573 29.1996 27.7773C29.3696 27.8073 29.1996 28.1573 29.4796 28.0773C29.3996 28.0773 29.3896 28.1373 29.3996 28.1973C29.3996 28.3173 29.3996 28.4473 29.3996 28.5673C29.2296 28.7973 29.4296 29.0473 29.3696 29.2773C29.3496 29.2873 29.3196 29.2973 29.2996 29.3073C29.3196 29.3273 29.3496 29.3473 29.3696 29.3773C29.3696 29.4673 29.3796 29.5473 29.3896 29.6373C29.3896 29.7573 29.3896 29.8873 29.3896 30.0073C29.3696 30.0873 29.3896 30.1773 29.2796 30.1973C29.2596 30.1973 29.2296 30.1973 29.2096 30.1973C29.2296 30.2173 29.2496 30.2473 29.2696 30.2673C29.2396 30.4073 29.4196 30.4773 29.3696 30.6173C29.2496 30.7473 29.1896 30.8973 29.2496 31.0773C29.2396 31.1173 29.2196 31.1573 29.2096 31.1873C29.1496 31.2373 29.0896 31.2673 29.0196 31.1873C28.9696 31.1373 29.0696 30.9773 28.9296 31.0273C28.7696 31.0773 28.8996 31.1973 28.9296 31.2773C28.9796 31.4073 29.0796 31.4373 29.2196 31.4273C29.3596 31.4073 29.4096 31.4773 29.3696 31.6073C29.2296 31.6973 29.2296 31.7873 29.3696 31.8773L29.3796 31.9173Z" fill="#1D478D"/>
<path d="M24.2197 27.2973C24.2597 27.5473 24.4597 27.7473 24.4197 28.0173C24.0097 28.2273 23.5897 28.4073 23.1897 28.6373C22.8397 28.8473 22.6297 28.6473 22.5197 28.3973C22.1897 27.6573 21.6497 27.1773 20.8597 27.0273C20.6597 26.9873 20.6697 26.8773 20.6597 26.7473C20.6597 26.4473 20.6897 26.1373 20.6597 25.8473C20.6097 25.4673 20.7497 25.3173 21.1197 25.3873C22.1297 25.5673 23.0697 25.8873 23.7297 26.7373C23.8797 26.9373 24.0597 27.1073 24.2297 27.2873L24.2197 27.2973Z" fill="#1D478D"/>
<path d="M11.7196 44.4772C11.5696 44.4772 11.4196 44.4772 11.2696 44.4872C10.4496 44.4872 10.2496 44.1772 10.5396 43.3872C10.5496 43.3572 10.5996 43.3272 10.5896 43.3172C10.2496 42.5472 10.8296 42.9972 11.0596 42.9472C11.6396 42.8272 12.2396 42.8772 12.8196 42.7872C13.2996 42.7172 13.7696 42.9173 14.2496 42.8673C14.4596 42.8473 14.4296 42.9972 14.4896 43.1072C14.6496 43.4272 14.9396 43.6873 14.8596 44.1173C14.8096 44.3473 14.6096 44.5572 14.3796 44.4972C14.2396 44.4672 14.2896 44.4072 14.3196 44.3072C14.3896 44.0272 14.5896 43.7573 14.4596 43.4373C14.4396 43.3773 14.4296 43.3172 14.3596 43.3272C14.3196 43.3272 14.2496 43.3772 14.2596 43.3972C14.3196 43.6472 14.0296 43.8172 14.1096 44.0572C14.1296 44.1372 14.1896 44.2772 14.0996 44.2672C13.7296 44.2472 13.4096 44.6372 13.0296 44.3772C13.0396 44.2972 13.1796 44.2572 13.0896 44.1472C13.0696 44.1272 13.0396 44.0972 13.0296 44.1072C12.9096 44.1572 12.9396 44.2772 12.9196 44.3772C12.7696 44.3072 12.6296 44.3072 12.4896 44.4272C12.3296 44.5572 12.1296 44.4872 11.9396 44.4772C11.9196 44.4372 11.8996 44.3572 11.8696 44.3472C11.7896 44.3272 11.7496 44.3872 11.7396 44.4672L11.7196 44.4772Z" fill="#1D478D"/>
<path d="M22.6496 31.0173C23.1396 31.2673 23.5996 31.4973 24.0696 31.7273C24.2796 31.8273 24.3996 31.9173 24.2396 32.1773C23.4896 33.3873 22.4296 34.0973 21.0096 34.2673C20.7996 34.2973 20.6596 34.2173 20.6196 34.0173C20.5796 33.8373 20.5896 33.6473 20.8496 33.6273C20.9396 33.6273 21.0096 33.5573 20.9496 33.4873C20.7096 33.1973 21.0396 32.9273 20.9796 32.6473C20.9596 32.5373 21.0696 32.5673 21.1296 32.5373C21.8496 32.2473 22.4096 31.7973 22.6496 31.0173Z" fill="#1D478D"/>
<path d="M25.5796 44.3273C25.6296 44.2873 25.6796 44.2373 25.7296 44.1973C25.8396 44.2473 25.8596 44.3273 25.7796 44.4073C25.6696 44.5173 25.6396 44.3773 25.5796 44.3373V44.3273Z" fill="#1D478D"/>
<path d="M16.08 41.3274C16.16 41.4574 16.34 41.6174 15.99 41.6174C15.87 41.4774 16.03 41.4174 16.08 41.3274Z" fill="#1D478D"/>
<path d="M12.8899 44.3874C12.9099 44.2874 12.8899 44.1774 12.9999 44.1174C13.0099 44.1174 13.0499 44.1374 13.0599 44.1574C13.1499 44.2574 13.0099 44.3074 12.9999 44.3874H12.8799H12.8899Z" fill="#1D478D"/>
<path d="M27.48 44.4773C27.5 44.4073 27.51 44.3373 27.53 44.2673C27.64 44.2973 27.76 44.3173 27.77 44.4773C27.67 44.5173 27.57 44.5173 27.48 44.4773Z" fill="#1D478D"/>
<path d="M29.2197 42.3174C29.2897 42.3774 29.3697 42.4274 29.4397 42.4874C29.4097 42.5174 29.3597 42.5674 29.3497 42.5674C29.2997 42.5274 29.2497 42.4774 29.1997 42.4274C29.1997 42.3874 29.1997 42.3574 29.1997 42.3174H29.2197Z" fill="#1D478D"/>
<path d="M30.9199 43.0574C30.9999 43.0574 31.1099 43.0174 31.0999 43.1674C31.0899 43.2674 30.9999 43.2574 30.9299 43.2374C30.9299 43.1774 30.9299 43.1174 30.9299 43.0474H30.9199V43.0574Z" fill="#1D478D"/>
<path d="M11.7197 44.4774C11.7197 44.3974 11.7697 44.3374 11.8497 44.3574C11.8797 44.3574 11.8997 44.4374 11.9197 44.4874C11.8497 44.4874 11.7897 44.4874 11.7197 44.4874V44.4774Z" fill="#1D478D"/>
<path d="M30.93 43.0473C30.93 43.1073 30.93 43.1673 30.93 43.2373H30.89H30.85C30.79 43.1373 30.74 43.0373 30.93 43.0473Z" fill="#1D478D"/>
<path d="M9.99994 40.7573C9.98994 40.6973 10.0199 40.6873 10.0799 40.6873C10.0999 40.7573 10.0799 40.7873 9.99994 40.7573Z" fill="#1D478D"/>
<path d="M16.4097 31.1372C16.4097 31.1372 16.4797 31.1372 16.5197 31.1372C16.4897 31.1372 16.4497 31.1572 16.4197 31.1672V31.1372H16.4097Z" fill="#1D478D"/>
<path d="M20.3197 25.4874C20.3197 25.4874 20.2697 25.4274 20.2397 25.3974C20.3097 25.3874 20.3397 25.4074 20.3197 25.4874Z" fill="#1D478D"/>
<path d="M27.5698 25.3773C27.5698 24.5473 27.5198 23.7173 27.5798 22.8873C27.8198 19.9173 28.5998 17.1473 30.7998 14.9773C32.3098 13.4873 34.1698 12.6973 36.2398 12.3573C37.1898 12.1973 38.1498 12.1073 39.1098 12.1773C43.0398 12.4573 46.2098 14.0273 48.1998 17.5673C49.0898 19.1573 49.4998 20.8673 49.5998 22.6873C49.7198 24.8273 49.1098 26.8073 48.4398 28.7773C48.0298 29.9673 47.2998 31.0173 46.5598 32.0373C46.4598 32.1773 46.2898 32.2773 46.1498 32.3873L46.1298 32.3673C46.1198 32.1973 46.2298 32.0873 46.3298 31.9773C46.9398 31.2473 47.4798 30.4573 47.8498 29.5873C48.9498 27.0373 49.6598 24.4273 49.2398 21.5973C48.9298 19.4273 48.1498 17.4873 46.6798 15.8773C44.5998 13.5973 41.9198 12.5773 38.8798 12.4573C38.0198 12.4273 37.1698 12.4973 36.3198 12.6373C33.4598 13.1073 31.1298 14.4173 29.5798 16.9373C29.1998 17.5673 28.7898 18.1973 28.6898 18.9973C28.9898 18.7773 29.2198 18.5073 29.4598 18.2473C29.5198 18.1773 29.6298 18.1373 29.6998 18.2173C29.7798 18.3073 29.6798 18.3773 29.6198 18.4373C29.5698 18.4873 29.4798 18.5073 29.4298 18.5573C29.0098 19.0173 28.4298 19.3473 28.2498 19.9973C28.1498 20.3873 28.0998 20.7873 28.0298 21.2073C28.3498 21.0673 28.4698 20.7273 28.8198 20.6173C28.8098 20.8773 28.6098 20.9473 28.5198 21.0873C28.2798 21.4673 27.7998 21.7073 27.8498 22.2573C27.8598 22.3773 27.8498 22.5173 27.9798 22.5673C28.1198 22.6173 28.1998 22.4973 28.2698 22.3973C28.4498 22.1573 28.6098 21.9073 28.7798 21.6573C28.8498 21.5573 28.9598 21.4573 29.0798 21.5773C29.1798 21.6673 29.0998 21.7673 29.0198 21.8573C28.8098 22.0973 28.5898 22.3173 28.3998 22.5773C28.0998 22.9773 27.6598 23.3073 27.7598 23.9073C27.7798 24.0073 27.7098 24.1473 27.8198 24.1973C27.9598 24.2673 28.0398 24.1173 28.0998 24.0373C28.3098 23.7673 28.4998 23.4773 28.6998 23.1973C28.7698 23.1073 28.8598 23.0373 28.9698 23.1273C29.0698 23.2073 28.9698 23.3073 28.9298 23.3673C28.7598 23.5973 28.5498 23.7973 28.4098 24.0373C28.1398 24.4773 27.6698 24.8173 27.7698 25.4273C27.7098 25.4273 27.6398 25.4273 27.5798 25.4273L27.5698 25.3773Z" fill="#1D478D"/>
<path d="M27.5696 25.3774C27.6296 25.3774 27.6996 25.3774 27.7596 25.3774C27.9096 25.3774 28.0596 25.3774 28.2096 25.3774C28.2996 25.3774 28.3996 25.3774 28.4896 25.3774C29.0996 25.3474 29.7096 25.4774 30.3096 25.2974C30.3696 25.3274 30.4296 25.3574 30.4896 25.3774C30.6196 25.7274 30.8296 25.4674 31.0196 25.4574C31.2296 25.6074 30.9496 25.7674 31.0196 25.9174C30.8196 25.9174 30.6396 25.7574 30.4096 25.8574C30.5896 25.9874 30.5796 26.3474 30.9296 26.2774C31.1196 26.2374 31.1396 26.0974 31.0896 25.9274C31.2496 25.9274 31.3996 25.9274 31.5596 25.9274C31.9096 26.1074 31.6596 26.4974 31.8396 26.7374C31.7196 26.8374 31.6196 26.9374 31.5696 27.0874C31.4296 27.0874 31.2796 27.0974 31.1396 27.1074C31.0396 27.1074 30.9396 27.1074 30.8396 27.1074C30.4196 27.1074 30.0096 27.1074 29.5896 27.0974C29.4796 27.0974 29.2996 27.1474 29.3296 26.9574C29.4296 26.3874 29.0696 26.7174 28.8696 26.6674C28.8696 26.8374 29.1296 26.8374 29.0396 27.0174C28.9696 27.1674 28.8296 27.0774 28.7296 27.0974C28.6596 27.1174 28.5796 27.1074 28.5096 27.1174C28.2996 27.1174 28.0796 27.1174 27.8696 27.1174C27.0296 27.1174 26.1796 27.1174 25.3396 27.0974C25.1696 27.0974 24.8696 27.1474 24.9196 26.9274C24.9696 26.6974 24.9296 26.4074 25.1196 26.2274C25.1896 26.1574 25.3196 26.1774 25.3396 26.3374C25.3596 26.5074 25.4696 26.5774 25.6196 26.5574C25.8196 26.5274 25.7596 26.3874 25.7096 26.2574C25.6896 26.1974 25.7096 26.1374 25.7796 26.1074C25.9096 26.0574 25.9796 26.1574 26.0896 26.3374C26.0396 25.9974 26.1296 25.6874 25.6496 25.8174C25.5396 25.8474 25.4196 25.6074 25.3096 25.3674H27.6196L27.5696 25.3774ZM28.5696 25.8374C28.7296 25.8474 28.6996 25.7674 28.6496 25.6774C28.6496 25.6374 28.6496 25.5774 28.6296 25.5574C28.5696 25.4974 28.5096 25.5974 28.5096 25.6074C28.5296 25.6774 28.3896 25.8074 28.5696 25.8374ZM29.8496 26.0374C29.9296 25.9774 30.0996 26.1774 30.1096 25.9774C30.1196 25.7574 29.9396 25.8674 29.8296 25.8574C29.7396 25.8874 29.6796 25.9274 29.7296 26.0274C29.7596 26.0874 29.8096 26.0874 29.8496 26.0274V26.0374ZM28.7896 26.4574C29.1796 26.4374 29.2096 26.3474 28.9196 25.9174C29.0396 26.1674 28.6896 26.1674 28.7296 26.3674C28.6896 26.3874 28.6496 26.4074 28.6796 26.4474C28.6896 26.4674 28.7496 26.4474 28.7896 26.4474V26.4574ZM29.7796 26.2074C29.7796 26.2074 29.7196 26.2174 29.6896 26.2274C29.7196 26.2474 29.7396 26.2774 29.7696 26.2774C29.7896 26.2774 29.8296 26.2674 29.8496 26.2574C29.8196 26.2374 29.7896 26.2174 29.7696 26.2074H29.7796ZM28.6496 26.0574C28.6496 26.0574 28.6196 26.0074 28.5996 26.0074C28.5796 26.0074 28.5396 26.0274 28.5296 26.0374C28.5096 26.0874 28.5396 26.1174 28.5896 26.1074C28.6096 26.1074 28.6296 26.0774 28.6496 26.0574Z" fill="#1D478D"/>
<path d="M32.9196 39.0573C32.8396 37.9673 32.7396 36.8873 32.7096 35.7973C32.6896 35.2973 32.5896 34.7973 32.6296 34.3073C32.6596 34.0073 32.5696 33.8673 32.3496 33.7273C31.9596 33.4773 31.5696 33.2173 31.2396 32.8873C31.1796 32.8273 31.1496 32.7373 31.0996 32.6573L31.1296 32.6273C31.4596 32.8873 31.6896 32.7273 31.8896 32.4373C31.9696 32.3073 32.0496 32.1873 32.1396 32.0573C32.1996 31.9673 32.2896 31.8673 32.3996 31.9373C32.5396 32.0273 32.4196 32.1173 32.3596 32.1973C32.2096 32.3873 32.0496 32.5673 31.8996 32.7573C31.7496 32.9473 31.7696 33.0973 31.9596 33.2573C32.3396 33.5673 32.4396 33.5473 32.8696 32.9773C32.9496 32.8773 33.0196 32.6873 33.1696 32.8073C33.3096 32.9273 33.1296 33.0373 33.0496 33.1373C32.9896 33.2073 32.9196 33.2673 32.8596 33.3373C32.6396 33.6073 32.6396 33.6473 32.9296 33.9373C32.9596 33.8973 32.9796 33.8573 33.0096 33.8273C33.1096 33.7373 33.1596 33.4673 33.3296 33.6073C33.5196 33.7673 33.2896 33.8973 33.1796 33.9973C32.8696 34.2673 32.8296 34.6173 32.8596 34.9873C32.8596 35.0373 32.8796 35.1173 32.9196 35.1373C32.9996 35.1973 33.0596 35.1273 33.1096 35.0673C33.1696 34.9973 33.2096 34.9173 33.2696 34.8473C33.3496 34.7473 33.4496 34.5673 33.5896 34.6773C33.7596 34.8073 33.5496 34.9073 33.4696 34.9873C33.1296 35.3573 32.8296 35.7373 32.9996 36.3273C33.2396 36.1573 33.3196 35.8973 33.4796 35.7073C33.5496 35.6273 33.5896 35.3873 33.7696 35.5373C33.9296 35.6673 33.7496 35.7673 33.6696 35.8673C33.5496 36.0173 33.4296 36.1773 33.2996 36.3273C32.9896 36.6773 32.9896 37.0673 33.0696 37.5173C33.4096 37.2973 33.4896 36.9573 33.6896 36.6973C33.7596 36.6073 33.8396 36.5073 33.9496 36.5873C34.0896 36.6873 33.9496 36.7673 33.8896 36.8473C33.6996 37.1573 33.3896 37.3973 33.3396 37.8073C33.4996 37.8073 33.5396 37.6973 33.5996 37.6073C33.6596 37.5173 33.7496 37.4173 33.8596 37.4873C33.9996 37.5873 33.8696 37.7173 33.8096 37.7973C33.6696 38.0073 33.4296 38.1173 33.2796 38.3373C33.0196 38.7273 33.0596 38.9173 33.4996 39.0773C33.7696 39.1773 34.0396 39.2673 34.3096 39.3573C34.3996 39.3973 34.4696 39.4773 34.5796 39.4473C34.7596 39.3673 34.9496 39.6073 35.1296 39.4473C35.2096 39.5073 35.2796 39.5873 35.3896 39.5373C35.4696 39.6673 35.6296 39.6773 35.7396 39.6973C36.4296 39.8073 37.1196 39.9473 37.8196 39.9773C38.5496 39.9973 39.3096 40.1273 40.0196 39.8073C40.1096 39.8073 40.1996 39.8073 40.2896 39.8173C40.4696 39.7873 40.6496 39.7573 40.8296 39.7273C40.9396 39.7273 41.0596 39.7473 41.1296 39.6273C41.5596 39.6673 42.0296 39.7373 42.2396 39.2273C42.5496 38.4773 42.7596 37.6973 42.8196 36.8873C42.8896 36.0373 43.1896 35.2973 43.6996 34.6173C44.0796 34.1173 44.5396 33.7173 45.0296 33.3473C45.4296 33.0473 45.6696 32.5773 46.1396 32.3773L46.1596 32.3973C45.8796 32.9273 45.4096 33.2973 44.9596 33.6573C43.8096 34.5773 43.0296 35.6773 42.9596 37.2273C42.9196 38.0473 42.5996 38.8373 42.3496 39.6173C42.2396 39.7773 42.0096 39.6473 41.8996 39.8073C41.6896 39.9973 41.4596 39.7573 41.2596 39.8373C40.6196 40.0973 39.9496 40.0673 39.2896 40.0873C38.4896 40.1173 37.6996 40.0873 36.8996 40.0873C36.4996 39.9273 36.0696 39.9673 35.6596 39.8673C34.8196 39.6573 33.9896 39.4373 33.1896 39.1373C33.1096 39.1073 33.0196 39.0973 32.9296 39.0773L32.9196 39.0573ZM33.0896 38.0473C33.0896 38.0473 33.1496 38.0373 33.1596 38.0173C33.1596 37.9973 33.1596 37.9673 33.1496 37.9473C33.1196 37.9573 33.0896 37.9773 33.0596 37.9873C33.0696 38.0073 33.0796 38.0273 33.0996 38.0573L33.0896 38.0473Z" fill="#1D478D"/>
<path d="M27.8496 27.1274C28.0596 27.1274 28.2796 27.1274 28.4896 27.1274C28.4596 27.2374 28.4296 27.3474 28.3996 27.4574C28.2496 27.4374 28.0896 27.5974 27.9396 27.4574C27.9096 27.3474 27.8796 27.2374 27.8496 27.1274Z" fill="#1D478D"/>
<path d="M36.55 41.8074L36.4601 41.9574C36.3101 41.9774 36.18 41.9474 36.04 41.8074H36.55Z" fill="#1D478D"/>
<path d="M29.3998 42.6274C29.4698 42.6274 29.4798 42.6674 29.4598 42.6974C29.4398 42.7374 29.4898 42.8174 29.3998 42.8074C29.3598 42.8074 29.3298 42.7574 29.2998 42.7374C29.3298 42.6974 29.3698 42.6574 29.3998 42.6274Z" fill="#1D478D"/>
<path d="M29.2697 31.1073C29.2197 30.9273 29.2697 30.7773 29.3897 30.6473C29.5597 30.7573 29.6597 30.6673 29.7397 30.5173C29.8897 30.2573 30.0497 30.0073 30.2197 29.7573C30.2897 29.6573 30.3297 29.4273 30.4797 29.5173C30.6697 29.6273 30.4797 29.7773 30.4197 29.8973C30.2297 30.2173 30.0097 30.5273 29.8297 30.8573C29.6597 31.1473 29.9197 31.3273 30.0797 31.4573C30.2497 31.6073 30.3497 31.3573 30.4397 31.2473C30.6397 30.9873 30.8197 30.7073 31.0197 30.4373C31.0897 30.3473 31.1897 30.2173 31.3097 30.3373C31.4197 30.4373 31.2797 30.5173 31.2197 30.5973C30.9797 30.9273 30.7497 31.2573 30.4997 31.5773C30.2997 31.8173 30.4397 31.9473 30.6097 32.1073C30.8297 32.3173 30.9597 32.1473 31.0897 31.9973C31.1597 31.9173 31.2097 31.8173 31.2697 31.7373C31.3497 31.6373 31.4597 31.4773 31.5897 31.6173C31.6997 31.7373 31.5197 31.8073 31.4497 31.8973C31.2897 32.1273 30.9497 32.2673 31.1097 32.6373L31.0797 32.6673C30.4797 32.4673 30.2497 31.8773 29.8397 31.4773C29.6997 31.3273 29.6197 31.1073 29.3697 31.1073C29.3297 31.1073 29.2997 31.1073 29.2597 31.1073H29.2697Z" fill="#1D478D"/>
<path d="M29.3799 31.9172C29.2399 31.8272 29.2399 31.7372 29.3799 31.6472C29.4999 31.7372 29.5099 31.8272 29.3799 31.9172Z" fill="#1D478D"/>
<path d="M29.27 31.1074C29.27 31.1074 29.34 31.1074 29.38 31.1074C29.38 31.2074 29.41 31.3574 29.23 31.2274C29.24 31.1874 29.26 31.1474 29.27 31.1174V31.1074Z" fill="#1D478D"/>
<path d="M24.9097 40.9572C24.9797 40.9272 25.0197 40.8972 25.0597 40.8872C25.1497 40.8772 25.1797 40.9672 25.2097 41.0272C25.2297 41.0572 25.2497 41.1672 25.1397 41.1172C25.0797 41.0972 25.0297 41.0372 24.9097 40.9572Z" fill="#1D478D"/>
<path d="M24.8598 41.1772C24.8598 41.1772 24.8998 41.2272 24.9198 41.2672C24.8898 41.2872 24.8498 41.3272 24.8298 41.3172C24.7998 41.3072 24.7598 41.2572 24.7598 41.2272C24.7598 41.1872 24.7898 41.1472 24.8598 41.1872V41.1772Z" fill="#1D478D"/>
<path d="M29.4097 29.6473C29.7297 29.4573 29.8097 29.1073 29.9897 28.8173C30.0497 28.7173 30.0897 28.5373 30.2297 28.6073C30.3797 28.6873 30.2997 28.8573 30.2097 28.9573C29.9097 29.2873 29.8297 29.7773 29.4197 30.0173C29.4197 29.8973 29.4197 29.7673 29.4197 29.6473H29.4097Z" fill="#1D478D"/>
<path d="M29.4097 28.1973C29.6197 28.1373 29.6697 27.9373 29.7897 27.7873C29.8597 27.6973 29.9397 27.6173 30.0497 27.6873C30.1697 27.7673 30.1197 27.8873 30.0297 27.9573C29.7997 28.1373 29.7197 28.4673 29.4197 28.5773C29.4197 28.4573 29.4197 28.3273 29.4197 28.2073L29.4097 28.1973Z" fill="#1D478D"/>
<path d="M29.2001 27.7774C29.1101 27.7474 29.0601 27.6874 29.1601 27.6374C29.2301 27.5874 29.2901 27.6674 29.3101 27.7374C29.2701 27.7474 29.2401 27.7674 29.2001 27.7774Z" fill="#1D478D"/>
<path d="M29.2998 30.2073C29.2998 30.2073 29.2998 30.2673 29.2998 30.2873C29.2798 30.2673 29.2597 30.2373 29.2397 30.2173C29.2597 30.2173 29.2897 30.2173 29.3097 30.2173L29.2998 30.2073Z" fill="#1D478D"/>
<path d="M29.3898 29.2874C29.3898 29.2874 29.3898 29.3574 29.3898 29.3874C29.3698 29.3674 29.3398 29.3474 29.3198 29.3174C29.3398 29.3074 29.3698 29.2974 29.3898 29.2874Z" fill="#1D478D"/>
<path d="M29.4797 28.0773C29.4797 28.0773 29.4497 28.0273 29.4297 28.0073C29.4497 28.0273 29.4597 28.0473 29.4797 28.0773Z" fill="#1D478D"/>
<path d="M44.6198 30.5574C44.7498 31.4574 43.9698 31.7574 43.4798 32.2174C43.0498 32.6274 42.6598 33.0874 42.1598 33.4174C41.8898 33.5974 41.9498 33.9374 41.9098 34.1974C41.6698 35.6174 41.4698 37.0474 41.2598 38.4774C41.1998 38.8574 41.1598 39.2274 41.1098 39.6074C41.0398 39.7274 40.9198 39.7074 40.8098 39.7074C40.8398 38.7974 41.0898 37.9274 41.1998 37.0274C41.3198 36.0074 41.5398 34.9974 41.6998 33.9774C41.7398 33.7574 41.7498 33.5274 41.9198 33.3674C42.4498 32.8574 42.9698 32.3274 43.5398 31.8674C43.9798 31.5074 44.3198 31.1974 44.3698 30.5474C44.4398 29.7174 44.3698 28.8974 44.4298 28.0674C44.2998 28.0874 44.2598 28.1374 44.2598 28.1974C44.1898 28.8774 44.1298 29.5574 44.0698 30.2374C44.0598 30.3874 44.0698 30.5174 43.9298 30.6374C43.0798 31.3674 42.2298 32.0974 41.3898 32.8374C41.2898 32.9174 41.1898 32.9974 41.1698 33.1574C41.0898 33.7874 40.9898 34.4174 40.8998 35.0474C40.7898 35.8374 40.6898 36.6374 40.5898 37.4274C40.4898 38.2174 40.3798 39.0074 40.2698 39.7974C40.1798 39.7974 40.0898 39.7974 39.9998 39.7874C39.9998 39.6674 39.9998 39.5574 40.0198 39.4374C40.1398 38.6874 40.2298 37.9274 40.3298 37.1674C40.3298 36.9374 40.4298 36.7374 40.4498 36.5174C40.5398 35.6174 40.6698 34.7274 40.7998 33.8274C40.8698 33.3474 40.9298 32.8774 41.3798 32.5374C41.9998 32.0674 42.5698 31.5474 43.1598 31.0374C43.5698 30.6774 44.0398 30.3474 43.8798 29.6774C43.8598 29.5874 43.8998 29.4674 43.9198 29.3774C44.0198 28.9974 43.8798 28.6074 43.9998 28.2074C43.8298 28.4274 43.6098 28.5574 43.4698 28.7674C43.3498 28.9474 43.3198 28.9874 43.1798 28.7774C42.9698 28.4474 42.7398 28.1374 42.4898 27.8374C42.1498 27.4274 41.9198 26.9274 41.5098 26.5774C40.5498 25.7474 39.4998 25.0774 38.2998 24.6574C38.0898 24.5874 37.8998 24.4674 37.8798 24.1274C37.6898 24.3974 37.7498 24.6274 37.7498 24.8374C37.7498 25.0274 37.7298 25.1974 37.5598 25.3174C36.6998 25.9174 35.8398 26.5174 34.9798 27.1174C34.8198 27.2274 34.7298 27.2074 34.6598 27.0274C34.4098 26.3374 34.1498 25.6474 33.8898 24.9574C33.8598 24.8774 33.7198 24.7674 33.8598 24.6874C33.9498 24.6374 34.0698 24.6874 34.1398 24.7774C34.3598 25.0674 34.6898 25.2374 34.9398 25.4974C35.0798 25.6374 35.1898 25.6774 35.3798 25.5274C35.7098 25.2574 36.0698 25.0374 36.4298 24.8074C36.5798 24.7074 36.6398 24.5874 36.6098 24.4274C36.5698 24.1674 36.4698 23.9174 36.4498 23.6574C36.4298 23.4474 36.2898 23.3874 36.1398 23.3474C35.4798 23.1574 34.8098 22.9874 34.1498 22.7974C33.8398 22.7074 33.6098 22.7674 33.4398 23.0374C33.1598 23.4774 32.7098 23.7874 32.4498 24.2474C32.1798 24.5674 31.8698 24.8674 31.6498 25.2274C31.5198 25.4374 31.3898 25.7074 31.5398 25.9874C31.3798 25.9874 31.2298 25.9874 31.0698 25.9874C31.0398 26.0074 31.0198 26.0074 30.9998 25.9774C30.9198 25.8274 31.2098 25.6674 30.9998 25.5174C31.0798 25.4574 31.1798 25.4074 31.2398 25.3374C31.9698 24.4874 32.7198 23.6574 33.3998 22.7774C33.6098 22.5074 33.7998 22.5074 34.0498 22.5674C34.7098 22.7274 35.3598 22.9174 36.0098 23.0974C36.2098 23.1574 36.4998 23.1774 36.5698 23.3074C36.7998 23.7174 36.7898 24.2174 36.8698 24.6774C36.9098 24.9174 36.5898 24.9374 36.4298 25.0674C36.1398 25.2974 35.8398 25.5174 35.5398 25.7374C35.2898 25.9274 35.0498 25.9374 34.8298 25.6874C34.6598 25.4974 34.4798 25.3274 34.1698 25.2374C34.3898 25.7874 34.6098 26.2674 34.7898 26.7774C34.8698 27.0174 34.9198 26.9674 35.0798 26.8474C35.5098 26.5174 35.9598 26.1974 36.4198 25.8974C37.5698 25.1374 37.5598 25.1374 37.5598 23.7874C37.5598 23.5174 37.4498 23.3274 37.2598 23.2374C36.2498 22.7474 35.3698 21.9774 34.2398 21.7674C33.8498 21.6974 33.4098 21.4174 33.0598 21.9074C32.2098 23.0874 31.3398 24.2674 30.4798 25.4474C30.4198 25.4174 30.3598 25.3874 30.2998 25.3674C31.0198 24.3674 31.7498 23.3674 32.4698 22.3774C32.8698 21.7774 33.2598 21.1874 34.1498 21.5474C34.6698 21.7574 34.9398 21.4774 35.1898 21.0174C35.7698 19.9674 36.4398 18.9674 37.0598 17.9474C37.1598 17.7774 37.2198 17.7574 37.4298 17.8174C38.1798 18.0274 38.8198 18.4874 39.5498 18.7374C40.3798 19.0174 40.3598 19.0574 39.9898 19.9074C40.7698 20.2074 41.5498 20.5174 42.3298 20.8074C42.4398 20.8474 42.5898 20.8574 42.5298 21.0074C42.4298 21.2874 42.6598 21.3974 42.7998 21.5174C43.2098 21.8674 43.6398 22.1874 44.0598 22.5174C44.2998 22.7074 44.5398 22.9074 44.2798 23.2474C44.1698 23.3874 44.2898 23.4574 44.3598 23.5574C44.6198 23.9574 44.9798 24.2474 45.3198 24.5674C46.1698 25.3974 46.1298 25.3474 45.4398 26.3074C45.1298 26.7474 44.5898 27.0274 44.6198 27.7774C44.6598 28.7074 44.6198 29.6574 44.6198 30.6074V30.5574ZM37.4098 23.0174C37.4898 22.9674 37.5198 22.8874 37.5598 22.8074C38.0898 21.7574 38.6398 20.7074 39.1798 19.6474C39.4698 19.0674 39.4598 19.0574 38.8498 18.7674C38.5998 18.6474 38.3198 18.5774 38.0798 18.4474C37.8398 18.3174 37.7498 18.3674 37.6298 18.6074C37.1398 19.5574 36.6398 20.4974 36.1198 21.4274C35.7598 22.0674 35.7398 22.0574 36.3498 22.3874C36.6598 22.5574 36.9698 22.7274 37.2798 22.9074C37.3298 22.9374 37.3698 22.9774 37.4198 23.0174H37.4098ZM40.7698 25.0374C40.5998 25.0474 40.6098 25.2074 40.5498 25.2874C40.4798 25.3874 40.4698 25.4774 40.5998 25.5774C40.9698 25.8474 41.3298 26.1374 41.6898 26.4274C41.9198 26.6174 42.1098 26.8474 42.4698 26.6674C42.5998 26.5974 42.7198 26.7074 42.8198 26.8174C42.9698 26.9774 43.1598 27.1174 43.2998 27.2974C43.4698 27.5074 43.5798 27.4374 43.6898 27.2474C43.8998 26.8874 44.1098 26.5374 44.3398 26.1874C44.7798 25.4974 44.7798 25.4974 44.2498 24.8874C44.1698 24.7974 44.1198 24.6874 44.0398 24.5974C43.8498 24.3674 43.6898 24.2974 43.5198 24.6374C43.2498 25.1974 42.9598 25.7474 42.6698 26.2974C42.6198 26.3874 42.6098 26.5874 42.4598 26.5274C42.2598 26.4374 42.4398 26.2974 42.4798 26.2074C42.9898 25.2074 43.4998 24.2074 44.0298 23.2174C44.1498 22.9974 44.1598 22.8574 43.9498 22.6974C43.4898 22.3574 43.0298 22.0074 42.5698 21.6574C42.4698 21.5874 42.3598 21.3874 42.2398 21.6574C42.1698 21.8274 42.0698 21.9574 42.3298 22.0874C42.7598 22.2974 43.1498 22.5574 43.5698 22.7874C43.7598 22.8874 43.8198 22.9674 43.6898 23.1974C43.2198 23.9874 42.7798 24.7874 42.3398 25.5974C42.0498 26.1274 42.0698 26.1274 41.6298 25.7474C41.3498 25.5074 41.0498 25.2774 40.7598 25.0374H40.7698ZM41.5198 21.5474C41.5198 21.3774 41.3998 21.3174 41.3198 21.2474C40.9798 20.9574 40.5898 20.7174 40.2998 20.3874C39.9598 20.0074 39.8798 20.2274 39.7598 20.5374C39.5298 21.1774 39.2998 21.8174 39.0698 22.4574C38.9398 22.8174 38.5998 23.2374 38.6898 23.4974C38.7998 23.7974 39.3098 23.9474 39.6198 24.1774C39.8598 24.3574 39.9898 24.2674 40.1198 24.0474C40.3698 23.5774 40.6298 23.1174 40.8998 22.6574C41.1098 22.2874 41.3198 21.9174 41.5198 21.5674V21.5474ZM43.4798 23.0774C43.4798 23.0274 43.4198 22.9874 43.3598 22.9474C42.9598 22.7374 42.5498 22.5274 42.1498 22.3074C42.0098 22.2274 41.9498 22.2774 41.8898 22.4074C41.5798 23.0974 41.2598 23.7874 40.9398 24.4774C40.8898 24.5774 40.8598 24.6874 40.9498 24.7674C41.2798 25.0474 41.5198 25.4174 41.8998 25.6474C42.0298 25.7274 42.0398 25.7074 42.0998 25.5974C42.5298 24.8174 42.9698 24.0474 43.3998 23.2774C43.4298 23.2274 43.4398 23.1674 43.4798 23.0874V23.0774ZM44.1098 23.6874C44.0198 23.6874 43.9998 23.7174 43.9698 23.7774C43.9198 23.8874 43.8698 23.9674 43.9698 24.0874C44.2598 24.4374 44.5098 24.8274 44.8198 25.1674C44.9798 25.3374 44.9598 25.4674 44.8598 25.6274C44.4898 26.2674 44.1298 26.9174 43.7498 27.5474C43.6098 27.7774 43.4398 27.7974 43.2398 27.5774C43.0598 27.3774 42.8598 27.1874 42.6598 27.0074C42.5798 26.9374 42.5198 26.7574 42.3798 26.8674C42.2598 26.9674 42.2798 27.1174 42.3698 27.2474C42.6198 27.5974 42.9098 27.9274 43.1198 28.2974C43.2998 28.6074 43.4098 28.5574 43.5898 28.3274C44.2698 27.4274 44.9598 26.5374 45.6398 25.6374C45.7598 25.4774 45.7998 25.3274 45.5998 25.1474C45.1298 24.7174 44.6998 24.2574 44.2498 23.8074C44.1998 23.7574 44.1398 23.7074 44.0998 23.6674L44.1098 23.6874ZM38.1798 24.2874C38.8398 24.5874 39.4298 24.8474 39.9998 25.1274C40.2098 25.2274 40.3098 25.2174 40.4098 25.0074C41.0198 23.7174 41.6298 22.4374 42.2498 21.1474C42.3198 21.0074 42.2798 20.9474 42.1598 20.8974C41.7098 20.7174 41.2698 20.5174 40.7598 20.3974C40.9298 20.8174 41.3198 20.9774 41.5998 21.2174C41.8398 21.4174 41.7798 21.5474 41.6698 21.7274C41.2898 22.3974 40.8998 23.0574 40.5298 23.7274C40.0298 24.6274 40.0398 24.6274 39.1398 24.1474C38.8598 23.9974 38.5498 23.6274 38.3198 24.2074C38.3198 24.2274 38.2598 24.2374 38.1698 24.2674L38.1798 24.2874ZM37.7698 23.4674C37.8598 23.5874 37.5998 23.8574 37.9298 23.9374C38.2898 24.0274 38.2898 23.7274 38.3698 23.5174C38.8698 22.2374 39.3698 20.9474 39.8698 19.6674C39.9198 19.5474 40.1098 19.3774 39.8498 19.2574C39.6198 19.1474 39.5298 19.3174 39.4498 19.4874C39.0498 20.3274 38.6298 21.1674 38.2598 22.0174C38.0598 22.4774 37.6898 22.8674 37.7598 23.4674H37.7698ZM37.2498 17.9574C36.5698 19.1274 35.8898 20.2674 35.2398 21.4174C35.1898 21.5074 34.9398 21.6374 35.2398 21.7974C35.4798 21.9374 35.5598 21.8574 35.6698 21.6474C36.1898 20.7074 36.7298 19.7774 37.2798 18.8474C37.4498 18.5474 37.6398 18.2774 37.2598 17.9474L37.2498 17.9574ZM40.6298 20.4074C40.6298 20.4074 40.6798 20.3874 40.6998 20.3674C40.6798 20.3574 40.6498 20.3374 40.6298 20.3374C40.6098 20.3374 40.5798 20.3574 40.5598 20.3674C40.5798 20.3774 40.6098 20.3974 40.6298 20.4074Z" fill="#1D478D"/>
<path d="M31.1198 27.1274C31.9498 28.4174 32.7698 29.7174 33.5998 31.0074C33.7798 31.2974 33.9598 31.5974 34.1698 31.8574C34.5698 32.3474 34.6798 32.8974 34.6498 33.5174C34.6098 34.3874 34.7098 35.2774 34.6198 36.1374C34.5098 37.2374 34.5898 38.3274 34.5498 39.4274C34.4398 39.4574 34.3698 39.3774 34.2798 39.3374C34.2498 37.2774 34.4298 35.2174 34.3798 33.1574C34.3798 32.7974 34.2798 32.4974 34.0798 32.1974C32.9898 30.5074 31.9098 28.8074 30.8198 27.1174C30.9198 27.1174 31.0198 27.1174 31.1198 27.1174V27.1274Z" fill="#1D478D"/>
<path d="M31.8298 26.7573C32.1098 26.8873 32.1798 27.1873 32.3398 27.4073C33.2298 28.6873 34.0798 29.9773 34.9498 31.2673C34.9798 31.3173 35.0398 31.3473 35.0898 31.3873C35.1598 31.5373 35.2298 31.6873 35.2998 31.8373C35.2998 31.9873 35.2998 32.1373 35.2898 32.2873C35.1998 34.6973 35.4298 37.1073 35.3698 39.5273C35.2598 39.5773 35.1898 39.4973 35.1098 39.4373C35.0798 36.9973 35.0398 34.5573 35.0198 32.1273C35.0198 31.8873 34.9498 31.6973 34.8198 31.5073C33.8998 30.1473 32.9898 28.7873 32.0698 27.4273C31.9498 27.2473 31.8498 27.0273 31.5698 27.1273C31.6198 26.9773 31.7198 26.8773 31.8398 26.7773L31.8298 26.7573Z" fill="#1D478D"/>
<path d="M28.21 25.3774C28.28 25.0974 28.45 24.8674 28.64 24.6574C28.7 24.5874 28.8 24.5474 28.88 24.6174C28.98 24.7074 28.88 24.7774 28.82 24.8374C28.67 24.9974 28.46 25.1174 28.49 25.3874C28.4 25.3874 28.3 25.3874 28.21 25.3874V25.3774Z" fill="#1D478D"/>
<path d="M28.7399 26.3672C28.6999 26.1572 29.0599 26.1672 28.9299 25.9172C29.2199 26.3472 29.1899 26.4372 28.7999 26.4572C28.7799 26.4272 28.7599 26.3972 28.7399 26.3672Z" fill="#1D478D"/>
<path d="M29.8296 25.8674C29.9396 25.8674 30.1296 25.7674 30.1096 25.9874C30.0996 26.1874 29.9296 25.9874 29.8496 26.0474C29.8496 25.9874 29.8296 25.9274 29.8296 25.8674Z" fill="#1D478D"/>
<path d="M28.5697 25.8374C28.3897 25.8074 28.5297 25.6874 28.5097 25.6074C28.5097 25.5874 28.5597 25.4974 28.6297 25.5574C28.6497 25.5774 28.6397 25.6374 28.6497 25.6774C28.6197 25.7274 28.5997 25.7874 28.5697 25.8374Z" fill="#1D478D"/>
<path d="M29.79 26.2173C29.79 26.2173 29.84 26.2473 29.87 26.2673C29.84 26.2673 29.81 26.2973 29.79 26.2873C29.76 26.2873 29.73 26.2573 29.71 26.2373C29.74 26.2373 29.76 26.2273 29.8 26.2173H29.79Z" fill="#1D478D"/>
<path d="M29.83 25.8674C29.83 25.9274 29.85 25.9874 29.85 26.0474C29.81 26.1074 29.76 26.1074 29.73 26.0474C29.68 25.9474 29.74 25.9074 29.83 25.8774V25.8674Z" fill="#1D478D"/>
<path d="M28.66 26.0573C28.66 26.0573 28.62 26.1073 28.6 26.1073C28.55 26.1073 28.52 26.0873 28.54 26.0373C28.54 26.0173 28.59 26.0073 28.61 26.0073C28.63 26.0073 28.64 26.0373 28.66 26.0573Z" fill="#1D478D"/>
<path d="M28.5698 25.8372C28.5998 25.7872 28.6198 25.7272 28.6498 25.6772C28.7098 25.7672 28.7398 25.8472 28.5698 25.8372Z" fill="#1D478D"/>
<path d="M28.7997 26.4574C28.7997 26.4574 28.6997 26.4674 28.6897 26.4574C28.6597 26.4174 28.6997 26.3874 28.7397 26.3774C28.7597 26.4074 28.7797 26.4374 28.7997 26.4674V26.4574Z" fill="#1D478D"/>
<path d="M28.9399 20.3274C28.9799 20.2674 29.0099 20.1873 29.0599 20.1573C29.2199 20.0573 29.2399 19.7974 29.4699 19.7874C29.5399 19.7874 29.5799 19.8573 29.5399 19.9073C29.3899 20.0973 29.2399 20.3074 28.9399 20.3274Z" fill="#1D478D"/>
</svg>
