<svg width="59" height="59" viewBox="0 0 59 59" fill="none" xmlns="http://www.w3.org/2000/svg">
<rect x="0.668945" y="0.172363" width="57.8345" height="57.8345" rx="4" fill="white"/>
<path d="M33.6638 26.1184C33.3238 26.9784 32.9137 27.7984 32.4437 28.5784C31.5337 30.1084 30.4738 31.5384 29.2038 32.7884C28.4838 33.5084 27.6938 34.1384 26.7838 34.5984C26.2838 34.8484 25.7538 34.9984 25.1838 34.9684C24.5338 34.9284 24.0038 34.6284 23.5438 34.1984C22.8238 33.5184 22.6137 32.6684 22.6937 31.7084C22.8037 30.3084 23.2438 28.9984 23.8638 27.7484C24.0638 27.3284 24.2937 26.9284 24.5137 26.5184C24.5737 26.3984 24.5738 26.3184 24.4738 26.1984C24.0138 25.6484 23.8838 25.0284 24.1038 24.3384C24.3238 23.6284 24.7238 23.0184 25.2138 22.4584C26.2038 21.3284 27.3738 20.4284 28.7238 19.7584C29.3638 19.4384 30.0437 19.2184 30.7637 19.1584C32.5937 19.0084 33.8638 20.2784 34.1338 21.7984C34.1838 22.0584 34.2038 22.3184 34.2438 22.5784C34.2438 22.6084 34.2537 22.6484 34.2637 22.6984C34.4237 22.5084 34.5738 22.3384 34.7338 22.1684C35.7638 21.0784 36.9538 20.1884 38.3338 19.5984C39.0138 19.3084 39.7338 19.1184 40.4938 19.1384C41.8938 19.1884 42.9738 20.1984 43.3138 21.3984C43.5738 22.3184 43.5938 23.2484 43.4438 24.1984C43.2038 25.6984 42.5938 27.0484 41.8438 28.3484C40.9338 29.9284 39.8637 31.3884 38.5737 32.6884C37.8537 33.4084 37.0738 34.0484 36.1738 34.5284C35.6338 34.8184 35.0538 34.9884 34.4338 34.9484C33.8838 34.9084 33.4238 34.6684 33.0038 34.3284C32.1938 33.6684 31.9038 32.7984 31.9738 31.7884C32.0938 29.9984 32.7538 28.3784 33.6138 26.8284C33.6838 26.6984 33.7438 26.5684 33.8238 26.4384C33.8738 26.3484 33.8738 26.2784 33.7838 26.2084C33.7438 26.1784 33.7138 26.1384 33.6638 26.0884V26.1184ZM24.6338 33.0284C24.6938 33.0184 24.7338 33.0084 24.7838 32.9884C25.2538 32.8484 25.6938 32.6384 26.1138 32.3684C27.5038 31.4384 28.6238 30.2284 29.6638 28.9484C30.1538 28.3384 30.5538 27.6784 30.9538 27.0184C31.6338 25.8884 32.2338 24.7284 32.5338 23.4384C32.6338 23.0184 32.6938 22.5784 32.7338 22.1484C32.7538 21.8184 32.6337 21.5284 32.3038 21.3884C32.1637 21.3284 31.9938 21.2984 31.8338 21.2984C31.2738 21.2984 30.7537 21.4384 30.2338 21.6384C30.1738 21.6584 30.1138 21.6984 30.0638 21.7384C30.0138 21.7784 30.0138 21.8384 30.0738 21.8584C30.1838 21.9084 30.2037 21.9884 30.1937 22.0984C30.1937 22.2084 30.2038 22.3284 30.2238 22.4484C30.2338 22.5084 30.2538 22.5884 30.2938 22.6184C30.4238 22.7084 30.3938 22.8184 30.3338 22.9184C30.2838 23.0084 30.2338 23.1084 30.1638 23.1884C29.8738 23.5184 29.5838 23.8484 29.2838 24.1584C28.6638 24.7784 28.0638 25.4184 27.5038 26.0984C26.3538 27.5084 25.5038 29.0884 24.9338 30.8084C24.6938 31.5284 24.5838 32.2584 24.6438 33.0384L24.6338 33.0284ZM33.9138 33.0284C33.9938 33.0084 34.0638 32.9884 34.1338 32.9684C34.7038 32.7984 35.2137 32.5084 35.6937 32.1584C36.8937 31.2884 37.9038 30.2184 38.8338 29.0784C39.4238 28.3584 39.9038 27.5784 40.3738 26.7784C41.0438 25.6284 41.6338 24.4384 41.8838 23.1184C41.9538 22.7684 41.9938 22.4184 42.0038 22.0584C42.0038 21.7584 41.8738 21.4984 41.5838 21.3684C41.4438 21.3084 41.2738 21.2884 41.1138 21.2784C40.6638 21.2584 40.2338 21.3784 39.8038 21.5084C39.6538 21.5584 39.5138 21.6184 39.3738 21.6884C39.2838 21.7284 39.2738 21.7884 39.3738 21.8584C39.4138 21.8884 39.4537 21.9484 39.4637 21.9984C39.4837 22.1084 39.4638 22.2284 39.4938 22.3384C39.5138 22.4284 39.5338 22.5384 39.5938 22.5884C39.6838 22.6684 39.6838 22.7484 39.6438 22.8384C39.6038 22.9184 39.5638 23.0084 39.5038 23.0784C39.2238 23.3984 38.9537 23.7384 38.6537 24.0384C37.9837 24.6984 37.3338 25.3884 36.7438 26.1184C35.5738 27.5784 34.6938 29.2084 34.1438 30.9984C33.9438 31.6484 33.8738 32.3184 33.9138 33.0184V33.0284Z" fill="#1D478D"/>
<path d="M46.8436 29.0382C46.9236 28.9682 47.0136 28.9182 47.0836 28.8382C47.5836 28.3282 48.0936 27.8282 48.5636 27.2882C49.7236 25.9282 50.8636 24.5482 52.0136 23.1782C52.5736 22.5182 53.1336 21.8582 53.7036 21.2082C53.8336 21.0582 53.9936 20.9182 54.1536 20.7882C54.4336 20.5482 54.7536 20.5282 55.0536 20.7082C55.7436 21.1282 56.1436 21.7682 55.8536 22.5782C55.6436 23.1582 55.4036 23.7182 55.1336 24.2682C54.3636 25.8282 53.5636 27.3782 52.7836 28.9382C52.6136 29.2782 52.4936 29.6382 52.3136 29.9682C51.9936 30.5582 51.7836 31.1882 51.5336 31.8082C51.4036 32.1282 51.3136 32.4682 51.1836 32.7882C51.1036 33.0082 51.0036 33.2082 50.8936 33.4182C50.7636 33.6682 50.5436 33.7382 50.2836 33.6982C49.7936 33.6382 49.2036 33.0882 49.1436 32.5982C49.1236 32.4082 49.1636 32.1882 49.2236 31.9982C49.6536 30.6582 50.2536 29.3982 50.8336 28.1282C50.8536 28.0782 50.8736 28.0282 50.8736 27.9682C50.7536 28.1082 50.6436 28.2382 50.5236 28.3782C49.7436 29.2982 48.9536 30.2182 48.0136 30.9882C47.8236 31.1482 47.5936 31.2682 47.3536 31.3682C46.8536 31.5782 46.3736 31.4882 45.9436 31.1682C45.6236 30.9382 45.3436 30.6582 45.1836 30.2982C45.0536 30.0182 44.9936 29.6982 44.9436 29.3882C44.8636 28.9382 44.9236 28.4882 45.0236 28.0482C45.0436 27.9782 45.0236 27.9082 45.0236 27.8382C45.0036 27.8382 44.9836 27.8182 44.9636 27.8082C44.9636 27.8282 44.9536 27.8482 44.9436 27.8782C44.8536 28.1082 44.7936 28.3582 44.6736 28.5682C44.6136 28.6782 44.5436 28.7782 44.5036 28.8982C44.4736 28.9882 44.4636 29.0982 44.4036 29.1482C44.3036 29.2382 44.3136 29.3482 44.2736 29.4482C44.0736 29.9082 43.8636 30.3682 43.6636 30.8282C43.4636 31.2982 43.2736 31.7582 43.0836 32.2282C42.8136 32.8882 42.5436 33.5582 42.2836 34.2182C42.2036 34.4182 42.1436 34.6282 42.0536 34.8282C41.9936 34.9582 41.9036 35.0782 41.8136 35.1982C41.7736 35.2482 41.7036 35.3282 41.6336 35.1982C41.6136 35.1682 41.5436 35.1682 41.5036 35.1682C41.3636 35.1482 41.2236 35.1482 41.0936 35.1282C41.0436 35.1182 40.9936 35.0482 40.9536 35.0082C40.9036 34.9482 40.8636 34.8782 40.8036 34.8382C40.7036 34.7682 40.5836 34.7382 40.4836 34.6682C40.4436 34.6482 40.4436 34.5782 40.4136 34.5282C40.3736 34.4682 40.3236 34.4082 40.2836 34.3482C40.2436 34.2782 40.2136 34.2082 40.2036 34.1282C40.1836 33.7982 40.2536 33.4682 40.3836 33.1582C40.6336 32.5282 40.9136 31.9082 41.1436 31.2782C41.7336 29.6882 42.5436 28.1882 43.2836 26.6682C44.0636 25.0582 44.8736 23.4682 45.7836 21.9282C46.1036 21.3782 46.4236 20.8382 46.7636 20.2982C47.0036 19.9182 47.2536 19.5582 47.5136 19.1982C47.6336 19.0182 47.8136 18.9082 48.0136 18.8382C48.0936 18.8182 48.1836 18.7582 48.2336 18.8882C48.2336 18.8882 48.2536 18.9082 48.2636 18.9082C48.4736 18.8582 48.5436 19.0482 48.6636 19.1482C48.9836 19.4182 49.1836 19.7882 49.2336 20.1982C49.2736 20.4582 49.2336 20.7482 49.1436 20.9982C48.9436 21.6482 48.7136 22.2782 48.4836 22.9182C47.8936 24.5582 47.3536 26.2082 46.9836 27.9182C46.9036 28.2782 46.8436 28.6282 46.7736 28.9882C46.7836 28.9982 46.8036 29.0082 46.8136 29.0182L46.8436 29.0382Z" fill="#1D478D"/>
<path d="M10.5538 27.9886C10.6238 28.0286 10.6638 28.0586 10.7138 28.0686C11.1638 28.2386 11.5638 28.4786 11.8938 28.8186C12.3138 29.2486 12.4638 29.7686 12.3338 30.3586C12.1638 31.1586 11.7238 31.7986 11.1738 32.3886C10.4238 33.1986 9.47377 33.6986 8.48377 34.1086C7.60377 34.4786 6.68377 34.6786 5.74377 34.7786C5.25377 34.8286 4.75377 34.8886 4.26377 34.9086C4.01377 34.9086 3.76377 34.8586 3.51377 34.7986C3.32377 34.7586 3.21377 34.6186 3.22377 34.4186C3.22377 34.2486 3.24377 34.0686 3.30377 33.9086C3.44377 33.5186 3.68377 33.1886 3.99377 32.9086C4.09377 32.8186 4.19377 32.7086 4.30377 32.5986C3.79377 32.4686 3.32377 31.7386 3.38377 31.2786C3.42377 30.9986 3.52377 30.7486 3.66377 30.5086C3.93377 30.0686 4.20377 29.6286 4.47377 29.1886C4.83377 28.5886 5.19377 27.9786 5.55377 27.3786C6.21377 26.3086 6.86377 25.2386 7.54377 24.1786C8.02377 23.4386 8.54377 22.7286 9.04377 21.9986C9.09377 21.9286 9.14377 21.8486 9.18377 21.7686C9.20377 21.7286 9.23377 21.6686 9.21377 21.6386C9.19377 21.6086 9.12377 21.5986 9.08377 21.5986C8.81377 21.6286 8.54377 21.6586 8.27377 21.7186C7.59377 21.8786 6.91377 22.0486 6.23377 22.2186C6.19377 22.2186 6.15377 22.2286 6.11377 22.2386C6.01377 22.2586 5.97377 22.2186 5.97377 22.1186C5.97377 22.0386 5.97377 21.9586 5.97377 21.8786C5.97377 21.8186 5.92377 21.7586 5.92377 21.6986C5.92377 21.6086 5.92377 21.5086 5.96377 21.4386C6.04377 21.3186 6.12377 21.1986 6.13377 21.0486C6.13377 20.9886 6.20377 20.9286 6.22377 20.8586C6.24377 20.8086 6.24377 20.7586 6.26377 20.7086C6.28377 20.6586 6.30377 20.5986 6.33377 20.5586C6.69377 20.1386 7.12377 19.8486 7.68377 19.7186C8.87377 19.4286 10.0638 19.2186 11.2938 19.1986C12.1538 19.1886 13.0038 19.1986 13.8438 19.3986C14.3338 19.5186 14.8138 19.6786 15.2438 19.9586C16.1638 20.5386 16.5438 21.4786 16.2838 22.5286C16.0638 23.4286 15.5838 24.1886 14.9938 24.8886C14.3838 25.6186 13.6238 26.1786 12.8238 26.6686C12.1638 27.0786 11.4838 27.4386 10.8038 27.8286C10.7338 27.8686 10.6638 27.9086 10.5638 27.9686L10.5538 27.9886ZM7.76377 27.6286C7.76377 27.6286 7.79377 27.6286 7.80377 27.6286C7.92377 27.5786 8.04377 27.5286 8.16377 27.4786C10.0338 26.5886 11.8438 25.5886 13.6238 24.5386C13.8838 24.3786 14.1038 24.1686 14.2838 23.9286C14.5438 23.5686 14.5738 23.1886 14.3638 22.7986C14.1738 22.4486 13.8938 22.1986 13.5338 22.0286C12.5538 21.5686 11.5038 21.4786 10.4338 21.5086C10.3738 21.5086 10.3138 21.5286 10.2338 21.5486C10.3238 21.7086 10.4038 21.8386 10.4838 21.9686C10.7938 22.4786 10.7638 22.9786 10.4238 23.4686C10.4238 23.4686 10.4238 23.4686 10.4238 23.4786C10.0738 24.0186 9.73377 24.5586 9.38377 25.0986C8.94377 25.7786 8.48377 26.4586 8.04377 27.1486C7.94377 27.2986 7.86377 27.4686 7.77377 27.6386L7.76377 27.6286ZM4.86377 32.5386C5.28377 32.6186 5.69377 32.6486 6.10377 32.6286C6.86377 32.5886 7.61377 32.4486 8.34377 32.2286C8.90377 32.0586 9.45377 31.8486 10.0038 31.6386C10.1238 31.5886 10.2438 31.4986 10.3338 31.3986C10.4938 31.2086 10.4338 30.9586 10.1838 30.7886C9.85377 30.5586 9.48377 30.3786 9.08377 30.2786C8.39377 30.1086 7.69377 30.0586 6.98377 30.1486C6.74377 30.1786 6.50377 30.2386 6.26377 30.2986C6.12377 30.3386 6.01377 30.4086 5.98377 30.5686C5.98377 30.6086 5.95377 30.6486 5.93377 30.6886C5.60377 31.2986 5.31377 31.9286 4.87377 32.4786C4.87377 32.4786 4.86377 32.4986 4.85377 32.5286L4.86377 32.5386Z" fill="#1D478D"/>
<path d="M20.5839 18.5881C20.5439 18.6581 20.5339 18.6981 20.5039 18.7481C20.5539 18.7481 20.5939 18.7381 20.6339 18.7381C20.6638 18.7381 20.7039 18.7181 20.7139 18.7381C20.8139 18.8381 20.9338 18.8981 21.0538 18.9681C21.1038 18.9981 21.1439 19.0481 21.1739 19.0881C21.2039 19.1281 21.2338 19.1781 21.2338 19.2181C21.2438 19.4081 21.2738 19.5781 21.5138 19.6281C21.5738 19.6381 21.6439 19.7681 21.6439 19.8381C21.6439 20.0081 21.6239 20.1781 21.5739 20.3381C21.4039 20.8781 21.1139 21.3581 20.8539 21.8581C20.1939 23.0981 19.5238 24.3281 18.8738 25.5781C18.0738 27.1181 17.3339 28.6981 16.6539 30.2981C16.4239 30.8481 16.2238 31.4081 16.0238 31.9681C15.9638 32.1381 16.0039 32.1881 16.1839 32.1481C16.8139 31.9981 17.4439 31.8382 18.0839 31.6982C19.1439 31.4582 20.2038 31.2081 21.2638 30.9781C21.4238 30.9381 21.5939 30.9281 21.7539 30.9281C21.8239 30.9281 21.9039 30.9681 21.9739 30.9981C22.0039 31.0081 22.0238 31.0581 22.0238 31.0881C22.0038 31.2881 22.0139 31.4881 21.9538 31.6681C21.8938 31.8581 21.7738 32.0281 21.6638 32.1881C21.4938 32.4181 21.3138 32.6381 21.1238 32.8481C20.8238 33.1881 20.4139 33.3181 19.9939 33.4181C18.8739 33.6881 17.7539 33.9381 16.6439 34.2381C15.2839 34.5981 13.9339 34.9981 12.5839 35.3881C12.4039 35.4381 12.2338 35.4881 12.0538 35.5281C11.7938 35.5781 11.6938 35.4981 11.6938 35.2381C11.6938 35.0381 11.7538 34.8581 11.8438 34.6881C11.8838 34.6281 11.8939 34.5481 11.9239 34.4781C11.9839 34.3381 12.0439 34.1981 12.1039 34.0681C12.1739 33.9181 12.2339 33.7581 12.3139 33.6181C12.3639 33.5281 12.4338 33.4381 12.5138 33.3781C12.7938 33.1481 13.1139 32.9781 13.4639 32.8781C13.5839 32.8481 13.6038 32.7881 13.5938 32.6781C13.5838 32.4681 13.5639 32.2581 13.5739 32.0481C13.5739 31.9281 13.6439 31.8181 13.6839 31.7081C13.7639 31.4881 13.8439 31.2781 13.9239 31.0581C13.9539 30.9781 14.0039 30.9081 14.0339 30.8281C14.2339 30.3281 14.4238 29.8381 14.6238 29.3381C15.2838 27.7181 16.0139 26.1281 16.8139 24.5681C17.3539 23.5181 17.8938 22.4581 18.4438 21.4081C18.8238 20.6881 19.2138 19.9781 19.5938 19.2681C19.7238 19.0281 19.8639 18.7981 20.1139 18.6781C20.1539 18.6581 20.2039 18.6781 20.2539 18.6681C20.2939 18.6681 20.3338 18.6581 20.3738 18.6481C20.4338 18.6381 20.4839 18.6181 20.5739 18.5981L20.5839 18.5881Z" fill="#1D478D"/>
<path d="M30.9439 37.1784C30.6639 37.8784 30.3939 38.5584 30.1139 39.2284C30.0839 39.2984 30.0639 39.3684 30.0239 39.4384C30.0039 39.4784 29.9639 39.4984 29.9339 39.5384C29.9039 39.5084 29.8639 39.4784 29.8539 39.4484C29.7039 39.0784 29.5539 38.7084 29.4039 38.3384C29.1939 37.8084 28.9739 37.2784 28.7639 36.7484C28.7439 36.7084 28.7339 36.6684 28.7139 36.6084C28.8439 36.6084 28.9639 36.6084 29.0739 36.6084C29.1139 36.6084 29.1539 36.6684 29.1739 36.7084C29.4139 37.2984 29.6539 37.8984 29.8939 38.4884C29.9039 38.5184 29.9139 38.5484 29.9439 38.5984C30.2139 37.9284 30.4739 37.2684 30.7339 36.6184C30.9939 36.5851 31.1739 36.6851 31.2739 36.9184C31.4939 37.4684 31.7239 38.0184 31.9539 38.5884C31.9839 38.5384 31.9939 38.4984 32.0139 38.4584C32.2439 37.8784 32.4639 37.3084 32.6939 36.7284C32.7339 36.6284 32.7839 36.5884 32.8839 36.5984C32.9739 36.6084 33.0639 36.5984 33.1639 36.5984C33.0539 36.8684 32.9539 37.1284 32.8539 37.3884C32.5839 38.0584 32.3139 38.7384 32.0439 39.4084C32.0239 39.4584 31.9739 39.4884 31.9439 39.5284C31.9139 39.4884 31.8739 39.4584 31.8539 39.4084C31.5639 38.7084 31.2839 38.0184 31.0039 37.3184C30.9939 37.2784 30.9739 37.2484 30.9439 37.1784Z" fill="#1D478D"/>
<path d="M48.7239 39.5082C47.9239 39.4982 47.3239 39.0082 47.2039 38.2482C47.0639 37.3782 47.6639 36.5982 48.5439 36.5182C49.1939 36.4582 49.7439 36.6482 50.1039 37.2082C50.6139 37.9982 50.3039 39.2282 49.0939 39.4682C48.9739 39.4882 48.8439 39.4982 48.7239 39.5082ZM48.7739 36.9082C48.1139 36.9082 47.6239 37.3682 47.6239 38.0082C47.6239 38.6282 48.1039 39.1082 48.7439 39.1082C49.4039 39.1082 49.8939 38.6382 49.8939 38.0082C49.8939 37.3882 49.4039 36.9082 48.7739 36.9082Z" fill="#1D478D"/>
<path d="M34.7337 39.5585C33.9937 39.5585 33.4037 39.1085 33.2337 38.4485C33.0037 37.5085 33.6037 36.6585 34.5637 36.5685C35.2037 36.5085 35.7437 36.6985 36.1037 37.2585C36.6237 38.0585 36.2937 39.2884 35.0837 39.5184C34.9637 39.5384 34.8437 39.5485 34.7237 39.5585H34.7337ZM34.7537 39.1585C35.4137 39.1585 35.9037 38.6885 35.9037 38.0585C35.9037 37.4385 35.4137 36.9685 34.7737 36.9685C34.1137 36.9685 33.6237 37.4285 33.6237 38.0685C33.6237 38.6985 34.1037 39.1585 34.7437 39.1585H34.7537Z" fill="#1D478D"/>
<path d="M22.9436 39.5882C22.1436 39.5782 21.5436 39.0882 21.4236 38.3282C21.2836 37.4582 21.8836 36.6782 22.7636 36.5982C23.4136 36.5382 23.9636 36.7282 24.3236 37.2882C24.8336 38.0782 24.5236 39.3082 23.3136 39.5482C23.1936 39.5682 23.0636 39.5782 22.9436 39.5882ZM22.9736 39.1882C23.6236 39.1882 24.1136 38.7082 24.1136 38.0782C24.1136 37.4582 23.6236 36.9882 22.9836 36.9882C22.3236 36.9882 21.8536 37.4482 21.8436 38.0782C21.8436 38.7082 22.3236 39.1782 22.9736 39.1782V39.1882Z" fill="#1D478D"/>
<path d="M25.064 36.6083C25.064 36.6083 25.094 36.6083 25.114 36.6083C25.314 36.5683 25.454 36.6584 25.594 36.8184C26.144 37.4684 26.714 38.1084 27.284 38.7584C27.304 38.7784 27.324 38.7983 27.364 38.8383V36.6183H27.764V39.5183C27.574 39.5483 27.414 39.5483 27.264 39.3683C26.704 38.7083 26.134 38.0584 25.564 37.4084C25.544 37.3784 25.514 37.3584 25.474 37.3184V39.5284H25.084V36.6183L25.064 36.6083Z" fill="#1D478D"/>
<path d="M44.1836 36.5781H44.5936V37.8281H46.2236V36.5781H46.6436V39.4781H46.2336V38.2281H44.6036V39.4781H44.1836V36.5681V36.5781Z" fill="#1D478D"/>
<path d="M39.1235 39.4883C38.9535 39.4883 38.8235 39.4883 38.6935 39.4883C38.6435 39.4883 38.5835 39.4483 38.5535 39.4083C38.4135 39.1983 38.2735 38.9783 38.1335 38.7683C38.0535 38.6483 37.9635 38.5383 37.8735 38.4283C37.7235 38.2483 37.5235 38.1783 37.2735 38.2283V39.4683H36.8535V36.5383C37.2135 36.5583 37.5835 36.5483 37.9435 36.6083C38.2935 36.6683 38.4935 36.9283 38.5335 37.2483C38.5735 37.6183 38.4435 37.8683 38.1135 38.0583C38.1035 38.0583 38.0935 38.0783 38.0735 38.0883C38.5235 38.4583 38.7235 39.0183 39.1135 39.4683L39.1235 39.4883ZM37.2835 36.9183V37.8383C37.3935 37.8383 37.4935 37.8383 37.6035 37.8383C37.6735 37.8383 37.7335 37.8283 37.8035 37.8083C37.9935 37.7583 38.1135 37.5883 38.1135 37.3783C38.1135 37.1783 38.0035 37.0083 37.8135 36.9783C37.6435 36.9483 37.4735 36.9383 37.2935 36.9283L37.2835 36.9183Z" fill="#1D478D"/>
<path d="M11.8538 36.6782C12.2038 36.6782 12.5437 36.6382 12.8737 36.6782C13.4937 36.7682 13.7637 37.4782 13.3737 37.9482C13.2937 38.0382 13.1838 38.1082 13.1138 38.1682C13.2738 38.3882 13.4538 38.6082 13.6138 38.8382C13.7738 39.0682 13.9237 39.3082 14.0938 39.5682C13.9337 39.5682 13.7938 39.5682 13.6438 39.5682C13.6138 39.5682 13.5738 39.5282 13.5438 39.4882C13.4038 39.2782 13.2737 39.0582 13.1237 38.8482C13.0437 38.7282 12.9438 38.6182 12.8538 38.4982C12.7038 38.3182 12.5037 38.2682 12.2637 38.3082V39.5482H11.8438V36.6682L11.8538 36.6782ZM12.2738 37.9382C12.4638 37.9182 12.6438 37.9182 12.8138 37.8782C12.9838 37.8382 13.0938 37.6782 13.1038 37.4882C13.1038 37.2982 13.0238 37.1182 12.8538 37.0782C12.6738 37.0282 12.4738 37.0282 12.2738 36.9982V37.9382Z" fill="#1D478D"/>
<path d="M39.4438 36.5786H39.8538V37.8986C40.1338 37.5986 40.3839 37.3286 40.6339 37.0486C40.7039 36.9686 40.7938 36.8986 40.8438 36.8086C41.0238 36.5086 41.2938 36.5586 41.5938 36.5686C41.1638 37.0386 40.7538 37.4886 40.3438 37.9486C40.8638 38.4486 41.3738 38.9486 41.9238 39.4886C41.7138 39.4886 41.5438 39.4886 41.3738 39.4886C41.3338 39.4886 41.2938 39.4486 41.2638 39.4186C40.8238 38.9986 40.3938 38.5786 39.9538 38.1586C39.9338 38.1386 39.9038 38.1186 39.8638 38.0786V39.4786H39.4438V36.5686V36.5786Z" fill="#1D478D"/>
<path d="M9.32372 39.5783C9.14372 39.5783 9.01371 39.5783 8.88371 39.5783C8.83371 39.5783 8.77371 39.5384 8.74371 39.4984C8.46371 39.1684 8.19371 38.8284 7.91371 38.4984C7.88371 38.4684 7.85371 38.4283 7.81371 38.3883C7.67371 38.5583 7.54371 38.7084 7.41371 38.8684C7.23371 39.0884 7.05371 39.2984 6.87371 39.5184C6.85371 39.5484 6.81371 39.5783 6.78371 39.5783C6.63371 39.5783 6.48371 39.5783 6.30371 39.5783C6.73371 39.0683 7.13371 38.5684 7.55371 38.0684C7.16371 37.6084 6.78371 37.1484 6.38371 36.6584C6.56371 36.6584 6.71372 36.6584 6.86372 36.6584C6.90372 36.6584 6.94372 36.6984 6.97372 36.7384C7.25372 37.0784 7.53372 37.4084 7.82372 37.7584C8.01372 37.5284 8.20371 37.2983 8.38371 37.0783C8.42371 37.0283 8.47372 36.9884 8.50372 36.9284C8.66372 36.6184 8.92371 36.6183 9.23371 36.6683C8.85371 37.1383 8.47371 37.5984 8.09371 38.0584C8.50371 38.5584 8.91371 39.0484 9.34371 39.5684L9.32372 39.5783Z" fill="#1D478D"/>
<path d="M14.4136 36.6282H16.0536V36.9982H14.8436V37.8782H16.0136V38.2582H14.8436V39.1582H16.1036V39.5382H14.4236V36.6382L14.4136 36.6282Z" fill="#1D478D"/>
<path d="M4.50391 36.6584H6.14391V37.0284H4.93391V37.9084H6.11391V38.2885H4.93391V39.1884H6.1939V39.5685H4.5139V36.6684L4.50391 36.6584Z" fill="#1D478D"/>
<path d="M10.044 38.3186V39.5586H9.62402V36.6586C10.004 36.6586 10.394 36.6286 10.764 36.6586C11.204 36.7086 11.474 37.0586 11.454 37.4786C11.434 37.9186 11.164 38.2086 10.714 38.2586C10.494 38.2786 10.274 38.2786 10.044 38.2986V38.3186ZM10.044 37.9386C10.274 37.9286 10.474 37.9386 10.684 37.8986C10.904 37.8686 11.014 37.7086 11.024 37.4786C11.024 37.2286 10.934 37.0786 10.704 37.0486C10.494 37.0186 10.284 37.0186 10.054 37.0086V37.9386H10.044Z" fill="#1D478D"/>
<path d="M50.814 36.5483C51.174 36.5483 51.534 36.5283 51.894 36.5483C52.344 36.5783 52.644 36.9083 52.654 37.3583C52.654 37.7983 52.374 38.1183 51.914 38.1683C51.694 38.1883 51.474 38.1983 51.234 38.2083V39.4483H50.814V36.5383V36.5483ZM51.234 37.8483C51.474 37.8283 51.694 37.8283 51.914 37.7883C52.104 37.7483 52.204 37.5983 52.204 37.3883C52.204 37.1683 52.134 37.0083 51.944 36.9783C51.714 36.9283 51.474 36.9283 51.234 36.9083V37.8483Z" fill="#1D478D"/>
<path d="M19.8937 37.2284C19.7137 37.1484 19.5537 37.0384 19.3837 36.9984C19.2437 36.9684 19.0837 36.9984 18.9437 37.0384C18.7437 37.1084 18.6837 37.3284 18.8237 37.4984C18.9137 37.6084 19.0337 37.6984 19.1537 37.7784C19.3337 37.8984 19.5337 37.9984 19.7037 38.1384C20.1337 38.4884 20.1237 39.1184 19.7037 39.4184C19.3637 39.6684 18.7637 39.6084 18.4137 39.3384C18.3937 39.3184 18.3837 39.2884 18.3837 39.2584C18.3837 39.1084 18.3837 38.9684 18.4137 38.7984C18.4537 38.8384 18.4837 38.8884 18.5337 38.9284C18.7237 39.1084 18.9537 39.2184 19.2237 39.1984C19.3937 39.1884 19.5237 39.1184 19.5937 38.9584C19.6637 38.8084 19.6237 38.6684 19.5137 38.5484C19.4237 38.4484 19.3137 38.3784 19.2037 38.2984C19.0237 38.1684 18.8237 38.0684 18.6537 37.9284C18.3937 37.7184 18.3137 37.4384 18.4037 37.1284C18.4937 36.8184 18.7237 36.6584 19.0337 36.5984C19.3037 36.5484 19.5637 36.5984 19.8037 36.7284C19.8537 36.7584 19.8937 36.8284 19.8937 36.8784C19.9037 36.9884 19.8937 37.1084 19.8937 37.2084V37.2284Z" fill="#1D478D"/>
<path d="M17.9338 37.2484C17.8138 37.1784 17.7138 37.0984 17.6038 37.0484C17.4138 36.9584 17.2138 36.9384 17.0038 37.0184C16.7838 37.1084 16.7138 37.3284 16.8738 37.5184C16.9638 37.6184 17.0738 37.6984 17.1938 37.7784C17.3738 37.8984 17.5738 37.9984 17.7438 38.1384C18.1138 38.4384 18.1738 38.9784 17.8738 39.3184C17.6338 39.5784 17.3238 39.6284 17.0038 39.5684C16.8338 39.5384 16.6638 39.4484 16.4938 39.3684C16.4638 39.3484 16.4238 39.2984 16.4238 39.2584C16.4238 39.1184 16.4238 38.9784 16.4238 38.8284C16.4338 38.8184 16.4538 38.8084 16.4638 38.7884C16.4938 38.8384 16.5238 38.8884 16.5538 38.9284C16.7438 39.1184 16.9738 39.2284 17.2538 39.2084C17.4238 39.1984 17.5538 39.1284 17.6338 38.9684C17.7038 38.8184 17.6638 38.6784 17.5538 38.5584C17.4638 38.4584 17.3538 38.3784 17.2438 38.3084C17.0638 38.1884 16.8738 38.0784 16.6938 37.9484C16.4338 37.7484 16.3438 37.4684 16.4338 37.1484C16.5138 36.8384 16.7438 36.6684 17.0538 36.6084C17.3238 36.5584 17.5938 36.6084 17.8438 36.7284C17.9138 36.7684 17.9438 36.8084 17.9438 36.8984C17.9438 37.0084 17.9438 37.1284 17.9438 37.2484H17.9338Z" fill="#1D478D"/>
<path d="M42.0938 38.7285C42.2738 38.9385 42.4538 39.0985 42.6938 39.1285C42.8238 39.1485 42.9738 39.1485 43.0938 39.0985C43.3338 39.0185 43.4038 38.7485 43.2538 38.5485C43.1638 38.4385 43.0438 38.3385 42.9238 38.2585C42.7638 38.1485 42.5938 38.0585 42.4438 37.9485C42.1038 37.6985 41.9938 37.3785 42.1238 37.0285C42.2438 36.7085 42.5838 36.4985 42.9738 36.5285C43.1538 36.5485 43.3238 36.6085 43.5038 36.6585C43.5938 36.6785 43.6338 36.7385 43.6238 36.8385C43.6238 36.9485 43.6238 37.0585 43.6238 37.1885C43.5138 37.1185 43.4138 37.0485 43.3038 36.9985C43.1238 36.9085 42.9338 36.8785 42.7338 36.9485C42.4638 37.0385 42.3838 37.2985 42.5838 37.4985C42.6638 37.5885 42.7738 37.6585 42.8838 37.7285C43.0538 37.8485 43.2438 37.9385 43.4138 38.0685C43.7238 38.3085 43.8238 38.6785 43.6938 39.0285C43.5838 39.3385 43.2838 39.5185 42.9038 39.5285C42.6438 39.5285 42.4038 39.4585 42.1838 39.3185C42.1538 39.2985 42.1138 39.2585 42.1138 39.2185C42.1138 39.0685 42.1138 38.9185 42.1138 38.7285H42.0938Z" fill="#1D478D"/>
<path d="M20.8736 39.5385H20.4736V36.6384H20.8736V39.5385Z" fill="#1D478D"/>
</svg>
