<svg width="59" height="58" viewBox="0 0 59 58" fill="none" xmlns="http://www.w3.org/2000/svg">
<rect x="0.834473" width="57.8345" height="57.8345" rx="4" fill="white"/>
<path d="M11.3618 9.31152V49.2415H49.1018V9.31152H11.3618ZM48.1018 25.6015C48.1018 33.0315 48.1018 40.4615 48.1018 47.9015V48.2315H12.3618C12.3618 48.1315 12.3518 48.0415 12.3518 47.9515C12.3518 35.5015 12.3518 23.0515 12.3518 10.6015C12.3518 10.3015 12.3518 10.3015 12.6518 10.3015C24.3818 10.3015 36.1218 10.3015 47.8518 10.3015C48.1018 10.3015 48.1118 10.4115 48.1118 10.6015C48.1118 15.6015 48.1118 20.6015 48.1118 25.6015H48.1018Z" fill="#1D478D"/>
<path d="M39.9119 23.6416C39.1719 21.8616 38.4219 20.0816 37.6919 18.3016C37.6419 18.1716 37.5719 18.1316 37.4319 18.1316C36.7519 18.1316 36.0619 18.1316 35.3819 18.1216C35.1619 18.1216 35.0519 18.1916 34.9719 18.3916C34.5519 19.3816 34.1219 20.3716 33.6919 21.3516C32.9419 23.0716 32.2019 24.7916 31.4519 26.5116C31.2019 27.0916 30.9519 27.6616 30.6919 28.2616C30.7619 28.2716 30.7819 28.2816 30.8019 28.2816C31.5819 28.2816 32.3519 28.3016 33.1319 28.2916C33.2119 28.2916 33.3319 28.1816 33.3719 28.1016C33.6419 27.4916 33.8919 26.8716 34.1319 26.2516C34.1919 26.1016 34.2619 26.0616 34.4219 26.0616C35.5219 26.0716 36.6219 26.0916 37.7219 26.0816C37.9719 26.0816 38.0619 26.1716 38.1419 26.3816C38.3519 26.9716 38.5819 27.5416 38.8019 28.1216C38.8419 28.2316 38.8819 28.3316 39.0519 28.3316C39.9219 28.3316 40.7919 28.3316 41.6619 28.3316C41.7119 28.3316 41.7619 28.3216 41.8319 28.3116C41.8119 28.2416 41.8019 28.1816 41.7719 28.1216C41.1519 26.6216 40.5219 25.1316 39.9019 23.6316L39.9119 23.6416ZM34.8719 24.4016C35.3219 23.3016 35.7719 22.2016 36.1919 21.1616C36.5819 22.2016 36.9919 23.3016 37.4019 24.4016H34.8719Z" fill="#1D478D"/>
<path d="M23.082 27.1719C22.702 26.4919 22.332 25.8219 21.952 25.1519C20.442 26.4119 18.702 25.8219 17.932 25.0519C16.972 24.0919 16.982 22.3619 17.672 21.4519C18.062 20.9419 18.552 20.5719 19.182 20.4119C20.152 20.1619 21.032 20.3519 21.812 21.0119C22.262 20.3619 22.692 19.7419 23.112 19.1119C21.252 17.5219 18.022 17.2219 15.852 19.2519C13.762 21.2019 13.732 24.8319 15.842 26.9119C17.902 28.9419 21.122 28.7519 23.082 27.1619V27.1719Z" fill="#1D478D"/>
<path d="M35.6921 40.2215C35.6921 37.9215 35.6921 35.6215 35.6921 33.3215C35.6921 33.0915 35.6221 33.0415 35.4121 33.0415C34.6621 33.0515 33.9221 33.0515 33.1721 33.0415C32.9421 33.0415 32.8721 33.0915 32.8721 33.3315C32.8721 36.5415 32.8721 39.7415 32.8721 42.9515C32.8721 43.0315 32.8721 43.1115 32.8721 43.2115H39.7321V40.5915H35.6821C35.6821 40.4415 35.6821 40.3315 35.6821 40.2115L35.6921 40.2215Z" fill="#1D478D"/>
<path d="M19.4521 40.2615C19.4521 37.9415 19.4521 35.6115 19.4521 33.2915C19.4521 33.1015 19.3921 33.0415 19.2021 33.0415C18.4321 33.0415 17.6621 33.0515 16.8921 33.0415C16.6721 33.0415 16.6221 33.1115 16.6221 33.3215C16.6221 36.5315 16.6221 39.7415 16.6221 42.9515C16.6221 43.1915 16.6921 43.2415 16.9221 43.2415C19.0321 43.2415 21.1421 43.2415 23.2521 43.2415C23.3321 43.2415 23.4021 43.2415 23.4921 43.2315V40.6215H19.4521C19.4521 40.4915 19.4521 40.3815 19.4521 40.2715V40.2615Z" fill="#1D478D"/>
<path d="M27.6018 24.6017C28.3818 24.6017 28.9918 23.9817 28.9818 23.1817C28.9818 22.3817 28.3618 21.7817 27.5518 21.7817C26.7818 21.7817 26.1718 22.4217 26.1818 23.2117C26.1818 23.9917 26.8018 24.6017 27.6018 24.6017Z" fill="#1D478D"/>
<path d="M44.6016 21.7915C43.8216 21.7915 43.1816 22.4115 43.1816 23.1815C43.1816 23.9715 43.8016 24.6015 44.6016 24.6015C45.3916 24.6015 46.0016 23.9915 46.0016 23.2015C46.0016 22.4115 45.3916 21.7915 44.6116 21.7915H44.6016Z" fill="#1D478D"/>
<path d="M27.5719 36.252C26.7919 36.252 26.1719 36.882 26.1719 37.672C26.1719 38.472 26.7819 39.082 27.5619 39.082C28.3519 39.082 28.9719 38.462 28.9719 37.692C28.9719 36.892 28.3419 36.2519 27.5619 36.2619L27.5719 36.252Z" fill="#1D478D"/>
<path d="M44.5916 36.252C43.8316 36.252 43.1916 36.892 43.1816 37.672C43.1816 38.442 43.8116 39.082 44.5916 39.082C45.3916 39.082 45.9916 38.4819 46.0016 37.6819C46.0016 36.8819 45.3816 36.252 44.5916 36.252Z" fill="#1D478D"/>
</svg>
