<svg width="58" height="59" viewBox="0 0 58 59" fill="none" xmlns="http://www.w3.org/2000/svg">
<rect y="0.583008" width="57.8345" height="57.8345" rx="4" fill="white"/>
<path d="M39.818 40.7977C40.038 40.9677 40.248 41.1377 40.468 41.3077C40.768 41.5377 40.888 41.5077 41.038 41.1477C41.108 40.9677 41.168 40.7777 41.238 40.5777C41.508 40.8377 41.718 41.1477 41.998 41.2777C42.288 41.4077 42.648 41.3477 42.988 41.3677C43.008 41.4077 43.018 41.4377 43.038 41.4777C42.868 41.6177 42.718 41.7777 42.528 41.8777C42.158 42.0677 42.018 42.3277 42.188 42.7277C42.208 42.7877 42.198 42.8577 42.218 43.0177C41.978 42.9277 41.788 42.8677 41.598 42.7977C41.128 42.6077 41.068 42.6277 40.878 43.0877C40.838 43.1977 40.778 43.2977 40.718 43.4177C40.638 43.3577 40.588 43.3377 40.558 43.2977C40.148 42.7977 40.148 42.8077 39.548 43.0277C38.788 43.3077 38.028 43.5677 37.278 43.8377C36.708 44.0377 36.698 44.0577 36.818 44.6477C36.838 44.7577 36.838 44.8777 36.868 45.1077C36.628 44.9977 36.448 44.9177 36.278 44.8377C36.008 44.7077 35.818 44.7577 35.698 45.0477C35.598 45.2777 35.478 45.5077 35.368 45.7377C35.328 45.7277 35.288 45.7177 35.248 45.7077C35.248 45.4777 35.268 45.2377 35.248 45.0077C35.228 44.8077 35.178 44.6077 35.118 44.4277C35.098 44.3677 34.968 44.3177 34.888 44.3277C34.848 44.3277 34.778 44.4377 34.768 44.5077C34.748 44.6077 34.768 44.7177 34.768 44.8277C34.768 46.4977 34.768 48.1677 34.768 49.8277C34.768 50.5577 34.588 50.7477 33.878 50.6177C32.148 50.3077 30.428 49.9477 28.698 49.6077C27.288 49.3277 25.878 49.0377 24.468 48.7677C24.048 48.6877 23.868 48.4777 23.868 48.0577C23.878 47.3177 23.868 46.5777 23.868 45.8377C23.868 45.1877 23.388 44.8777 22.768 45.1277C22.568 45.2077 22.368 45.3077 22.068 45.4477C22.248 44.5477 21.628 44.3877 21.088 44.1477C20.188 43.7377 19.298 43.2877 18.388 42.8877C18.248 42.8277 18.038 42.8577 17.868 42.9077C17.718 42.9477 17.598 43.0677 17.478 43.1577C17.448 43.1377 16.098 41.9977 16.058 41.9677C16.128 41.8477 16.188 41.6877 16.298 41.5877C16.588 41.3077 16.638 40.9977 16.538 40.6077C16.268 39.4777 16.668 38.5477 17.588 37.8977C18.218 37.4477 18.928 37.1077 19.628 36.7777C20.028 36.5977 20.118 36.3777 19.988 35.9977C19.938 35.8377 19.898 35.6677 19.858 35.5077C19.888 35.4777 19.928 35.4477 19.958 35.4177C20.158 35.5777 20.378 35.7377 20.568 35.9177C21.048 36.3477 21.098 36.3477 21.528 35.8577C21.618 35.7577 21.718 35.6777 21.838 35.5677C21.888 35.6677 21.938 35.7277 21.938 35.7777C22.038 36.4077 22.058 36.4177 22.668 36.3177C23.4746 36.1777 23.878 35.7043 23.878 34.8977V28.6977C23.818 28.6877 23.788 28.6677 23.778 28.6777C23.338 29.0477 23.348 29.0377 22.988 28.5877C22.928 28.5077 22.738 28.4477 22.648 28.4877C21.488 28.9177 20.338 29.3677 19.198 29.8277C19.118 29.8577 19.068 30.0577 19.058 30.1777C19.058 30.3277 19.108 30.4777 19.138 30.6177C18.768 30.5877 18.388 30.4477 18.148 30.5777C17.898 30.7077 17.798 31.0977 17.558 31.4977C17.328 30.5777 16.768 30.7377 16.198 30.8677C16.058 30.8977 15.908 30.8677 15.668 30.8677C15.808 30.6977 15.878 30.5777 15.978 30.4977C16.098 30.3977 16.248 30.3177 16.378 30.2277C16.868 29.8977 16.908 29.7377 16.618 29.2377C16.538 29.1077 16.468 28.9677 16.388 28.8077C16.838 28.8677 17.878 28.5577 18.248 28.2677C18.318 28.4177 18.388 28.5577 18.428 28.6977C18.518 28.9877 18.688 29.0777 18.988 28.9777C20.118 28.5877 21.248 28.2077 22.368 27.7977C22.508 27.7477 22.638 27.5577 22.688 27.4077C22.768 27.1977 22.768 26.9677 22.808 26.6877C23.158 26.8477 23.468 26.9977 23.858 27.1877C23.868 26.9577 23.888 26.8177 23.888 26.6777C23.888 25.8577 23.888 25.0377 23.888 24.2177C23.888 23.5277 24.128 23.3077 24.818 23.3077C25.878 23.3077 26.938 23.3077 28.008 23.3077C28.178 23.3077 28.348 23.2077 28.518 23.1577C28.388 23.0177 28.288 22.8377 28.128 22.7577C27.638 22.5077 27.128 22.2977 26.638 22.0577C23.288 20.4477 22.888 16.0777 25.548 13.6277C26.828 12.4477 28.338 11.6377 29.838 10.7877C30.518 10.4077 31.178 9.99768 31.818 9.55768C32.368 9.17768 32.768 8.66768 32.588 7.92768C32.638 7.90768 32.668 7.88768 32.678 7.89768C33.958 8.89768 35.118 10.0077 35.518 11.6477C35.998 13.5877 35.518 15.3377 34.198 16.8177C33.488 17.6177 32.668 18.3177 31.888 19.0677C31.048 19.8777 30.278 20.7377 30.088 21.9477C30.078 22.0177 30.068 22.0777 30.058 22.1477C29.958 23.0877 30.168 23.3177 31.098 23.3177C32.008 23.3177 32.928 23.3177 33.838 23.3177C34.458 23.3177 34.778 23.6277 34.788 24.2577C34.788 25.0877 34.788 25.9277 34.798 26.7577C34.798 26.8977 34.898 27.1377 34.988 27.1577C35.288 27.2177 35.618 27.5377 35.898 27.1377C36.088 26.8677 36.268 26.5877 36.508 26.2177C36.578 26.4577 36.618 26.6077 36.648 26.7577C36.748 27.1877 36.988 27.3177 37.388 27.1177C37.598 27.0077 37.778 26.8577 38.068 26.7677C38.008 26.9877 37.938 27.2077 37.898 27.4377C37.858 27.6277 37.788 27.8177 38.058 27.9477C38.648 28.2277 39.248 28.5177 39.808 28.8677C40.358 29.1977 40.858 29.5977 41.418 29.9977C41.588 29.8577 41.798 29.6777 42.058 29.4577C42.138 29.8777 42.128 30.2577 42.298 30.5377C42.448 30.7977 42.788 30.9377 43.098 31.1777C43.058 31.1977 43.018 31.2277 42.968 31.2377C42.358 31.3077 42.198 31.7177 42.108 32.2577C41.908 33.4377 41.088 34.1177 40.038 34.5277C39.498 34.7477 38.908 34.8577 38.338 35.0177C38.178 35.0677 38.008 35.1077 37.778 35.1677C37.938 35.5377 38.078 35.8477 38.218 36.1677C38.188 36.1877 38.158 36.2177 38.128 36.2377C37.938 36.1077 37.758 35.9677 37.568 35.8277C37.058 35.4377 36.768 35.4777 36.408 36.0177C36.288 36.1977 36.178 36.3777 36.058 36.5577C36.028 36.5977 35.978 36.6177 35.868 36.6777C35.778 36.4177 35.728 36.1677 35.598 35.9677C35.498 35.8077 35.308 35.6177 35.148 35.6077C34.878 35.5877 34.798 35.8377 34.798 36.0977C34.798 38.3977 34.798 40.6977 34.808 42.9977C34.808 43.1577 34.968 43.4377 35.088 43.4477C35.278 43.4677 35.528 43.3777 35.678 43.2377C35.838 43.0777 35.908 42.8277 36.018 42.6077C36.638 43.4477 36.648 43.4677 37.668 43.1177C38.298 42.8977 38.918 42.6377 39.538 42.3777C39.938 42.2177 40.078 41.9277 39.918 41.5077C39.848 41.3277 39.828 41.1377 39.788 40.9477C39.818 40.9277 39.848 40.9077 39.878 40.8877L39.818 40.7977ZM27.328 37.5777C27.328 37.5777 27.248 37.5277 27.208 37.5077C27.168 37.2977 27.138 37.0877 27.098 36.8777C27.008 36.4477 26.898 36.3877 26.408 36.4177C26.038 36.4377 25.878 36.5677 25.878 36.9877C25.898 40.1677 25.878 43.3577 25.878 46.5377C25.878 47.1877 25.978 47.3077 26.598 47.4277C28.278 47.7577 29.968 48.0877 31.648 48.4277C32.578 48.6177 32.678 48.5377 32.678 47.5877C32.678 43.9477 32.678 40.3077 32.678 36.6677C32.678 36.5377 32.678 36.3977 32.678 36.2677C32.668 35.9577 32.518 35.8477 32.208 35.8777C31.638 35.9377 31.058 35.9677 30.478 35.9977C29.968 36.0177 29.548 36.1277 29.488 36.7377C29.488 36.7577 29.448 36.7677 29.398 36.7977C29.318 36.7677 29.218 36.7377 29.118 36.7077C28.388 36.4377 28.358 36.4477 27.848 37.0277C27.678 37.2177 27.488 37.3977 27.308 37.5777H27.328ZM29.308 34.4177C29.348 34.5577 29.398 34.6577 29.398 34.7477C29.398 35.2077 29.668 35.3477 30.078 35.3177C30.828 35.2677 31.578 35.2177 32.328 35.1777C32.608 35.1577 32.708 35.0177 32.708 34.7277C32.708 31.8777 32.708 29.0277 32.708 26.1777C32.708 25.4177 32.498 25.2277 31.738 25.2277C30.068 25.2277 28.408 25.2277 26.738 25.2277C26.088 25.2277 25.908 25.4177 25.908 26.0677C25.908 29.0077 25.908 31.9577 25.908 34.8977C25.908 36.0077 25.958 36.0477 27.058 35.7877C27.408 35.7077 27.568 35.5177 27.548 35.1677C27.548 35.0077 27.548 34.8377 27.548 34.6577C27.898 34.8177 28.228 35.0977 28.508 35.0577C28.788 35.0177 29.028 34.6577 29.318 34.4077L29.308 34.4177ZM33.108 10.0677C32.758 10.9777 32.068 11.5177 31.418 12.0977C31.288 12.2177 31.148 12.3177 31.018 12.4377C29.978 13.4177 28.868 14.3477 27.908 15.4077C26.908 16.5077 26.468 17.8577 26.788 19.3677C27.048 20.5777 27.628 21.5777 28.768 22.1577C29.178 22.3677 29.318 22.2677 29.288 21.8177C29.198 20.6677 29.528 19.6277 30.068 18.6577C30.768 17.3877 31.558 16.1677 32.268 14.9077C32.688 14.1477 33.098 13.3677 33.398 12.5577C33.708 11.7377 33.638 10.8977 33.108 10.0777V10.0677ZM22.468 42.7377C22.658 43.0177 22.748 43.2377 22.908 43.3677C23.088 43.5177 23.328 43.6877 23.528 43.6777C23.828 43.6577 23.868 43.3477 23.868 43.0777C23.868 42.5777 23.868 42.0877 23.868 41.5877C23.868 40.1077 23.868 38.6277 23.868 37.1477C23.868 36.9477 23.868 36.7177 23.618 36.7377C23.188 36.7577 22.758 36.8277 22.268 36.8877C22.408 37.2077 22.488 37.4077 22.618 37.7177C22.288 37.6377 22.038 37.5177 21.788 37.5177C21.548 37.5177 21.298 37.6377 21.028 37.7177C21.008 37.6377 20.998 37.4977 20.928 37.4277C20.848 37.3377 20.678 37.2277 20.598 37.2477C19.688 37.5377 18.788 37.8677 18.088 38.5577C17.548 39.0877 17.298 39.7377 17.408 40.4977C17.458 40.8677 17.578 40.9077 17.878 40.6977C17.968 40.6377 18.058 40.5777 18.228 40.4777C18.208 40.8077 18.198 41.0377 18.188 41.2877C18.338 41.3177 18.468 41.3677 18.598 41.3777C18.848 41.3977 18.938 41.5477 18.858 41.7577C18.728 42.0977 18.878 42.2577 19.158 42.3877C20.048 42.7877 20.938 43.1977 21.828 43.5977C21.978 43.6677 22.148 43.6977 22.368 43.7577C22.398 43.4277 22.418 43.1477 22.458 42.7377H22.468ZM34.778 28.0377C34.778 28.1177 34.758 28.1977 34.758 28.2777C34.758 30.2677 34.758 32.2577 34.758 34.2477C34.758 34.2977 34.758 34.3577 34.758 34.4077C34.798 34.6577 34.888 34.8577 35.188 34.8277C35.468 34.7977 35.578 34.6177 35.558 34.3477C35.548 34.2077 35.528 34.0677 35.498 33.8477C35.878 33.9577 36.208 34.1677 36.498 34.1077C36.768 34.0577 36.978 33.7277 37.228 33.4977C37.258 33.5577 37.298 33.6277 37.318 33.6977C37.508 34.2877 37.558 34.3177 38.178 34.2377C39.008 34.1277 39.768 33.8477 40.448 33.3577C40.708 33.1677 40.948 32.8977 41.118 32.6277C41.218 32.4577 41.178 32.1977 41.208 31.9677C40.778 32.0377 40.468 32.0977 40.148 32.1477C40.258 31.8177 40.518 31.6077 40.518 31.3877C40.518 31.1677 40.268 30.9377 40.128 30.7177C40.508 30.3777 40.548 30.2377 40.138 29.9377C39.518 29.4977 38.848 29.1377 38.188 28.7677C37.948 28.6277 37.818 28.7977 37.758 29.0177C37.698 29.2377 37.628 29.4677 37.568 29.6877C37.588 29.6377 37.608 29.5977 37.628 29.5477C37.338 29.3277 37.068 28.9877 36.738 28.9077C36.408 28.8377 36.018 29.0177 35.588 29.1077C35.618 28.5977 35.648 27.9977 34.778 28.0377Z" fill="#1D478D"/>
</svg>
