<svg width="59" height="59" viewBox="0 0 59 59" fill="none" xmlns="http://www.w3.org/2000/svg">
<rect x="0.834473" y="0.841309" width="57.8345" height="57.8345" rx="4" fill="white"/>
<path d="M23.1598 32.1369C24.1335 32.6625 24.9349 32.1627 24.9435 31.0511C24.9435 29.6637 24.9349 28.2764 24.9435 26.889C24.9435 26.3806 24.7712 25.9928 24.3748 25.674C23.7802 25.2087 23.289 24.6399 22.8754 24.0109C19.6526 19.2025 22.0223 12.8 27.5976 11.2403C31.2944 10.2062 35.3961 11.9986 37.1454 15.4196C38.955 18.9526 38.145 23.0975 35.1204 25.674C34.7326 26.0101 34.5516 26.3892 34.5603 26.8976C34.5775 27.5698 34.5603 28.2419 34.5603 28.9141C34.5603 29.6379 34.5603 30.3703 34.5603 31.0942C34.5603 32.1368 35.3875 32.6366 36.3009 32.1627C37.7917 31.3871 39.136 30.4134 40.2648 29.1639C43.772 25.2776 44.9525 20.7536 43.7117 15.6953C42.2468 9.74949 37.1109 5.4323 31.01 4.93251C26.1241 4.53612 22.0051 6.20784 18.7995 9.90459C15.8783 13.2825 14.8011 17.2636 15.5336 21.6584C16.3264 26.3806 18.946 29.8619 23.1511 32.1369H23.1598ZM16.5246 15.454C16.5763 15.2731 16.6194 15.0835 16.7314 14.9284C16.9985 13.9978 17.4207 13.136 17.9033 12.3002C18.2652 11.6797 18.7219 11.1196 19.1269 10.525C19.2476 10.4733 19.2907 10.3613 19.3596 10.2579C19.3768 10.2407 19.3855 10.2321 19.4027 10.2148C19.6698 9.98216 19.9197 9.72363 20.1351 9.43926C21.1175 8.54308 22.1688 7.73308 23.3493 7.11265C25.8656 5.80284 28.5283 5.27718 31.3547 5.62187C31.9234 5.69081 32.4835 5.75976 33.035 5.9321C34.0518 6.14753 35.0084 6.50944 35.9132 7.00062C36.6542 7.2936 37.2919 7.75892 37.9296 8.20701C38.1105 8.33627 38.2742 8.48278 38.438 8.62927C39.2049 9.26694 39.9374 9.93908 40.5147 10.7577C41.3247 11.6711 41.9021 12.7224 42.3846 13.834C42.9706 15.1783 43.3411 16.5743 43.4532 18.0392C43.5652 19.0388 43.5307 20.0384 43.4187 21.0293C43.3239 21.8911 43.0998 22.7183 42.8672 23.5542C42.85 23.6231 42.7983 23.692 42.7638 23.761C42.488 24.6916 42.0572 25.5447 41.566 26.372C41.161 27.1131 40.6784 27.7938 40.0752 28.3884C40.0752 28.4142 40.0666 28.4315 40.0494 28.4487C40.0322 28.4659 40.0235 28.4745 40.0063 28.4918C39.7219 28.7761 39.472 29.0864 39.1532 29.3363C38.8085 29.7499 38.3777 30.0687 37.9468 30.3789C37.3005 30.8529 36.6198 31.2837 35.8959 31.6284C35.6805 31.7318 35.4651 31.7836 35.3444 31.4906C35.2065 31.4044 35.2152 31.2665 35.2152 31.1287C35.2152 29.6724 35.2152 28.2246 35.2152 26.7683C35.2152 26.5357 35.2927 26.372 35.4737 26.2255C37.042 24.8985 38.0761 23.2353 38.5241 21.2275C38.5759 20.9862 38.6017 20.745 38.6448 20.5037C38.7999 19.349 38.7223 18.2115 38.4724 17.0827C38.0674 15.566 37.3091 14.2563 36.2751 13.0843C35.6202 12.4984 34.9653 11.9124 34.1897 11.4729C32.3629 10.4475 30.4068 10.077 28.3387 10.4044C26.4084 10.7146 24.7195 11.5505 23.358 12.9637C21.1003 15.3076 20.3161 18.0909 20.9624 21.2792C20.9796 21.3568 20.9882 21.4343 20.9969 21.5119C21.083 21.7963 21.1692 22.0892 21.2554 22.3736C21.4794 22.8476 21.7035 23.3215 21.9275 23.7955C22.5221 24.7347 23.2115 25.5878 24.0818 26.2858C24.2455 26.415 24.2714 26.6046 24.2714 26.8028C24.2714 27.3716 24.2714 27.9403 24.2714 28.509C24.2714 29.388 24.2714 30.2669 24.2714 31.1459C24.2714 31.6026 23.9784 31.7922 23.5562 31.594C22.7806 31.2234 22.0568 30.7667 21.376 30.2497C19.5147 28.7848 18.0843 26.9838 17.1278 24.8123C16.9985 24.5193 16.8606 24.2177 16.7831 23.9075C16.3695 22.8562 16.1454 21.7704 16.0248 20.6502C15.8352 18.8837 16.0161 17.143 16.5073 15.4368L16.5246 15.454Z" fill="#1D478D"/>
<path d="M40.1272 36.4538C40.1272 36.2901 40.1272 36.1178 40.0497 35.9627C40.0238 35.911 40.0152 35.8161 39.9118 35.8851L39.9032 35.8765C39.817 35.4628 39.5585 35.2561 39.007 35.1613C38.9811 35.1613 38.9639 35.1613 38.9381 35.1526C38.826 35.1526 38.714 35.1268 38.6106 35.1268C36.913 35.1268 35.2068 35.1268 33.5093 35.1268C33.2766 35.1268 33.2077 35.0665 33.2077 34.8252C33.2077 33.2224 33.2077 31.6196 33.2077 30.0254C33.2077 26.3718 33.2077 22.7267 33.2077 19.073C33.2077 18.8576 33.2507 18.6249 33.0956 18.4267C33.0956 18.3664 33.0784 18.3234 33.0095 18.2975C32.975 18.2113 32.9319 18.151 32.8371 18.1424C32.8544 18.2027 32.8716 18.263 32.8802 18.3233C32.863 18.263 32.8544 18.2027 32.8371 18.1424C32.7682 18.0562 32.682 18.0131 32.57 18.0045C32.4493 17.9269 32.3115 17.9873 32.1822 17.9614C32.0013 17.927 31.8031 18.0562 31.6393 17.8838C31.6738 17.3668 31.6738 16.8584 31.6393 16.3414C31.6824 16.0743 31.6738 15.8158 31.5015 15.5917C31.2774 15.135 30.8552 14.9196 30.3295 15.023C30.1486 15.0574 30.0882 15.0402 30.0882 14.8506C30.0882 14.7042 30.0882 14.5404 29.959 14.4198C29.7091 13.9545 29.2524 13.7304 28.7612 13.8424C28.2873 13.9458 27.9598 14.3422 27.9081 14.842C27.8995 14.954 27.9598 15.0919 27.7272 15.0402C26.9085 14.8851 26.357 15.3591 26.357 16.1949C26.357 22.382 26.3484 28.5691 26.357 34.7649C26.357 35.032 26.3053 35.1181 26.021 35.1181C24.3234 35.1009 22.6172 35.1182 20.9196 35.1096C20.1785 35.1096 19.4116 35.5232 19.4461 36.5744C19.4892 37.867 19.4978 39.1682 19.4461 40.4694C19.403 41.5638 20.1699 42.0033 20.9713 41.9947C22.6603 41.9774 24.3492 41.9947 26.0382 41.986C26.3312 41.986 26.3656 42.0808 26.3656 42.3221C26.357 43.744 26.3656 45.1657 26.3656 46.5876C26.3656 46.7685 26.3398 46.9495 26.4001 47.1219C26.3829 47.2081 26.3743 47.2856 26.4604 47.3459C26.5552 47.7164 26.7879 47.9664 27.1584 48.0784C27.2101 48.1473 27.2704 48.1559 27.3394 48.1301C27.4514 48.1473 27.5548 48.1731 27.6668 48.1731C29.08 48.1731 30.5019 48.1731 31.9151 48.1731C32.0271 48.1731 32.1305 48.1387 32.2425 48.1214C32.2512 48.1128 32.2684 48.0956 32.277 48.087C32.3201 48.0611 32.3632 48.0353 32.4063 48.0267C32.3632 48.0439 32.3201 48.0611 32.277 48.087C32.2598 48.0956 32.2512 48.1042 32.2425 48.1214C32.3804 48.1214 32.5097 48.1129 32.6045 47.9836H32.6131C32.7509 47.9405 32.863 47.8629 32.9147 47.725C33.0267 47.6733 33.0698 47.5699 33.1043 47.4493C33.1043 47.4148 33.1215 47.3804 33.1301 47.3459C33.2163 47.2856 33.2077 47.1994 33.1904 47.1133C33.2249 47.0529 33.2249 46.9926 33.199 46.9237C33.2077 46.8375 33.2249 46.7513 33.2249 46.6651C33.2249 45.2433 33.2421 43.8301 33.2163 42.4083C33.2163 42.0377 33.3283 41.986 33.6557 41.986C35.3189 42.0033 36.982 41.986 38.6451 41.986C38.8433 41.986 39.0501 41.9947 39.231 41.8913C39.3086 41.8913 39.3775 41.874 39.4292 41.8137C39.9377 41.6069 40.1358 41.1932 40.1358 40.6762C40.1358 39.2716 40.1358 37.8584 40.1358 36.4538H40.1272ZM32.4149 20.581C32.3287 20.6155 32.2511 20.6586 32.165 20.693C32.1564 20.693 32.1391 20.693 32.1305 20.693C31.9582 20.6758 31.7944 20.6328 31.7169 20.4604C31.6824 20.3742 31.76 20.3484 31.8203 20.3225C32.0185 20.2363 32.1822 20.2708 32.3459 20.4173C32.3976 20.469 32.4235 20.5207 32.4149 20.5896V20.581ZM32.1822 19.6504C32.0271 19.5815 31.7944 19.7365 31.7083 19.6073C31.6221 19.478 31.6652 19.2626 31.6652 19.0903C31.6652 18.6336 31.6652 18.6594 32.165 18.625C32.5441 18.5991 32.6045 18.7714 32.57 19.0816C32.57 19.1247 32.57 19.1678 32.57 19.2195C32.57 19.254 32.57 19.2885 32.57 19.3229C32.6131 19.6332 32.57 19.8227 32.1822 19.659V19.6504ZM32.9319 41.8999C32.9319 41.8999 32.9491 41.8654 32.9578 41.8481C32.9578 41.8481 32.9405 41.8827 32.9319 41.8999ZM32.8457 41.4173C32.8199 41.4173 32.794 41.4173 32.7682 41.4087C32.7509 41.4087 32.7251 41.4259 32.7079 41.4345C32.5097 41.5121 32.6131 41.7017 32.5528 41.8396C32.5614 41.9257 32.57 42.0119 32.5872 42.0894C32.5872 43.5974 32.5786 45.1054 32.57 46.6134C32.57 47.389 32.4149 47.5355 31.6566 47.5355C30.4071 47.5355 29.1576 47.5355 27.8995 47.5355C27.5634 47.5355 27.1757 47.5785 27.0464 47.1305C26.9258 46.8719 27.0033 46.6048 26.9947 46.3463C26.9775 45.8724 26.9775 45.3898 26.9775 44.9159C26.9775 43.8474 26.9947 42.7788 26.9947 41.7189C26.9947 41.6241 26.9516 41.5293 26.9258 41.4259C26.8999 41.4259 26.8827 41.4087 26.8568 41.4001C25.5039 41.3139 24.151 41.3828 22.7981 41.3656C22.1519 41.3656 21.4969 41.3656 20.8507 41.3656C20.5835 41.3656 20.3078 41.357 20.1958 41.0296L20.1785 41.0123C20.0837 40.9003 20.0579 40.7796 20.101 40.6418C20.101 40.5297 20.101 40.4091 20.101 40.2971C20.101 38.9959 20.0924 37.6947 20.0837 36.3935C20.0837 36.2729 20.101 36.1522 20.2044 36.0661C20.2044 36.0488 20.2216 36.0402 20.2388 36.0402C20.3853 35.7731 20.6439 35.7903 20.8851 35.7903C22.7206 35.7903 24.556 35.7903 26.3915 35.7903C26.9344 35.7903 26.9947 35.73 26.9947 35.1957C26.9947 32.4727 26.9947 29.7583 26.9947 27.0353C26.9947 23.4333 26.9947 19.8314 26.9947 16.2208C26.9947 15.8588 27.1498 15.6779 27.4428 15.6693C27.7444 15.6606 27.9167 15.8244 27.9081 16.1949C27.8995 17.0739 27.9598 17.9614 27.8995 18.8404C27.9081 19.0472 27.9253 19.2454 27.934 19.4522C27.9857 19.5039 28.046 19.5642 28.0977 19.6159C28.2873 19.6676 28.4251 19.59 28.5372 19.4435C28.5372 17.9959 28.5372 16.5482 28.5458 15.1005C28.5458 14.8765 28.5285 14.6438 28.8043 14.5576C28.9336 14.4801 29.0714 14.4887 29.2007 14.5576C29.442 14.6869 29.4592 14.9109 29.4592 15.1522C29.4592 16.5827 29.4592 18.0131 29.4592 19.4435C29.554 19.6159 29.7005 19.6676 29.8901 19.6159C29.9418 19.5814 29.9935 19.5383 30.0365 19.5039C30.0452 18.4353 30.0624 17.3668 30.0624 16.2897C30.0624 15.9364 30.2003 15.7123 30.5536 15.6434H30.5708C30.8466 15.7296 31.0017 15.9019 31.0017 16.2035C31.0017 17.4099 31.0017 18.6163 31.0017 19.8227C31.0017 19.8916 31.0103 19.9606 30.9413 20.0037C30.4415 20.3225 29.8814 20.5293 29.3558 20.7964C28.744 21.1153 28.1149 21.4169 27.4945 21.7185C27.2963 21.8219 27.1929 21.977 27.2963 22.1752C27.3997 22.3906 27.5893 22.382 27.7875 22.2872C28.7698 21.8047 29.7522 21.3307 30.7259 20.8396C30.95 20.7275 31.1051 20.6672 31.2688 20.943C31.3722 21.1239 31.5876 21.2187 31.8289 21.2963C31.5618 21.5289 31.2774 21.6582 31.0017 21.8047C30.2347 22.2011 29.8297 22.9421 29.2696 23.5453C29.1317 23.7004 29.2179 23.8814 29.373 24.0107C29.7091 24.3123 29.9504 24.6828 30.0882 25.1223C30.1313 25.2688 30.1572 25.4066 30.1227 25.5531C30.1486 25.6307 30.183 25.6996 30.1917 25.7772C30.2175 25.9926 30.3554 26.1046 30.5536 26.0701C30.7604 26.0443 30.8552 25.8892 30.8379 25.6824C30.8207 25.4842 30.8035 25.286 30.7862 25.0878C30.5967 24.6139 30.3898 24.1485 30.0452 23.7607C29.959 23.6573 30.0796 23.5798 30.1399 23.5022C30.6139 22.8818 31.1654 22.3562 31.8892 22.0373C32.0271 21.977 32.2167 21.9512 32.2598 21.753V21.7444H32.2684C32.277 21.6668 32.2598 21.5893 32.2081 21.5376C32.2598 21.5893 32.277 21.6582 32.2684 21.7444C32.2684 21.7357 32.2856 21.7185 32.2942 21.7099C32.3632 21.8305 32.458 21.7099 32.5355 21.7444C32.5355 22.4424 32.5355 23.1403 32.5355 23.8469C32.5355 23.9676 32.5528 24.0882 32.4924 24.2089C32.57 24.3036 32.5441 24.4243 32.5441 24.5363C32.5441 27.3455 32.5441 30.1461 32.5441 32.9553C32.5441 33.0415 32.5355 33.1362 32.5269 33.2224C32.5269 33.8946 32.5441 34.5667 32.5441 35.2388C32.5441 35.7472 32.5958 35.7989 33.0956 35.8076C34.9052 35.8076 36.7234 35.8076 38.5331 35.8076C38.6537 35.8076 38.783 35.8075 38.9036 35.8248C39.1793 35.8937 39.412 36.023 39.4292 36.3504C39.4637 36.9278 39.4896 37.5137 39.4465 38.0911C39.4465 38.9873 39.4637 39.8834 39.4551 40.7796C39.4551 41.1415 39.1449 41.3742 38.7054 41.3742C37.4301 41.3742 36.1547 41.3742 34.8794 41.3742C34.4658 41.3742 34.0521 41.3656 33.6385 41.357C33.3455 41.4259 33.0353 41.3053 32.7509 41.4345C32.7768 41.4345 32.8027 41.4345 32.8285 41.4432L32.8457 41.4173Z" fill="#1D478D"/>
<path d="M17.6101 51.2928C17.4378 51.2928 17.1707 51.1377 17.1104 51.4996C17.0242 52.0253 16.9208 52.5595 16.8174 53.0852C16.7915 53.2058 16.8174 53.3437 16.6623 53.4557C16.5416 53.0335 16.421 52.6371 16.3348 52.2407C16.2831 52.0167 16.1452 52.0339 15.9815 52.0339C15.7833 52.0339 15.8264 52.1718 15.8178 52.2924C15.7747 52.7061 15.611 53.0852 15.4817 53.4902C15.3697 53.4299 15.3783 53.3696 15.3697 53.3179C15.3007 52.9646 15.2146 52.6199 15.1629 52.2666C15.1026 51.8874 14.8182 52.0511 14.6372 52.0511C14.3787 52.0511 14.5511 52.2579 14.5683 52.3527C14.7062 53.0162 14.8699 53.6797 15.025 54.3433C15.0595 54.4984 15.1025 54.6104 15.3007 54.5846C15.4731 54.5673 15.6454 54.619 15.7058 54.3605C15.7919 53.9814 15.9384 53.6194 16.0763 53.1713C16.2055 53.585 16.3262 53.9297 16.4037 54.283C16.4554 54.507 16.533 54.5846 16.7743 54.5846C17.0242 54.5846 17.0759 54.4639 17.1104 54.2744C17.2999 53.3782 17.4981 52.482 17.6791 51.5858C17.6963 51.491 17.8514 51.2842 17.5929 51.2928H17.6101Z" fill="#1D478D"/>
<path d="M26.1758 52.0249C25.5123 52.0766 24.8401 51.887 24.1766 52.0766C23.9181 52.1541 24.0129 52.3523 24.0215 52.4815C24.0387 52.6625 24.1938 52.5505 24.2886 52.5332C24.5902 52.4815 24.8832 52.4471 25.1848 52.5246C25.3572 52.5677 25.4433 52.697 25.4347 52.8779C25.4261 53.102 25.2451 53.0072 25.1245 53.0158C24.8487 53.0416 24.5644 52.9986 24.2886 53.0761C23.8922 53.1968 23.7285 53.4208 23.7285 53.8431C23.7285 54.2481 23.9267 54.4807 24.3231 54.5755C24.5213 54.6272 24.7195 54.5927 24.9263 54.5755C25.1676 54.5755 25.09 54.3859 25.1073 54.2567C25.1245 54.0929 25.0211 54.0757 24.8918 54.0929C24.8143 54.0929 24.7367 54.0929 24.6592 54.0929C24.461 54.0929 24.3231 54.0068 24.3317 53.8C24.3317 53.6018 24.461 53.4984 24.6592 53.4984C24.7453 53.4984 24.8401 53.4983 24.9263 53.4897C25.2652 53.484 25.4347 53.6535 25.4347 53.9982C25.4347 54.136 25.4261 54.2653 25.4347 54.4031C25.4606 54.6961 25.6932 54.5238 25.8311 54.5582C25.9345 54.5841 26.0982 54.6186 26.081 54.4031C26.0465 53.843 26.1241 53.2829 26.0379 52.7314C26.0207 52.6108 25.9776 52.5333 26.1586 52.4988C26.3395 52.4643 26.2361 52.2747 26.2706 52.1541C26.2878 52.0765 26.2533 52.0162 26.1672 52.0249H26.1758Z" fill="#1D478D"/>
<path d="M29.2524 53.516C29.2524 53.2575 29.2524 52.9989 29.2524 52.7404C29.2265 52.0683 28.787 51.8098 28.1838 52.0941C28.0804 52.1372 28.0201 52.1976 27.8909 52.1114C27.4945 51.8615 27.0722 51.9821 26.8396 52.3871C26.6155 52.7749 26.6155 53.2058 26.65 53.628C26.7189 54.326 27.2015 54.6879 27.8995 54.6018C28.1235 54.5759 28.1321 54.4553 28.1321 54.2829C28.1407 54.0589 28.0029 54.1019 27.8736 54.1019C27.46 54.1019 27.2877 53.9469 27.2446 53.5246C27.2187 53.2747 27.236 53.0334 27.2877 52.7921C27.3738 52.4561 27.5375 52.3958 27.7961 52.6112C27.9253 52.7232 28.0632 52.7405 28.1752 52.6112C28.27 52.5078 28.3648 52.4302 28.4854 52.4992C28.6147 52.5681 28.5975 52.706 28.5975 52.8266C28.5975 53.3178 28.6147 53.8089 28.5975 54.3001C28.5888 54.6017 28.7698 54.5414 28.9421 54.5501C29.1317 54.5587 29.2696 54.55 29.2524 54.2915C29.2351 54.0244 29.2524 53.7572 29.2524 53.4901V53.516Z" fill="#1D478D"/>
<path d="M31.9063 51.2836C31.734 51.2923 31.553 51.2147 31.5616 51.5249C31.5875 52.1885 31.5702 52.8434 31.5616 53.5069C31.5616 53.9291 31.3893 54.1101 31.0187 54.1101C30.6137 54.1101 30.4414 53.9464 30.4328 53.5155C30.4241 53.0933 30.4155 52.6624 30.4328 52.2402C30.4414 51.9386 30.2346 52.0419 30.0881 52.0333C29.933 52.0247 29.7779 51.9902 29.7865 52.2488C29.8123 52.7141 29.7865 53.188 29.8037 53.662C29.8209 54.0928 30.0622 54.4203 30.4586 54.541C30.8205 54.6444 31.1911 54.653 31.553 54.5237C31.9752 54.3772 32.182 54.0756 32.1993 53.6447C32.2079 53.3 32.1993 52.9554 32.1993 52.6021C32.1993 52.2402 32.182 51.8869 32.1993 51.5249C32.2165 51.2578 32.07 51.2664 31.8891 51.275L31.9063 51.2836Z" fill="#1D478D"/>
<path d="M35.0255 53.6109C35.0255 53.6109 35.0255 53.6109 35.0169 53.6109C35.0169 53.3437 35.0341 53.0766 35.0169 52.8095C34.991 52.4217 34.7756 52.1718 34.405 52.0598C33.9742 51.9305 33.5433 51.9995 33.1125 52.0942C32.8712 52.146 32.9487 52.3355 32.9487 52.4734C32.9487 52.6888 33.1039 52.5596 33.19 52.551C33.3279 52.551 33.4572 52.5165 33.5864 52.5079C33.7501 52.5079 33.9225 52.4993 34.0862 52.5251C34.2672 52.5596 34.3706 52.6975 34.362 52.8871C34.3533 53.1111 34.1638 53.0163 34.0517 53.0249C33.7846 53.0421 33.5175 53.0163 33.2503 53.0766C32.8712 53.1714 32.6558 53.4385 32.6558 53.8263C32.6558 54.4123 33.1125 54.7053 33.8363 54.6019C34.0776 54.5674 34.0431 54.4209 34.0431 54.2658C34.0517 54.0504 33.9052 54.1107 33.7932 54.1107C33.7157 54.1107 33.6381 54.1107 33.5606 54.1107C33.3968 54.0935 33.2848 54.0331 33.2762 53.8436C33.2762 53.6626 33.3538 53.5592 33.5347 53.5161C34.2327 53.3696 34.362 53.473 34.362 54.1624C34.362 54.2141 34.362 54.2744 34.362 54.3261C34.3275 54.5932 34.4998 54.576 34.6808 54.576C34.8618 54.576 35.0513 54.6105 35.0169 54.3175C34.991 54.0848 35.0169 53.8435 35.0169 53.6109H35.0255Z" fill="#1D478D"/>
<path d="M38.0759 53.6362C38.0587 53.3691 38.1276 53.033 38.0242 52.7056C37.826 52.1024 37.0505 51.818 36.2922 52.0507C35.6976 52.2402 35.4304 52.7228 35.4908 53.5242C35.5425 54.2911 36.0078 54.6789 36.7575 54.5927C37.0074 54.5669 36.9557 54.4118 36.9729 54.2653C36.9901 54.0585 36.8609 54.0929 36.7402 54.1016C36.4386 54.1188 36.1974 54.0154 36.1284 53.7051C36.0681 53.4639 36.0681 53.214 36.1284 52.9727C36.2232 52.5936 36.4817 52.4384 36.9212 52.4815C37.2745 52.516 37.4296 52.6797 37.4382 53.0847C37.4555 53.4639 37.4641 53.8431 37.4382 54.2222C37.4124 54.4893 37.4899 54.5669 37.7571 54.5669C38.0242 54.5669 38.119 54.498 38.0845 54.2308C38.0587 54.0585 38.0845 53.8775 38.0845 53.6276L38.0759 53.6362Z" fill="#1D478D"/>
<path d="M46.2796 52.8784C46.2624 52.4217 46.047 52.1545 45.5989 52.0425C45.1163 51.9218 44.651 51.9822 44.1943 52.1804C43.953 52.2838 43.8323 52.4302 43.8237 52.7318C43.8237 53.0334 44.0047 53.0593 44.2287 53.1369C43.8496 53.4729 43.9961 53.8952 43.953 54.2743C43.9271 54.5156 44.0219 54.5673 44.246 54.5759C44.5303 54.5845 44.5993 54.4984 44.5993 54.2226C44.5993 53.8952 44.4442 53.5074 44.8664 53.2575C44.9612 53.1972 45.0043 52.9214 44.7371 52.8439C44.6251 52.8094 44.4959 52.818 44.3925 52.706C44.539 52.5595 44.7199 52.5164 44.9009 52.4906C45.4438 52.4217 45.642 52.594 45.6506 53.1369C45.6506 53.5419 45.6678 53.9382 45.6506 54.3432C45.6333 54.6104 45.8057 54.5673 45.9522 54.5587C46.0987 54.5587 46.3055 54.6449 46.2969 54.3519C46.2796 53.8607 46.2969 53.3695 46.2796 52.8784Z" fill="#1D478D"/>
<path d="M42.6086 52.0252C42.195 51.9563 41.79 52.008 41.3764 52.0769C41.1179 52.12 41.1782 52.3096 41.1782 52.4561C41.1868 52.6801 41.3591 52.5595 41.4539 52.5422C41.678 52.5078 41.8934 52.4819 42.1175 52.4905C42.7207 52.4992 42.9361 52.7577 42.893 53.3953C42.8499 53.9727 42.6086 54.1709 42.0141 54.1106C41.7814 54.0847 41.7642 53.9727 41.7555 53.7745C41.7469 53.5504 41.8589 53.5332 42.0227 53.5504C42.195 53.5763 42.2553 53.5073 42.2553 53.335C42.2553 53.1368 42.2036 53.0765 41.9882 53.0765C41.1523 53.0765 41.1523 53.0679 41.1523 53.7314C41.1523 54.5414 41.1696 54.5673 42.0054 54.6017C42.1864 54.6017 42.3674 54.6017 42.5397 54.5845C43.005 54.5242 43.3152 54.2829 43.4359 53.8089C43.5307 53.447 43.5307 53.0765 43.4186 52.7232C43.298 52.3268 43.0223 52.0942 42.6086 52.0252Z" fill="#1D478D"/>
<path d="M23.2634 53.3004C23.2634 52.9557 23.2462 52.6024 23.2634 52.2577C23.2807 51.9389 23.0566 52.0423 22.9015 52.0251C22.7378 52.0078 22.5999 51.9992 22.6085 52.2491C22.6258 52.6972 22.6085 53.1453 22.6085 53.5933C22.6085 53.9208 22.3931 54.1104 22.0226 54.1104C21.6951 54.1104 21.5486 53.9725 21.5486 53.6106C21.5486 53.1539 21.5314 52.6972 21.5486 52.2319C21.5572 51.9561 21.3677 52.025 21.2298 52.0336C21.1005 52.0336 20.9023 51.9389 20.9023 52.2232C20.911 52.7403 20.8937 53.2487 20.911 53.7657C20.9368 54.3344 21.2815 54.6361 21.8502 54.6102C22.057 54.6102 22.2466 54.5585 22.4276 54.4551C22.5138 54.412 22.5741 54.3517 22.6689 54.4896C22.7809 54.6619 23.0049 54.5757 23.16 54.5585C23.3238 54.5326 23.2376 54.3517 23.2462 54.2396C23.2548 53.9294 23.2462 53.6106 23.2462 53.3004H23.2634Z" fill="#1D478D"/>
<path d="M20.0921 52.0248C19.9112 52.0421 19.713 51.9731 19.7302 52.292C19.7561 52.7487 19.7474 53.2054 19.7302 53.6621C19.7302 53.9809 19.5751 54.1102 19.2649 54.1016C18.903 54.1016 18.6703 53.9206 18.6617 53.6363C18.6617 53.1709 18.6445 52.697 18.6617 52.2317C18.6617 51.9904 18.5152 52.0162 18.3773 52.0334C18.2394 52.0507 18.0154 51.9214 18.024 52.2317C18.0326 52.585 18.024 52.9469 18.024 53.3088C18.024 53.6362 18.024 53.9551 18.024 54.2825C18.024 54.3859 17.9551 54.541 18.1016 54.5669C18.2567 54.5927 18.4893 54.6703 18.5669 54.5238C18.6789 54.3084 18.7565 54.429 18.8685 54.4807C19.6699 54.8943 20.342 54.4807 20.342 53.5846C20.342 53.1623 20.3334 52.7314 20.342 52.3092C20.3507 52.0851 20.2817 52.0076 20.0577 52.0334L20.0921 52.0248Z" fill="#1D478D"/>
<path d="M40.7043 54.0764C40.4803 54.0419 40.4803 53.904 40.4803 53.7403C40.4803 53.2491 40.4631 52.7579 40.4803 52.2668C40.4889 51.9221 40.2562 52.0514 40.0925 52.0255C39.8943 51.991 39.8082 52.06 39.8254 52.2754C39.8426 52.5598 39.8254 52.8528 39.8254 53.1457C39.8254 53.3784 39.8254 53.6111 39.8254 53.8437C39.834 54.4814 39.9633 54.5934 40.6096 54.5675C40.713 54.5675 40.8336 54.5676 40.8164 54.4211C40.7991 54.3004 40.9198 54.0936 40.6957 54.0678L40.7043 54.0764Z" fill="#1D478D"/>
<path d="M39.4894 54.0672C39.2739 54.0413 39.2739 53.912 39.2739 53.7656C39.2739 53.283 39.2567 52.8091 39.2739 52.3265C39.2825 52.0852 39.1964 52.0249 38.9637 52.0335C38.7483 52.0335 38.5932 52.0335 38.619 52.3265C38.6449 52.6109 38.619 52.9039 38.619 53.1968C38.619 53.4209 38.619 53.6449 38.619 53.869C38.6276 54.4894 38.7483 54.6014 39.3773 54.5842C39.4894 54.5842 39.6272 54.6101 39.6014 54.4377C39.5841 54.3171 39.6962 54.1102 39.4721 54.0844L39.4894 54.0672Z" fill="#1D478D"/>
<path d="M13.9826 54.0415C13.8189 54.0329 13.8447 53.8606 13.8447 53.7399C13.8447 53.2401 13.8361 52.7317 13.8447 52.2319C13.8447 51.9562 13.6638 52.0251 13.5259 52.0337C13.3966 52.0337 13.1898 51.9389 13.2071 52.2233C13.2243 52.5335 13.2071 52.8523 13.2071 53.1626C13.2071 53.4125 13.2071 53.6538 13.2071 53.9037C13.2071 54.4379 13.3277 54.5672 13.8534 54.5672C13.974 54.5672 14.1722 54.6792 14.198 54.4379C14.2153 54.2742 14.2756 54.0674 13.9826 54.0415Z" fill="#1D478D"/>
<path d="M20.1781 51.2495C19.618 51.2495 19.0665 51.2495 18.5064 51.2495C18.291 51.2495 18.3254 51.396 18.3168 51.5253C18.2996 51.6976 18.403 51.6976 18.5236 51.6976C18.7822 51.6976 19.0321 51.6976 19.2906 51.6976C19.5836 51.6976 19.8679 51.689 20.1609 51.6976C20.3332 51.6976 20.3763 51.6373 20.3677 51.4822C20.3677 51.3443 20.3591 51.2495 20.1781 51.2495Z" fill="#1D478D"/>
<path d="M22.255 51.6976C22.5221 51.6976 22.7892 51.689 23.0564 51.6976C23.2287 51.6976 23.2632 51.6287 23.2632 51.4822C23.2632 51.3443 23.246 51.2495 23.065 51.2495C22.5221 51.2495 21.9706 51.2495 21.4191 51.2495C21.2123 51.2495 21.2295 51.3874 21.2037 51.5166C21.1778 51.6804 21.2812 51.6976 21.4105 51.6976C21.6863 51.6976 21.9706 51.6976 22.2464 51.6976H22.255Z" fill="#1D478D"/>
<path d="M29.2348 50.948C29.0711 50.948 28.8987 50.948 28.735 50.948C28.037 50.948 28.0284 50.9479 28.0456 51.396C28.0456 51.4994 27.9595 51.6804 28.1663 51.6804C28.3042 51.6804 28.554 51.8183 28.5627 51.4994C28.5627 51.3788 28.6661 51.3788 28.7609 51.3788C28.916 51.3788 29.0711 51.3788 29.2262 51.3788C29.3813 51.3788 29.4675 51.3616 29.4761 51.1634C29.4761 50.9738 29.3985 50.9394 29.2434 50.948H29.2348Z" fill="#1D478D"/>
</svg>
