<svg width="59" height="58" viewBox="0 0 59 58" fill="none" xmlns="http://www.w3.org/2000/svg">
<rect x="0.668945" width="57.8345" height="57.8345" rx="4" fill="white"/>
<path d="M43.7751 35.2472C43.7751 35.2472 43.7751 35.1472 43.7751 35.0972V33.4872C40.4651 34.4972 37.2251 35.4972 33.9351 36.4972C33.9251 36.3172 33.9051 36.1972 33.9051 36.0872C33.9051 34.4272 33.9051 32.7772 33.9051 31.1172C33.9051 30.9072 33.9051 30.6972 33.8751 30.4872C33.6951 29.4572 33.1051 28.7772 32.0651 28.4772C32.1851 28.4072 32.2751 28.3472 32.3651 28.2872C33.3751 27.6872 33.8551 26.7672 33.8951 25.6172C33.9251 24.5772 33.9151 23.5372 33.8951 22.5072C33.8551 20.5772 32.1351 19.2272 30.2951 19.7172C29.2451 19.9972 28.2251 20.3472 27.1851 20.6672C26.5951 20.8472 25.9951 21.0272 25.3751 21.2072C25.3751 20.3572 25.3751 19.5672 25.3851 18.7772C25.3851 18.6672 25.5151 18.4872 25.6251 18.4472C26.1651 18.2572 26.7251 18.0972 27.2851 17.9272C28.4951 17.5572 29.7151 17.1872 30.9251 16.8172C31.9351 16.5072 32.9551 16.1872 33.9651 15.8872C34.2451 15.8072 34.3851 15.6672 34.3651 15.3472C34.3351 14.6672 34.3651 13.9872 34.3451 13.3072C34.3451 13.0172 34.4451 12.8872 34.7051 12.8072C37.5451 11.9472 40.3851 11.0772 43.2251 10.2372C43.6451 10.1172 43.7951 9.94719 43.7651 9.49719C43.7151 8.83719 43.7551 8.16719 43.7551 7.49719C43.7551 7.38719 43.7451 7.2872 43.7351 7.1272C43.1851 7.2872 42.6751 7.42719 42.1751 7.57719C39.6551 8.34719 37.1351 9.12719 34.6151 9.88719C34.3351 9.97719 34.2251 10.1072 34.2351 10.4072C34.2551 11.2072 34.2351 12.0072 34.2351 12.8272C33.0551 13.1972 31.8951 13.5572 30.7251 13.9172C29.0151 14.4372 27.3051 14.9672 25.5951 15.4772C25.3551 15.5472 25.2551 15.6672 25.2651 15.9172C25.2751 16.6172 25.2651 17.3272 25.2751 18.0272C25.2751 18.2972 25.2151 18.4172 24.9451 18.4972C23.9351 18.7872 22.9351 19.0972 21.9351 19.4072C19.8551 20.0472 17.7651 20.6972 15.6751 21.3272C15.4551 21.3972 15.3751 21.4772 15.3851 21.7072C15.3851 22.5072 15.3851 23.3172 15.3851 24.1172C15.3851 24.1872 15.4251 24.2472 15.4451 24.3472C18.7251 23.3472 21.9751 22.3472 25.2751 21.3472V39.1972C25.4251 39.1672 25.5451 39.1572 25.6551 39.1272C26.3751 38.9072 27.0851 38.6672 27.8151 38.4772C28.1051 38.3972 28.1751 38.2772 28.1751 37.9972C28.1651 35.7072 28.1751 33.4272 28.1651 31.1372C28.1651 30.9172 28.2051 30.8072 28.4351 30.7472C28.8851 30.6272 29.3251 30.4572 29.7851 30.3572C29.9951 30.3172 30.2551 30.3472 30.4551 30.4272C30.8851 30.6172 30.9651 31.0372 30.9651 31.4572C30.9651 33.3572 30.9651 35.2672 30.9651 37.1672C30.9651 37.2572 30.9751 37.3572 30.9851 37.5072C31.9251 37.2172 32.8251 36.9472 33.7851 36.6572C33.7851 37.5172 33.7851 38.3272 33.7751 39.1472C33.7751 39.2472 33.6251 39.3872 33.5251 39.4272C32.9151 39.6372 32.3051 39.8272 31.6951 40.0072C29.5151 40.6672 27.3351 41.3372 25.1551 41.9872C24.8951 42.0672 24.8051 42.1872 24.8151 42.4572C24.8351 43.1872 24.8151 43.9172 24.8151 44.6472C24.8151 44.8472 24.7651 44.9472 24.5451 45.0072C21.6051 45.8972 18.6851 46.8072 15.7451 47.6972C15.4751 47.7772 15.3851 47.8872 15.3951 48.1572C15.4051 48.9072 15.3951 49.6672 15.3951 50.4172C15.3951 50.5072 15.4251 50.5972 15.4351 50.7072C15.6251 50.6672 15.7851 50.6372 15.9351 50.5872C18.8351 49.6972 21.7251 48.8072 24.6251 47.9272C24.8351 47.8572 24.9151 47.7472 24.9151 47.5272C24.9051 46.8472 24.9451 46.1672 24.8951 45.4872C24.8751 45.0972 25.0151 44.9672 25.3651 44.8572C28.0851 44.0372 30.8051 43.1872 33.5251 42.3672C33.7951 42.2872 33.8751 42.1772 33.8751 41.9072C33.8651 41.1772 33.8651 40.4472 33.8751 39.7172C33.8751 39.5972 33.9851 39.4172 34.0951 39.3772C34.6051 39.1872 35.1251 39.0372 35.6451 38.8772C37.9551 38.1772 40.2651 37.4772 42.5751 36.7772C42.9551 36.6572 43.4551 36.5972 43.6751 36.3272C43.8651 36.0872 43.7351 35.5972 43.7451 35.2172L43.7751 35.2472ZM30.8851 26.5472C30.8151 27.2572 30.2951 27.7172 29.6051 27.9372C29.1551 28.0772 28.6951 28.2072 28.2051 28.3572C28.2051 27.1372 28.2051 25.9772 28.2051 24.8172C28.2051 24.3972 28.1951 23.9772 28.2051 23.5572C28.2051 23.4572 28.2951 23.2972 28.3851 23.2672C28.9451 23.0772 29.5151 22.9072 30.0751 22.7472C30.5251 22.6172 30.9251 22.8172 30.9451 23.2672C30.9751 24.3572 30.9851 25.4572 30.8851 26.5472Z" fill="#1D478D"/>
<path d="M20.4153 25.5875C18.8653 25.9975 17.3553 26.5275 15.8153 26.9775C15.5053 27.0675 15.4053 27.1975 15.4053 27.5075C15.4153 33.2475 15.4153 38.9875 15.4153 44.7275C15.4153 44.8275 15.4153 44.9175 15.4353 45.0975C15.7653 44.9975 16.0353 44.9175 16.3053 44.8375C18.0753 44.2975 19.8453 43.7675 21.6053 43.2175C23.1253 42.7375 23.9953 41.5075 23.9953 39.9075C23.9953 36.0475 23.9953 32.1775 23.9953 28.3175C23.9953 26.5275 22.3553 25.0775 20.4153 25.5875ZM21.0553 39.3875C21.0553 39.9975 20.7753 40.4475 20.2353 40.6675C19.6453 40.9075 19.0253 41.0575 18.3553 41.2675C18.3553 41.0675 18.3553 40.9275 18.3553 40.7975C18.3553 37.0575 18.3553 33.3175 18.3553 29.5775C18.3553 29.2475 18.4553 29.0875 18.7753 29.0175C19.2053 28.9175 19.6253 28.7675 20.0453 28.6375C20.7253 28.4375 21.0653 28.6875 21.0653 29.3875C21.0653 31.4975 21.0653 33.6075 21.0653 35.7175C21.0653 36.9375 21.0653 38.1575 21.0653 39.3875H21.0553Z" fill="#1D478D"/>
<path d="M38.8352 16.9575C39.5452 16.3575 40.4752 16.2075 40.6952 17.4475C40.8352 18.2175 40.7952 19.0175 40.8452 19.7975C40.8452 19.9675 40.8652 20.1375 40.8652 20.3075C40.9652 20.3075 41.0252 20.3175 41.0852 20.3075C41.9152 20.0575 42.7452 19.8175 43.5552 19.5475C43.6552 19.5175 43.7652 19.3175 43.7652 19.1975C43.7852 18.2575 43.8052 17.3175 43.7652 16.3775C43.7052 14.5575 42.3952 13.4175 40.7652 13.4375C39.5252 13.4475 38.4452 13.9075 37.5252 14.6875C36.0652 15.9275 35.1952 17.4675 35.2052 19.4375C35.2152 22.8175 35.2052 26.2075 35.2052 29.5875C35.2052 29.9475 35.2552 30.3275 35.3552 30.6775C35.6952 31.9075 36.7052 32.6675 37.9852 32.7475C39.2352 32.8175 40.3152 32.3975 41.2752 31.6375C42.7552 30.4675 43.7152 28.9875 43.7652 27.0475C43.8052 25.2475 43.7752 23.4375 43.7652 21.6375C43.7652 21.5375 43.7452 21.4275 43.7352 21.2975C43.5952 21.3175 43.4952 21.3175 43.4052 21.3475C42.2252 21.7075 41.0552 22.0775 39.8652 22.4175C39.5052 22.5175 39.3652 22.6975 39.4152 23.0675C39.4552 23.3675 39.4152 23.6875 39.4152 23.9975C39.4152 24.3275 39.4152 24.6475 39.4152 25.0375C39.9052 24.8975 40.3252 24.7775 40.7952 24.6375C40.7952 24.7975 40.8152 24.9175 40.8152 25.0375C40.8152 25.9275 40.8152 26.8175 40.8152 27.7075C40.8152 28.6075 40.3552 29.1975 39.5852 29.5575C38.8052 29.9275 38.1152 29.4775 38.1152 28.6275C38.1152 25.2675 38.1152 21.9075 38.1052 18.5475C38.1052 17.8975 38.3352 17.3575 38.8152 16.9475L38.8352 16.9575Z" fill="#1D478D"/>
</svg>
