<svg width="59" height="59" viewBox="0 0 59 59" fill="none" xmlns="http://www.w3.org/2000/svg">
<rect x="0.668945" y="0.834473" width="57.8345" height="57.8345" rx="4" fill="white"/>
<path d="M16.1117 26.9817C15.9717 25.2117 16.1117 23.4917 16.5217 21.8117C16.4917 21.7917 16.4917 21.7817 16.4817 21.7817C16.3117 21.7517 16.1517 21.7217 15.9817 21.6917C13.8917 21.2917 11.9517 20.5217 10.1717 19.3717C10.0417 19.2917 9.94166 19.2817 9.80166 19.3517C8.97166 19.7717 8.24165 20.3217 7.60165 21.0017C7.55165 21.0517 7.50166 21.1117 7.45166 21.1817C9.81166 23.8917 12.6717 25.8217 16.1017 26.9817H16.1117Z" fill="#1D478D"/>
<path d="M3.05168 28.4118C3.02168 29.1218 3.06168 29.8318 3.22168 30.5318C3.28168 30.8118 3.37168 31.0818 3.45168 31.3818C7.00168 30.6918 10.1017 29.1818 12.8217 26.7918C11.2117 26.0218 9.80168 25.0418 8.55168 23.8518C8.52168 23.8518 8.51168 23.8518 8.50168 23.8618C8.47168 23.8918 8.44168 23.9218 8.41168 23.9518C6.98168 25.7018 5.25168 27.0918 3.24168 28.1218C3.11168 28.1918 3.05168 28.2618 3.05168 28.4118Z" fill="#1D478D"/>
<path d="M25.5315 31.0716C25.5715 30.4516 25.5315 29.8416 25.4215 29.2316C25.3515 28.8716 25.2515 28.5116 25.1615 28.1116C21.6015 28.8116 18.5015 30.3216 15.7715 32.7016C17.3915 33.4716 18.7915 34.4516 20.0615 35.6616C20.1115 35.6116 20.1415 35.5816 20.1615 35.5516C21.5915 33.7916 23.3215 32.4016 25.3415 31.3616C25.4715 31.2916 25.5215 31.2016 25.5315 31.0716Z" fill="#1D478D"/>
<path d="M6.28174 31.7815C6.30174 31.8515 6.31174 31.8815 6.32174 31.9115C7.12174 34.0315 7.48174 36.2215 7.36174 38.4915C7.36174 38.6415 7.40174 38.7415 7.53174 38.8215C8.30174 39.3215 9.14174 39.6815 10.0317 39.8915C10.1117 39.9115 10.1917 39.9115 10.2817 39.9315C10.8717 38.2615 11.2217 36.5515 11.3417 34.8015C11.4617 33.0415 11.3517 31.3015 10.9817 29.5515C9.52174 30.5615 7.96174 31.2815 6.28174 31.7815Z" fill="#1D478D"/>
<path d="M22.3017 27.7017C22.2717 27.6117 22.2417 27.5517 22.2217 27.4917C21.4417 25.3817 21.0917 23.2017 21.2217 20.9517C21.2217 20.8317 21.1917 20.7617 21.1017 20.7017C20.2517 20.1417 19.3317 19.7517 18.3017 19.5417C17.1317 22.9517 16.8917 26.3917 17.6017 29.9417C19.0717 28.9217 20.6317 28.2017 22.3117 27.7017H22.3017Z" fill="#1D478D"/>
<path d="M12.4718 32.5117C12.6218 34.2917 12.4718 35.9917 12.0518 37.7117C12.2518 37.7517 12.4218 37.7717 12.5818 37.8017C14.6718 38.1917 16.6118 38.9617 18.4018 40.1217C18.5318 40.2017 18.6318 40.2117 18.7718 40.1417C19.6118 39.7117 20.3518 39.1617 20.9918 38.4717C21.0318 38.4217 21.0718 38.3717 21.1218 38.3017C18.7618 35.5917 15.9018 33.6617 12.4718 32.5017V32.5117Z" fill="#1D478D"/>
<path d="M35.2918 31.4316C34.9218 31.8616 34.4618 32.0816 33.9018 32.1316C32.9518 32.2216 32.0818 31.7216 31.6918 30.8416C31.4918 30.3916 31.4318 29.9116 31.4818 29.4316C31.5718 28.6316 31.9318 27.9916 32.6618 27.5916C33.3618 27.2016 34.5818 27.1816 35.2818 28.0016C35.7018 27.5816 36.1218 27.1616 36.5418 26.7416C36.3518 26.5116 36.0818 26.2916 35.7518 26.1216C34.3818 25.4616 33.0018 25.4316 31.6218 26.0716C30.5718 26.5516 29.9018 27.3816 29.5718 28.4816C29.3918 29.0816 29.3518 29.6916 29.4418 30.3116C29.6418 31.7616 30.3718 32.8416 31.7118 33.4716C32.4518 33.8216 33.2318 33.9216 34.0318 33.8616C34.9718 33.7916 35.8018 33.4416 36.4818 32.7716C36.5418 32.7116 36.5918 32.6516 36.6618 32.5716C36.2218 32.1616 35.7918 31.7516 35.3618 31.3416C35.3318 31.3716 35.3018 31.3916 35.2818 31.4216L35.2918 31.4316Z" fill="#1D478D"/>
<path d="M48.712 31.4315C48.342 31.8615 47.862 32.1015 47.302 32.1315C46.462 32.1815 45.752 31.9015 45.312 31.1715C44.742 30.2415 44.732 29.2715 45.302 28.3415C46.032 27.1415 47.722 26.9815 48.712 27.9915C48.732 28.0115 48.752 28.0115 48.752 28.0115C49.172 27.5915 49.582 27.1815 50.012 26.7515C49.702 26.4015 49.322 26.1515 48.902 25.9815C47.982 25.6015 47.032 25.5215 46.072 25.7315C44.682 26.0315 43.672 26.8115 43.132 28.1515C42.872 28.8015 42.812 29.4815 42.872 30.1715C42.982 31.4015 43.492 32.4215 44.522 33.1215C45.882 34.0415 47.352 34.1315 48.862 33.5215C49.342 33.3215 49.752 33.0115 50.102 32.6015C49.662 32.1915 49.242 31.7915 48.802 31.3815C48.762 31.4215 48.732 31.4415 48.712 31.4615V31.4315Z" fill="#1D478D"/>
<path d="M56.7118 27.4416C56.7618 26.9516 56.7418 26.0216 56.6918 25.8416C56.1918 25.7916 51.7718 25.8116 51.5918 25.8716C51.5918 28.4616 51.5918 31.0516 51.5918 33.6516H53.4418C53.4618 32.6416 53.4418 31.6416 53.4618 30.6116H56.4718V29.0516H53.4718V27.4416H56.7318H56.7118Z" fill="#1D478D"/>
<path d="M39.8417 28.8915L39.7917 28.8615V28.1715H38.0817C38.0317 28.4815 38.0417 33.4715 38.0917 33.6515H39.8617C39.8617 33.5515 39.8617 33.4615 39.8617 33.3715C39.8617 32.5615 39.8617 31.7515 39.8617 30.9415C39.8617 30.0715 40.4417 29.5415 41.3117 29.6015C41.4117 29.6015 41.5117 29.6115 41.6217 29.6215C41.6417 29.0815 41.6717 28.5715 41.6917 28.0415C40.8517 27.8915 40.2617 28.2115 39.8317 28.8915H39.8417Z" fill="#1D478D"/>
<path d="M4.14164 25.6616C5.12164 25.6816 5.92164 24.9116 5.93164 23.9416C5.94164 22.9516 5.18164 22.1616 4.21164 22.1516C3.23164 22.1516 2.44164 22.9116 2.43164 23.8816C2.43164 24.8516 3.18164 25.6416 4.14164 25.6516V25.6616Z" fill="#1D478D"/>
<path d="M14.332 39.6615C13.342 39.6515 12.542 40.4215 12.542 41.4115C12.542 42.3715 13.312 43.1615 14.272 43.1715C15.262 43.1815 16.032 42.4215 16.052 41.4415C16.062 40.4715 15.292 39.6815 14.342 39.6715L14.332 39.6615Z" fill="#1D478D"/>
<path d="M14.2917 19.8318C15.2617 19.8318 16.0317 19.0718 16.0417 18.1018C16.0517 17.1218 15.2817 16.3418 14.3017 16.3318C13.3217 16.3318 12.5417 17.1018 12.5317 18.0718C12.5317 19.0418 13.3117 19.8318 14.2817 19.8318H14.2917Z" fill="#1D478D"/>
<path d="M24.3816 22.1619C23.4216 22.1619 22.6516 22.9419 22.6416 23.9119C22.6416 24.8819 23.4216 25.6719 24.3916 25.6719C25.3616 25.6719 26.1516 24.8819 26.1416 23.9119C26.1416 22.9419 25.3516 22.1619 24.3716 22.1719L24.3816 22.1619Z" fill="#1D478D"/>
<path d="M24.4015 33.8318C23.4315 33.8318 22.6615 34.6018 22.6515 35.5618C22.6415 36.5318 23.4115 37.3318 24.3915 37.3318C25.3715 37.3318 26.1615 36.5618 26.1615 35.5918C26.1615 34.6218 25.3815 33.8318 24.4015 33.8318Z" fill="#1D478D"/>
<path d="M4.17173 33.8318C3.20173 33.8318 2.42174 34.6218 2.43174 35.6018C2.43174 36.5618 3.21174 37.3318 4.18174 37.3418C5.16174 37.3418 5.93174 36.5718 5.93174 35.5918C5.93174 34.6118 5.15173 33.8418 4.17173 33.8418V33.8318Z" fill="#1D478D"/>
</svg>
