<svg width="58" height="59" viewBox="0 0 58 59" fill="none" xmlns="http://www.w3.org/2000/svg">
<rect y="0.668945" width="57.8345" height="57.8345" rx="4" fill="white"/>
<path d="M49.8659 28.7635C49.8659 28.7635 49.8659 28.6735 49.8659 28.6335C49.8459 28.1135 49.8159 27.6035 49.7559 27.0835C49.6159 25.7635 49.3659 24.4635 48.9859 23.1935C48.2859 20.8635 47.2159 18.7135 45.7759 16.7535C44.3259 14.7735 42.5859 13.1035 40.5559 11.7235C38.4859 10.3235 36.2459 9.32351 33.8159 8.72351C32.3559 8.36351 30.8859 8.15349 29.3859 8.11349C29.3759 8.11349 29.3559 8.11349 29.3459 8.11349C29.1159 8.11349 28.8859 8.10352 28.6559 8.10352C28.4459 8.10352 28.2459 8.11349 28.0359 8.11349C27.4659 8.13349 26.8859 8.17352 26.3159 8.23352C24.9859 8.38352 23.6759 8.6435 22.4059 9.0535C18.1359 10.4035 14.6259 12.8635 11.8859 16.4135C9.96588 18.9035 8.68588 21.6935 8.00588 24.7635C7.79588 25.7335 7.65588 26.7035 7.58588 27.6935C7.56588 27.9235 7.55588 28.1535 7.54588 28.3835C7.54588 28.4035 7.55588 28.4335 7.52588 28.4435C7.52588 28.8535 7.52588 29.2735 7.52588 29.6835C7.52588 29.8535 7.53588 30.0135 7.54588 30.1835C7.57588 30.7035 7.61588 31.2235 7.67588 31.7335C7.84588 33.1835 8.15588 34.5935 8.61588 35.9735C9.47588 38.5335 10.7659 40.8435 12.5059 42.9035C14.4059 45.1535 16.6659 46.9335 19.3059 48.2435C21.0559 49.1135 22.8859 49.7235 24.8059 50.0835C25.7759 50.2635 26.7559 50.3735 27.7459 50.4235C27.7659 50.4235 27.7859 50.4235 27.8059 50.4235C27.9959 50.4235 28.1959 50.4335 28.3859 50.4435H29.1259C29.2959 50.4435 29.4559 50.4135 29.6259 50.4235C30.1459 50.3935 30.6559 50.3535 31.1659 50.3035C32.0359 50.2035 32.8859 50.0535 33.7359 49.8435C35.5159 49.4135 37.2059 48.7535 38.8159 47.8835C41.4459 46.4435 43.6759 44.5435 45.5059 42.1635C47.2359 39.9135 48.4659 37.4135 49.1859 34.6635C49.5259 33.3635 49.7459 32.0535 49.8259 30.7135C49.8459 30.4535 49.8559 30.1935 49.8659 29.9335C49.8659 29.7435 49.8659 29.5535 49.8759 29.3735C49.8759 29.1735 49.8759 28.9735 49.8659 28.7735V28.7635ZM45.1859 21.7435C45.6659 22.0335 45.9459 22.4735 46.1159 22.9935C46.1959 23.2435 46.2559 23.4935 46.2659 23.7135C46.2659 24.2335 46.0059 24.5635 45.6159 24.8035C45.3259 24.9835 44.9959 25.0735 44.6859 25.1835C44.0459 25.4235 43.4059 25.6535 42.7659 25.8935C42.7059 25.9135 42.6759 25.9035 42.6559 25.8435C42.5359 25.5035 42.4059 25.1535 42.2759 24.8135C42.2559 24.7535 42.2759 24.7335 42.3259 24.7135C42.8659 24.5135 43.4059 24.3135 43.9559 24.1135C44.2359 24.0135 44.5159 23.9035 44.7959 23.8035C44.9159 23.7635 45.0259 23.7035 45.1259 23.6135C45.2959 23.4735 45.3159 23.2835 45.2659 23.0835C45.1859 22.7735 44.9959 22.5435 44.7159 22.3935C44.6459 22.3535 44.6459 22.3235 44.6859 22.2635C44.8059 22.0935 44.9259 21.9235 45.0359 21.7535C45.0859 21.6735 45.1159 21.6835 45.1859 21.7235V21.7435ZM41.7959 18.2735C42.0159 18.5935 42.2259 18.9135 42.4459 19.2335C42.4859 19.2835 42.4459 19.3135 42.4159 19.3435C42.0359 19.8535 41.6659 20.3635 41.2859 20.8735C41.2359 20.9335 41.2359 20.9735 41.2859 21.0335C41.3259 21.0835 41.3659 21.1435 41.4059 21.2035C41.5159 21.3535 41.6359 21.3735 41.7859 21.2735C42.0659 21.0835 42.3359 20.9035 42.6159 20.7135C42.7459 20.6235 42.8759 20.5335 43.0059 20.4535C43.0559 20.4235 43.0659 20.4035 43.0359 20.3435C42.8659 20.0135 42.9259 19.7635 43.2159 19.5335C43.3559 19.4235 43.4959 19.3235 43.6759 19.2835C43.8559 19.2335 44.0359 19.2635 44.1859 19.3835C44.4659 19.6135 44.6659 19.9035 44.7759 20.2535C44.8459 20.4635 44.7859 20.6535 44.6359 20.8135C44.5159 20.9535 44.3659 21.0535 44.2059 21.1535C43.6659 21.5135 43.1359 21.8735 42.5959 22.2435C42.3559 22.4035 42.1059 22.5035 41.8159 22.5235C41.5859 22.5335 41.3959 22.4635 41.2259 22.3235C41.0859 22.2035 40.9659 22.0735 40.8559 21.9235C40.5959 21.5435 40.3359 21.1635 40.0759 20.7835C40.0459 20.7435 40.0359 20.7135 40.0759 20.6635C40.6359 19.8935 41.1859 19.1235 41.7459 18.3535C41.7459 18.3435 41.7659 18.3335 41.7859 18.3135L41.7959 18.2735ZM40.9659 15.5535C41.2159 15.7835 41.4459 16.0235 41.5759 16.3435C41.6259 16.4735 41.6559 16.6035 41.6559 16.7435C41.6559 17.0835 41.5159 17.3835 41.3159 17.6435C41.0859 17.9435 40.8159 18.2035 40.5659 18.4835C40.1959 18.9035 39.8159 19.3135 39.4459 19.7235C39.3759 19.8035 39.3359 19.7935 39.2659 19.7235C39.0159 19.4835 38.7559 19.2535 38.4959 19.0235C38.4459 18.9735 38.4459 18.9535 38.4959 18.9035C39.0759 18.2635 39.6559 17.6135 40.2359 16.9735C40.2959 16.9135 40.3459 16.8435 40.3959 16.7735C40.5459 16.5335 40.5259 16.3135 40.3359 16.1035C40.1259 15.8635 39.8559 15.7535 39.5359 15.7535C39.4559 15.7535 39.4359 15.7435 39.4459 15.6535C39.4759 15.4435 39.4959 15.2335 39.5159 15.0235C39.5159 14.9435 39.5459 14.9335 39.6259 14.9335C40.1459 14.9635 40.5859 15.1835 40.9659 15.5335V15.5535ZM39.1959 11.9335C39.2859 11.9235 39.3859 11.9335 39.4759 11.9535C39.8059 12.0535 40.0859 12.2435 40.2759 12.5335C40.4059 12.7235 40.4259 12.9235 40.3559 13.1335C40.2759 13.3635 40.1459 13.5535 39.9559 13.6935C39.7759 13.8335 39.5759 13.8835 39.3559 13.8135C39.0259 13.7135 38.7559 13.5235 38.5559 13.2435C38.4759 13.1335 38.4359 13.0035 38.4359 12.8635C38.4159 12.5335 38.7859 11.9735 39.2059 11.9235L39.1959 11.9335ZM33.8459 15.9535C34.2259 15.2135 34.5959 14.4735 34.9659 13.7335C34.9959 13.6735 34.9959 13.6435 34.9259 13.6135C34.6159 13.4235 34.5159 13.1535 34.6359 12.8135C34.6859 12.6835 34.7459 12.5535 34.8359 12.4435C34.9959 12.2235 35.2059 12.1335 35.4759 12.1935C35.7959 12.2735 36.0859 12.4135 36.3259 12.6335C36.5159 12.8035 36.5559 13.0035 36.4959 13.2435C36.4359 13.5035 36.2859 13.7235 36.1759 13.9635C36.1359 14.0535 36.0859 14.1435 36.0259 14.2635C36.3859 14.0435 36.7159 13.8335 37.0559 13.6335C37.2459 13.5235 37.4359 13.4235 37.6559 13.4135C38.0059 13.3935 38.3059 13.5135 38.5459 13.7735C38.7259 13.9635 38.7259 14.2035 38.6459 14.4435C38.5759 14.6635 38.4559 14.8635 38.3459 15.0635C37.9259 15.9035 37.4959 16.7535 37.0659 17.5935C37.0359 17.6635 37.0059 17.6735 36.9359 17.6335C36.6159 17.4635 36.2959 17.3035 35.9659 17.1435C35.9059 17.1135 35.8959 17.0935 35.9259 17.0335C36.3159 16.2735 36.6959 15.5035 37.0859 14.7435C37.0959 14.7235 37.1059 14.7035 37.1159 14.6735C37.1259 14.6535 37.1459 14.6235 37.1159 14.6035C37.0959 14.5835 37.0659 14.5935 37.0359 14.6035C36.9159 14.6735 36.7959 14.7435 36.6759 14.8235C36.2359 15.0935 35.7959 15.3635 35.3559 15.6335C35.3059 15.6635 35.2659 15.7035 35.2459 15.7635C35.1259 16.0035 34.9959 16.2435 34.8759 16.4935C34.8459 16.5635 34.8159 16.5735 34.7459 16.5435C34.4459 16.3835 34.1459 16.2335 33.8459 16.0835C33.7859 16.0535 33.7659 16.0335 33.8059 15.9635L33.8459 15.9535ZM18.9459 23.9135C20.0259 23.0635 21.3459 23.0935 22.3859 23.9835C22.9659 24.4835 23.3659 25.1035 23.6659 25.7935C24.0059 26.5635 24.1859 27.3635 24.2659 28.1935C24.3759 29.3335 24.2959 30.4635 23.9759 31.5735C23.7259 32.4235 23.3559 33.2035 22.7659 33.8735C22.3659 34.3235 21.8859 34.6835 21.2959 34.8435C20.5459 35.0535 19.8459 34.9235 19.1959 34.5035C18.5759 34.1035 18.1359 33.5335 17.7859 32.8835C17.3359 32.0335 17.0859 31.1235 16.9759 30.1735C16.9359 29.8235 16.9159 29.4635 16.9159 29.1135C16.9159 27.9035 17.1259 26.7335 17.6459 25.6335C17.9559 24.9735 18.3559 24.3735 18.9359 23.9135H18.9459ZM18.8659 20.8735C19.0059 20.5935 19.1459 20.3035 19.2859 20.0235C19.2959 19.9935 19.3059 19.9635 19.3359 19.9535C19.3559 19.9635 19.3759 19.9735 19.3959 19.9835C21.0659 20.8035 22.7259 21.6235 24.3959 22.4435C24.4559 22.4735 24.4759 22.4935 24.4459 22.5735C24.3059 22.8535 24.1659 23.1335 24.0359 23.4135C23.9959 23.4935 23.9659 23.4835 23.9059 23.4535C22.7859 22.9035 21.6659 22.3435 20.5459 21.7935C20.0059 21.5235 19.4659 21.2635 18.9159 20.9935C18.8559 20.9635 18.8359 20.9435 18.8759 20.8735H18.8659ZM22.7359 36.6335C22.8759 36.3335 23.0059 36.0335 23.1259 35.7235C23.1559 35.6535 23.1859 35.6435 23.2559 35.6735C24.2859 36.1535 25.3459 36.5335 26.4459 36.7935C27.7359 37.0935 29.0459 37.1935 30.3659 37.0835C32.0559 36.9335 33.6459 36.4335 35.1659 35.6835C35.2459 35.6435 35.2659 35.6635 35.2959 35.7335C35.4359 36.0335 35.5859 36.3335 35.7359 36.6335C35.7659 36.6935 35.7559 36.7135 35.6959 36.7435C34.3959 37.3935 33.0359 37.8735 31.5959 38.1235C30.8359 38.2535 30.0759 38.3335 29.3059 38.3235C27.2759 38.3235 25.3359 37.8735 23.4759 37.0735C23.2459 36.9735 23.0159 36.8535 22.7859 36.7535C22.7259 36.7235 22.7059 36.7035 22.7359 36.6335ZM34.2559 26.1435C34.5959 27.0635 34.7459 28.0135 34.7559 28.9935C34.7659 30.1635 34.5859 31.2935 34.1259 32.3835C33.8259 33.0735 33.4359 33.7035 32.8659 34.2135C32.3059 34.7035 31.6559 34.9735 30.9059 34.9335C30.3159 34.8935 29.8059 34.6635 29.3459 34.2835C28.7259 33.7735 28.3059 33.1035 27.9959 32.3735C27.5559 31.3335 27.3759 30.2335 27.3659 29.0635C27.3759 27.9035 27.5759 26.7335 28.0959 25.6335C28.3959 24.9835 28.7959 24.3935 29.3559 23.9435C29.9459 23.4635 30.6059 23.2235 31.3759 23.3135C31.9859 23.3835 32.4959 23.6735 32.9459 24.0835C33.5659 24.6535 33.9659 25.3735 34.2559 26.1535V26.1435ZM29.5859 11.3935C29.6959 11.1035 29.8859 10.9735 30.2059 10.9635C30.4559 10.9635 30.6959 11.0035 30.9359 11.0835C31.3059 11.2135 31.4459 11.4235 31.4159 11.8135C31.3959 12.0835 31.3359 12.3535 31.2959 12.6235C31.2159 13.1335 31.1259 13.6435 31.0359 14.1735C31.1459 14.1235 31.2459 14.0835 31.3459 14.0435C31.5459 13.9535 31.7559 13.8635 31.9559 13.7735C32.0859 13.7135 32.1659 13.6335 32.1859 13.4835C32.2859 12.8435 32.4059 12.2035 32.5059 11.5735C32.5159 11.4835 32.5459 11.4535 32.6359 11.4735C32.9759 11.5335 33.3259 11.5935 33.6759 11.6535C33.7259 11.6535 33.7559 11.6735 33.7459 11.7335C33.6359 12.3535 33.5359 12.9635 33.4259 13.5835C33.3659 13.9235 33.3259 13.9735 32.9859 14.2335C33.3459 14.4135 33.3759 14.7135 33.3159 15.0435C33.2259 15.5635 33.0059 15.7535 32.4759 15.7235C32.2159 15.7135 31.9559 15.6635 31.7159 15.5535C31.4559 15.4335 31.3559 15.2535 31.3859 14.9535C31.2459 15.0235 31.0959 15.0735 30.9659 15.1535C30.7559 15.2835 30.5359 15.3235 30.2959 15.2535C30.0959 15.2035 29.8859 15.1735 29.6759 15.1435C29.6159 15.1435 29.6059 15.1135 29.6159 15.0635C29.7559 14.2435 29.8959 13.4135 30.0359 12.5935C30.0459 12.5235 30.0359 12.5035 29.9659 12.4735C29.6359 12.3735 29.5059 12.1935 29.5059 11.8535C29.5059 11.6935 29.5359 11.5435 29.5859 11.3935ZM31.8459 19.7935C32.0159 19.7135 32.1759 19.6335 32.3459 19.5435C32.3759 19.5235 32.4059 19.5135 32.4259 19.5635C32.5759 19.8735 32.7259 20.1735 32.8759 20.4835C32.8759 20.4835 32.8759 20.5035 32.8859 20.5135C32.8859 20.5535 32.8459 20.5535 32.8159 20.5635C32.0959 20.9235 31.3759 21.2735 30.6559 21.6335C29.7159 22.0935 28.7659 22.5635 27.8259 23.0235C27.7559 23.0535 27.7259 23.0635 27.6959 22.9835C27.5659 22.7035 27.4259 22.4235 27.2859 22.1435C27.2559 22.0835 27.2559 22.0635 27.3259 22.0335C28.8359 21.2935 30.3459 20.5435 31.8559 19.8035L31.8459 19.7935ZM24.5759 12.1235C24.7359 11.7235 25.0259 11.4535 25.4159 11.3135C26.0159 11.0935 26.6259 11.0035 27.2659 11.1035C27.8659 11.1935 28.3059 11.6335 28.4559 12.2835C28.5459 12.6535 28.5659 13.0435 28.6259 13.4135C28.6959 13.9135 28.7559 14.4235 28.8259 14.9235C28.8359 15.0035 28.8159 15.0235 28.7359 15.0335C28.3959 15.0735 28.0559 15.1235 27.7259 15.1635C27.5959 15.1835 27.5959 15.1835 27.5759 15.0435C27.5259 14.6735 27.4759 14.2935 27.4259 13.9035C27.1559 14.3635 26.3859 14.4835 26.0559 14.1335C25.9459 14.2535 25.9159 14.3835 25.9459 14.5435C25.9959 14.8035 26.0159 15.0735 26.0559 15.3335C26.0559 15.3835 26.0559 15.3935 26.0059 15.3935C25.6259 15.4435 25.2459 15.4935 24.8659 15.5435C24.7959 15.5435 24.8059 15.5035 24.8059 15.4635C24.7659 15.2035 24.7359 14.9435 24.7059 14.6835C24.6359 14.1235 24.5559 13.5635 24.4859 13.0035C24.4459 12.6935 24.4659 12.3935 24.5859 12.1035L24.5759 12.1235ZM19.0259 13.6335C19.3059 13.3835 19.6359 13.2235 20.0059 13.1735C20.2259 13.1435 20.3859 13.2535 20.5259 13.4135C20.6159 13.5135 20.6759 13.6335 20.7359 13.7535C20.9559 14.2135 21.1659 14.6635 21.3859 15.1235C21.3859 15.1335 21.3959 15.1435 21.4259 15.1835C21.4259 15.0235 21.4059 14.8935 21.4059 14.7535C21.3959 14.5235 21.3759 14.3035 21.3659 14.0735C21.3659 14.0235 21.3659 13.9935 21.4259 13.9735C21.5259 13.9335 21.6359 13.8335 21.7359 13.8435C21.8259 13.8435 21.9059 13.9735 21.9859 14.0435C22.1759 14.2135 22.3659 14.3735 22.5559 14.5435C22.5759 14.5635 22.6059 14.5735 22.6159 14.6135C22.6359 14.5835 22.5959 14.5635 22.5859 14.5435C22.2759 13.8835 21.9559 13.2135 21.6359 12.5535C21.6059 12.4935 21.6159 12.4735 21.6759 12.4435C22.0059 12.2935 22.3259 12.1335 22.6559 11.9735C22.7159 11.9435 22.7359 11.9535 22.7559 12.0135C23.3259 13.2135 23.8859 14.4035 24.4559 15.5935C24.4859 15.6535 24.4659 15.6735 24.4159 15.6935C24.0759 15.8535 23.7359 16.0135 23.4059 16.1735C23.3459 16.2035 23.3159 16.1835 23.2759 16.1535C22.9059 15.8235 22.5259 15.4935 22.1459 15.1635C22.1159 15.1735 22.1259 15.2035 22.1259 15.2235C22.1459 15.7035 22.1659 16.1735 22.1859 16.6435C22.1859 16.7135 22.1759 16.7535 22.1059 16.7835C21.7759 16.9335 21.4359 17.0935 21.1059 17.2535C21.0459 17.2835 21.0259 17.2735 20.9959 17.2135C20.6459 16.4635 20.2859 15.7235 19.9359 14.9835C19.9059 14.9135 19.8759 14.8835 19.7859 14.9135C19.4859 15.0135 19.2559 14.9335 19.0759 14.6735C18.9459 14.4935 18.8559 14.2935 18.8459 14.0635C18.8459 13.8935 18.8959 13.7435 19.0159 13.6335H19.0259ZM15.5959 16.8635C15.6959 16.3835 15.9459 15.9935 16.3059 15.6735C16.5759 15.4335 16.8659 15.2135 17.2259 15.1235C17.3159 15.1035 17.3959 15.0835 17.4959 15.0835C17.8859 15.0935 18.2059 15.2735 18.4759 15.5535C18.8359 15.9235 19.1559 16.3235 19.4859 16.7135C19.7659 17.0335 20.0359 17.3535 20.3159 17.6735C20.3759 17.7435 20.3659 17.7735 20.2959 17.8335C20.0259 18.0635 19.7659 18.2935 19.4959 18.5235C19.4359 18.5735 19.4159 18.5635 19.3659 18.5135C18.8059 17.8535 18.2359 17.2035 17.6759 16.5435C17.6059 16.4535 17.5259 16.3735 17.4259 16.3135C17.2559 16.2035 17.0759 16.1935 16.9059 16.2935C16.6059 16.4635 16.4359 16.7235 16.3859 17.0535C16.3659 17.1835 16.3659 17.1835 16.2359 17.1535C16.0559 17.1135 15.8659 17.0635 15.6859 17.0235C15.5959 17.0035 15.5659 16.9735 15.5859 16.8735L15.5959 16.8635ZM13.4159 18.9535C13.6359 18.6535 13.8859 18.3835 14.2159 18.2035C14.7159 17.9335 15.2159 17.9435 15.6959 18.2635C16.4259 18.7435 17.1559 19.2435 17.8859 19.7235C17.9559 19.7735 17.9659 19.8035 17.9159 19.8735C17.7159 20.1635 17.5159 20.4635 17.3159 20.7635C17.2759 20.8135 17.2559 20.8235 17.2059 20.7835C16.4859 20.2935 15.7559 19.8135 15.0359 19.3235C14.6759 19.0835 14.3759 19.1235 14.0959 19.4635C13.8959 19.7135 13.7759 19.9935 13.7359 20.3035C13.7359 20.3435 13.7259 20.3835 13.7759 20.4235C13.8259 20.4535 13.8559 20.4235 13.8859 20.4235C14.0759 20.3335 14.2559 20.2435 14.4459 20.1535C14.4959 20.1335 14.5259 20.1235 14.5659 20.1535C14.6059 20.1935 14.6659 20.2235 14.7159 20.2535C14.8159 20.3135 14.9159 20.3635 14.9059 20.5235C14.9059 20.6435 15.0059 20.7235 15.1059 20.7835C15.3559 20.9535 15.6059 21.1235 15.8559 21.2935C16.0059 21.3935 16.1559 21.5035 16.2659 21.6535C16.4259 21.8435 16.4559 22.0635 16.3759 22.2935C16.2659 22.5835 16.0959 22.8335 15.8559 23.0435C15.6859 23.1935 15.4859 23.2235 15.2659 23.1535C15.0759 23.0835 14.9059 22.9735 14.7559 22.8235C14.5659 22.6135 14.5259 22.3835 14.6659 22.1235C14.7159 22.0335 14.6859 22.0035 14.6159 21.9635C14.5459 21.9235 14.4759 21.8735 14.4059 21.8235C14.2359 21.7035 14.1059 21.5535 14.0659 21.3335C14.0659 21.2835 14.0359 21.2635 13.9859 21.2935C13.8059 21.3835 13.6159 21.4735 13.4259 21.5635C13.3759 21.5835 13.3459 21.5935 13.2959 21.5635C13.1559 21.4635 13.0059 21.3635 12.8559 21.2735C12.8159 21.2535 12.7959 21.2235 12.7959 21.1735C12.7859 21.0535 12.7659 20.9335 12.7659 20.8635C12.7659 20.1235 12.9959 19.5135 13.4059 18.9635L13.4159 18.9535ZM10.4659 25.7635C10.4959 25.5435 10.5559 25.3235 10.6559 25.1235C10.8259 24.7535 11.0659 24.6335 11.4659 24.7135C11.8859 24.8035 12.2859 24.9435 12.6959 25.0635C12.8759 25.1135 13.0659 25.1735 13.2659 25.2335C12.9859 24.8535 12.6559 24.5435 12.4159 24.1535C12.2659 24.3135 12.0759 24.3535 11.8659 24.3235C11.7159 24.2935 11.5759 24.2435 11.4359 24.1735C11.2059 24.0435 11.1059 23.8435 11.1259 23.5935C11.1459 23.3135 11.2259 23.0535 11.3459 22.8035C11.4959 22.5035 11.6759 22.4035 12.0159 22.4335C12.1559 22.4435 12.2959 22.4835 12.4259 22.5435C12.6059 22.6335 12.7259 22.7735 12.7759 22.9835C12.9659 22.8535 13.1559 22.8735 13.3459 22.9335C14.0459 23.1335 14.7359 23.3435 15.4359 23.5535C15.4859 23.5735 15.5159 23.5835 15.4959 23.6535C15.3859 24.0035 15.2859 24.3535 15.1859 24.7135C15.1659 24.7735 15.1459 24.7735 15.0959 24.7635C14.6259 24.6235 14.1559 24.4835 13.6859 24.3435C13.6459 24.3335 13.5959 24.2935 13.5659 24.3435C13.5459 24.3835 13.5959 24.4235 13.6259 24.4535C14.0059 24.9035 14.3859 25.3535 14.7759 25.7935C14.8359 25.8535 14.8459 25.9135 14.8159 25.9935C14.7259 26.2735 14.6459 26.5535 14.5659 26.8435C14.5459 26.9235 14.5159 26.9335 14.4459 26.9035C13.6559 26.6635 12.8559 26.4335 12.0659 26.1935C12.0159 26.1835 11.9859 26.1635 11.9559 26.2235C11.7959 26.5735 11.6059 26.6735 11.2359 26.6135C11.1059 26.5935 10.9759 26.5535 10.8559 26.4935C10.5559 26.3435 10.4459 26.1335 10.4959 25.7735L10.4659 25.7635ZM11.8259 29.2735C11.8559 29.1535 11.9059 29.0535 11.9859 28.9435C11.8059 28.9435 11.6459 28.9335 11.4859 28.9535C11.2259 28.9935 11.0559 29.1535 11.0059 29.4135C10.8959 29.9235 10.9759 30.4035 11.2959 30.8235C11.3359 30.8835 11.3359 30.9035 11.2759 30.9435C11.0959 31.0635 10.9259 31.1835 10.7559 31.3135C10.6859 31.3735 10.6559 31.3535 10.6059 31.2835C10.3959 30.9835 10.2559 30.6435 10.1859 30.2835C10.0959 29.8235 10.0859 29.3635 10.2159 28.9035C10.2159 28.8735 10.2359 28.8435 10.2459 28.8135C10.2959 28.6735 10.2959 28.6635 10.1659 28.5935C10.1159 28.5635 10.0559 28.5335 9.99588 28.5135C9.90588 28.4935 9.88588 28.4535 9.90588 28.3635C9.96588 28.1135 10.0159 27.8535 10.0659 27.5935C10.0759 27.5235 10.1059 27.4935 10.1859 27.5135C10.4259 27.5735 10.6359 27.6935 10.8059 27.8835C10.8259 27.9135 10.8459 27.9535 10.8959 27.9135C11.1259 27.7335 11.4059 27.6835 11.6959 27.6835C12.5559 27.6835 13.4259 27.6835 14.2859 27.6835C14.3459 27.6835 14.3659 27.6935 14.3659 27.7635C14.3659 28.1035 14.3659 28.4535 14.3659 28.7935C14.3659 28.8635 14.3359 28.8635 14.2759 28.8635C13.9259 28.8635 13.5759 28.8835 13.2259 28.9635C12.7259 29.0935 12.4959 29.4235 12.6059 30.0335C12.6259 30.1635 12.7059 30.2535 12.8359 30.3035C12.8759 30.3235 12.8959 30.3035 12.8959 30.2635C12.8959 30.2235 12.8959 30.1835 12.8959 30.1535C12.9459 29.7635 13.1659 29.5835 13.5959 29.5535C13.6959 29.5535 13.7959 29.5535 13.8959 29.5735C14.2059 29.6235 14.3559 29.7835 14.4259 30.0935C14.4759 30.3435 14.4859 30.6035 14.4259 30.8535C14.3659 31.1135 14.2159 31.2935 13.9659 31.3635C13.4459 31.5135 12.9359 31.4935 12.4459 31.2635C12.0559 31.0835 11.8659 30.7335 11.7859 30.3335C11.7159 29.9735 11.7259 29.6135 11.8159 29.2635L11.8259 29.2735ZM13.1459 39.1735C13.0759 39.1935 13.0459 39.1735 13.0159 39.1235C12.9459 38.9935 12.8759 38.8635 12.7959 38.7335C12.7659 38.6835 12.7759 38.6435 12.8159 38.6035C13.0759 38.3135 13.3359 38.0235 13.5959 37.7335C13.6159 37.7135 13.6359 37.6835 13.6759 37.6435C13.3459 37.7035 13.0359 37.7635 12.7259 37.8235C12.6159 37.8435 12.5059 37.8635 12.4059 37.8835C12.3459 37.8935 12.3259 37.8835 12.3059 37.8335C12.2359 37.6935 12.1559 37.5635 12.0759 37.4335C12.0459 37.3835 12.0459 37.3535 12.0959 37.3035C12.5759 36.8735 13.0559 36.4435 13.5359 36.0235C13.6459 35.9235 13.7559 35.8335 13.8559 35.7335C14.0059 35.5935 14.0259 35.5235 13.9259 35.3435C13.8959 35.2835 13.8959 35.2635 13.9559 35.2335C14.0559 35.1835 14.1559 35.1235 14.2559 35.0635C14.2959 35.0335 14.3259 35.0335 14.3459 35.0835C14.4759 35.3135 14.5959 35.5435 14.7359 35.7735C14.7759 35.8335 14.7359 35.8535 14.7059 35.8935C14.3259 36.2235 13.9359 36.5635 13.5559 36.8935C13.5159 36.9235 13.4859 36.9635 13.4559 36.9935C13.4459 36.9935 13.4259 36.9935 13.4359 37.0135C13.4359 37.0135 13.4559 37.0135 13.4659 37.0135C13.8359 36.9335 14.2159 36.8635 14.5859 36.7835C14.6659 36.7635 14.7059 36.7835 14.7359 36.8535C14.7859 36.9635 14.8459 37.0635 14.9159 37.1635C14.9459 37.2135 14.9459 37.2535 14.8959 37.2935C14.6359 37.5735 14.3759 37.8535 14.1159 38.1335C14.1059 38.1435 14.0959 38.1635 14.0659 38.1935C14.2559 38.1335 14.4259 38.0835 14.5859 38.0335C14.9559 37.9135 15.3359 37.8035 15.7059 37.6835C15.7759 37.6635 15.8059 37.6735 15.8359 37.7335C15.9559 37.9535 16.0859 38.1835 16.2059 38.4035C16.2359 38.4635 16.2359 38.4835 16.1759 38.5135C16.0759 38.5635 15.9659 38.6235 15.8659 38.6835C15.8259 38.7135 15.7959 38.7135 15.7859 38.6635C15.7859 38.6535 15.7759 38.6435 15.7659 38.6235C15.6759 38.4635 15.5959 38.4335 15.4259 38.4935C15.1059 38.5835 14.7959 38.6835 14.4759 38.7735C14.0359 38.9035 13.5859 39.0435 13.1459 39.1735ZM15.1159 41.8535C14.7259 41.5635 14.4259 41.2035 14.3159 40.7135C14.3159 40.6935 14.3159 40.6735 14.3059 40.6535C14.3059 40.6035 14.3059 40.5535 14.3059 40.5335C14.3059 40.2535 14.3859 40.0335 14.5159 39.8235C14.7859 39.4135 15.1459 39.1035 15.5959 38.8835C16.0459 38.6635 16.4859 38.7135 16.8859 39.0235C17.1359 39.2135 17.3359 39.4435 17.4959 39.7235C17.7459 40.1635 17.7359 40.5935 17.4659 41.0135C17.1959 41.4235 16.8359 41.7535 16.3859 41.9635C15.9459 42.1735 15.5259 42.1335 15.1359 41.8435L15.1159 41.8535ZM18.5659 44.2035C18.5659 44.2035 18.6259 44.2635 18.5859 44.3135C18.5059 44.4035 18.4359 44.5035 18.3559 44.5935C18.3259 44.6335 18.3159 44.6335 18.2759 44.5935C17.9959 44.3635 17.7159 44.1435 17.4259 43.9235C17.3859 43.8935 17.3959 43.8735 17.4259 43.8335C17.4959 43.7535 17.5659 43.6735 17.6259 43.5835C17.6759 43.5135 17.7159 43.4935 17.7759 43.5635C17.7859 43.5735 17.8059 43.5935 17.8359 43.5935C17.8759 43.3735 17.9059 43.1535 17.9459 42.9235C17.9459 42.8935 17.9359 42.8735 17.9159 42.8535C17.8259 42.7835 17.7459 42.7235 17.6559 42.6435C17.6259 42.6135 17.6059 42.6235 17.5859 42.6535C17.4959 42.7635 17.4059 42.8835 17.3159 42.9935C17.2459 43.0835 17.2459 43.1335 17.3459 43.2135C17.4059 43.2535 17.4059 43.2835 17.3559 43.3335C17.2759 43.4235 17.2059 43.5135 17.1359 43.6035C17.1059 43.6435 17.0859 43.6435 17.0559 43.6035C16.7459 43.3535 16.4359 43.1135 16.1259 42.8635C16.0959 42.8435 16.0759 42.8235 16.1159 42.7835C16.1959 42.6835 16.2759 42.5835 16.3559 42.4835C16.3859 42.4435 16.4059 42.4535 16.4459 42.4835C16.6159 42.6135 16.6559 42.6035 16.7959 42.4435C17.1459 42.0035 17.4959 41.5635 17.8459 41.1235C17.9459 40.9935 17.9459 40.9235 17.8059 40.8235C17.7459 40.7735 17.7359 40.7535 17.7859 40.6935C17.8659 40.6135 17.9259 40.5235 17.9959 40.4235C18.0259 40.3835 18.0459 40.3835 18.0859 40.4235C18.5359 40.7835 18.9859 41.1335 19.4359 41.5035C19.6659 41.6935 19.8359 41.9135 19.8659 42.2235C19.9259 42.8835 19.2859 43.4135 18.6359 43.2535C18.5559 43.2335 18.5359 43.2535 18.5259 43.3235C18.5059 43.5135 18.4659 43.7035 18.4359 43.8935C18.4159 44.0335 18.4759 44.1235 18.5759 44.1935L18.5659 44.2035ZM21.6659 46.0335C21.6059 46.1235 21.5659 46.2135 21.5259 46.3035C21.5059 46.3535 21.4859 46.3535 21.4359 46.3335C21.0859 46.1535 20.7459 45.9735 20.3959 45.7935C20.3459 45.7635 20.3459 45.7435 20.3659 45.7035C20.4259 45.6035 20.4759 45.4935 20.5259 45.3935C20.5459 45.3435 20.5759 45.3235 20.6259 45.3635C20.6759 45.3935 20.7259 45.4135 20.7859 45.4435C20.7759 45.3035 20.7659 45.1735 20.7459 45.0435C20.7259 44.8735 20.7159 44.7035 20.6959 44.5335C20.6959 44.4635 20.6759 44.4235 20.5959 44.4735C20.5659 44.4935 20.5259 44.5035 20.4859 44.5135C20.2659 44.5435 20.1459 44.6935 20.0759 44.8935C20.0359 45.0035 20.0359 45.0635 20.1359 45.1235C20.1759 45.1535 20.1859 45.1735 20.1559 45.2135C20.0959 45.3235 20.0359 45.4335 19.9859 45.5435C19.9659 45.5835 19.9459 45.5935 19.9059 45.5635C19.5559 45.3835 19.2159 45.2035 18.8659 45.0235C18.8259 45.0035 18.8159 44.9835 18.8359 44.9435C18.8959 44.8335 18.9559 44.7235 19.0159 44.6035C19.0359 44.5635 19.0559 44.5635 19.0959 44.5835C19.3059 44.6835 19.3259 44.6635 19.4359 44.4635C19.6859 43.9735 19.9459 43.4835 20.2059 42.9935C20.2859 42.8335 20.2659 42.7735 20.1159 42.6935C20.0559 42.6635 20.0459 42.6335 20.0759 42.5735C20.1359 42.4835 20.1759 42.3835 20.2259 42.2835C20.2459 42.2335 20.2659 42.2235 20.3259 42.2535C20.6659 42.4335 21.0059 42.6035 21.3459 42.7835C21.4059 42.8135 21.4059 42.8335 21.3759 42.8935C21.3159 42.9935 21.2659 43.1035 21.2159 43.2035C21.1959 43.2535 21.1759 43.2635 21.1259 43.2335C21.0459 43.1835 20.9659 43.2135 20.9259 43.2935C20.8159 43.5035 20.7059 43.7235 20.5959 43.9335C20.5959 43.9335 20.5759 43.9435 20.5859 43.9535C20.5859 43.9535 20.6059 43.9535 20.6159 43.9535C20.9959 43.8135 21.3759 43.6835 21.7659 43.5435C21.7159 43.4835 21.6159 43.4935 21.6059 43.4335C21.6059 43.3735 21.6559 43.3135 21.6859 43.2635C21.7259 43.1835 21.7559 43.0735 21.8159 43.0535C21.8759 43.0335 21.9659 43.1135 22.0459 43.1535C22.3059 43.2935 22.5659 43.4235 22.8359 43.5635C22.8959 43.5935 22.9059 43.6135 22.8759 43.6735C22.8159 43.7735 22.7659 43.8835 22.7159 43.9835C22.6959 44.0335 22.6659 44.0335 22.6359 44.0035C22.4759 43.8835 22.3259 43.9035 22.1459 43.9735C21.8859 44.0735 21.6259 44.1635 21.3659 44.2435C21.3059 44.2635 21.2959 44.2835 21.2959 44.3435C21.3459 44.7735 21.3859 45.2035 21.4259 45.6235C21.4359 45.7535 21.4959 45.8435 21.6159 45.8935C21.7159 45.9335 21.7159 45.9735 21.6659 46.0535V46.0335ZM24.3259 44.5035C24.1859 44.4535 24.0459 44.4135 23.9159 44.3735C23.8759 44.3635 23.8559 44.3735 23.8359 44.4135C23.7659 44.6435 23.6959 44.8635 23.6259 45.0935C23.6059 45.1435 23.6259 45.1635 23.6759 45.1735C23.8359 45.2235 23.9959 45.2735 24.1559 45.3235C24.2159 45.3435 24.2459 45.3635 24.2159 45.4335C24.1759 45.5335 24.1459 45.6435 24.1159 45.7535C24.0959 45.8235 24.0659 45.8235 24.0059 45.8035C23.8459 45.7535 23.6859 45.7135 23.5359 45.6535C23.4759 45.6335 23.4559 45.6535 23.4359 45.7035C23.3759 45.9135 23.3059 46.1335 23.2359 46.3435C23.2159 46.4035 23.2359 46.4235 23.2859 46.4435C23.4459 46.4835 23.5959 46.5335 23.7159 46.5735C23.8559 46.5735 23.8959 46.5135 23.9159 46.4335C23.9259 46.3735 23.9559 46.3735 24.0059 46.3835C24.1859 46.4435 24.3559 46.4935 24.5359 46.5435C24.5859 46.5535 24.5959 46.5735 24.5859 46.6335C24.5259 46.8335 24.4659 47.0235 24.4059 47.2235C24.3959 47.2735 24.3759 47.2835 24.3159 47.2635C23.5759 47.0335 22.8359 46.8035 22.0959 46.5835C22.0559 46.5735 22.0359 46.5635 22.0559 46.5135C22.0959 46.3935 22.1359 46.2735 22.1659 46.1535C22.1759 46.1035 22.2059 46.1035 22.2459 46.1135C22.2659 46.1135 22.2859 46.1235 22.3059 46.1335C22.4259 46.1635 22.5059 46.1335 22.5359 46.0135C22.7159 45.4435 22.8859 44.8735 23.0659 44.3035C23.1059 44.1835 23.0659 44.1135 22.9359 44.0835C22.8459 44.0635 22.8259 44.0235 22.8559 43.9335C22.8959 43.8335 22.9259 43.7335 22.9459 43.6435C22.9559 43.5935 22.9759 43.5835 23.0359 43.5935C23.7759 43.8235 24.5059 44.0435 25.2459 44.2735C25.2959 44.2935 25.3059 44.3035 25.2959 44.3635C25.2359 44.5535 25.1759 44.7535 25.1159 44.9435C25.0959 45.0035 25.0759 45.0135 25.0259 44.9935C24.8559 44.9335 24.6759 44.8835 24.5059 44.8335C24.4559 44.8135 24.4359 44.8035 24.4559 44.7435C24.4959 44.6235 24.4559 44.5535 24.3359 44.5135L24.3259 44.5035ZM28.0059 45.6035C27.9659 46.0035 27.7659 46.2935 27.3859 46.4335C27.2459 46.4835 27.2459 46.4835 27.3059 46.6235C27.3659 46.7735 27.4359 46.9235 27.4859 47.0735C27.5359 47.2035 27.6159 47.2735 27.7559 47.2735C27.8459 47.2735 27.8559 47.3135 27.8359 47.3935C27.8159 47.4935 27.8059 47.6035 27.7959 47.7135C27.7959 47.7635 27.7759 47.7835 27.7159 47.7735C27.3659 47.7235 27.0059 47.6835 26.6459 47.6335C26.5959 47.6335 26.5859 47.6135 26.5959 47.5635C26.6159 47.4435 26.6259 47.3135 26.6459 47.1935C26.6459 47.1435 26.6659 47.1235 26.7159 47.1435C26.7459 47.1435 26.7759 47.1435 26.8259 47.1535C26.7359 46.9335 26.6559 46.7335 26.5759 46.5235C26.5659 46.4935 26.5559 46.4735 26.5159 46.4635C26.4059 46.4635 26.3059 46.4435 26.1959 46.4235C26.1459 46.4235 26.1259 46.4235 26.1259 46.4835C26.1159 46.6235 26.0859 46.7635 26.0759 46.9035C26.0659 47.0135 26.0959 47.0635 26.2059 47.0735C26.2859 47.0835 26.3059 47.1135 26.2859 47.1935C26.2659 47.3035 26.2559 47.4135 26.2459 47.5235C26.2459 47.5635 26.2459 47.5835 26.1959 47.5735C25.7959 47.5235 25.3959 47.4735 24.9959 47.4235C24.9559 47.4235 24.9559 47.4035 24.9559 47.3635C24.9759 47.2335 24.9859 47.0935 25.0059 46.9635C25.0059 46.9035 25.0559 46.9335 25.0859 46.9335C25.2759 46.9535 25.3259 46.9235 25.3459 46.7335C25.4159 46.1735 25.4859 45.6035 25.5559 45.0435C25.5759 44.8735 25.5359 44.8235 25.3659 44.8035C25.2859 44.8035 25.2659 44.7735 25.2859 44.6935C25.3059 44.5835 25.3159 44.4735 25.3259 44.3635C25.3259 44.3235 25.3359 44.2935 25.3959 44.3035C25.9959 44.3835 26.5859 44.4535 27.1859 44.5435C27.3159 44.5635 27.4459 44.6135 27.5659 44.6835C27.9259 44.8835 28.0559 45.2035 28.0159 45.5935L28.0059 45.6035ZM30.5359 47.4735C30.3559 47.6335 30.1459 47.7335 29.9059 47.7635C29.3859 47.8435 28.8959 47.7935 28.4359 47.5135C28.3759 47.4735 28.3459 47.4335 28.3459 47.3635C28.3459 47.2335 28.3459 47.1035 28.3259 46.9735C28.3259 46.9135 28.3259 46.8835 28.3959 46.8835C28.6059 46.8835 28.8059 46.8635 29.0159 46.8535C29.0759 46.8535 29.0959 46.8535 29.0959 46.9235C29.0959 46.9635 29.0959 47.0035 29.0959 47.0335C29.0959 47.2235 29.0959 47.2235 29.2859 47.2635C29.4459 47.2935 29.5959 47.3035 29.7559 47.2635C29.8759 47.2335 29.9759 47.1635 30.0059 47.0335C30.0359 46.8935 30.0059 46.7735 29.9059 46.6735C29.8059 46.5835 29.6759 46.5435 29.5559 46.4935C29.2859 46.3835 29.0059 46.2935 28.7559 46.1535C28.3559 45.9235 28.1959 45.5635 28.3059 45.1535C28.3659 44.9335 28.5159 44.7835 28.7159 44.7035C29.3359 44.4235 29.9559 44.4235 30.5459 44.8035C30.6059 44.8435 30.6259 44.8835 30.6259 44.9535C30.6259 45.0635 30.6259 45.1835 30.6459 45.2935C30.6459 45.3435 30.6459 45.3735 30.5759 45.3735C30.4659 45.3735 30.3559 45.3835 30.2459 45.3935C30.1459 45.3935 30.0359 45.4035 29.9359 45.4135C29.8959 45.4135 29.8759 45.4135 29.8759 45.3635C29.8759 45.3235 29.8659 45.2735 29.8759 45.2335C29.8959 45.1035 29.8259 45.0635 29.7159 45.0435C29.5759 45.0135 29.4259 45.0135 29.2859 45.0435C29.0259 45.1135 28.9459 45.4035 29.1259 45.6035C29.1959 45.6835 29.2859 45.7335 29.3859 45.7735C29.7059 45.9035 30.0459 46.0035 30.3659 46.1635C30.8859 46.4235 30.8959 47.1535 30.5459 47.4735H30.5359ZM31.5659 45.3435C31.5659 45.3435 31.5359 45.3935 31.4959 45.4035C31.3159 45.4335 31.1459 45.4635 30.9659 45.4935C30.9059 45.5035 30.8859 45.4935 30.8959 45.4335C30.9259 45.1635 30.9459 44.9035 30.9659 44.6335C30.9659 44.5435 30.9359 44.4335 31.0059 44.3835C31.0659 44.3335 31.1659 44.3435 31.2559 44.3335C31.4359 44.3035 31.6159 44.2735 31.8059 44.2435C31.7159 44.6235 31.6359 44.9935 31.5559 45.3535L31.5659 45.3435ZM40.1259 43.8235C40.0259 43.8835 39.9259 43.9535 39.8259 44.0235C39.7759 44.0635 39.7359 44.0635 39.6759 44.0335C39.0259 43.7635 38.3759 43.4935 37.7259 43.2235C37.7259 43.2235 37.7059 43.2135 37.6959 43.2235C37.6959 43.2235 37.6959 43.2335 37.7059 43.2435C37.9259 43.5635 38.1459 43.8935 38.3659 44.2135C38.4359 44.3135 38.5159 44.3235 38.6259 44.2435C38.7059 44.1835 38.7359 44.2035 38.7759 44.2735C38.8259 44.3635 38.8959 44.4535 38.9559 44.5335C38.9859 44.5735 38.9759 44.5935 38.9359 44.6235C38.5959 44.8635 38.2459 45.0935 37.9059 45.3335C37.8659 45.3635 37.8459 45.3635 37.8159 45.3135C37.7459 45.2135 37.6759 45.1035 37.6059 45.0035C37.5859 44.9735 37.5759 44.9435 37.6159 44.9235C37.6159 44.9235 37.6359 44.9135 37.6459 44.9035C37.7859 44.7935 37.8059 44.7435 37.7059 44.5935C37.4659 44.2435 37.2159 43.8835 36.9759 43.5335C36.8859 43.4135 36.8059 43.2835 36.7159 43.1635C36.6459 43.0635 36.5659 43.0335 36.4759 43.1135C36.3859 43.1935 36.3359 43.1635 36.2859 43.0735C36.2859 43.0535 36.2659 43.0235 36.2359 43.0235C36.2359 43.0335 36.2359 43.0435 36.2359 43.0535C36.2959 43.1535 36.3159 43.2335 36.1659 43.2835C36.0759 43.3135 36.0659 43.3935 36.1159 43.5135C36.2659 43.8735 36.4259 44.2335 36.5759 44.5935C36.6159 44.6935 36.6659 44.8035 36.7059 44.9035C36.8859 45.3335 36.7959 45.7235 36.4359 46.0135C36.1059 46.2835 35.7259 46.4435 35.3059 46.4835C34.8659 46.5335 34.5259 46.3235 34.3459 45.9235C34.1559 45.4735 33.9559 45.0235 33.7659 44.5635C33.6759 44.3535 33.6559 44.3435 33.4459 44.4235C33.3959 44.4435 33.3859 44.4235 33.3759 44.3835C33.3259 44.2635 33.2759 44.1435 33.2259 44.0335C33.2059 43.9935 33.2259 43.9835 33.2559 43.9635C33.6259 43.8035 34.0059 43.6435 34.3759 43.4835C34.4159 43.4635 34.4259 43.4835 34.4459 43.5135C34.4959 43.6335 34.5459 43.7435 34.5959 43.8635C34.6159 43.9035 34.6059 43.9235 34.5659 43.9435C34.3959 44.0335 34.3859 44.0635 34.4559 44.2435C34.6459 44.7035 34.8459 45.1535 35.0359 45.6135C35.1659 45.9235 35.3559 46.0035 35.6759 45.8835C35.7159 45.8635 35.7659 45.8435 35.8059 45.8235C36.0659 45.6835 36.1359 45.5035 36.0159 45.2235C35.8159 44.7635 35.6259 44.3035 35.4259 43.8435C35.3559 43.6635 35.3059 43.6435 35.1359 43.7135C35.0759 43.7335 35.0759 43.7135 35.0559 43.6735C35.0159 43.5635 34.9659 43.4535 34.9159 43.3535C34.8859 43.2935 34.9159 43.2735 34.9559 43.2535C35.1459 43.1735 35.3359 43.0835 35.5359 43.0135C35.9259 42.8735 36.2859 42.6635 36.6059 42.4135C36.7259 42.3135 36.8259 42.3035 36.9759 42.3735C37.5659 42.6335 38.1659 42.8735 38.7659 43.1235C38.7959 43.1335 38.8159 43.1635 38.8559 43.1435C38.6259 42.8135 38.3959 42.4735 38.1659 42.1435C38.1059 42.0535 38.0159 42.0435 37.9159 42.1235C37.8359 42.1835 37.7959 42.1635 37.7559 42.0935C37.7059 42.0035 37.6459 41.9235 37.5759 41.8435C37.5359 41.7935 37.5559 41.7835 37.5959 41.7535C37.9359 41.5235 38.2759 41.2835 38.6159 41.0535C38.6559 41.0235 38.6759 41.0135 38.7059 41.0535C38.7759 41.1635 38.8459 41.2635 38.9259 41.3635C38.9559 41.4035 38.9259 41.4235 38.9059 41.4435C38.8559 41.4735 38.8059 41.5035 38.7759 41.5635C38.7459 41.6335 38.7759 41.6935 38.8159 41.7535C39.2559 42.3835 39.6859 43.0235 40.1259 43.6535C40.1859 43.7435 40.1759 43.7735 40.0959 43.8335L40.1259 43.8235ZM41.8059 42.2935C41.4959 42.5835 41.1959 42.8635 40.8859 43.1535C40.8559 43.1835 40.8359 43.1835 40.8059 43.1535C40.7259 43.0635 40.6359 42.9735 40.5559 42.8835C40.5159 42.8435 40.5259 42.8335 40.5559 42.7935C40.7159 42.6335 40.7159 42.6035 40.5559 42.4435C40.1759 42.0435 39.7959 41.6335 39.4159 41.2335C39.3759 41.1835 39.3259 41.1335 39.2559 41.1335C39.1859 41.1335 39.1359 41.1835 39.0959 41.2335C39.0559 41.2735 39.0259 41.2735 38.9959 41.2335C38.9159 41.1435 38.8359 41.0535 38.7459 40.9735C38.7159 40.9435 38.7159 40.9235 38.7459 40.8935C39.0559 40.6035 39.3559 40.3235 39.6659 40.0335C39.6959 40.0035 39.7059 40.0035 39.7359 40.0335C39.8259 40.1335 39.9159 40.2235 40.0059 40.3235C40.0459 40.3635 40.0259 40.3735 40.0059 40.4035C39.8559 40.5635 39.8559 40.5935 40.0059 40.7535C40.3759 41.1535 40.7559 41.5435 41.1259 41.9435C41.2759 42.1035 41.3159 42.1135 41.4759 41.9635C41.5159 41.9235 41.5359 41.9335 41.5659 41.9635C41.6459 42.0535 41.7359 42.1435 41.8159 42.2335C41.8459 42.2635 41.8459 42.2835 41.8159 42.3135L41.8059 42.2935ZM43.3559 40.5735C43.2059 40.8435 43.0159 41.0735 42.7759 41.2635C42.3959 41.5735 41.9659 41.6435 41.5159 41.4435C41.0359 41.2335 40.6359 40.9135 40.3559 40.4735C40.1159 40.1035 40.0859 39.7035 40.2859 39.3035C40.4659 38.9335 40.7159 38.6235 41.0659 38.4035C41.2559 38.2835 41.4559 38.2135 41.6759 38.2235C41.8559 38.2235 42.0259 38.2635 42.1859 38.3335C42.6159 38.5235 42.9859 38.8135 43.2659 39.1835C43.5959 39.6235 43.6259 40.0835 43.3659 40.5635L43.3559 40.5735ZM45.5659 36.8935C45.4959 37.0035 45.4359 37.1235 45.3859 37.2435C45.3559 37.3035 45.3159 37.3235 45.2559 37.3335C44.5659 37.3835 43.8759 37.4435 43.1859 37.5035C43.1659 37.5035 43.1459 37.5035 43.1359 37.5235C43.3859 37.6535 43.6359 37.7935 43.8859 37.9235C43.9759 37.9735 44.0659 38.0235 44.1559 38.0635C44.2959 38.1335 44.3559 38.1135 44.4259 37.9735C44.4659 37.9035 44.4859 37.8835 44.5659 37.9335C44.6559 37.9935 44.7559 38.0435 44.8559 38.0935C44.8959 38.1135 44.9059 38.1335 44.8859 38.1835C44.6859 38.5535 44.4959 38.9135 44.2959 39.2835C44.2759 39.3235 44.2559 39.3335 44.2059 39.3135C44.0959 39.2535 43.9859 39.1935 43.8759 39.1335C43.8259 39.1135 43.8359 39.0935 43.8559 39.0435C43.9459 38.8535 43.9359 38.8135 43.7459 38.7135C43.2559 38.4535 42.7659 38.1935 42.2759 37.9235C42.1159 37.8435 42.0559 37.8535 41.9759 38.0135C41.9459 38.0735 41.9159 38.0835 41.8659 38.0435C41.7659 37.9835 41.6659 37.9335 41.5659 37.8835C41.5159 37.8635 41.5059 37.8435 41.5359 37.7935C41.6559 37.5735 41.7759 37.3635 41.8859 37.1335C41.9159 37.0735 41.9659 37.0735 42.0159 37.0735C42.4559 37.0335 42.8959 37.0035 43.3359 36.9635C43.6059 36.9435 43.8759 36.9235 44.1459 36.8935C44.1459 36.8535 44.1059 36.8535 44.0859 36.8435C43.7659 36.6735 43.4459 36.5035 43.1259 36.3335C42.9759 36.2535 42.9159 36.2635 42.8359 36.4135C42.7959 36.4835 42.7659 36.4935 42.6959 36.4535C42.6059 36.3935 42.5059 36.3435 42.4059 36.2935C42.3659 36.2735 42.3559 36.2535 42.3759 36.2035C42.5759 35.8335 42.7659 35.4735 42.9659 35.1035C42.9859 35.0635 43.0059 35.0535 43.0559 35.0835C43.1559 35.1435 43.2659 35.2035 43.3759 35.2535C43.4259 35.2735 43.4259 35.3035 43.4059 35.3435C43.3159 35.5235 43.3259 35.5735 43.5159 35.6635C44.1959 36.0235 44.8659 36.3835 45.5459 36.7435C45.6059 36.7735 45.6359 36.7935 45.5859 36.8735L45.5659 36.8935ZM47.2059 29.7835C46.8659 29.8135 46.5159 29.8435 46.1759 29.8735C45.9259 29.8935 45.6759 29.9135 45.4259 29.9435C45.1159 29.9835 44.8259 29.9535 44.6159 29.6835C44.5759 29.7035 44.5859 29.7335 44.5859 29.7535C44.5159 29.9935 44.3459 30.1335 44.1059 30.1835C43.9359 30.2135 43.7659 30.2335 43.5959 30.2135C43.3659 30.1835 43.1959 30.0735 43.1059 29.8535C42.9759 29.5135 42.9359 29.1535 42.9959 28.7935C43.0459 28.5035 43.1859 28.3835 43.4659 28.3435C43.4759 28.3135 43.4459 28.2935 43.4259 28.2735C43.3359 28.1735 43.2659 28.0535 43.1659 27.9635C42.9759 27.7935 42.9159 27.5835 42.9059 27.3435C42.9059 27.1435 42.8759 26.9435 42.8559 26.7335C42.8559 26.6735 42.8559 26.6535 42.9259 26.6535C43.7559 26.5835 44.5959 26.5035 45.4259 26.4235C45.4659 26.4235 45.5059 26.4235 45.5159 26.3635C45.5559 25.9335 45.6959 25.7835 46.1159 25.7135C46.2459 25.6935 46.3859 25.6835 46.5159 25.7135C46.7459 25.7435 46.9159 25.8635 46.9959 26.0835C47.1159 26.4035 47.1459 26.7435 47.0859 27.0835C47.0459 27.3035 46.9059 27.4535 46.6959 27.5235C46.4959 27.5935 46.2959 27.6035 46.0859 27.6235C45.4459 27.6835 44.8059 27.7435 44.1359 27.8035C44.3759 28.1035 44.6059 28.3835 44.8359 28.6635C44.8959 28.7335 44.9859 28.7435 45.0759 28.7435C45.2159 28.7335 45.3459 28.7235 45.4859 28.7035C46.0159 28.6535 46.5459 28.6035 47.0759 28.5535C47.1459 28.5535 47.1559 28.5635 47.1659 28.6235C47.1959 28.9835 47.2259 29.3535 47.2659 29.7135C47.2659 29.7735 47.2459 29.7835 47.1959 29.7835H47.2059Z" fill="#1D478D"/>
<path d="M31.7058 30.8636C31.4358 30.6236 31.2358 30.3236 31.1058 29.9936C30.6258 28.7736 30.6158 27.5436 31.0358 26.3036C31.1658 25.9136 31.3758 25.5436 31.6858 25.2636C31.9558 25.0236 32.2658 24.9136 32.6158 25.0136C32.6158 25.0136 32.6358 25.0136 32.6458 25.0136C32.6458 25.0036 32.6458 24.9936 32.6358 24.9936C32.4858 24.8036 32.3158 24.6336 32.1158 24.4936C31.6958 24.1936 31.2358 24.0536 30.7258 24.1536C30.2858 24.2436 29.9258 24.4936 29.6158 24.8136C29.1458 25.3136 28.8358 25.9036 28.6158 26.5436C28.2358 27.6236 28.1258 28.7436 28.2358 29.8836C28.3158 30.7036 28.5058 31.5036 28.8658 32.2536C29.1258 32.8036 29.4558 33.3036 29.9458 33.6736C30.6558 34.2236 31.4758 34.2136 32.1758 33.6636C32.6058 33.3236 32.9158 32.8936 33.1558 32.4136C33.5358 31.6836 33.7458 30.9036 33.8458 30.0936C33.8858 29.8036 33.8958 29.5036 33.8958 29.2136C33.8858 29.2336 33.8658 29.2636 33.8658 29.2836C33.8158 29.5136 33.7458 29.7236 33.6558 29.9436C33.5058 30.2936 33.3258 30.6136 33.0358 30.8536C32.6158 31.2036 32.1058 31.2036 31.6958 30.8536L31.7058 30.8636Z" fill="#1D478D"/>
<path d="M17.7659 28.8434C17.7259 30.0334 17.9159 31.1933 18.4259 32.2733C18.6859 32.8333 19.0259 33.3334 19.5259 33.7134C20.1659 34.2034 20.9059 34.2333 21.5759 33.8033C21.9459 33.5633 22.2259 33.2533 22.4659 32.8933C22.9159 32.2033 23.1859 31.4433 23.3359 30.6433C23.3559 30.5333 23.4059 30.4334 23.3659 30.3234C23.2859 30.5134 23.1559 30.6734 23.0059 30.8134C22.5259 31.2734 21.9459 31.2634 21.4859 30.7834C21.2359 30.5234 21.0659 30.2233 20.9459 29.8933C20.5759 28.8933 20.5359 27.8634 20.7759 26.8234C20.8859 26.3334 21.0659 25.8734 21.3859 25.4834C21.5459 25.2934 21.7359 25.1333 21.9759 25.0533C22.0459 25.0333 22.1159 25.0134 22.1959 25.0034C22.0859 24.8634 21.9659 24.7533 21.8359 24.6433C21.0859 23.9933 20.1959 23.9934 19.4359 24.6234C19.0459 24.9434 18.7559 25.3434 18.5259 25.7934C18.0259 26.7534 17.8059 27.7833 17.7659 28.8633V28.8434Z" fill="#1D478D"/>
<path d="M23.3757 30.3135C23.3757 30.3135 23.3757 30.3135 23.3657 30.3135C23.3657 30.3135 23.3657 30.3235 23.3757 30.3135Z" fill="#1D478D"/>
<path d="M19.7461 14.4037C19.9061 14.4037 20.1161 14.2437 20.1161 14.1337C20.1161 13.9737 19.9761 13.8037 19.8661 13.8037C19.6961 13.8037 19.4961 13.9537 19.4961 14.0737C19.4961 14.2337 19.6361 14.4137 19.7461 14.4137V14.4037Z" fill="#1D478D"/>
<path d="M26.4658 12.7734C26.7558 12.7434 27.0458 12.6934 27.2958 12.9534C27.2558 12.7034 27.2558 12.4734 27.1658 12.2634C27.0858 12.0834 26.9658 11.9734 26.7658 11.9434C26.5258 11.9034 26.2858 11.9434 26.0558 12.0234C25.8458 12.1034 25.7358 12.2634 25.7058 12.4834C25.6758 12.7434 25.7558 12.9934 25.7858 13.2534C25.9558 13.0034 26.1558 12.8034 26.4758 12.7634L26.4658 12.7734Z" fill="#1D478D"/>
<path d="M26.6457 13.2837C26.3957 13.2837 26.3057 13.3637 26.3057 13.5337C26.3057 13.7637 26.3957 13.8537 26.5757 13.8537C26.8057 13.8537 26.8957 13.7737 26.8857 13.5937C26.8857 13.3637 26.8157 13.2837 26.6457 13.2937V13.2837Z" fill="#1D478D"/>
<path d="M11.9658 23.0935C11.8258 23.0935 11.7258 23.2535 11.7158 23.4635C11.7158 23.5935 11.8458 23.6935 12.0458 23.7035C12.2058 23.7135 12.2758 23.5135 12.2958 23.3335C12.2958 23.1935 12.1658 23.0935 11.9658 23.0835V23.0935Z" fill="#1D478D"/>
<path d="M11.3659 26.0035C11.4959 26.0035 11.6059 25.8534 11.6059 25.6434C11.6059 25.5034 11.4759 25.4035 11.2859 25.4035C11.1359 25.3835 11.0559 25.5535 11.0259 25.7635C11.0159 25.8935 11.1659 26.0035 11.3659 26.0035Z" fill="#1D478D"/>
<path d="M35.5961 13.3835C35.7061 13.3835 35.8461 13.1835 35.8461 13.0435C35.8461 12.9335 35.6161 12.7734 35.4661 12.7734C35.3661 12.7734 35.2161 12.9734 35.2261 13.1234C35.2261 13.2334 35.4561 13.3935 35.6061 13.3835H35.5961Z" fill="#1D478D"/>
<path d="M38.916 43.1736C38.916 43.1736 38.916 43.1736 38.916 43.1636C38.916 43.1636 38.916 43.1636 38.926 43.1636L38.916 43.1736Z" fill="#1D478D"/>
<path d="M32.3959 15.1134C32.5359 15.1134 32.6159 15.0035 32.6159 14.7935C32.6159 14.6335 32.4959 14.5435 32.2659 14.5435C32.1059 14.5435 32.0359 14.6534 32.0259 14.8734C32.0259 15.0434 32.1359 15.0935 32.3959 15.1035V15.1134Z" fill="#1D478D"/>
<path d="M30.476 12.0834C30.646 12.0834 30.726 11.9835 30.726 11.7635C30.726 11.6135 30.596 11.5234 30.366 11.5234C30.206 11.5234 30.136 11.6234 30.126 11.8434C30.126 12.0134 30.226 12.0834 30.466 12.0934L30.476 12.0834Z" fill="#1D478D"/>
<path d="M43.9957 28.9736C43.7357 28.8936 43.5657 29.0236 43.5957 29.2936C43.5957 29.3036 43.5957 29.3136 43.5957 29.3236C43.6157 29.5036 43.6857 29.5536 43.8657 29.5436C44.0857 29.5336 44.1457 29.4736 44.1457 29.2636C44.1457 29.2236 44.1457 29.1536 44.1157 29.0936C44.0957 29.0336 44.0657 28.9936 43.9957 28.9736Z" fill="#1D478D"/>
<path d="M46.3459 26.9333C46.5259 26.9133 46.5759 26.8533 46.5759 26.6733C46.5759 26.6033 46.5759 26.5434 46.5459 26.4834C46.5359 26.4434 46.5159 26.4133 46.4759 26.3933C46.3559 26.3333 46.2259 26.3533 46.1059 26.3933C46.0059 26.4333 46.0159 26.5333 46.0159 26.6233C46.0159 26.8833 46.0959 26.9533 46.3359 26.9333H46.3459Z" fill="#1D478D"/>
<path d="M13.6657 30.8036C13.8657 30.8036 13.9457 30.7236 13.9457 30.5136C13.9457 30.2936 13.8757 30.2236 13.6557 30.2236C13.4557 30.2236 13.3857 30.2936 13.3857 30.5136C13.3857 30.7336 13.4557 30.8036 13.6657 30.8036Z" fill="#1D478D"/>
<path d="M15.5158 22.5533C15.6258 22.5533 15.8058 22.3234 15.7958 22.1934C15.7958 22.0934 15.5858 21.9233 15.4658 21.9233C15.3558 21.9233 15.1758 22.1634 15.1758 22.2934C15.1758 22.4034 15.3858 22.5633 15.5158 22.5533Z" fill="#1D478D"/>
<path d="M43.8261 20.5035C43.9561 20.5035 44.1561 20.3436 44.1561 20.2336C44.1561 20.1036 43.9761 19.8735 43.8661 19.8735C43.7361 19.8735 43.5361 20.0335 43.5361 20.1435C43.5361 20.2735 43.7161 20.5035 43.8261 20.5035Z" fill="#1D478D"/>
<path d="M18.8661 42.6337C18.9561 42.5737 19.0261 42.4937 19.0861 42.4037C19.2361 42.1837 19.2161 42.0037 19.0161 41.8337C18.8861 41.7137 18.7361 41.6137 18.5961 41.4937C18.5561 41.4637 18.5361 41.4737 18.5161 41.5037C18.3261 41.7337 18.1461 41.9737 17.9561 42.2037C17.9261 42.2437 17.9261 42.2637 17.9561 42.2937C18.0861 42.3937 18.2061 42.4937 18.3361 42.5937C18.4161 42.6537 18.5061 42.7037 18.6161 42.7137C18.7061 42.7137 18.7861 42.6837 18.8461 42.6337H18.8661Z" fill="#1D478D"/>
<path d="M26.9458 45.0336C26.7658 44.9936 26.5758 44.9836 26.3958 44.9536C26.3358 44.9536 26.3358 44.9736 26.3258 45.0136C26.2958 45.3036 26.2558 45.5836 26.2158 45.8736C26.2058 45.9536 26.2358 45.9636 26.2958 45.9636C26.4458 45.9836 26.5958 46.0036 26.7458 46.0136C27.0158 46.0436 27.1858 45.9236 27.2558 45.6636C27.2758 45.5936 27.2758 45.5236 27.2858 45.4536C27.2858 45.2136 27.1858 45.0836 26.9458 45.0336Z" fill="#1D478D"/>
<path d="M41.806 38.9937C41.686 38.9337 41.566 38.9037 41.426 38.9237C40.916 38.9937 40.626 39.6237 40.926 40.0437C41.186 40.4037 41.526 40.6837 41.926 40.8637C42.376 41.0737 42.936 40.6937 42.936 40.1937C42.936 40.0337 42.866 39.8937 42.776 39.7837C42.516 39.4537 42.186 39.1937 41.806 39.0137V38.9937Z" fill="#1D478D"/>
<path d="M16.936 40.5237C16.996 40.4437 17.026 40.3537 17.046 40.2437C17.126 39.7537 16.546 39.2837 16.096 39.4837C15.646 39.6837 15.286 40.0037 15.016 40.4237C14.926 40.5637 14.896 40.7137 14.946 40.8737C15.026 41.1237 15.186 41.3037 15.416 41.4137C15.486 41.4437 15.556 41.4637 15.636 41.4637C15.726 41.4637 15.826 41.4437 15.926 41.3937C16.336 41.1837 16.666 40.8837 16.936 40.5137V40.5237Z" fill="#1D478D"/>
<path d="M39.426 13.1633C39.556 13.1633 39.696 13.0232 39.696 12.8932C39.696 12.7732 39.516 12.6033 39.376 12.5933C39.256 12.5933 39.116 12.7233 39.106 12.8633C39.106 12.9933 39.266 13.1632 39.426 13.1732V13.1633Z" fill="#1D478D"/>
</svg>
