<svg width="59" height="59" viewBox="0 0 59 59" fill="none" xmlns="http://www.w3.org/2000/svg">
<rect x="0.834473" y="0.668945" width="57.8345" height="57.8345" rx="4" fill="white"/>
<path d="M30.1493 22.4399C34.7893 22.4699 38.2893 26.1499 38.4093 30.4999C38.5293 35.1899 34.7893 38.9399 30.2193 38.9799C25.5093 39.02 21.7793 35.1799 21.8693 30.5299C21.9593 26.0899 25.5593 22.4599 30.1493 22.4399Z" fill="#1D478D"/>
<path d="M29.7393 45.8997C26.7093 45.8997 23.4193 45.1497 20.2993 43.6797C17.8493 42.5297 15.6593 40.9898 13.7193 39.0998C12.0593 37.4698 10.6693 35.6498 9.51927 33.6298C9.44927 33.5098 9.46927 33.4597 9.58927 33.3997C10.5093 32.8897 11.4293 32.3797 12.3493 31.8697C12.4393 31.8197 12.4793 31.8198 12.5393 31.9198C13.4293 33.4998 14.4993 34.9397 15.7593 36.2397C17.8093 38.3497 20.1893 39.9698 22.9193 41.0598C24.3193 41.6198 25.7593 42.0098 27.2493 42.2298C28.2693 42.3798 29.2993 42.4598 30.3293 42.4498C32.4193 42.4198 34.4593 42.0697 36.4393 41.3997C38.8693 40.5697 41.0493 39.3198 43.0093 37.6598C44.9193 36.0398 46.4893 34.1298 47.7293 31.9398C47.7893 31.8298 47.8293 31.8198 47.9393 31.8798C48.8593 32.3998 49.7793 32.9098 50.6993 33.4098C50.7993 33.4698 50.8293 33.4997 50.7593 33.6197C49.5993 35.6797 48.1793 37.5297 46.4793 39.1797C43.8493 41.7297 40.7993 43.5998 37.3193 44.7598C35.8793 45.2398 34.3993 45.5698 32.8893 45.7498C31.9893 45.8598 31.0793 45.9198 29.7393 45.9198V45.8997Z" fill="#1D478D"/>
<path d="M10.9394 25.9796C11.2994 26.4696 11.6894 26.9296 12.0594 27.3996C12.3794 27.8096 12.6994 28.2096 13.0294 28.6096C13.0894 28.6796 13.0894 28.7296 13.0294 28.7996C12.8794 28.9996 12.7294 29.2096 12.5894 29.4196C12.5394 29.4896 12.4994 29.4996 12.4294 29.4796C11.3694 29.1796 10.3094 28.8696 9.24941 28.5696C8.56941 28.3696 7.87941 28.1796 7.19941 27.9796C7.17941 27.9796 7.14941 27.9696 7.12941 27.9596C6.93941 27.8896 6.92941 27.8596 7.03941 27.6896C7.23941 27.3896 7.43941 27.0896 7.63941 26.7796C7.68941 26.6996 7.73941 26.6796 7.82941 26.7096C8.76941 26.9996 9.71941 27.2796 10.6694 27.5696C10.6894 27.5696 10.7094 27.5696 10.7494 27.5896C10.5394 27.3196 10.3394 27.0796 10.1394 26.8296C9.70941 26.2996 9.27941 25.7596 8.84941 25.2296C8.79941 25.1696 8.78941 25.1296 8.84941 25.0596C9.03941 24.7996 9.21941 24.5396 9.39941 24.2696C9.44941 24.1996 9.48941 24.1896 9.57941 24.2096C10.5294 24.4996 11.4894 24.7896 12.4394 25.0796C12.4794 25.0896 12.5094 25.1096 12.5594 25.0996C12.4994 25.0296 12.4494 24.9596 12.3994 24.8796C11.8294 24.1096 11.2494 23.3496 10.6794 22.5796C10.6394 22.5296 10.6294 22.4896 10.6794 22.4296C10.8894 22.1396 11.0894 21.8396 11.2994 21.5496C11.3494 21.4796 11.3794 21.4696 11.4494 21.5296C11.4994 21.5696 11.5394 21.6096 11.5794 21.6596C12.6494 23.1296 13.7094 24.6096 14.7794 26.0796C14.8394 26.1596 14.8394 26.2196 14.7794 26.2996C14.6494 26.4696 14.5194 26.6496 14.4094 26.8296C14.3494 26.9196 14.2994 26.9296 14.1994 26.8996C13.3294 26.6396 12.4594 26.3796 11.5894 26.1196C11.3794 26.0596 11.1794 25.9996 10.9694 25.9396C10.9594 25.9396 10.9494 25.9396 10.9394 25.9396C10.9394 25.9396 10.9494 25.9596 10.9594 25.9596L10.9394 25.9796Z" fill="#1D478D"/>
<path d="M24.0996 17.3199C24.1496 16.6599 24.1996 16.0299 24.2496 15.3999C24.2796 15.0199 24.3096 14.65 24.3296 14.27C24.3296 14.19 24.3696 14.1699 24.4296 14.1599C24.7496 14.0899 25.0796 14.0299 25.3996 13.9499C25.4796 13.9299 25.5096 13.9799 25.5396 14.0299C25.9496 14.7599 26.3696 15.4799 26.7796 16.2099C26.8796 16.3799 26.9796 16.5599 27.0996 16.7599C27.1396 16.4399 27.1696 16.1599 27.1996 15.8799C27.2796 15.1199 27.3696 14.3699 27.4496 13.6099C27.4496 13.5399 27.4796 13.4999 27.5496 13.4899C27.8996 13.4199 28.2496 13.3399 28.5996 13.2599C28.6696 13.2399 28.6896 13.2599 28.7096 13.3199C28.7296 13.3899 28.7296 13.4599 28.7196 13.5299C28.6296 14.2099 28.5396 14.8999 28.4496 15.5799C28.3296 16.5099 28.2096 17.4399 28.0896 18.3699C28.0596 18.5599 28.0296 18.7599 28.0096 18.9499C28.0096 19.0299 27.9696 19.0499 27.8996 19.0699C27.6796 19.1199 27.4496 19.1599 27.2296 19.2199C27.1296 19.2399 27.0896 19.2199 27.0396 19.1299C26.4896 18.1799 25.9396 17.2399 25.3796 16.2899C25.3596 16.2599 25.3396 16.2299 25.3096 16.1699C25.2896 16.4399 25.2596 16.6699 25.2496 16.8999C25.1796 17.7799 25.1096 18.6599 25.0396 19.5299C25.0396 19.6499 24.9896 19.6999 24.8696 19.7199C24.6296 19.7599 24.3896 19.8199 24.1496 19.8699C24.0796 19.8899 24.0296 19.87 23.9896 19.8C23.0696 18.22 22.1396 16.6499 21.2096 15.0799C21.1996 15.0599 21.1796 15.0299 21.1696 14.9999C21.1096 14.8399 21.1196 14.8199 21.2896 14.7899C21.6396 14.7199 21.9896 14.6499 22.3396 14.5699C22.4796 14.5399 22.5296 14.5799 22.5996 14.6899C23.0696 15.5299 23.5496 16.3599 24.0296 17.1899C24.0396 17.2099 24.0596 17.2399 24.0896 17.2899L24.0996 17.3199Z" fill="#1D478D"/>
<path d="M35.2294 15.2596C35.1694 16.0396 35.0494 16.7997 34.9594 17.5497C34.9394 17.6797 34.9194 17.8096 34.9394 17.9396C34.9594 18.1496 35.0494 18.2397 35.2594 18.1997C35.3794 18.1797 35.3994 18.2096 35.3794 18.3196C35.3294 18.6996 35.2794 19.0796 35.2394 19.4596C35.2394 19.5196 35.2194 19.5496 35.1494 19.5396C34.7994 19.5296 34.4394 19.4996 34.1194 19.3396C33.9594 19.2596 33.8294 19.1297 33.7294 18.9797C33.6994 18.9397 33.6894 18.8997 33.6194 18.9497C33.0594 19.3497 32.4494 19.3297 31.8194 19.1997C31.4894 19.1297 31.1794 18.9997 30.9094 18.7997C30.4594 18.4697 30.2194 18.0297 30.1794 17.4797C30.1494 17.0997 30.2094 16.7296 30.3494 16.3696C30.5994 15.7096 31.0894 15.3496 31.7694 15.2596C32.4194 15.1696 33.0594 15.2596 33.6594 15.5296C33.7694 15.5796 33.7894 15.5497 33.7894 15.4497C33.8194 15.0697 33.7294 14.9196 33.3894 14.7596C32.9294 14.5396 32.4494 14.5697 31.9694 14.6697C31.7194 14.7197 31.4794 14.7896 31.2394 14.8696C31.1594 14.8996 31.1394 14.8697 31.1294 14.7997C31.0794 14.4497 31.0294 14.1096 30.9794 13.7596C30.9694 13.6896 31.0194 13.6696 31.0594 13.6496C31.3494 13.5096 31.6694 13.4297 31.9894 13.3597C32.6794 13.2197 33.3594 13.2697 34.0094 13.5497C34.6094 13.8097 35.0394 14.2196 35.1794 14.8796C35.2094 15.0096 35.2094 15.1496 35.2194 15.2496L35.2294 15.2596ZM32.7294 17.9596C32.9594 17.9596 33.1794 17.9297 33.3994 17.8297C33.4594 17.7997 33.4894 17.7697 33.4994 17.6997C33.5294 17.4097 33.5694 17.1096 33.6094 16.8196C33.6194 16.7496 33.5994 16.7197 33.5294 16.6997C33.3894 16.6597 33.2494 16.6096 33.1094 16.5696C32.8394 16.4896 32.5694 16.4397 32.2894 16.4797C31.9294 16.5297 31.6594 16.7797 31.6294 17.1097C31.5894 17.4997 31.7794 17.7696 32.1594 17.8796C32.3394 17.9396 32.5394 17.9497 32.7394 17.9497L32.7294 17.9596Z" fill="#1D478D"/>
<path d="M18.4796 20.5997C18.7996 20.7897 19.1096 20.9797 19.4196 21.1497C19.4996 21.1997 19.5196 21.2497 19.4996 21.3297C19.4096 21.7797 19.1896 22.1697 18.9096 22.5297C18.5296 22.9997 18.0796 23.3797 17.5196 23.6097C16.6696 23.9597 15.8496 23.8797 15.0996 23.3397C14.3896 22.8397 13.8796 22.1597 13.5996 21.3397C13.2496 20.2897 13.5096 19.3797 14.3096 18.6297C14.7196 18.2397 15.1896 17.9597 15.7596 17.8597C16.4696 17.7397 17.0696 18.0097 17.6096 18.4197C18.0396 18.7497 18.3996 19.1597 18.7296 19.5897C18.7896 19.6697 18.7496 19.6997 18.6896 19.7397C17.7296 20.4697 16.7696 21.1997 15.8096 21.9297C15.7796 21.9497 15.7496 21.9797 15.7196 21.9997C15.6696 22.0397 15.6696 22.0697 15.7196 22.0997C16.2096 22.4297 16.9596 22.4997 17.4696 22.1097C17.9296 21.7697 18.2296 21.3097 18.4096 20.7697C18.4296 20.7097 18.4496 20.6497 18.4796 20.5797V20.5997ZM14.9496 20.9797C15.5896 20.4897 16.2196 20.0097 16.8496 19.5297C16.5096 19.1497 15.9096 19.0797 15.4296 19.3797C14.8796 19.7197 14.6896 20.3397 14.9496 20.9797Z" fill="#1D478D"/>
<path d="M51.7295 25.0498C51.9895 25.4198 52.2495 25.7798 52.5095 26.1398C52.5695 26.2198 52.5095 26.2398 52.4595 26.2698C51.8395 26.7098 51.2095 27.1598 50.5895 27.5998C49.6995 28.2298 48.7995 28.8698 47.9095 29.4998C47.8295 29.5598 47.7895 29.5698 47.7195 29.4798C47.4995 29.1498 47.2695 28.8398 47.0395 28.5198C46.9795 28.4398 46.9895 28.4098 47.0695 28.3498C47.5895 27.9898 48.0995 27.6198 48.6195 27.2598C48.7095 27.1998 48.7195 27.1598 48.6495 27.0798C48.2695 26.5598 47.8995 26.0398 47.5395 25.5098C47.4795 25.4298 47.4495 25.4398 47.3795 25.4898C46.8595 25.8598 46.3495 26.2198 45.8295 26.5898C45.7395 26.6598 45.6995 26.6398 45.6495 26.5598C45.4295 26.2398 45.2095 25.9198 44.9795 25.6098C44.9195 25.5298 44.9295 25.4898 45.0095 25.4298C46.2395 24.5598 47.4595 23.6898 48.6895 22.8198C48.9795 22.6098 49.2795 22.4098 49.5695 22.1898C49.6595 22.1298 49.6895 22.1498 49.7395 22.2198C49.9695 22.5498 50.1895 22.8698 50.4295 23.1898C50.4895 23.2698 50.4695 23.2998 50.3995 23.3398C49.8395 23.7398 49.2695 24.1298 48.7095 24.5298C48.6295 24.5798 48.6095 24.6198 48.6695 24.6998C49.0495 25.2198 49.4195 25.7398 49.7795 26.2698C49.8295 26.3498 49.8595 26.3698 49.9495 26.2998C50.5395 25.8798 51.1295 25.4598 51.7295 25.0398V25.0498Z" fill="#1D478D"/>
<path d="M46.3492 21.5101C46.1992 20.8901 45.9292 20.3701 45.4592 19.9601C44.8292 19.4001 44.0892 19.3801 43.4492 19.9201C42.9692 20.3301 42.6892 20.8401 42.7692 21.4901C42.8192 21.8701 43.0092 22.1801 43.3092 22.4201C43.8292 22.8401 44.4192 23.0501 45.0892 23.0301C45.1292 23.0301 45.1692 23.0301 45.2192 23.0301C45.0392 23.4401 44.8692 23.8401 44.6992 24.2401C44.6692 24.3101 44.6092 24.3001 44.5592 24.3001C43.7292 24.3101 43.0292 23.9801 42.3992 23.4701C41.8992 23.0701 41.5592 22.5601 41.4092 21.9301C41.2292 21.2101 41.3492 20.5301 41.6992 19.8901C42.1392 19.0801 42.7792 18.4701 43.6892 18.2301C44.5692 18.0001 45.3892 18.1501 46.1292 18.6901C46.6892 19.1001 47.1592 19.6101 47.3992 20.2801C47.5092 20.5701 47.4992 20.5701 47.2692 20.7601C46.9692 21.0001 46.6792 21.2401 46.3592 21.5001L46.3492 21.5101Z" fill="#1D478D"/>
<path d="M38.3392 20.8298C38.3392 20.8298 38.2892 20.8098 38.2592 20.7998C37.8892 20.6498 37.5292 20.4898 37.1592 20.3498C37.0692 20.3098 37.0592 20.2798 37.0992 20.1898C37.6492 18.8798 38.1892 17.5698 38.7392 16.2598C38.7892 16.1498 38.7692 16.1098 38.6592 16.0698C38.1492 15.8698 37.6492 15.6498 37.1492 15.4498C37.0592 15.4098 37.0392 15.3798 37.0792 15.2898C37.2192 14.9598 37.3592 14.6198 37.4892 14.2798C37.5292 14.1798 37.5692 14.1798 37.6592 14.2198C38.8992 14.7398 40.1492 15.2598 41.3892 15.7798C41.6892 15.8998 41.9792 16.0298 42.2792 16.1498C42.3592 16.1798 42.3792 16.2098 42.3392 16.2898C42.1992 16.6298 42.0492 16.9698 41.9192 17.3098C41.8792 17.3998 41.8492 17.4198 41.7592 17.3798C41.2492 17.1598 40.7392 16.9598 40.2292 16.7398C40.1392 16.6998 40.1092 16.7198 40.0692 16.8098C39.5292 18.1198 38.9792 19.4198 38.4392 20.7198C38.4192 20.7598 38.4192 20.8298 38.3592 20.8398L38.3392 20.8298Z" fill="#1D478D"/>
</svg>
