<svg width="58" height="59" viewBox="0 0 58 59" fill="none" xmlns="http://www.w3.org/2000/svg">
<rect y="0.50293" width="57.8345" height="57.8345" rx="4" fill="white"/>
<path d="M11.9258 26.8536C12.0658 26.8536 12.1058 26.8237 12.1058 26.6837C12.1258 26.2837 12.0658 25.8737 12.0958 25.4737C12.1058 25.3437 12.0358 25.2036 11.9958 25.0736C11.8758 24.7336 11.8058 24.4037 11.7958 24.0337C11.7958 23.8237 11.7058 23.6036 11.6358 23.3936C11.5958 23.2536 11.5658 23.1136 11.5858 22.9636C11.6258 22.7536 11.5358 22.5636 11.4658 22.3936C11.3158 22.0036 11.3858 21.6036 11.3758 21.2036C11.3658 20.9636 11.4158 20.7137 11.2258 20.5037C11.1858 20.4637 11.1658 20.3836 11.1558 20.3236C11.1458 19.8736 11.0058 19.4436 11.0558 18.9836C11.0658 18.8536 11.0558 18.7336 11.0058 18.6136C10.8958 18.3736 10.9658 18.1236 10.9458 17.8836C10.9458 17.7836 10.9258 17.6837 10.8658 17.5937C10.7258 17.3537 10.6758 17.0837 10.6258 16.8137C10.6058 16.6837 10.5758 16.5637 10.4958 16.4437C10.3658 16.2437 10.2158 16.0337 10.1558 15.8137C10.0858 15.5237 9.93579 15.2636 9.89579 14.9636C9.85579 14.6336 9.72579 14.3236 9.75579 13.9936C9.75579 13.9536 9.73579 13.9237 9.70579 13.9037C9.42579 13.6637 9.32579 13.3436 9.34579 12.9836C9.34579 12.8336 9.33579 12.7136 9.22579 12.5836C9.09579 12.4436 9.03579 12.2436 9.02579 12.0436C9.02579 11.8536 9.10579 11.6736 9.27579 11.6136C9.50579 11.5236 9.74579 11.4637 9.98579 11.4437C10.1458 11.4337 10.2658 11.5236 10.3658 11.6336C10.4858 11.7836 10.6358 11.8437 10.8158 11.8137C10.9358 11.7937 10.9958 11.8536 11.0358 11.9636C11.2358 12.4236 11.2858 12.9136 11.3958 13.3936C11.4558 13.6336 11.5658 13.8736 11.6958 14.0836C11.8458 14.3336 11.9958 14.5837 12.0458 14.8737C12.0958 15.1937 12.1958 15.5036 12.3158 15.7936C12.4858 16.1936 12.4458 16.6436 12.5658 17.0536C12.6658 17.4036 12.6658 17.7536 12.6458 18.1036C12.6258 18.4536 12.8058 18.7336 12.8958 19.0536C12.9858 19.3736 13.0958 19.6937 13.2258 20.0037C13.5058 20.6137 13.6758 21.2636 13.9758 21.8636C14.0158 21.9336 14.0558 21.9536 14.1158 21.9536C14.5658 21.9436 15.0158 22.0037 15.4558 21.8737C15.5058 21.8537 15.5658 21.8436 15.6258 21.8536C16.1358 21.8936 16.6258 21.7736 17.0958 21.6036C17.5358 21.4436 17.9958 21.3236 18.4258 21.1136C18.8158 20.9236 19.2458 20.8137 19.6458 20.6537C19.8858 20.5537 20.1058 20.4436 20.3758 20.3936C20.5658 20.3636 20.7358 20.2036 20.9358 20.1336C21.1758 20.0536 21.4258 20.0237 21.6758 19.9737C21.8558 19.9337 22.0258 19.8436 22.2158 19.8536C22.3158 19.8536 22.2858 19.7836 22.2758 19.7336C22.1758 19.1636 22.0958 18.5836 21.9458 18.0236C21.8458 17.6336 21.7558 17.2436 21.6458 16.8536C21.5358 16.4736 21.3058 16.1436 21.2858 15.7436C21.2858 15.7136 21.2758 15.6837 21.2558 15.6537C20.9458 15.1937 21.0558 14.6637 21.0358 14.1537C21.0258 13.9237 21.0358 13.6937 21.0358 13.4737C21.0158 12.9537 21.3958 12.5737 21.9058 12.5937C22.3858 12.6137 22.7058 13.0436 22.6658 13.5436C22.6358 13.9636 22.5858 14.4036 22.6758 14.8036C22.7458 15.1036 22.8158 15.4336 22.9758 15.7136C23.0458 15.8336 23.0858 15.9536 23.1058 16.0836C23.1258 16.2336 23.1758 16.3836 23.2458 16.5136C23.3158 16.6436 23.3558 16.7737 23.3558 16.9137C23.3558 17.0337 23.3758 17.1536 23.4258 17.2436C23.5458 17.4736 23.5458 17.7336 23.5958 17.9836C23.6358 18.1836 23.6758 18.3836 23.7458 18.5736C23.7958 18.7036 23.8258 18.8436 23.8058 18.9836C23.7758 19.2036 23.8558 19.4136 23.9258 19.6136C24.0358 19.9336 24.1058 20.2737 24.2158 20.5937C24.2958 20.8237 24.3458 21.0736 24.3458 21.3236C24.3458 21.6436 24.4858 21.9236 24.5258 22.2336C24.6258 23.0136 24.9758 23.7136 25.2158 24.4536C25.3758 24.9336 25.5058 25.4237 25.6158 25.9137C25.6758 26.1937 25.7658 26.4737 25.8358 26.7537C25.8558 26.8337 25.9058 26.8437 25.9758 26.8437C27.2058 26.8437 28.4358 26.8437 29.6758 26.8437C29.7758 26.8437 29.8158 26.8137 29.8058 26.7136C29.8058 26.6236 29.8058 26.5337 29.8058 26.4437C29.8058 20.4637 29.8058 14.4936 29.8058 8.51364C29.8058 8.39364 29.8058 8.27365 29.8058 8.15365C26.4258 8.13365 23.0358 8.17365 19.6558 8.12365C15.5858 8.06365 11.5058 8.15365 7.43579 8.15365C7.36579 8.15365 7.29579 8.15365 7.22579 8.15365C7.04579 8.15365 6.95579 8.24698 6.95579 8.43365V26.1537C6.95579 26.2537 6.95579 26.3536 6.95579 26.4536C6.95579 26.5736 6.91579 26.6136 6.80579 26.6036C6.57579 26.6036 6.33579 26.6036 6.10579 26.6036C5.92579 26.6036 5.84579 26.6636 5.86579 26.8536C6.65579 26.8536 7.45579 26.8536 8.24579 26.8536C9.47579 26.8536 10.6958 26.8536 11.9258 26.8536Z" fill="#1D478D"/>
<path d="M30.4658 26.5436C30.4658 26.6236 30.4658 26.6936 30.4758 26.7736C30.5558 26.7736 30.6258 26.7736 30.7058 26.7736C37.9758 26.7736 45.2458 26.7736 52.5158 26.7736C52.6958 26.7736 52.7158 26.7136 52.7158 26.5536C52.7158 20.5436 52.7158 14.5336 52.7158 8.53359C52.7158 8.34359 52.6658 8.30358 52.4858 8.30358C50.7058 8.30358 48.9158 8.30358 47.1358 8.30358C47.0758 8.30358 46.9758 8.33359 46.9558 8.28359C46.8858 8.11359 46.7458 8.1636 46.6258 8.1636C42.6358 8.1636 38.6458 8.1636 34.6658 8.1636C34.4458 8.1636 34.2258 8.14358 34.0258 8.27358C33.9958 8.29358 33.9358 8.30357 33.8958 8.29357C33.5058 8.22357 33.1258 8.30357 32.7358 8.29357C32.0458 8.28357 31.3558 8.29357 30.6558 8.29357C30.6558 8.35357 30.6558 8.40359 30.6558 8.46359C30.6558 10.3336 30.6558 12.2136 30.6558 14.0836C30.6558 14.2436 30.6558 14.4036 30.6058 14.5536C30.5758 14.6836 30.5658 14.8236 30.6058 14.9536C30.7058 15.3736 30.6458 15.8036 30.6658 16.2236C30.6658 16.3036 30.6658 16.3836 30.5458 16.3736C30.4858 16.3736 30.4758 16.4136 30.4758 16.4636C30.4758 16.5036 30.4758 16.5536 30.4758 16.5936C30.4758 19.9036 30.4758 23.2136 30.4758 26.5236L30.4658 26.5436ZM31.7658 15.1136C31.8758 15.0336 31.9658 14.9436 32.0158 14.8136C32.0558 14.7036 32.1258 14.5936 32.2258 14.5236C32.4358 14.3636 32.5658 14.1336 32.7558 13.9536C32.7958 13.9136 32.8158 13.8536 32.8358 13.8036C32.9558 13.4236 33.1858 13.1436 33.5458 12.9736C33.8258 12.8436 33.9358 12.5636 34.0958 12.3336C34.4058 11.8936 34.6358 11.4036 35.0758 11.0436C35.3758 10.8036 35.6358 10.4936 35.8958 10.2036C36.1558 9.90358 36.4758 9.7236 36.8658 9.6936C37.0058 9.6936 37.1158 9.65357 37.1858 9.54357C37.3658 9.25357 37.6858 9.18358 37.9758 9.08358C38.6658 8.85358 39.3758 8.69359 40.0858 8.62359C40.6058 8.57359 41.1058 8.69359 41.5958 8.93359C42.0658 9.16359 42.3558 9.56358 42.7058 9.92358C42.7458 9.96358 42.7858 10.0236 42.7858 10.0736C42.7858 10.2736 42.8158 10.4536 43.0658 10.4836C43.1358 10.4936 43.1658 10.5836 43.1758 10.6736C43.2058 10.8836 43.2858 11.0736 43.4458 11.2236C43.5858 11.3636 43.6358 11.5436 43.6758 11.7336C43.7358 12.0836 43.9358 12.4036 43.9258 12.7736C43.9058 13.4736 44.1458 14.1536 44.1258 14.8536C44.1158 15.3836 43.9358 15.8536 43.5958 16.2736C43.2958 16.6336 42.9658 16.9636 42.6458 17.3136C42.5858 17.3736 42.5758 17.4236 42.5958 17.5136C42.6558 17.8236 42.7958 18.0936 42.9958 18.3436C43.2058 18.6036 43.3258 18.9136 43.5158 19.1836C43.8358 19.6436 44.2358 20.0336 44.6258 20.4336C45.1058 20.9136 45.5058 21.4636 45.9758 21.9536C46.0958 22.0836 46.1958 22.2336 46.3458 22.3336C46.6658 22.5436 46.7958 22.8936 47.0158 23.1736C47.6058 23.9236 48.3058 24.5436 49.1558 24.9936C49.3958 25.1236 49.6258 25.2636 49.8358 25.4436C49.9758 25.5636 50.1058 25.6236 50.2758 25.5436C50.3958 25.4936 50.4658 25.5236 50.5058 25.6436C50.5758 25.8336 50.7358 25.9536 50.8858 26.1136C50.6058 26.1136 50.3258 26.1936 50.1158 26.0936C49.8258 25.9536 49.5158 25.8936 49.2158 25.7836C48.2558 25.4336 47.4558 24.8636 46.7558 24.1436C46.4258 23.8036 45.9958 23.6136 45.6458 23.3136C45.3258 23.0436 44.9258 22.8936 44.6058 22.6336C44.2758 22.3736 43.9958 22.0636 43.6958 21.7736C43.5058 21.5936 43.2758 21.4636 43.1258 21.2436C43.0758 21.1736 43.0058 21.2236 42.9558 21.2436C42.7058 21.3336 42.5058 21.2736 42.3058 21.0836C41.5458 20.3936 40.7558 19.7336 39.8058 19.3136C39.4958 19.1736 39.1658 19.1036 38.8258 19.2436C38.7558 19.2736 38.6858 19.2936 38.7058 19.3836C38.7858 19.7136 38.7258 20.0536 38.7358 20.3836C38.7558 20.8536 38.8258 21.3136 38.9058 21.7736C38.9458 22.0136 38.9058 22.2636 38.9258 22.5036C39.0158 23.4036 39.1658 24.2936 39.3658 25.1736C39.4258 25.4436 39.4558 25.7136 39.5158 25.9736C39.5358 26.0636 39.5158 26.1036 39.4258 26.0936C39.2458 26.0636 39.1058 26.1136 38.9958 26.2836C38.8958 26.4236 38.7258 26.4836 38.5358 26.4736C38.4558 26.4736 38.3858 26.4736 38.3058 26.4736C37.9758 26.5036 37.6858 26.3436 37.5758 26.0436C37.5458 25.9536 37.4958 25.8736 37.4258 25.8136C37.2758 25.6736 37.2158 25.5036 37.2258 25.3036C37.2258 24.7136 37.2258 24.1236 37.2258 23.5336C37.2258 23.3336 37.1258 23.1636 37.1058 22.9636C37.0458 22.4436 37.0858 21.9236 37.0758 21.4036C37.0758 20.9736 37.0758 20.5436 37.0758 20.1036C37.0758 19.9936 37.0358 19.9536 36.9358 19.9336C36.6058 19.8436 36.4258 19.5836 36.4558 19.2336C36.4858 18.7636 36.7258 18.4336 37.1258 18.1936C37.1958 18.1536 37.2658 18.1236 37.3358 18.1236C37.5858 18.1236 37.7558 17.9736 37.9158 17.8136C38.0358 17.6936 38.1558 17.5736 38.3158 17.4936C38.4958 17.3936 38.6358 17.2336 38.7658 17.0636C38.9158 16.8636 39.0958 16.6936 39.2558 16.5036C39.3258 16.4136 39.4258 16.3336 39.4658 16.2336C39.5358 16.0336 39.6658 16.0036 39.8458 16.0136C39.9758 16.0136 40.1158 16.0536 40.2358 15.9836C40.7058 15.7236 41.1458 15.4536 41.2658 14.8636C41.3258 14.5636 41.4558 14.2736 41.4358 13.9536C41.4258 13.7736 41.4058 13.5936 41.3158 13.4336C41.2558 13.3136 41.2858 13.1836 41.2758 13.0636C41.2558 12.4736 40.9958 11.9936 40.5358 11.6436C40.1658 11.3636 39.7358 11.3236 39.3058 11.4936C39.0458 11.5936 38.7758 11.6836 38.5758 11.8936C38.5258 11.9336 38.4758 11.9336 38.4158 11.9436C38.0758 11.9736 37.8058 12.1436 37.5258 12.3436C37.1958 12.5836 36.9658 12.9236 36.6558 13.1836C36.4558 13.3536 36.3358 13.6336 36.1958 13.8736C36.0958 14.0436 36.0058 14.2036 35.8558 14.3336C35.6958 14.4636 35.6358 14.6836 35.4658 14.8036C35.2258 14.9636 35.0558 15.1636 34.9658 15.4336C34.9658 15.4436 34.9658 15.4536 34.9458 15.4636C34.5558 15.8236 34.2958 16.2736 33.9158 16.6436C33.7258 16.8236 33.5758 17.0536 33.3658 17.2236C32.6358 17.8136 31.5658 17.5136 31.2558 16.6336C31.0558 16.0736 31.2558 15.4536 31.7558 15.0836L31.7658 15.1136Z" fill="#1D478D"/>
<path d="M29.8561 44.4533C29.8561 40.9333 29.8561 37.4033 29.8561 33.8833C29.8561 33.8733 29.8561 33.8533 29.8561 33.8433C29.4061 33.8133 29.0861 34.0433 28.8061 34.3633C28.7361 34.4433 28.6461 34.5233 28.5461 34.5433C28.0561 34.6333 27.7261 34.9733 27.3361 35.2333C27.0461 35.4333 26.8061 35.6833 26.5861 35.9533C26.5161 36.0333 26.4361 36.0733 26.3361 36.1233C25.8461 36.3633 25.3061 36.5033 24.8661 36.8333C24.6261 37.0133 24.3961 37.2233 24.1361 37.3833C23.9261 37.5133 23.7061 37.6433 23.4661 37.7133C23.2661 37.7633 23.1461 37.9333 22.9861 38.0333C22.7361 38.2033 22.5061 38.3933 22.1861 38.4433C21.7961 38.5033 21.5161 38.8033 21.2061 39.0133C20.9561 39.1833 20.6861 39.3333 20.4361 39.5133C19.8961 39.9033 19.3861 40.3233 18.8161 40.6633C18.5961 40.7933 18.3661 40.9233 18.1161 40.9933C18.0361 41.0133 17.9461 41.0233 17.8861 41.0833C17.6061 41.3533 17.2461 41.3633 16.8961 41.4233C16.6761 41.4633 16.5061 41.6033 16.3161 41.7033C16.1861 41.7733 16.0461 41.8133 15.9061 41.8133C15.6961 41.8133 15.4861 41.8133 15.2761 41.8133C15.1361 41.8133 15.0761 41.7633 15.0361 41.6333C14.9261 41.2933 14.9161 40.9533 14.8661 40.6033C14.7861 39.9233 14.7861 39.2333 14.6061 38.5533C14.4861 38.1133 14.5361 37.6433 14.5561 37.1933C14.5561 37.0133 14.5561 36.8433 14.5061 36.6633C14.4561 36.4833 14.4461 36.3033 14.4261 36.1233C14.3961 35.8633 14.3061 35.6133 14.2761 35.3533C14.2261 34.9633 13.9961 34.6233 13.9961 34.2033C13.9961 33.8633 13.8361 33.5133 13.6761 33.1933C13.6161 33.0833 13.5861 32.9733 13.5861 32.8533C13.5961 32.6433 13.5061 32.4533 13.4361 32.2533C13.3561 31.9833 13.2861 31.7033 13.2761 31.4233C13.2761 31.2333 13.1961 31.0733 13.1461 30.8933C13.0161 30.4533 12.7061 30.0633 12.7461 29.5633C12.7461 29.4933 12.7161 29.4433 12.6661 29.4033C12.4761 29.2433 12.4261 29.0333 12.4361 28.8033C12.4461 28.5033 12.3361 28.2333 12.2561 27.9633C12.1961 27.7633 12.2061 27.5633 12.2561 27.3633C12.0061 27.3633 11.7661 27.3633 11.5161 27.3633C10.0561 27.3633 8.60606 27.3633 7.14606 27.3633C7.08606 27.3633 7.01605 27.3633 6.95605 27.3733C6.95605 27.4733 6.95605 27.5733 6.95605 27.6733C6.95605 33.6533 6.95605 39.6333 6.95605 45.6233C6.95605 45.7833 7.03939 45.8633 7.20605 45.8633C12.6061 45.8633 18.0061 45.8633 23.3961 45.8633C25.5361 45.8633 27.6761 45.8633 29.8161 45.8633C29.8261 45.3933 29.8561 44.9233 29.8561 44.4533ZM16.0661 45.4133C16.0661 45.7033 16.0661 45.6933 15.7661 45.7033C15.6161 45.7033 15.5661 45.6733 15.5761 45.5133C15.5861 45.1233 15.5761 44.7233 15.5761 44.3333C15.5761 44.1633 15.5361 44.1133 15.3661 44.1233C14.9661 44.1333 14.5661 44.1233 14.1661 44.1233C14.0361 44.1233 13.9961 44.1633 14.0061 44.2833C14.0061 44.6933 14.0061 45.1133 14.0061 45.5233C14.0061 45.6433 13.9861 45.7033 13.8461 45.7033C13.4861 45.6833 13.5261 45.7633 13.5261 45.3733C13.5261 44.9233 13.5261 44.4733 13.5261 44.0233C13.5261 43.5333 13.5261 43.0333 13.5261 42.5433C13.5261 42.4133 13.5561 42.3533 13.7061 42.3533C14.0161 42.3533 14.0161 42.3533 14.0161 42.6733C14.0161 42.9833 14.0161 43.2933 14.0161 43.6033C14.0161 43.7233 14.0461 43.7733 14.1761 43.7733C14.5961 43.7733 15.0161 43.7733 15.4361 43.7733C15.5661 43.7733 15.5961 43.7233 15.5961 43.6033C15.5961 43.2433 15.5961 42.8933 15.5961 42.5333C15.5961 42.3833 15.6461 42.3333 15.7861 42.3533C15.7861 42.3533 15.7961 42.3533 15.8061 42.3533C15.9994 42.3533 16.0961 42.4466 16.0961 42.6333C16.0961 43.5633 16.0961 44.4833 16.0961 45.4133H16.0661ZM18.7461 45.7033C18.6361 45.6933 18.4661 45.7633 18.4961 45.5433C18.4961 45.4733 18.4961 45.4133 18.4961 45.3433C18.2261 45.6033 17.9561 45.7833 17.5861 45.7633C17.2261 45.7433 16.9561 45.5033 16.9461 45.1433C16.9361 44.5633 16.9461 43.9733 16.9461 43.3933C16.9461 43.3033 16.9761 43.2733 17.0661 43.2733C17.4361 43.2733 17.3961 43.1733 17.3961 43.5833C17.3961 44.0133 17.3961 44.4333 17.3961 44.8633C17.3961 44.9533 17.4061 45.0533 17.4261 45.1433C17.4661 45.3133 17.5761 45.3833 17.7461 45.3833C18.1161 45.3833 18.4961 44.9933 18.4961 44.6233C18.4961 44.2333 18.4961 43.8533 18.4961 43.4633C18.4961 43.3233 18.5261 43.2533 18.6861 43.2733C18.9661 43.2933 18.9561 43.2033 18.9561 43.5533C18.9561 44.2233 18.9561 44.8833 18.9561 45.5533C18.9561 45.7333 18.8661 45.7333 18.7461 45.7233V45.7033ZM23.1661 45.7033C23.1661 45.7033 23.0761 45.7033 23.0361 45.7033C22.9061 45.7233 22.8761 45.6633 22.8761 45.5433C22.8761 45.0733 22.8761 44.6033 22.8761 44.1333C22.8761 44.0633 22.8761 43.9933 22.8661 43.9233C22.8161 43.6033 22.6261 43.5033 22.3161 43.6333C22.1361 43.7133 21.9961 43.8533 21.8661 44.0133C21.8161 44.0633 21.8261 44.1333 21.8261 44.1933C21.8261 44.6433 21.8261 45.0933 21.8261 45.5433C21.8261 45.6733 21.7861 45.7133 21.6661 45.7033C21.6261 45.7033 21.5761 45.7033 21.5361 45.7033C21.3961 45.7233 21.3661 45.6533 21.3661 45.5333C21.3661 45.0233 21.3661 44.5133 21.3661 44.0133C21.3661 43.6233 21.1261 43.4733 20.7761 43.6733C20.4961 43.8333 20.2861 44.0333 20.3261 44.4033C20.3561 44.7833 20.3261 45.1633 20.3361 45.5433C20.3361 45.6833 20.2961 45.7233 20.1661 45.7133C20.1061 45.7133 20.0561 45.7133 19.9961 45.7133C19.9161 45.7133 19.8861 45.6933 19.8861 45.6033C19.8861 44.8633 19.8861 44.1133 19.8861 43.3733C19.8861 43.2933 19.9161 43.2533 19.9961 43.2633C20.0361 43.2633 20.0861 43.2633 20.1261 43.2633C20.2961 43.2333 20.3661 43.2933 20.3361 43.4733C20.3361 43.5233 20.3361 43.5733 20.3361 43.6533C21.0761 43.0433 21.4061 43.0433 21.8261 43.6533C21.9161 43.5733 22.0061 43.4833 22.1061 43.4033C22.3761 43.1933 22.6761 43.1433 22.9861 43.2833C23.2661 43.4033 23.3361 43.6733 23.3361 43.9433C23.3361 44.4733 23.3361 45.0133 23.3361 45.5433C23.3361 45.6733 23.3061 45.7333 23.1661 45.7133V45.7033ZM26.0961 45.7333C25.8261 45.8133 25.6461 45.7533 25.5161 45.5133C25.4561 45.4033 25.4261 45.4533 25.3661 45.4933C25.1261 45.6733 24.8661 45.7933 24.5561 45.7433C24.2861 45.6933 24.0961 45.5333 24.0361 45.2733C23.9661 45.0133 24.0061 44.7533 24.2161 44.5533C24.4961 44.3033 24.8361 44.2433 25.1861 44.2433C25.3461 44.2433 25.4061 44.2133 25.3961 44.0333C25.3861 43.6233 25.2461 43.4933 24.8261 43.5433C24.6561 43.5633 24.4861 43.6133 24.3361 43.6833C24.2361 43.7333 24.2161 43.7033 24.2061 43.5933C24.1861 43.4133 24.2461 43.3133 24.4261 43.2733C24.7261 43.2033 25.0161 43.1333 25.3261 43.2033C25.6461 43.2733 25.8161 43.4633 25.8461 43.7933C25.8461 43.9033 25.8461 44.0133 25.8461 44.1133C25.8461 44.2233 25.8461 44.3333 25.8461 44.4733C25.8561 44.6833 25.8261 44.9233 25.8661 45.1733C25.8861 45.2933 25.9361 45.4033 26.0761 45.4033C26.1961 45.4033 26.1861 45.4833 26.1861 45.5533C26.1861 45.6433 26.1561 45.6733 26.0761 45.7033L26.0961 45.7333ZM28.6861 45.7033C28.6261 45.7033 28.5761 45.7033 28.5161 45.7033C28.3961 45.7133 28.3661 45.6633 28.3661 45.5533C28.3661 45.1033 28.3661 44.6533 28.3661 44.2033C28.3661 44.1533 28.3661 44.1033 28.3661 44.0533C28.3361 43.6033 28.0661 43.4633 27.6861 43.7033C27.4261 43.8633 27.2261 44.0633 27.2561 44.4233C27.2861 44.7933 27.2561 45.1733 27.2561 45.5433C27.2561 45.6633 27.2261 45.7233 27.0961 45.7033C27.0461 45.7033 26.9961 45.7033 26.9461 45.7033C26.8261 45.7133 26.7961 45.6633 26.7961 45.5533C26.7961 44.8333 26.7961 44.1233 26.7961 43.4033C26.7961 43.2833 26.8361 43.2333 26.9461 43.2533C26.9961 43.2533 27.0461 43.2633 27.0961 43.2533C27.2261 43.2333 27.2561 43.3033 27.2561 43.4233C27.2561 43.4933 27.2361 43.5633 27.2661 43.6233C27.3361 43.6033 27.3661 43.5433 27.4061 43.5033C27.5661 43.3333 27.7561 43.2333 27.9861 43.2033C28.4361 43.1433 28.7861 43.4133 28.7961 43.8633C28.8161 44.4333 28.7961 45.0033 28.7961 45.5733C28.7961 45.6733 28.7561 45.7033 28.6561 45.7033H28.6861Z" fill="#1D478D"/>
<path d="M52.6961 27.9935C52.6961 27.8435 52.7261 27.6934 52.6761 27.5434C52.5961 27.4734 52.5061 27.5035 52.4161 27.5035C51.8661 27.5035 51.3161 27.5035 50.7561 27.5035C47.7661 27.5035 44.7761 27.5035 41.7861 27.5035C41.5061 27.5035 41.5061 27.5034 41.4561 27.7934C41.5561 27.8134 41.6761 27.7635 41.7361 27.9035C41.7861 28.0335 41.8461 28.1634 41.8961 28.2934C42.1661 29.0334 42.446 29.7734 42.716 30.5134C42.776 30.6834 42.8361 30.8535 42.8161 31.0335C42.7861 31.3535 42.8561 31.6435 43.0661 31.9035C43.0961 31.9435 43.1061 31.9934 43.1261 32.0434C43.3361 32.5934 43.4261 33.1735 43.6561 33.7135C43.7561 33.9335 43.8161 34.1634 43.9161 34.3834C44.0261 34.6134 44.1961 34.8235 44.2461 35.0635C44.3361 35.4935 44.516 35.8835 44.606 36.3135C44.766 36.9935 45.0461 37.6435 45.2661 38.3035C45.4061 38.7335 45.5461 39.1635 45.6361 39.6135C45.6861 39.8435 45.6861 40.0735 45.7761 40.3035C45.8961 40.6035 46.0161 40.9035 46.0861 41.2135C46.1661 41.5635 46.2461 41.9135 46.3961 42.2435C46.4261 42.3035 46.446 42.3735 46.466 42.4435C46.596 42.8935 46.6261 43.3634 46.9061 43.7934C47.1461 44.1734 47.2461 44.6434 47.4761 45.0434C47.6161 45.2934 47.656 45.5835 47.856 45.8035C47.926 45.8035 47.9961 45.8135 48.0661 45.8135C49.3161 45.8135 50.5661 45.8135 51.8161 45.8135C52.0461 45.8135 52.2661 45.7934 52.4961 45.8534C52.6361 45.8934 52.736 45.8535 52.716 45.6735C52.716 45.5935 52.716 45.5135 52.716 45.4235C52.716 39.6135 52.716 33.7935 52.716 27.9835L52.6961 27.9935Z" fill="#1D478D"/>
<path d="M44.7656 45.7435C44.6256 45.5035 44.5556 45.2436 44.5356 44.9636C44.4856 44.4536 44.5356 43.9336 44.4056 43.4336C44.2556 42.8736 44.1356 42.3135 43.9756 41.7635C43.7556 41.0435 43.7456 40.2935 43.5956 39.5535C43.5356 39.2735 43.5756 38.9736 43.2756 38.7836C43.0956 38.6636 43.0756 38.4235 43.0056 38.2335C42.9256 38.0235 42.8056 37.9335 42.5856 37.9235C42.4456 37.9235 42.3056 37.8935 42.1856 37.8335C41.8556 37.6635 41.5356 37.4935 41.1856 37.3635C40.5156 37.1335 39.9756 36.6635 39.3956 36.2735C39.3256 36.2235 39.2656 36.1636 39.1556 36.1836C38.8556 36.2236 38.6056 36.1135 38.4156 35.8935C38.3756 35.8435 38.3156 35.8135 38.2656 35.7735C37.8456 35.4435 37.3556 35.1935 36.9856 34.7735C36.8856 34.6635 36.7456 34.5635 36.6056 34.4935C36.2556 34.3035 35.8956 34.1336 35.5456 33.9436C35.1356 33.7236 34.7456 33.4736 34.2556 33.4436C34.0556 33.4336 33.8756 33.3635 33.6856 33.2935C33.3356 33.1735 33.0056 32.9936 32.6156 33.0336C32.5556 33.0336 32.4856 33.0135 32.4356 32.9935C32.1356 32.8335 31.8956 32.9435 31.6656 33.1335C31.4656 33.3035 31.2956 33.5235 31.0556 33.6135C30.8356 33.6935 30.7156 33.8535 30.5856 34.0235C30.4956 34.2535 30.5256 34.4936 30.5256 34.7236C30.5256 35.9236 30.5456 37.1235 30.5156 38.3235C30.4956 39.4035 30.4756 40.4836 30.4856 41.5636C30.4856 41.7836 30.5056 42.0036 30.5156 42.2236C30.5456 42.6536 30.4956 43.0835 30.4756 43.5135C30.4556 44.2335 30.5656 44.9436 30.5256 45.6636C30.5256 45.8136 30.5956 45.8635 30.7356 45.8635C31.6656 45.8635 32.6056 45.8635 33.5356 45.8635C34.2956 45.8635 35.0656 45.8635 35.8256 45.8635C36.0856 45.8635 36.3456 45.8735 36.6056 45.8235C36.6556 45.8135 36.7356 45.7835 36.7756 45.8635C36.7856 45.8135 36.8056 45.7636 36.8056 45.7136C36.8056 45.5936 36.8756 45.4336 36.7856 45.3736C36.7056 45.3236 36.6256 45.4836 36.5456 45.5336C36.3356 45.6836 35.7156 45.6936 35.5456 45.5336C35.3556 45.3536 35.1856 45.1335 35.1556 44.8635C35.0956 44.3935 35.1556 43.9435 35.5056 43.5735C35.7556 43.3135 36.3556 43.2436 36.6356 43.4636C36.7256 43.5336 36.7556 43.5436 36.8156 43.4436C36.9056 43.3036 37.0556 43.3636 37.1856 43.3736C37.3056 43.3836 37.2556 43.5035 37.2556 43.5835C37.2556 44.3435 37.2556 45.1035 37.2556 45.8635C37.3056 45.8935 37.3556 45.8835 37.4056 45.8835C38.4456 45.8835 39.4856 45.8835 40.5256 45.8835C41.1056 45.8835 41.6756 45.8735 42.2556 45.8635C42.3356 45.7635 42.4556 45.8236 42.5556 45.8136C42.6456 45.8036 42.7356 45.8136 42.8756 45.8136C42.7756 45.6736 42.6556 45.7236 42.5656 45.6536C42.4456 45.5536 42.4656 45.4335 42.5056 45.3335C42.5456 45.2135 42.6356 45.3035 42.7056 45.3335C42.9656 45.4435 43.2356 45.5135 43.4956 45.3535C43.6856 45.2335 43.6556 45.0036 43.4656 44.8736C43.2456 44.7336 42.9956 44.6635 42.7856 44.5135C42.5356 44.3335 42.4756 44.2036 42.5356 43.8136C42.5656 43.6136 42.7756 43.4236 43.0056 43.3736C43.2556 43.3136 43.4956 43.3536 43.7456 43.3736C43.9256 43.3936 43.8556 43.5435 43.8656 43.6435C43.8756 43.7735 43.7756 43.7335 43.7056 43.7335C43.6656 43.7335 43.6256 43.7336 43.5956 43.7136C43.4256 43.6336 43.2556 43.6536 43.0856 43.7236C42.9556 43.7836 42.9056 43.9436 42.9856 44.0636C43.0956 44.2336 43.2656 44.2935 43.4356 44.3535C43.6556 44.4335 43.8456 44.5535 43.9656 44.7435C44.2256 45.1235 44.0156 45.5436 43.6156 45.7136C43.5656 45.7336 43.5056 45.7335 43.4356 45.8235C43.5956 45.8235 43.7256 45.8235 43.8456 45.8235C44.0956 45.8235 44.3356 45.8235 44.5856 45.8235C44.6656 45.8235 44.7356 45.8335 44.7956 45.7635L44.7656 45.7435ZM32.9856 45.7035C32.9056 45.7035 32.8756 45.6335 32.8356 45.5735C32.6056 45.2135 32.3656 44.8636 32.1256 44.5036C32.0556 44.3936 31.9556 44.3535 31.8156 44.3635C31.6656 44.3635 31.6156 44.4335 31.6156 44.5735C31.6156 44.8935 31.6156 45.2235 31.6156 45.5435C31.6156 45.6335 31.6156 45.7235 31.4956 45.7035C31.3856 45.6835 31.2156 45.8136 31.1756 45.5936C31.1656 45.5336 31.1556 45.4736 31.1556 45.4036C31.1556 44.5136 31.1556 43.6136 31.1556 42.7236C31.1556 42.5636 31.2056 42.5135 31.3656 42.5235C31.7556 42.5535 32.1456 42.4836 32.5356 42.5936C32.8556 42.6836 33.0556 42.9035 33.0756 43.2335C33.0956 43.6235 32.9656 43.9435 32.6156 44.1435C32.4956 44.2135 32.4756 44.2735 32.5656 44.3935C32.8756 44.8135 33.1756 45.2336 33.4956 45.6836C33.3056 45.7136 33.1456 45.7035 32.9756 45.7035H32.9856ZM34.1856 45.7035C34.0756 45.7235 34.0056 45.7035 34.0156 45.5535C34.0156 45.2235 34.0156 44.8936 34.0156 44.5636C34.0156 44.2236 34.0156 43.8935 34.0156 43.5535C34.0156 43.3835 34.1056 43.3736 34.2356 43.3736C34.3656 43.3736 34.4456 43.3735 34.4456 43.5535C34.4456 44.2235 34.4456 44.8835 34.4456 45.5535C34.4456 45.7735 34.2956 45.6835 34.1956 45.7035H34.1856ZM34.2256 42.9535C34.0456 42.9935 33.9856 42.9036 33.9956 42.7536C33.9956 42.6536 33.9756 42.5035 34.1756 42.5135C34.3256 42.5135 34.4656 42.5135 34.4456 42.7335C34.4356 42.8835 34.4256 43.0035 34.2356 42.9535H34.2256ZM39.7656 45.7035C39.6256 45.7135 39.5756 45.6635 39.5856 45.5135C39.5856 45.1235 39.5856 44.7235 39.5856 44.3335C39.5856 44.2435 39.5856 44.1536 39.5856 44.0636C39.5356 43.7036 39.2356 43.5735 38.9356 43.7935C38.6956 43.9635 38.5056 44.1535 38.5456 44.5135C38.5856 44.8535 38.5456 45.2035 38.5556 45.5435C38.5556 45.7535 38.4256 45.6935 38.3156 45.7035C38.2056 45.7035 38.1156 45.7035 38.1156 45.5435C38.1156 44.5235 38.1156 43.5135 38.1156 42.4935C38.1156 42.3235 38.2156 42.2935 38.3356 42.2935C38.4556 42.2935 38.5756 42.3035 38.5756 42.4835C38.5756 42.8535 38.5756 43.2335 38.5756 43.6035C38.5756 43.6335 38.5756 43.6636 38.5956 43.7136C38.6956 43.6336 38.7756 43.5535 38.8656 43.4835C39.1556 43.2535 39.6456 43.2735 39.8756 43.5135C39.9656 43.6135 40.0356 43.7235 40.0356 43.8635C40.0356 44.4135 40.0356 44.9635 40.0356 45.5235C40.0356 45.7235 39.9156 45.6836 39.7956 45.6936L39.7656 45.7035ZM41.7656 45.4036C41.8456 45.4036 41.9056 45.4036 41.9056 45.5036C41.9056 45.5936 41.9256 45.7036 41.7856 45.7236C41.2756 45.7836 40.9156 45.6535 40.8856 45.0535C40.8856 44.8535 40.8856 44.6636 40.8856 44.4636C40.8856 44.2636 40.8856 44.0736 40.8856 43.8736C40.8856 43.7736 40.8856 43.7035 40.7456 43.7035C40.6356 43.7035 40.5956 43.6335 40.5956 43.5235C40.5956 43.4235 40.6256 43.3636 40.7356 43.3736C40.8856 43.3736 40.8856 43.2636 40.8856 43.1636C40.8856 43.0336 40.9056 42.9435 41.0556 42.9235C41.2656 42.8935 41.2956 42.9235 41.2956 43.1335C41.2956 43.3635 41.2956 43.3736 41.5456 43.3736C41.6056 43.3736 41.6556 43.3736 41.7156 43.3736C41.8456 43.3636 41.9156 43.4035 41.9056 43.5535C41.9056 43.7135 41.8056 43.7235 41.6856 43.7035C41.6756 43.7035 41.6656 43.7035 41.6456 43.7035C41.2956 43.6835 41.2856 43.7035 41.2856 44.0435C41.2856 44.3435 41.2856 44.6535 41.2856 44.9535C41.2856 45.2935 41.4156 45.4236 41.7456 45.4136L41.7656 45.4036Z" fill="#1D478D"/>
<path d="M16.8456 48.4634C16.7156 48.8834 16.5856 49.2934 16.4456 49.7134C16.4356 49.7634 16.4456 49.8334 16.3756 49.8334C16.3056 49.8334 16.3156 49.7634 16.3056 49.7134C16.1956 49.3034 16.0856 48.8933 15.9856 48.4833C15.9456 48.3333 15.8456 48.3434 15.7356 48.3334C15.6356 48.3334 15.5456 48.3334 15.5056 48.4734C15.4456 48.7134 15.3656 48.9434 15.2856 49.1834C15.2056 49.4034 15.1756 49.6433 15.0656 49.8533C14.9956 49.8233 15.0056 49.7834 14.9956 49.7434C14.8756 49.3334 14.7556 48.9134 14.6356 48.5034C14.5956 48.3534 14.4456 48.2833 14.2956 48.3533C14.1756 48.4133 14.2656 48.5033 14.2856 48.5733C14.4456 49.1433 14.6056 49.7034 14.7656 50.2734C14.7856 50.3634 14.7956 50.4634 14.9256 50.4334C15.0456 50.4134 15.2156 50.5134 15.2556 50.2834C15.2756 50.1434 15.3356 50.0034 15.3856 49.8634C15.4956 49.5534 15.5556 49.2133 15.7156 48.8833C15.7456 48.9733 15.7656 49.0134 15.7756 49.0634C15.8956 49.4734 16.0156 49.8934 16.1156 50.3134C16.1456 50.4534 16.2356 50.4334 16.3256 50.4334C16.4256 50.4334 16.5356 50.4833 16.5856 50.3233C16.7756 49.7033 16.9856 49.0834 17.1856 48.4634C17.1956 48.4234 17.2356 48.3834 17.1856 48.3434C17.0856 48.2834 16.8856 48.3434 16.8556 48.4634H16.8456Z" fill="#1D478D"/>
<path d="M28.0358 47.5736C27.9158 47.5936 27.7858 47.5236 27.7158 47.7136C27.4658 48.3936 27.1858 49.0536 26.9258 49.7236C26.8358 49.9536 26.7458 50.1836 26.6558 50.4136C26.8958 50.4403 27.0591 50.3502 27.1458 50.1436C27.1958 50.0236 27.2458 49.8936 27.2858 49.7736C27.3158 49.6736 27.3658 49.6336 27.4758 49.6336C27.6658 49.6336 27.8558 49.6336 28.0458 49.6336C28.3724 49.6336 28.5991 49.7836 28.7258 50.0836C28.8524 50.3836 29.0424 50.4936 29.2958 50.4136C28.9358 49.5036 28.5858 48.6136 28.2358 47.7136C28.1958 47.6136 28.1558 47.5536 28.0358 47.5636V47.5736ZM27.5558 49.3336C27.4558 49.3336 27.4758 49.2836 27.4958 49.2236C27.6358 48.8636 27.7758 48.5136 27.9358 48.1136C28.1058 48.5336 28.2558 48.9236 28.4158 49.3236C28.1158 49.3236 27.8358 49.3236 27.5558 49.3236V49.3336Z" fill="#1D478D"/>
<path d="M13.9459 50.2036C13.8059 50.2036 13.7759 50.0936 13.7659 49.9736C13.7659 49.7936 13.7659 49.6036 13.7659 49.4236C13.7659 49.2336 13.7659 49.0436 13.7659 48.8536C13.7559 48.6536 13.6859 48.4636 13.4859 48.3736C13.1259 48.2236 12.7659 48.2936 12.4159 48.4336C12.2959 48.4836 12.3359 48.6236 12.3759 48.7036C12.4059 48.7936 12.4859 48.7036 12.5359 48.6836C12.6759 48.6336 12.8159 48.5936 12.9559 48.5836C13.2659 48.5736 13.3959 48.7036 13.3959 49.0136C13.3959 49.1336 13.3659 49.1936 13.2259 49.1936C12.9659 49.1936 12.7059 49.2236 12.4759 49.3636C12.2459 49.5036 12.1359 49.7536 12.1959 50.0336C12.2359 50.2336 12.4259 50.4036 12.6559 50.4536C12.8859 50.4936 13.0959 50.4336 13.2759 50.2936C13.3459 50.2436 13.4359 50.1636 13.5059 50.3036C13.6059 50.4936 13.7859 50.4736 13.9559 50.4336C14.0059 50.4236 14.0759 50.4236 14.0659 50.3336C14.0559 50.2736 14.0659 50.1936 13.9559 50.1836L13.9459 50.2036ZM13.3759 49.6836C13.3759 50.0036 13.1259 50.2136 12.8359 50.1636C12.7059 50.1436 12.6159 50.0736 12.5659 49.9536C12.5259 49.8336 12.5459 49.7136 12.6459 49.6236C12.8259 49.4436 13.0559 49.4136 13.2959 49.4436C13.4659 49.4636 13.3259 49.6236 13.3759 49.6836Z" fill="#1D478D"/>
<path d="M34.6955 48.2932C34.0755 48.2932 33.6855 48.7132 33.6855 49.3732C33.6855 50.0532 34.0555 50.4732 34.6755 50.4732C35.3055 50.4732 35.6955 50.0632 35.6955 49.3832C35.6955 48.7132 35.3155 48.2932 34.6955 48.2832V48.2932ZM35.2055 49.8432C35.1055 50.0632 34.9455 50.1932 34.6955 50.1932C34.4555 50.1932 34.2755 50.0732 34.1855 49.8432C34.0655 49.5132 34.0655 49.1832 34.2255 48.8632C34.3355 48.6532 34.5155 48.5732 34.7455 48.5932C34.9755 48.6132 35.1255 48.7232 35.2055 48.9332C35.2655 49.0832 35.2955 49.2332 35.2855 49.3932C35.2855 49.5532 35.2755 49.7032 35.2155 49.8532L35.2055 49.8432Z" fill="#1D478D"/>
<path d="M45.376 48.2936C44.856 48.2736 44.486 48.5336 44.356 49.0036C44.306 49.2036 44.286 49.4136 44.326 49.6236C44.436 50.2836 44.966 50.6236 45.616 50.4436C46.066 50.3236 46.306 49.9536 46.316 49.3836C46.316 49.2936 46.306 49.1936 46.286 49.1036C46.206 48.6236 45.856 48.3136 45.366 48.2936H45.376ZM45.826 49.8436C45.726 50.0736 45.536 50.2036 45.296 50.1936C45.056 50.1836 44.886 50.0636 44.806 49.8336C44.696 49.5336 44.696 49.2236 44.806 48.9236C44.896 48.7036 45.066 48.5836 45.306 48.5836C45.556 48.5836 45.726 48.7036 45.826 48.9236C45.886 49.0736 45.906 49.2336 45.906 49.3836C45.906 49.5336 45.886 49.6836 45.826 49.8336V49.8436Z" fill="#1D478D"/>
<path d="M40.9658 49.8232C40.9558 49.5032 40.9658 49.1732 40.9658 48.8532C40.9658 48.6332 40.8758 48.4532 40.6658 48.3632C40.3158 48.2232 39.9658 48.3032 39.6258 48.4332C39.5058 48.4832 39.5558 48.6232 39.5658 48.7032C39.5858 48.8032 39.6658 48.7032 39.7158 48.6932C39.9158 48.6232 40.1158 48.5632 40.3258 48.6032C40.5258 48.6432 40.5958 48.7932 40.5858 49.0832C40.5758 49.2832 40.4158 49.1932 40.3258 49.1932C40.0658 49.2232 39.8058 49.2532 39.5958 49.4232C39.4058 49.5732 39.3258 49.8632 39.4058 50.0932C39.4858 50.3132 39.6958 50.4532 39.9458 50.4732C40.2158 50.4832 40.4158 50.3532 40.6258 50.1832C40.7758 50.4632 40.9258 50.5332 41.1658 50.4532C41.2158 50.4332 41.2658 50.4232 41.2558 50.3532C41.2458 50.3032 41.2758 50.2132 41.2058 50.2032C40.9358 50.1832 40.9758 49.9732 40.9658 49.8132V49.8232ZM40.5858 49.7132C40.5858 50.0132 40.2958 50.2332 40.0058 50.1532C39.8858 50.1232 39.8058 50.0532 39.7758 49.9232C39.7458 49.7932 39.7758 49.6732 39.8858 49.5832C40.0658 49.4332 40.2858 49.4132 40.5158 49.4232C40.5758 49.4232 40.5958 49.4532 40.5858 49.5032C40.5858 49.5732 40.5858 49.6432 40.5858 49.7132Z" fill="#1D478D"/>
<path d="M48.0758 48.2935C47.7758 48.2935 47.5458 48.4335 47.3258 48.6535C47.3258 48.6035 47.3258 48.5435 47.3258 48.4935C47.3558 48.3435 47.2658 48.3235 47.1458 48.3335C47.0358 48.3335 46.9258 48.2935 46.9258 48.4935C46.9358 49.0935 46.9358 49.6835 46.9258 50.2835C46.9258 50.4635 47.0258 50.4235 47.1258 50.4335C47.2458 50.4335 47.3258 50.4335 47.3158 50.2735C47.2958 49.9735 47.3358 49.6635 47.3058 49.3635C47.2758 49.0535 47.4458 48.8735 47.6658 48.7235C47.8058 48.6335 47.9658 48.5935 48.1158 48.6635C48.2558 48.7335 48.2658 48.8935 48.2658 49.0335C48.2658 49.4635 48.2658 49.8835 48.2658 50.3135C48.2658 50.4635 48.3558 50.4435 48.4358 50.4335C48.5158 50.4235 48.6558 50.5135 48.6558 50.3235C48.6558 49.8335 48.6558 49.3435 48.6558 48.8535C48.6558 48.5235 48.4158 48.3035 48.0758 48.2935Z" fill="#1D478D"/>
<path d="M18.896 48.4734C18.866 48.5534 18.836 48.6334 18.796 48.7234C18.666 49.0534 18.526 49.3934 18.396 49.7234C18.376 49.7634 18.376 49.8234 18.326 49.8234C18.256 49.8234 18.256 49.7634 18.236 49.7134C18.196 49.6134 18.156 49.5134 18.116 49.4134C17.996 49.0934 17.876 48.7734 17.756 48.4534C17.716 48.3434 17.506 48.2734 17.376 48.3434C17.246 48.4134 17.356 48.5134 17.376 48.5834C17.536 49.0234 17.676 49.4734 17.886 49.8834C18.086 50.2834 18.066 50.6334 17.836 50.9934C17.736 51.1534 17.766 51.1834 17.996 51.1834C18.136 51.2334 18.186 51.1234 18.236 50.9934C18.436 50.4934 18.636 49.9834 18.836 49.4834C18.966 49.1534 19.106 48.8234 19.226 48.4934C19.246 48.4434 19.306 48.3734 19.226 48.3334C19.106 48.2734 18.936 48.3334 18.876 48.4634L18.896 48.4734Z" fill="#1D478D"/>
<path d="M20.1356 49.4535C20.3056 49.4535 20.4756 49.4535 20.6456 49.4535C20.7056 49.4535 20.7656 49.4535 20.8156 49.4535C20.9756 49.4135 21.1956 49.5736 21.2956 49.3736C21.3656 49.2136 21.2955 49.0135 21.2355 48.8335C21.0555 48.3235 20.5056 48.1435 20.0456 48.4335C19.7656 48.6135 19.6356 48.8935 19.6056 49.2135C19.5556 49.6335 19.6456 50.0136 19.9956 50.2836C20.3756 50.5836 20.8056 50.5035 21.2256 50.3935C21.3456 50.3635 21.3056 50.2436 21.2956 50.1636C21.2756 50.0536 21.1956 50.1236 21.1456 50.1236C21.0556 50.1336 20.9756 50.1635 20.8856 50.1835C20.4556 50.2735 20.0955 50.0335 20.0155 49.6135C19.9955 49.5035 20.0156 49.4535 20.1356 49.4635V49.4535ZM20.0555 48.9136C20.1355 48.6736 20.3355 48.5635 20.5955 48.6035C20.7855 48.6335 20.9155 48.8036 20.9155 49.0336C20.9155 49.1236 20.8955 49.1636 20.8055 49.1636C20.6855 49.1636 20.5655 49.1636 20.4455 49.1636C20.3755 49.1636 20.3055 49.1636 20.2355 49.1636C20.0055 49.1636 19.9855 49.1336 20.0555 48.9136Z" fill="#1D478D"/>
<path d="M11.7458 50.1235C11.4458 50.1235 11.1358 50.1235 10.8358 50.1235C10.6658 50.1235 10.6058 50.0835 10.6058 49.9035C10.6158 49.2035 10.6058 48.4935 10.6058 47.7935C10.6058 47.6435 10.5858 47.5635 10.3958 47.5635C10.2058 47.5635 10.1758 47.6335 10.1858 47.7935C10.1858 48.1935 10.1858 48.5935 10.1858 48.9935C10.1858 49.4135 10.1858 49.8435 10.1858 50.2635C10.1858 50.3735 10.1958 50.4235 10.3258 50.4235C10.7958 50.4235 11.2658 50.4235 11.7358 50.4235C11.8658 50.4235 11.8858 50.3735 11.8758 50.2635C11.8758 50.1535 11.8558 50.1035 11.7258 50.1035L11.7458 50.1235Z" fill="#1D478D"/>
<path d="M32.7257 49.2835C32.5657 49.2035 32.4057 49.1334 32.2457 49.0534C32.1557 49.0034 32.0857 48.9234 32.1157 48.8034C32.1357 48.6834 32.2357 48.6234 32.3457 48.6034C32.5157 48.5734 32.6757 48.6034 32.8357 48.6334C32.8857 48.6334 32.9757 48.7234 32.9757 48.6034C32.9757 48.5134 33.0557 48.3634 32.8957 48.3334C32.6557 48.2834 32.4157 48.2534 32.1757 48.3234C31.8757 48.4034 31.7057 48.6434 31.7357 48.9234C31.7657 49.1934 31.9457 49.3334 32.1657 49.4334C32.3157 49.5034 32.4657 49.5634 32.6057 49.6434C32.7057 49.6934 32.7657 49.7935 32.7457 49.9135C32.7257 50.0335 32.6457 50.1034 32.5457 50.1434C32.4557 50.1834 32.3657 50.1834 32.2657 50.1734C32.0857 50.1534 31.9157 50.0734 31.7457 50.0134C31.7057 50.3634 31.7057 50.3634 32.0257 50.4334C32.1757 50.4634 32.3257 50.4734 32.4757 50.4634C32.8057 50.4434 33.0657 50.2434 33.1257 49.9534C33.1857 49.6734 33.0457 49.4334 32.7257 49.2734V49.2835Z" fill="#1D478D"/>
<path d="M30.6157 49.2534C30.4857 49.1934 30.3457 49.1434 30.2157 49.0734C30.1157 49.0134 30.0257 48.9334 30.0657 48.7934C30.1057 48.6734 30.1957 48.6134 30.3157 48.5934C30.4757 48.5734 30.6257 48.6034 30.7857 48.6334C30.8257 48.6334 30.9157 48.7134 30.9157 48.6134C30.9157 48.5234 30.9957 48.3734 30.8457 48.3434C30.5857 48.2834 30.3157 48.2534 30.0557 48.3434C29.7057 48.4734 29.5757 48.8634 29.7757 49.1634C29.8557 49.2934 29.9757 49.3734 30.1157 49.4334C30.2657 49.5034 30.4257 49.5634 30.5557 49.6434C30.7657 49.7734 30.7357 50.0334 30.5057 50.1434C30.4157 50.1834 30.3157 50.1934 30.2057 50.1734C30.0257 50.1534 29.8557 50.0734 29.6857 50.0134C29.6357 50.3534 29.6357 50.3534 29.9457 50.4234C30.1157 50.4634 30.2857 50.4734 30.4557 50.4534C30.9457 50.4134 31.2357 49.9434 31.0057 49.5434C30.9157 49.3834 30.7557 49.3134 30.6057 49.2334L30.6157 49.2534Z" fill="#1D478D"/>
<path d="M37.6158 50.1136C37.1758 50.2636 36.8258 50.1636 36.6758 49.8136C36.5458 49.5236 36.5558 49.2136 36.6958 48.9336C36.8158 48.7036 37.0058 48.5936 37.2658 48.6036C37.4258 48.6036 37.5758 48.6536 37.7658 48.6936C37.7158 48.5636 37.8458 48.4036 37.6658 48.3536C37.3358 48.2736 37.0058 48.2536 36.6758 48.4036C36.0258 48.6936 36.0358 49.6936 36.3758 50.1136C36.6658 50.4736 37.3458 50.6236 37.7258 50.3936C37.8358 50.3236 37.7858 50.1936 37.7658 50.0936C37.7458 50.0136 37.6658 50.0936 37.6158 50.1136Z" fill="#1D478D"/>
<path d="M24.4359 49.2135C24.3259 49.1535 24.2059 49.1135 24.0959 49.0535C24.0059 49.0035 23.9359 48.9135 23.9759 48.8035C24.0159 48.6935 24.0859 48.6135 24.2259 48.6035C24.3759 48.5935 24.5259 48.5935 24.6559 48.6335C24.8259 48.6835 24.8559 48.6235 24.8459 48.4735C24.8459 48.3835 24.8059 48.3435 24.7259 48.3335C24.6059 48.3235 24.4859 48.3035 24.3659 48.2935C24.3159 48.2935 24.2659 48.2935 24.2159 48.2935C23.8959 48.3235 23.6659 48.4935 23.6159 48.7335C23.5559 49.0535 23.6859 49.2735 24.0059 49.4335C24.1459 49.5035 24.2959 49.5635 24.4359 49.6335C24.5559 49.6935 24.6259 49.7835 24.6159 49.9235C24.6059 50.0535 24.5059 50.1235 24.3859 50.1735C24.2659 50.2135 24.1459 50.2035 24.0259 50.1735C23.9159 50.1435 23.8059 50.1035 23.7059 50.0635C23.6659 50.0535 23.6259 50.0235 23.5959 50.0835C23.5359 50.2035 23.6059 50.3835 23.7359 50.4135C23.9359 50.4635 24.1459 50.5035 24.3559 50.4835C24.8759 50.4335 25.1659 49.9635 24.9159 49.5535C24.8059 49.3735 24.6159 49.3035 24.4459 49.2235L24.4359 49.2135Z" fill="#1D478D"/>
<path d="M42.5956 48.6436C42.5956 48.6436 42.6056 48.6436 42.6156 48.6436C42.7056 48.6536 42.7356 48.6236 42.7356 48.5236C42.7356 48.3936 42.7256 48.3136 42.5656 48.3436C42.4756 48.3536 42.3856 48.3436 42.2956 48.3436C42.2056 48.3436 42.1656 48.3136 42.1756 48.2236C42.1756 48.1536 42.1756 48.0836 42.1756 48.0136C42.1756 47.9736 42.1756 47.9436 42.1256 47.9236C41.9356 47.8736 41.7956 47.9836 41.7956 48.1836C41.7956 48.2936 41.7756 48.3536 41.6556 48.3336C41.5356 48.3136 41.5256 48.3936 41.5356 48.4836C41.5356 48.5736 41.5357 48.6536 41.6657 48.6336C41.7757 48.6136 41.8057 48.6636 41.8057 48.7636C41.8057 48.9536 41.8057 49.1436 41.8057 49.3336C41.8057 49.5336 41.8057 49.7236 41.8057 49.9236C41.8257 50.3436 42.2656 50.6036 42.6556 50.4436C42.7756 50.3936 42.7156 50.3036 42.7256 50.2336C42.7256 50.1536 42.6656 50.1736 42.6156 50.1836C42.3056 50.1836 42.1956 50.0836 42.1856 49.7636C42.1856 49.5336 42.1856 49.2936 42.1856 49.0636C42.1856 48.7836 42.3256 48.6403 42.6056 48.6336L42.5956 48.6436Z" fill="#1D478D"/>
<path d="M22.9259 48.3032C22.7759 48.3232 22.6459 48.3932 22.5459 48.5032C22.5059 48.5432 22.4859 48.6032 22.4059 48.6032C22.4059 48.5832 22.3959 48.5732 22.3959 48.5532C22.4159 48.3832 22.3459 48.3332 22.1659 48.3332C21.9759 48.3332 21.9859 48.4532 21.9859 48.5732C21.9859 49.1432 21.9859 49.7132 21.9859 50.2832C21.9859 50.4132 22.0259 50.4532 22.1459 50.4432C22.2459 50.4332 22.3859 50.4932 22.3759 50.2932C22.3759 49.9732 22.3759 49.6632 22.3759 49.3432C22.3759 48.8932 22.5759 48.6832 23.0259 48.6432C23.0759 48.6432 23.1259 48.6432 23.1459 48.5832C23.2159 48.3732 23.1359 48.2732 22.9159 48.3132L22.9259 48.3032Z" fill="#1D478D"/>
<path d="M38.576 48.3436C38.486 48.3436 38.376 48.3036 38.376 48.4836C38.386 48.7836 38.376 49.0836 38.376 49.3836C38.376 49.6836 38.386 49.9936 38.376 50.2936C38.376 50.4736 38.476 50.4336 38.586 50.4436C38.696 50.4436 38.776 50.4636 38.776 50.2936C38.766 49.6936 38.766 49.0836 38.776 48.4836C38.776 48.3036 38.676 48.3436 38.576 48.3436Z" fill="#1D478D"/>
<path d="M43.6856 48.4834C43.6856 48.3334 43.6156 48.3334 43.5056 48.3434C43.4156 48.3534 43.2856 48.2834 43.2856 48.4834C43.2856 49.0934 43.2856 49.7034 43.2856 50.3134C43.2856 50.4934 43.4056 50.4434 43.4856 50.4434C43.5756 50.4434 43.6756 50.4834 43.6756 50.3134C43.6656 50.0134 43.6756 49.7034 43.6756 49.4034C43.6756 49.1034 43.6756 48.7934 43.6756 48.4934L43.6856 48.4834Z" fill="#1D478D"/>
<path d="M38.546 47.9637C38.666 47.9537 38.816 47.9937 38.766 47.8037C38.766 47.5837 38.766 47.5936 38.586 47.5736C38.416 47.5536 38.376 47.6237 38.376 47.7837C38.376 47.9137 38.396 47.9837 38.546 47.9637Z" fill="#1D478D"/>
<path d="M43.6756 47.8133C43.6656 47.7133 43.7456 47.5533 43.5256 47.5833C43.4156 47.5933 43.2456 47.5333 43.2956 47.7533C43.2956 47.8633 43.2556 48.0033 43.4456 47.9733C43.5456 47.9533 43.7056 48.0333 43.6756 47.8233V47.8133Z" fill="#1D478D"/>
<path d="M15.1857 27.3633C15.0757 27.3633 14.9557 27.3633 14.8457 27.3633C14.9857 27.5233 15.0257 27.7033 14.9657 27.9033C14.9657 27.9333 14.9657 27.9633 14.9657 27.9933C14.9657 28.6333 14.9657 29.2733 14.9657 29.9133C14.9657 30.2233 14.9157 30.5533 15.1057 30.8333C15.1257 30.8533 15.1057 30.8933 15.1057 30.9233C15.1057 31.3633 15.0857 31.7933 15.1057 32.2333C15.1057 32.5733 15.0257 32.9333 15.1957 33.2633C15.3057 33.4933 15.2957 33.7233 15.3057 33.9633C15.3057 34.1733 15.2557 34.3933 15.3457 34.6033C15.4757 34.8833 15.5457 35.1733 15.5157 35.4833C15.4857 35.7833 15.5457 36.0833 15.6357 36.3533C15.7357 36.6733 15.8957 36.9833 16.0557 37.2833C16.2357 37.6133 16.5257 37.7733 16.9057 37.7933C16.9857 37.7933 17.0557 37.7933 17.1257 37.8333C17.3657 37.9533 17.5957 37.9333 17.8357 37.8133C17.9957 37.7333 18.1757 37.6833 18.3557 37.6233C18.7757 37.4733 19.2057 37.3333 19.6257 37.1733C20.2057 36.9633 20.7957 36.7533 21.4257 36.7233C21.5257 36.7233 21.5857 36.6933 21.6157 36.5833C21.7057 36.3433 21.9257 36.2633 22.1557 36.3633C22.2157 36.3933 22.2657 36.4233 22.3357 36.3933C22.4857 36.3333 22.6457 36.2833 22.7957 36.2233C23.0457 36.1233 23.2957 36.0333 23.5557 35.9933C23.8957 35.9333 24.1957 35.8033 24.3957 35.5033C24.5557 35.2633 24.7857 35.1233 25.0857 35.1533C25.2757 35.1733 25.4257 35.1033 25.5757 34.9933C25.8257 34.7933 26.0957 34.6433 26.3957 34.5233C26.7057 34.4033 26.9857 34.2233 27.2757 34.0533C27.4657 33.9433 27.6357 33.7833 27.8557 33.7833C28.2957 33.7833 28.6357 33.5533 28.9957 33.3733C29.2657 33.2433 29.5457 33.1633 29.8457 33.1533C29.8457 31.2833 29.8457 29.4233 29.8457 27.5533C29.8457 27.2933 29.8957 27.3033 29.5857 27.3033C24.7857 27.3033 19.9757 27.3033 15.1757 27.3033L15.1857 27.3633Z" fill="#1D478D"/>
<path d="M15.3256 26.8532C18.1756 26.8532 21.0156 26.8532 23.8656 26.8532H24.2256C24.1056 26.6132 24.0756 26.3632 24.0256 26.1332C23.8356 25.2532 23.5156 24.4132 23.2056 23.5732C22.9656 22.9432 22.9456 22.2732 22.7856 21.6332C22.7556 21.5132 22.7356 21.4832 22.6156 21.4632C22.3556 21.4232 22.1356 21.5632 21.8856 21.5832C21.6456 21.6032 21.4056 21.6532 21.2156 21.8132C21.1356 21.8832 21.0256 21.9432 20.9256 21.9432C20.5556 21.9432 20.2756 22.1832 19.9456 22.2832C19.5256 22.4132 19.1356 22.6032 18.7256 22.7532C18.2156 22.9432 17.6956 23.1432 17.1656 23.2732C16.7556 23.3632 16.3456 23.4932 15.9156 23.4532C15.8056 23.4532 15.6856 23.4632 15.5756 23.5032C15.4756 23.5332 15.3756 23.5532 15.2756 23.5532C14.9756 23.5532 14.6656 23.5532 14.3656 23.5532C14.3256 23.5532 14.2556 23.5432 14.2656 23.6032C14.3056 23.7932 14.2256 24.0032 14.3056 24.1832C14.4156 24.4332 14.4256 24.7032 14.4956 24.9532C14.5756 25.2432 14.5556 25.5532 14.7156 25.8332C14.8656 26.0832 14.9856 26.3632 15.0656 26.6532C15.1156 26.8132 15.1856 26.8432 15.3356 26.8432L15.3256 26.8532Z" fill="#1D478D"/>
<path d="M34.4157 32.2234C34.4657 32.3534 34.5657 32.4134 34.6857 32.4234C34.9357 32.4434 35.1357 32.5534 35.3257 32.6834C35.7157 32.9434 36.1557 33.0734 36.6057 33.1934C36.7057 33.2234 36.8157 33.2534 36.9057 33.3134C37.3957 33.6434 37.8757 33.9934 38.3857 34.3034C38.8457 34.5834 39.2857 34.8934 39.8057 35.0634C40.0957 35.1634 40.3957 35.2634 40.6857 35.3734C41.2157 35.5734 41.7457 35.7734 42.2757 35.9734C42.3357 35.9934 42.4157 35.9934 42.4857 36.0134C42.6557 36.0334 42.6457 35.9134 42.6057 35.8134C42.5457 35.6434 42.4657 35.4834 42.3857 35.3134C42.0857 34.7034 41.9657 34.0134 41.6157 33.4134C41.3757 32.9934 41.3457 32.4934 41.2457 32.0334C41.2057 31.8434 41.2157 31.6334 41.1257 31.4434C40.8757 30.9534 40.7657 30.4234 40.7057 29.8734C40.6857 29.7234 40.6557 29.5834 40.5957 29.4534C40.4457 29.1234 40.2057 28.8434 40.0857 28.5034C40.0557 28.4334 39.9957 28.4334 39.9457 28.4534C39.7157 28.5434 39.4657 28.5034 39.2257 28.5234C38.9457 28.5434 38.7157 28.6434 38.5657 28.8934C38.4357 29.1134 38.2357 29.2334 38.0257 29.3534C37.8857 29.4334 37.7157 29.4734 37.5657 29.5334C37.1557 29.7234 36.8157 30.0334 36.3957 30.2234C36.1757 30.3234 35.9357 30.4334 35.7357 30.5834C35.4757 30.7734 35.1857 30.9334 34.9357 31.1234C34.6657 31.3234 34.3457 31.4434 34.0857 31.6634C33.9657 31.7634 33.9557 31.8034 34.0957 31.8734C34.2357 31.9434 34.3657 32.0434 34.4257 32.1934L34.4157 32.2234Z" fill="#1D478D"/>
<path d="M30.4859 32.5533C30.4959 32.6333 30.5359 32.6733 30.6059 32.6133C30.8859 32.3933 31.2459 32.3333 31.5259 32.1233C31.7059 31.9933 31.9359 31.9433 32.0759 31.7633C32.2259 31.5633 32.3959 31.3833 32.6059 31.2433C32.8559 31.0733 33.0959 30.8933 33.3359 30.7033C33.5159 30.5633 33.6959 30.3733 33.9159 30.3633C34.2559 30.3433 34.4759 30.1533 34.6959 29.9333C34.7559 29.8733 34.8259 29.8133 34.9059 29.7633C35.0759 29.6633 35.2159 29.4733 35.4259 29.4733C35.7259 29.4733 35.9459 29.3033 36.1659 29.1433C36.3859 28.9833 36.5759 28.7633 36.8159 28.6233C37.3359 28.3133 37.8759 28.0333 38.3559 27.6633C38.3859 27.5933 38.4359 27.5233 38.2859 27.5233C37.3859 27.5233 36.4859 27.4833 35.5859 27.4933C35.3859 27.4933 35.1859 27.4633 34.9859 27.4933C34.7359 27.5333 34.4859 27.5033 34.2259 27.4933C33.0359 27.4633 31.8559 27.4933 30.6659 27.4933C30.5459 27.4933 30.4759 27.5333 30.4859 27.6733C30.4859 27.7833 30.4859 27.9033 30.4859 28.0133C30.4859 29.3433 30.4859 30.6833 30.4859 32.0133C30.4859 32.1833 30.4759 32.3533 30.4959 32.5233L30.4859 32.5533Z" fill="#1D478D"/>
<path d="M36.4557 43.6934C36.1957 43.6134 35.9557 43.6434 35.7957 43.8734C35.5957 44.1534 35.5857 44.4734 35.6357 44.8034C35.6557 44.9534 35.7057 45.1034 35.8457 45.1934C36.0757 45.3334 36.2957 45.2834 36.5157 45.1734C36.7057 45.0734 36.8557 44.9434 36.8157 44.6934C36.8057 44.6034 36.8157 44.5134 36.8157 44.4234C36.8557 44.1134 36.8557 43.8234 36.4557 43.7034V43.6934Z" fill="#1D478D"/>
<path d="M24.5858 44.7437C24.4658 44.8637 24.4358 45.0037 24.4958 45.1537C24.5558 45.3037 24.6858 45.3737 24.8358 45.3837C25.1858 45.4037 25.4058 45.1837 25.4058 44.8437C25.4058 44.7637 25.4058 44.6937 25.4058 44.6137C25.4058 44.5537 25.3858 44.5237 25.3158 44.5137C25.0458 44.5137 24.7858 44.5337 24.5758 44.7337L24.5858 44.7437Z" fill="#1D478D"/>
<path d="M32.2956 42.9235C32.1256 42.8635 31.9556 42.8835 31.7856 42.8735C31.6656 42.8735 31.6156 42.9035 31.6356 43.0435C31.6556 43.1735 31.6356 43.3035 31.6356 43.4435C31.6356 43.5935 31.6356 43.7335 31.6356 43.8835C31.6356 43.9835 31.6756 44.0335 31.7856 44.0335C32.0156 44.0335 32.2356 43.9935 32.4156 43.8635C32.5956 43.7435 32.6456 43.5435 32.6256 43.3335C32.6056 43.1235 32.4956 42.9935 32.2956 42.9335V42.9235Z" fill="#1D478D"/>
</svg>
