<svg width="59" height="59" viewBox="0 0 59 59" fill="none" xmlns="http://www.w3.org/2000/svg">
<rect x="0.668945" y="0.668945" width="57.8345" height="57.8345" rx="4" fill="white"/>
<path d="M13.9039 43.5882V39.7682C13.9039 39.0382 13.7339 38.4982 13.3939 38.1682C13.0639 37.8282 12.5239 37.6582 11.7939 37.6582H9.50391V39.2882H11.4539C11.8339 39.2882 12.0239 39.4882 12.0239 39.8782V43.5982H9.25391V45.2282H16.6639V43.5982H13.9039V43.5882Z" fill="#1D478D"/>
<path d="M20.014 43.4882V35.3682H18.064V45.1581H25.854V43.4882H20.014Z" fill="#1D478D"/>
<path d="M48.1739 35.4985L46.2839 42.5685H46.1939L44.3039 35.4985H42.3539L40.4539 42.5985H40.3639L38.4639 35.4985H36.5239L39.3739 45.1685H41.2939L43.2539 38.1885H43.3939L45.3539 45.1685H47.2739L50.1139 35.4985H48.1739Z" fill="#1D478D"/>
<path d="M14.1037 35.8284C14.1037 36.4584 13.5937 36.9684 12.9637 36.9684C12.3337 36.9684 11.8237 36.4584 11.8237 35.8284C11.8237 35.1984 12.3337 34.6885 12.9637 34.6885C13.5937 34.6885 14.1037 35.1984 14.1037 35.8284Z" fill="#1D478D"/>
<path d="M33.5836 35.4984V37.0684H33.4736C33.3636 36.8684 33.2036 36.6284 32.9936 36.3684C32.7936 36.1084 32.5036 35.8684 32.1436 35.6784C31.7736 35.4784 31.2936 35.3784 30.6936 35.3784C29.9236 35.3784 29.2236 35.5784 28.6136 35.9684C28.0036 36.3584 27.5136 36.9384 27.1736 37.6784C26.8236 38.4184 26.6436 39.3184 26.6436 40.3584C26.6436 41.3984 26.8136 42.2984 27.1636 43.0484C27.5136 43.7984 27.9936 44.3684 28.5936 44.7684C29.2036 45.1684 29.9036 45.3684 30.6836 45.3684C31.2736 45.3684 31.7536 45.2684 32.1236 45.0684C32.4936 44.8684 32.7836 44.6384 32.9936 44.3784C33.2036 44.1084 33.3636 43.8784 33.4836 43.6684H33.6336V45.1784H35.4736V35.5084H33.5936L33.5836 35.4984ZM33.3236 42.1184C33.1336 42.6384 32.8436 43.0284 32.4736 43.3184C32.0936 43.6084 31.6436 43.7484 31.0936 43.7484C30.5436 43.7484 30.0636 43.5984 29.6836 43.2984C29.3036 42.9984 29.0136 42.5884 28.8236 42.0784C28.6336 41.5584 28.5336 40.9784 28.5336 40.3384C28.5336 39.6984 28.6236 39.1284 28.8236 38.6184C29.0136 38.1084 29.2936 37.7184 29.6736 37.4184C30.0536 37.1184 30.5236 36.9784 31.0936 36.9784C31.6636 36.9784 32.1036 37.1184 32.4836 37.3984C32.8536 37.6784 33.1436 38.0784 33.3336 38.5784C33.5236 39.0784 33.6236 39.6684 33.6236 40.3384C33.6236 41.0084 33.5236 41.6084 33.3236 42.1284V42.1184Z" fill="#1D478D"/>
<path d="M23.0838 33.5383C23.1438 33.7483 22.8838 33.8984 22.7238 33.7484L17.5538 28.5783C17.5538 28.5783 17.5138 28.5783 17.5038 28.5783C13.2738 29.1683 9.34383 25.9683 9.07383 21.7083C8.78383 17.1883 12.5438 13.4683 17.0838 13.8283C18.0838 13.9083 19.0338 14.1884 19.8838 14.6384C19.9138 14.6584 19.9138 14.6983 19.8938 14.7183C19.8238 14.7883 19.7438 14.8583 19.6738 14.9283C17.9938 16.6083 17.0838 18.8383 17.1038 21.2183C17.1238 24.4283 18.9738 27.3684 21.8238 28.8884C21.8338 28.8884 21.8438 28.9083 21.8438 28.9183L23.0838 33.5283V33.5383Z" fill="#1D478D"/>
<path d="M40.4637 13.8184H25.8937C25.4437 13.8184 25.0137 13.8583 24.5937 13.9283C24.3537 13.9683 24.1137 14.0283 23.8837 14.0883C23.7137 14.1383 23.5437 14.1984 23.3737 14.2584C23.2637 14.2984 23.1537 14.3384 23.0437 14.3884C22.9637 14.4184 22.8937 14.4583 22.8137 14.4883C22.5837 14.5983 22.3737 14.7083 22.1637 14.8383C21.8237 15.0383 21.5037 15.2683 21.2037 15.5183C21.0337 15.6583 20.8737 15.8083 20.7137 15.9683C20.6337 16.0483 20.5537 16.1383 20.4737 16.2283C20.4337 16.2683 20.3937 16.3183 20.3537 16.3583C20.2737 16.4483 20.2037 16.5384 20.1337 16.6284C20.0937 16.6784 20.0637 16.7183 20.0237 16.7683C19.9537 16.8583 19.8837 16.9583 19.8237 17.0583C19.7237 17.2083 19.6337 17.3584 19.5437 17.5084C19.4237 17.7184 19.3137 17.9284 19.2237 18.1384C18.8037 19.0784 18.5737 20.1183 18.5737 21.2183C18.5837 23.1983 19.4137 24.9883 20.7337 26.2883C20.9337 26.4783 21.1337 26.6683 21.3537 26.8383C21.3937 26.8683 21.4337 26.8983 21.4637 26.9283C21.5037 26.9583 21.5337 26.9884 21.5737 27.0084C21.6837 27.0884 21.8037 27.1684 21.9137 27.2484C22.0737 27.3484 22.2337 27.4483 22.3937 27.5383C22.4337 27.5583 22.4737 27.5783 22.5137 27.6083C22.5937 27.6483 22.6837 27.6983 22.7637 27.7383C23.0137 27.8583 23.2837 27.9684 23.5437 28.0684C23.6937 28.1184 23.8537 28.1683 24.0137 28.2183C24.1737 28.2583 24.3337 28.2983 24.4937 28.3383C24.5537 28.3483 24.6237 28.3684 24.6837 28.3784C24.8137 28.4084 24.9437 28.4284 25.0737 28.4384C25.4037 28.4784 25.7337 28.5084 26.0737 28.5084H27.8737L26.7837 32.5983L26.1037 35.1083C26.0837 35.1883 26.1037 35.2684 26.1637 35.3184C26.1737 35.3284 26.1937 35.3483 26.2137 35.3583C26.2837 35.3983 26.3737 35.3983 26.4437 35.3383C26.4437 35.3383 26.4537 35.3384 26.4637 35.3184L29.1737 32.6083L33.2637 28.5183H40.6437C42.2837 28.5183 43.8037 27.9783 45.0337 27.0583C45.1237 26.9883 45.2237 26.9183 45.3137 26.8383C45.3637 26.7983 45.4037 26.7583 45.4437 26.7283C45.5737 26.6183 45.7037 26.4883 45.8337 26.3683C47.1737 25.0283 48.0037 23.1683 47.9837 21.1183C47.9537 17.0583 44.5237 13.8283 40.4537 13.8283L40.4637 13.8184ZM36.9537 18.4083C37.4637 18.4083 37.8737 18.8183 37.8737 19.3283C37.8737 19.8383 37.4637 20.2484 36.9537 20.2484C36.4437 20.2484 36.0337 19.8383 36.0337 19.3283C36.0337 18.8183 36.4437 18.4083 36.9537 18.4083ZM29.5937 18.4083C30.1037 18.4083 30.5137 18.8183 30.5137 19.3283C30.5137 19.8383 30.1037 20.2484 29.5937 20.2484C29.0837 20.2484 28.6737 19.8383 28.6737 19.3283C28.6737 18.8183 29.0837 18.4083 29.5937 18.4083ZM41.1037 22.4984C40.9937 22.6184 38.4037 25.4683 33.2737 25.4683C28.1437 25.4683 25.5437 22.6284 25.4437 22.4984C25.2137 22.2384 25.2337 21.8383 25.4937 21.5983C25.7537 21.3683 26.1537 21.3883 26.3937 21.6483C26.4237 21.6883 28.7537 24.1884 33.2837 24.1884C37.8137 24.1884 40.1437 21.6683 40.1737 21.6483C40.4037 21.3883 40.8037 21.3683 41.0737 21.5983C41.3337 21.8283 41.3537 22.2283 41.1237 22.4883L41.1037 22.4984Z" fill="#1D478D"/>
</svg>
