<svg width="59" height="58" viewBox="0 0 59 58" fill="none" xmlns="http://www.w3.org/2000/svg">
<rect x="0.834473" y="0.00683594" width="57.8345" height="57.8345" rx="4" fill="white"/>
<path d="M54.495 36.1465C54.295 35.7965 54.305 35.7165 54.615 35.4665C55.325 34.8765 55.555 34.1165 55.435 33.2165C55.415 33.0465 55.425 32.8765 55.415 32.7165C55.415 32.4965 55.425 32.2765 55.375 32.0665C55.225 31.4665 55.025 30.8865 54.935 30.2665C54.875 29.8765 54.835 29.5165 54.955 29.1365C54.995 28.9965 55.045 28.8465 55.045 28.6965C55.045 27.8265 54.675 27.0465 53.755 26.7765C53.215 26.6265 52.665 26.4865 52.125 26.3365C50.975 26.0265 49.825 25.7165 48.675 25.4165C47.815 25.1865 46.945 24.9665 46.085 24.7065C45.485 24.5265 44.915 24.5565 44.365 24.8665C44.215 24.9465 44.075 24.9465 43.915 24.8665C43.485 24.6765 43.055 24.4965 42.625 24.3065C42.495 24.2465 42.355 24.1765 42.265 24.0765C41.725 23.4365 41.025 23.1165 40.225 22.9665C39.575 22.8465 39.585 22.8365 39.575 22.1765C39.575 21.4665 39.615 20.7565 39.435 20.0665C39.365 19.7865 39.295 19.4865 39.175 19.2265C38.625 18.0765 37.105 17.2465 35.715 17.6265C34.875 17.8565 34.285 18.3665 34.045 19.2165C33.955 19.5165 33.915 19.8265 33.855 20.1365C33.815 20.3765 33.695 20.4365 33.485 20.3365C33.415 20.3065 33.345 20.2565 33.275 20.2165C33.105 20.1165 32.935 19.9865 32.755 19.9265C32.335 19.7965 31.905 19.6865 31.465 19.5865C31.295 19.5465 31.115 19.5465 30.945 19.5665C30.285 19.6465 29.685 19.8865 29.185 20.3465C29.135 20.3865 29.045 20.4265 28.985 20.4065C28.835 20.3665 28.685 20.2865 28.545 20.2265C27.465 19.7365 26.345 19.4465 25.155 19.4165C25.075 19.4165 24.995 19.4165 24.915 19.3965C24.695 19.3565 24.635 19.2765 24.665 19.0465C24.735 18.4765 24.625 17.9165 24.345 17.4365C24.145 17.0865 24.005 16.7365 23.945 16.3365C23.835 15.5165 23.395 14.9065 22.735 14.3965C22.025 13.8565 21.225 13.5365 20.385 13.2765C19.325 12.9465 18.235 12.6865 17.135 12.5265C16.425 12.4265 15.735 12.5365 15.095 12.8165C14.275 13.1765 13.895 13.8765 13.815 14.7365C13.755 15.2965 13.935 15.8265 14.195 16.3265C14.235 16.4065 14.285 16.5065 14.265 16.5865C14.225 16.7365 14.165 16.8965 14.075 17.0265C13.585 17.6665 13.445 18.4265 13.375 19.1965C13.335 19.5665 13.235 19.6765 12.865 19.6065C12.825 19.6065 12.775 19.5865 12.735 19.5765C12.225 19.4265 11.715 19.3665 11.185 19.5365C10.395 19.7865 9.83502 20.2765 9.57503 21.0665C9.47503 21.3665 9.42502 21.6865 9.37502 22.0065C9.31502 22.3665 9.14502 22.3865 8.89502 22.1965C8.59502 21.9665 8.27502 21.7965 7.90502 21.7165C7.46502 21.6265 7.02502 21.4765 6.57502 21.4765C5.87502 21.4765 5.23502 21.7365 4.73502 22.2565C4.57502 22.4265 4.41502 22.6165 4.32502 22.8365C3.88502 23.8465 3.96502 24.8465 4.47502 25.8265C4.57502 26.0065 4.62502 26.2265 4.63502 26.4265C4.66502 26.8265 4.63502 27.2265 4.63502 27.6365C4.62502 27.6365 4.61502 27.6365 4.59502 27.6365C4.63502 28.2265 4.64502 28.8265 4.71502 29.4165C4.83502 30.3865 5.24502 31.2365 5.88502 31.9765C6.26502 32.4165 6.70502 32.7965 7.20502 33.0865C7.60502 33.3265 8.02502 33.5665 8.46502 33.7065C9.16502 33.9265 9.89503 34.0965 10.615 34.2265C11.015 34.2965 11.445 34.2865 11.845 34.2265C12.265 34.1665 12.665 34.0065 13.075 33.8765C13.265 33.8165 13.395 33.8565 13.515 34.0165C13.665 34.2165 13.815 34.4265 13.985 34.6065C14.505 35.1665 15.175 35.4565 15.915 35.6165C16.395 35.7165 16.865 35.7665 17.345 35.6165C17.485 35.5765 17.625 35.5665 17.765 35.5265C17.975 35.4665 18.125 35.5265 18.265 35.7065C18.975 36.6365 20.445 37.1465 21.655 36.6565C21.935 36.5465 22.135 36.6065 22.335 36.8165C22.825 37.3265 23.385 37.7265 24.085 37.9065C24.705 38.0665 25.315 38.2665 25.955 38.0665C26.175 37.9965 26.345 38.0665 26.515 38.1765C26.655 38.2765 26.785 38.3865 26.925 38.4665C27.725 38.8965 28.565 39.0465 29.445 38.7665C29.605 38.7165 29.725 38.7465 29.845 38.8565C30.395 39.3565 31.005 39.7065 31.755 39.8565C32.255 39.9565 32.745 40.0665 33.255 39.9065C33.445 39.8465 33.645 39.8665 33.805 40.0065C34.335 40.4865 34.965 40.7365 35.655 40.9065C36.295 41.0665 36.905 41.0065 37.495 40.7765C37.855 40.6365 38.085 40.6865 38.345 40.9365C39.005 41.5665 39.755 42.0665 40.645 42.3165C41.275 42.4865 41.905 42.6465 42.535 42.7965C43.055 42.9165 43.575 42.9065 44.095 42.7465C44.395 42.6565 44.695 42.5765 45.005 42.4965C45.185 42.4465 45.325 42.4565 45.465 42.6365C45.675 42.9265 45.925 43.1965 46.185 43.4465C46.575 43.8265 47.095 43.9665 47.605 44.0865C48.245 44.2465 48.845 44.1165 49.425 43.8165C49.775 43.6365 49.835 43.6365 50.075 43.9565C50.095 43.9865 50.115 44.0165 50.135 44.0465C50.725 44.9965 51.675 45.3065 52.685 45.3565C53.465 45.3865 54.165 45.0465 54.635 44.3665C55.025 43.8065 55.125 43.1665 55.145 42.5265C55.175 41.2365 55.165 39.9465 55.145 38.6665C55.145 37.7865 54.945 36.9365 54.495 36.1665V36.1465ZM13.335 29.7265C13.345 29.9665 13.385 30.1965 13.405 30.4365C13.405 30.5565 13.405 30.6765 13.365 30.7965C13.315 31.0065 13.245 31.2065 13.195 31.4065C13.065 31.8765 12.675 32.1265 12.295 32.3565C12.095 32.4765 11.855 32.5565 11.615 32.5865C11.265 32.6165 10.905 32.6065 10.555 32.5665C10.325 32.5365 10.105 32.4265 9.87502 32.3665C9.66502 32.3165 9.45502 32.2965 9.25502 32.2365C9.04502 32.1765 8.84502 32.0865 8.64502 31.9965C8.58502 31.9665 8.54502 31.8665 8.48502 31.8365C8.32503 31.7465 8.15502 31.6965 8.00502 31.6065C7.82502 31.4865 7.64503 31.3565 7.49502 31.2065C7.33502 31.0465 7.23502 30.8065 7.05502 30.6865C6.88502 30.5765 6.86502 30.3865 6.73502 30.2665C6.71502 30.2465 6.70502 30.2165 6.69502 30.1865C6.57502 29.8665 6.40502 29.5565 6.34502 29.2265C6.28502 28.9165 6.21502 28.5865 6.35502 28.2665C6.35502 28.2465 6.34502 28.2265 6.33502 28.1965C6.32502 28.1065 6.30502 28.0065 6.30502 27.9165C6.30502 27.7265 6.34502 27.5365 6.35502 27.3465C6.35502 27.2165 6.30502 27.0965 6.30502 26.9665C6.30502 26.6665 6.27502 26.3665 6.30502 26.0665C6.33502 25.8265 6.27502 25.6065 6.26502 25.3765C6.26502 25.3465 6.26502 25.3165 6.23502 25.2965C5.83502 24.9965 5.70502 24.5665 5.67502 24.1065C5.65502 23.8165 5.75502 23.5665 6.00502 23.3365C6.31502 23.0565 6.63502 23.1465 6.95502 23.1565C7.44502 23.1765 7.82503 23.4565 8.16503 23.7565C8.31503 23.8865 8.40503 24.0965 8.47503 24.2865C8.55503 24.4765 8.58502 24.6765 8.63503 24.8765C8.63503 24.8865 8.63503 24.8965 8.63503 24.9165C8.62502 25.2565 8.59503 25.5965 8.59503 25.9265C8.59503 26.2765 8.61502 26.6265 8.62502 26.9765C8.62502 27.1365 8.59503 27.2865 8.58502 27.4465C8.58502 27.5165 8.59502 27.5965 8.60502 27.6665C8.60502 27.7265 8.62502 27.7865 8.62502 27.8465C8.62502 28.1465 8.62502 28.4465 8.62502 28.7565C8.62502 28.9565 8.57503 29.1665 8.59503 29.3665C8.61503 29.5465 8.67502 29.7265 8.75502 29.8765C8.87502 30.0765 8.99503 30.2865 9.23502 30.3965C9.48502 30.5065 9.71502 30.6465 10.005 30.6665C10.195 30.6665 10.385 30.7765 10.555 30.6665C10.695 30.5665 10.805 30.4165 10.915 30.2765C10.965 30.2065 10.995 30.1165 11.005 30.0365C11.005 29.9265 10.985 29.8165 10.985 29.7065C10.975 29.5365 10.965 29.3665 10.965 29.1865C10.965 29.1365 10.985 29.0965 11.005 29.0465C11.005 29.0165 11.045 28.9765 11.035 28.9665C10.915 28.7665 10.985 28.5465 10.985 28.3365C10.985 27.9765 10.965 27.6165 10.955 27.2565C10.955 27.1165 10.965 26.9665 10.975 26.8265C10.975 26.4565 10.995 26.0765 10.995 25.7065C10.995 25.5965 10.975 25.4965 10.975 25.3865C10.975 25.2365 10.975 25.0865 10.975 24.9365C10.975 24.8965 10.995 24.8565 10.995 24.8065C10.995 24.5165 11.025 24.2165 10.995 23.9265C10.945 23.2865 10.935 22.6465 11.015 22.0065C11.025 21.9265 11.005 21.8365 11.015 21.7565C11.125 21.2565 11.585 20.9765 12.075 21.1265C12.275 21.1865 12.495 21.2465 12.665 21.3665C13.035 21.6365 13.285 21.9865 13.275 22.4765C13.275 22.5265 13.305 22.5665 13.305 22.6165C13.375 22.9765 13.305 23.3265 13.295 23.6865C13.295 23.9965 13.315 24.3065 13.325 24.6165C13.325 24.7365 13.325 24.8465 13.325 24.9665C13.325 25.1865 13.365 25.4065 13.325 25.6165C13.295 25.8265 13.325 26.0265 13.335 26.2265C13.335 26.2565 13.275 26.2965 13.255 26.3165C13.315 26.5165 13.375 26.6865 13.285 26.8765C13.445 27.0965 13.135 27.3565 13.345 27.5765C13.355 27.5965 13.335 27.6465 13.335 27.6765C13.335 27.9565 13.335 28.2465 13.325 28.5265C13.325 28.7865 13.305 29.0365 13.295 29.2965C13.295 29.4365 13.265 29.5765 13.275 29.7165L13.335 29.7265ZM15.755 14.3365C15.755 14.3365 15.845 14.2965 15.895 14.2865C15.995 14.2565 16.085 14.2165 16.185 14.1965C16.235 14.1865 16.295 14.1965 16.355 14.1965C16.645 14.1865 16.925 14.1365 17.215 14.2465C17.345 14.2965 17.515 14.2665 17.655 14.2965C17.905 14.3365 18.145 14.3865 18.395 14.4465C18.625 14.4965 18.845 14.5565 19.065 14.6165C19.285 14.6765 19.495 14.7465 19.715 14.8065C20.045 14.8865 20.325 15.1165 20.685 15.1365C20.815 15.1365 20.925 15.2865 21.055 15.3665C21.105 15.3965 21.155 15.4165 21.205 15.4465C21.355 15.5365 21.505 15.6165 21.645 15.7165C21.745 15.7865 21.835 15.8665 21.935 15.9465C22.165 16.1565 22.285 16.4165 22.275 16.7065C22.275 16.8565 22.165 17.0265 22.075 17.1665C21.975 17.3265 21.795 17.3565 21.605 17.3665C21.415 17.3265 21.235 17.2765 21.045 17.2365C20.795 17.1865 20.555 17.0965 20.305 17.0265C20.025 16.9365 19.745 16.8865 19.465 16.8165C19.265 16.7665 19.055 16.7465 18.845 16.6965C18.715 16.6665 18.595 16.5865 18.465 16.5465C18.335 16.5065 18.185 16.4765 18.055 16.4365C17.635 16.3365 17.205 16.2365 16.785 16.1265C16.525 16.0565 16.255 15.9865 16.015 15.8665C15.765 15.7465 15.615 15.5165 15.495 15.2565C15.305 14.8665 15.505 14.6065 15.745 14.3465L15.755 14.3365ZM21.465 30.4365C21.415 30.6165 21.465 30.8265 21.465 31.0165C21.465 31.3265 21.455 31.6365 21.455 31.9465C21.455 32.2165 21.475 32.4765 21.475 32.7465C21.475 33.1065 21.425 33.4765 21.455 33.8365C21.485 34.1065 21.435 34.3565 21.375 34.6065C21.325 34.8365 20.985 35.1265 20.725 35.1665C20.705 35.1665 20.675 35.1665 20.655 35.1665C20.445 35.1065 20.225 35.0765 20.025 34.9865C19.895 34.9265 19.795 34.7865 19.675 34.6965C19.445 34.5165 19.305 34.2465 19.275 33.9865C19.255 33.8265 19.135 33.6565 19.275 33.4465C19.355 33.3265 19.275 33.0865 19.265 32.9065C19.265 32.7265 19.265 32.5465 19.265 32.3665C19.265 31.9165 19.205 31.7265 18.765 31.5065C18.685 31.4665 18.615 31.4165 18.545 31.3665C18.465 31.2965 18.345 31.2965 18.305 31.2665C18.185 31.1665 18.055 31.2165 17.935 31.1865C17.505 31.0565 17.255 31.1465 17.015 31.5265C16.985 31.5765 16.975 31.6565 17.005 31.7065C17.105 31.9065 17.235 32.0865 17.335 32.2865C17.425 32.4765 17.515 32.6665 17.555 32.8665C17.585 33.0065 17.595 33.1565 17.575 33.3165C17.535 33.6265 17.265 33.9065 17.005 33.9665C16.825 34.0165 16.625 34.0765 16.455 34.0365C16.155 33.9665 15.875 33.8365 15.585 33.7165C15.495 33.6765 15.415 33.6065 15.325 33.5465C15.085 33.3965 15.015 33.1265 14.865 32.9165C14.775 32.7965 14.765 32.6065 14.765 32.4565C14.755 31.9465 14.755 31.4265 14.765 30.9165C14.765 30.5965 14.855 30.2965 15.015 29.9965C15.175 29.7065 15.455 29.6165 15.705 29.4865C16.005 29.3365 16.335 29.2765 16.675 29.3365C16.955 29.3865 17.245 29.3965 17.525 29.4465C17.705 29.4865 17.885 29.5565 18.055 29.6365C18.335 29.7665 18.605 29.9265 18.885 30.0465C18.975 30.0865 19.165 30.1065 19.205 30.0465C19.275 29.9465 19.275 29.7965 19.275 29.6665C19.275 29.5565 19.215 29.4365 19.235 29.3365C19.265 29.0765 19.065 28.9265 18.975 28.7365C18.925 28.6265 18.745 28.5665 18.615 28.4865C18.435 28.3665 18.215 28.3165 18.025 28.2365C17.795 28.1365 17.535 28.2465 17.355 28.0665C17.205 28.1465 17.055 28.0465 16.885 28.1365C16.675 28.2465 16.395 28.2365 16.145 28.2765C16.095 28.2765 16.055 28.2765 16.005 28.2865C15.845 28.3165 15.705 28.2865 15.545 28.2565C15.305 28.1965 15.145 28.0665 14.965 27.9365C14.915 27.8965 14.885 27.8265 14.855 27.7665C14.845 27.7465 14.855 27.7165 14.835 27.6965C14.555 27.3965 14.715 27.1165 14.875 26.8265C15.005 26.5865 15.225 26.4765 15.455 26.3965C15.725 26.3065 15.995 26.2465 16.275 26.1865C16.355 26.1665 16.455 26.2165 16.535 26.2265C16.585 26.2265 16.635 26.1965 16.685 26.1765C16.835 26.2065 16.985 26.2465 17.145 26.2665C17.365 26.2965 17.595 26.2965 17.815 26.3465C18.055 26.3965 18.295 26.4765 18.525 26.5565C18.835 26.6565 19.145 26.7465 19.435 26.8765C19.625 26.9565 19.795 27.0965 19.955 27.2265C20.145 27.3865 20.325 27.5565 20.505 27.7265C20.595 27.8065 20.705 27.8865 20.765 27.9865C21.035 28.3765 21.285 28.7765 21.405 29.2465C21.465 29.4665 21.525 29.6965 21.465 29.8865C21.405 30.0965 21.555 30.2565 21.495 30.4565L21.465 30.4365ZM22.645 19.4265C22.445 19.6065 22.195 19.7265 22.095 19.9565C22.095 20.0365 22.105 20.1265 22.115 20.2065C22.115 20.2265 22.115 20.2465 22.125 20.2565C22.275 20.4665 22.245 20.7165 22.315 20.9465C22.355 21.0965 22.335 21.2665 22.335 21.4165C22.335 21.7865 22.335 22.1465 22.325 22.5165C22.325 22.7665 22.305 23.0165 22.305 23.2665C22.305 23.5265 22.325 23.7865 22.335 24.0565C22.335 24.3665 22.335 24.6765 22.335 24.9765C22.335 25.1865 22.295 25.3865 22.285 25.5965C22.285 25.7665 22.305 25.9365 22.285 26.0965C22.285 26.1765 22.225 26.2465 22.185 26.3265C22.025 26.6665 21.785 26.8665 21.355 26.7965C21.055 26.7565 20.785 26.6665 20.535 26.5065C20.345 26.3865 20.245 26.2065 20.125 26.0165C19.985 25.7865 19.955 25.5465 19.925 25.3065C19.905 25.0965 19.915 24.8765 19.915 24.6565C19.915 24.3565 19.915 24.0565 19.915 23.7565C19.915 23.3765 19.905 22.9965 19.915 22.6065C19.915 22.4365 19.945 22.2665 19.945 22.0965C19.945 21.8565 19.915 21.6265 19.905 21.3865C19.905 21.2265 19.925 21.0665 19.925 20.8965C19.925 20.6965 19.935 20.4865 19.885 20.2965C19.805 20.0465 19.705 19.7865 19.545 19.5765C19.425 19.4065 19.225 19.2965 19.045 19.1865C18.795 19.0365 18.495 19.0065 18.215 18.9365C18.145 18.9165 18.055 18.9765 17.975 18.9965C17.675 19.0865 17.505 19.2765 17.475 19.5965C17.465 19.7565 17.455 19.9065 17.445 20.0665C17.445 20.3265 17.445 20.5765 17.445 20.8365C17.445 20.9365 17.485 21.0465 17.515 21.1665C17.705 21.0665 17.915 21.1065 18.055 20.9565C18.055 20.9565 18.085 20.9565 18.095 20.9565C18.385 21.0365 18.705 21.0365 18.955 21.2865C19.115 21.4465 19.255 21.5865 19.325 21.8065C19.385 21.9765 19.465 22.1465 19.425 22.3465C19.395 22.4765 19.435 22.6165 19.395 22.7465C19.325 22.9465 19.255 23.1665 19.125 23.3365C18.975 23.5365 18.555 23.5065 18.375 23.3365C18.325 23.2865 18.245 23.2565 18.195 23.1965C18.075 23.0865 17.955 22.9765 17.935 22.7865C17.935 22.7265 17.825 22.6265 17.775 22.6265C17.695 22.6265 17.575 22.6565 17.615 22.8165C17.635 22.8865 17.565 22.9765 17.535 23.0565C17.425 23.3365 17.445 23.6165 17.475 23.9065C17.505 24.1565 17.455 24.4165 17.425 24.6765C17.425 24.7665 17.375 24.8565 17.355 24.9465C17.285 25.2665 17.035 25.4365 16.775 25.5165C16.595 25.5765 16.355 25.4865 16.135 25.4565C15.865 25.4265 15.665 25.2665 15.485 25.0765C15.365 24.9565 15.255 24.8065 15.205 24.6465C15.105 24.3665 15.065 24.0565 14.995 23.7665C14.995 23.7565 14.975 23.7465 14.985 23.7365C15.115 23.4365 15.005 23.1065 15.065 22.7965C15.105 22.6065 15.005 22.3965 15.035 22.2065C15.065 22.0165 14.935 21.8365 15.035 21.6265C15.105 21.4965 15.025 21.2865 15.035 21.1165C15.035 20.9065 15.065 20.6865 15.065 20.4765C15.065 20.2465 15.045 20.0065 15.045 19.7765C15.045 19.4565 15.035 19.1365 15.045 18.8065C15.045 18.6865 15.135 18.5765 15.165 18.4565C15.275 18.1065 15.545 17.8765 15.775 17.6265C15.865 17.5265 16.005 17.4665 16.135 17.4265C16.605 17.2465 17.105 17.1665 17.605 17.1865C17.895 17.1965 18.175 17.3065 18.465 17.3665C18.525 17.3765 18.575 17.3665 18.635 17.3865C18.685 17.3865 18.735 17.3865 18.775 17.4065C18.835 17.4265 18.905 17.4365 18.955 17.4665C19.015 17.4965 19.055 17.5465 19.085 17.5665C19.165 17.5665 19.225 17.5665 19.285 17.5865C19.455 17.6465 19.635 17.7165 19.795 17.7865C19.955 17.8565 20.105 17.9665 20.275 18.0265C20.365 18.0565 20.475 18.0465 20.565 18.0265C20.795 17.9665 21.015 17.8965 21.235 17.8265C21.245 17.8265 21.255 17.8265 21.265 17.8065C21.465 17.5365 21.725 17.6165 22.005 17.6565C22.215 17.6865 22.395 17.7865 22.545 17.8865C22.785 18.0365 22.975 18.2865 22.965 18.5765C22.965 18.8765 22.925 19.1865 22.645 19.4365V19.4265ZM29.285 34.0065C29.405 34.1665 29.315 34.3365 29.305 34.4965C29.285 34.8165 29.395 35.1465 29.265 35.4665C29.255 35.4965 29.325 35.5465 29.315 35.5965C29.315 35.6865 29.315 35.7765 29.315 35.8665C29.315 35.9965 29.315 36.1165 29.315 36.2465C29.315 36.3265 29.315 36.4165 29.315 36.4965C29.315 36.6865 29.205 36.8265 29.075 36.9565C28.965 37.0765 28.865 37.1965 28.695 37.2065C28.475 37.2265 28.265 37.2365 28.075 37.1165C27.945 37.0365 27.795 36.9865 27.665 36.9065C27.595 36.8665 27.515 36.8165 27.485 36.7565C27.385 36.5665 27.295 36.3665 27.235 36.1565C27.185 35.9665 27.185 35.7565 27.165 35.5565C27.155 35.4265 27.145 35.2965 27.145 35.1665C27.145 34.9665 27.155 34.7665 27.155 34.5665C27.155 34.2565 27.125 33.9365 27.125 33.6265C27.125 33.1365 27.125 32.6565 27.145 32.1665C27.145 31.9565 27.165 31.7565 27.165 31.5465C27.165 31.4865 27.115 31.4265 27.095 31.3565C27.075 31.2965 27.065 31.2265 27.055 31.1665C27.055 31.1365 27.055 31.0965 27.045 31.0865C26.835 30.8465 26.645 30.5565 26.385 30.3965C26.145 30.2565 25.825 30.2465 25.545 30.1865C25.505 30.1865 25.465 30.2365 25.415 30.2565C25.155 30.3865 24.985 30.5865 24.955 30.8765C24.935 31.0065 25.015 31.1665 24.975 31.2865C24.885 31.5565 25.015 31.8265 24.945 32.1065C24.895 32.3065 24.985 32.5265 24.985 32.7465C24.985 32.9865 24.965 33.2165 24.955 33.4565C24.955 33.5265 24.995 33.5965 24.995 33.6765C24.995 33.8165 24.985 33.9565 24.985 34.0965C24.985 34.2365 24.975 34.3765 25.005 34.5165C25.035 34.6465 25.085 34.7765 25.165 34.8765C25.245 34.9765 25.365 35.0665 25.485 35.0865C25.525 35.0865 25.625 34.9265 25.675 34.8265C25.785 34.5865 25.635 34.4365 25.515 34.2365C25.355 33.9865 25.235 33.6965 25.335 33.3765C25.365 33.2765 25.335 33.1565 25.355 33.0465C25.435 32.6265 25.625 32.5165 26.025 32.4865C26.145 32.4865 26.295 32.5865 26.405 32.6765C26.675 32.8965 26.815 33.1865 26.825 33.5465C26.825 33.5965 26.855 33.6365 26.865 33.6865C26.885 33.8065 26.935 33.9165 26.865 34.0565C26.805 34.1865 26.845 34.3765 26.815 34.5265C26.765 34.7765 26.695 35.0265 26.625 35.2765C26.585 35.4165 26.545 35.5465 26.505 35.6865C26.495 35.7165 26.445 35.7365 26.425 35.7765C26.365 35.8565 26.305 35.9365 26.255 36.0165C26.255 36.0165 26.265 36.0165 26.275 36.0165C26.155 36.1265 26.045 36.2365 25.925 36.3365C25.895 36.3565 25.845 36.3865 25.815 36.3765C25.665 36.3265 25.565 36.3765 25.475 36.4665C25.315 36.4465 25.165 36.4465 25.015 36.4065C24.725 36.3265 24.405 36.2765 24.165 36.1165C23.915 35.9465 23.595 35.8165 23.505 35.4765C23.295 35.4565 23.315 35.2365 23.195 35.1265C23.085 35.0265 23.045 34.8265 22.995 34.6565C22.925 34.4365 22.865 34.2165 22.815 33.9865C22.795 33.9165 22.835 33.8265 22.835 33.7465C22.835 33.4765 22.855 33.1965 22.845 32.9265C22.845 32.7165 22.815 32.5165 22.815 32.3065C22.815 31.9865 22.855 31.6665 22.835 31.3565C22.835 31.2065 22.905 31.0465 22.795 30.9165C22.795 30.9065 22.785 30.8765 22.795 30.8665C22.955 30.6865 22.805 30.4965 22.825 30.3165C22.845 30.1565 22.865 29.9865 22.915 29.8265C23.005 29.5465 23.125 29.2665 23.385 29.0965C23.705 28.8765 24.045 28.6665 24.445 28.6065C24.605 28.5865 24.775 28.4965 24.945 28.6065C25.015 28.6465 25.125 28.6065 25.215 28.6065C25.545 28.6665 25.885 28.7265 26.215 28.7865C26.275 28.7965 26.325 28.8465 26.385 28.8665C26.445 28.8865 26.515 28.8965 26.585 28.9165C26.675 28.9465 26.765 28.9665 26.855 29.0065C27.165 29.1565 27.465 29.2965 27.765 29.4665C27.835 29.5065 27.875 29.5965 27.925 29.6565C27.945 29.6765 27.975 29.7065 27.995 29.7165C28.165 29.7265 28.225 29.8865 28.325 29.9765C28.515 30.1565 28.695 30.3365 28.875 30.5265C28.885 30.5365 28.895 30.5565 28.905 30.5765C28.955 30.7165 29.005 30.8665 29.065 31.0065C29.135 31.1565 29.235 31.3065 29.285 31.4565C29.335 31.6165 29.345 31.7865 29.355 31.9465C29.375 32.3165 29.395 32.6965 29.395 33.0665C29.395 33.2365 29.365 33.4065 29.345 33.5765C29.345 33.6065 29.325 33.6365 29.325 33.6665C29.325 33.7765 29.475 33.8965 29.325 34.0065H29.285ZM29.465 25.6765C29.465 25.9665 29.455 26.2665 29.455 26.5565C29.455 26.7365 29.455 26.9165 29.475 27.0965C29.475 27.2065 29.505 27.3265 29.495 27.4365C29.495 27.6765 29.485 27.9065 29.465 28.1465C29.405 28.7565 28.945 28.8565 28.525 28.7865C28.325 28.7465 28.125 28.6565 27.945 28.4965C27.515 28.1265 27.505 27.6565 27.505 27.1765C27.505 26.9665 27.565 26.7565 27.555 26.5565C27.545 26.1265 27.405 25.7765 26.975 25.5765C26.645 25.4265 26.295 25.3765 25.935 25.4365C25.825 25.4565 25.655 25.5565 25.635 25.6365C25.605 25.7865 25.565 25.9665 25.715 26.1165C25.825 26.2265 25.935 26.3365 26.005 26.4665C26.065 26.5565 26.075 26.6765 26.085 26.7865C26.095 26.8665 26.085 26.9465 26.085 27.0265V27.0465C26.085 27.1065 26.105 27.1765 26.085 27.2265C26.015 27.4165 25.955 27.6265 25.745 27.7365C25.565 27.8365 25.385 27.8265 25.185 27.8365C24.765 27.8365 24.445 27.6265 24.115 27.4365C24.035 27.3865 23.985 27.2765 23.935 27.1865C23.855 27.0365 23.785 26.8665 23.705 26.7165C23.685 26.6865 23.635 26.6665 23.595 26.6465C23.615 26.6465 23.635 26.6265 23.645 26.6265C23.645 26.5365 23.645 26.4365 23.645 26.3465C23.645 26.2265 23.655 26.1165 23.645 25.9965C23.625 25.4965 23.555 24.9865 23.745 24.5065C23.795 24.3765 23.905 24.2665 23.995 24.1565C24.155 23.9665 24.395 23.9465 24.605 23.8565C24.855 23.7465 25.095 23.8565 25.335 23.8165C25.665 23.7465 25.925 23.9165 26.215 23.9865C26.565 24.0665 26.885 24.2065 27.175 24.4165C27.265 24.4765 27.485 24.4165 27.495 24.3165C27.505 24.1665 27.485 24.0165 27.465 23.8665C27.465 23.8365 27.435 23.8065 27.435 23.7865C27.485 23.6165 27.335 23.5365 27.275 23.4165C27.145 23.1465 26.845 23.1265 26.685 22.9165C26.655 22.8865 26.555 22.9165 26.495 22.8965C26.225 22.8465 25.955 22.7565 25.675 22.7565C25.405 22.7565 25.135 22.8165 24.865 22.8765C24.525 22.9565 24.225 22.8765 23.925 22.7065C23.625 22.5365 23.535 22.2865 23.535 21.9865C23.535 21.8565 23.535 21.6465 23.755 21.6165C23.765 21.6165 23.785 21.6065 23.785 21.5965C23.895 21.3465 24.125 21.2865 24.355 21.2265C24.455 21.1965 24.545 21.1265 24.645 21.1065C24.955 21.0465 25.255 21.0765 25.565 21.1065C25.685 21.1265 25.845 21.0465 25.925 21.1065C26.075 21.2065 26.235 21.2165 26.405 21.2465C26.545 21.2665 26.675 21.3165 26.815 21.3465C27.145 21.4265 27.445 21.5565 27.725 21.7565C27.825 21.8265 27.945 21.8865 28.055 21.9465C28.225 22.0365 28.355 22.1565 28.475 22.3165C28.535 22.3965 28.635 22.4465 28.705 22.5265C28.895 22.7365 29.075 22.9565 29.145 23.2565C29.205 23.4965 29.355 23.7165 29.425 23.9465C29.465 24.0665 29.455 24.2065 29.445 24.3365C29.445 24.5665 29.415 24.8065 29.405 25.0365C29.405 25.2565 29.415 25.4665 29.415 25.6865L29.465 25.6765ZM51.495 28.5565C51.495 28.3565 51.495 28.1365 51.695 28.0065C51.745 27.9765 51.815 27.9465 51.865 27.9565C52.115 28.0265 52.365 28.1065 52.615 28.1765C52.745 28.2165 52.895 28.2265 53.025 28.2765C53.105 28.3065 53.195 28.3865 53.225 28.4665C53.265 28.5565 53.255 28.7465 53.235 28.7565C53.105 28.7965 52.955 28.8065 52.815 28.7865C52.665 28.7665 52.515 28.7065 52.365 28.6765C52.255 28.6565 52.155 28.6765 52.145 28.8065C52.145 28.9265 52.065 29.0465 52.265 29.1265C52.515 29.2165 52.805 29.2765 53.005 29.4865C53.045 29.5265 53.065 29.6165 53.055 29.6765C53.055 29.7165 52.975 29.7465 52.935 29.7765C52.685 29.8865 52.455 29.7765 52.215 29.7165C52.065 29.8565 52.085 30.0265 52.165 30.1765C52.195 30.2465 52.275 30.3265 52.345 30.3465C52.525 30.4065 52.715 30.4265 52.895 30.4765C53.195 30.5665 53.245 30.6265 53.255 30.9465C53.175 30.9865 53.105 31.0265 53.025 31.0565C52.995 31.0665 52.955 31.0865 52.935 31.0765C52.755 30.8965 52.475 30.9865 52.265 30.8565C52.115 30.7665 51.895 30.7565 51.725 30.6665C51.525 30.5565 51.535 30.3765 51.515 30.2065C51.495 30.0365 51.535 29.8665 51.525 29.6865C51.525 29.3065 51.505 28.9265 51.505 28.5565H51.495ZM49.425 27.8065C49.465 27.7065 49.405 27.5965 49.515 27.4965C49.615 27.4065 49.725 27.3865 49.835 27.4065C50.085 27.4565 50.315 27.5665 50.575 27.6065C50.765 27.6365 50.945 27.7865 51.125 27.8965C51.165 27.9265 51.205 28.0365 51.185 28.0665C51.125 28.1365 51.045 28.1765 50.965 28.2265C50.935 28.2465 50.895 28.2265 50.855 28.2265C50.855 28.2265 50.855 28.2365 50.855 28.2465C50.685 28.2065 50.515 28.1765 50.345 28.1165C50.185 28.0665 50.085 28.1165 50.015 28.2865C49.955 28.4465 50.045 28.5165 50.175 28.5565C50.375 28.6265 50.585 28.6765 50.785 28.7465C50.915 28.7965 51.025 29.0865 50.925 29.1465C50.825 29.2065 50.685 29.2165 50.565 29.2265C50.425 29.2265 50.315 29.0665 50.155 29.1865C50.115 29.2165 50.025 29.2165 50.015 29.2365C49.995 29.3365 49.975 29.4565 50.015 29.5465C50.075 29.6865 50.185 29.7865 50.365 29.7665C50.435 29.7665 50.515 29.8365 50.595 29.8565C50.755 29.9165 50.915 29.9665 51.085 30.0165C51.195 30.0465 51.245 30.1165 51.215 30.2265C51.185 30.2965 51.125 30.3765 51.055 30.3965C50.855 30.4465 50.665 30.4365 50.465 30.3465C50.275 30.2665 50.075 30.2265 49.865 30.1865C49.515 30.1165 49.385 29.8865 49.415 29.5365C49.445 29.2165 49.395 28.8965 49.395 28.5765C49.395 28.3165 49.315 28.0465 49.425 27.7865V27.8065ZM49.915 30.6765C49.985 30.7065 50.055 30.7265 50.125 30.7365C50.375 30.7865 50.645 30.8065 50.885 30.9065C51.085 30.9865 51.345 30.9665 51.455 31.1965C51.485 31.2665 51.515 31.3465 51.515 31.4165C51.515 31.4465 51.425 31.4965 51.365 31.5065C51.225 31.5365 51.085 31.5465 50.935 31.5565C50.935 31.5365 50.935 31.5265 50.935 31.5065C50.745 31.5565 50.745 31.7265 50.735 31.8665C50.715 32.0765 50.725 32.2865 50.735 32.4965C50.735 32.7465 50.775 32.9965 50.735 33.2365C50.725 33.3365 50.585 33.4565 50.475 33.4965C50.355 33.5365 50.165 33.3265 50.165 33.2165C50.165 33.0765 50.165 32.9365 50.165 32.7965C50.165 32.6365 50.165 32.4765 50.175 32.3165C50.175 32.2965 50.185 32.2765 50.175 32.2665C50.045 32.0265 50.155 31.7665 50.155 31.5265C50.155 31.3565 49.935 31.1965 49.775 31.1865C49.655 31.1865 49.545 31.0865 49.435 31.0165C49.385 30.9865 49.365 30.9165 49.325 30.8465C49.435 30.6165 49.625 30.5565 49.905 30.6965L49.915 30.6765ZM49.015 32.4265C49.095 32.5865 49.155 32.7565 49.195 32.9265C49.225 33.0265 49.175 33.1165 49.045 33.1465C48.935 33.1665 48.865 33.1465 48.795 33.0465C48.645 32.8365 48.495 32.6465 48.415 32.3965C48.355 32.2065 48.215 32.0465 47.975 32.0265C47.875 32.0265 47.725 32.1465 47.725 32.2465C47.725 32.3465 47.755 32.4465 47.725 32.5365C47.685 32.6265 47.585 32.6865 47.545 32.7365C47.075 32.6365 47.165 32.2965 47.155 32.0265C47.145 31.6365 47.185 31.2465 47.195 30.8565C47.195 30.7265 47.195 30.5965 47.195 30.4765C47.175 30.2965 47.245 30.1465 47.395 30.0965C47.505 30.0565 47.645 30.0965 47.775 30.1165C47.965 30.1565 48.155 30.2565 48.355 30.2665C48.615 30.2665 48.725 30.4765 48.915 30.5865C49.265 30.7865 49.305 31.1165 49.255 31.4865C49.225 31.7065 49.165 31.8765 49.035 32.0465C48.935 32.1765 48.965 32.3065 49.035 32.4465L49.015 32.4265ZM47.385 26.8465C47.385 26.8465 47.415 26.8565 47.425 26.8465C47.675 26.6565 47.855 26.9365 48.075 26.9465C48.175 26.9465 48.265 27.0165 48.365 27.0465C48.815 27.1865 49.045 27.5465 49.165 27.9565C49.225 28.1765 49.215 28.4565 49.005 28.6665C48.795 28.8765 48.805 28.9565 48.935 29.2165C48.985 29.3265 49.015 29.4465 49.065 29.5665C49.115 29.7065 49.065 29.7965 48.935 29.8465C48.815 29.8965 48.725 29.8765 48.635 29.7665C48.505 29.6065 48.415 29.4365 48.375 29.2265C48.345 29.0665 48.095 28.7965 47.985 28.7865C47.785 28.7665 47.685 28.8565 47.655 29.0465C47.635 29.1965 47.585 29.3365 47.545 29.4865C47.135 29.3665 47.065 29.2365 47.115 28.8665C47.135 28.7465 47.095 28.6165 47.095 28.4865C47.095 28.2865 47.125 28.0965 47.115 27.8965C47.115 27.6665 47.095 27.4265 47.055 27.1965C47.015 26.9665 47.165 26.7765 47.395 26.8165L47.385 26.8465ZM45.235 27.2365C45.235 27.0165 45.235 26.7965 45.235 26.5765C45.235 26.4565 45.485 26.2865 45.625 26.3265C45.985 26.4165 46.345 26.4965 46.685 26.6265C46.785 26.6665 46.865 26.8765 46.885 27.0165C46.895 27.1265 46.645 27.1665 46.485 27.1165C46.325 27.0565 46.165 26.9865 45.975 27.0265C45.845 27.0565 45.805 27.1165 45.845 27.2365C45.885 27.3565 45.875 27.5165 46.085 27.4965C46.145 27.5265 46.205 27.5565 46.265 27.5765C46.355 27.6065 46.465 27.6265 46.555 27.6765C46.695 27.7565 46.735 27.9765 46.605 28.1065C46.545 28.1665 46.395 28.1365 46.275 28.1365C46.185 28.1365 46.085 28.1065 46.005 28.1365C45.825 28.1865 45.785 28.3365 45.815 28.5065C45.835 28.6465 45.815 28.7565 45.745 28.8865C45.665 29.0165 45.555 29.0465 45.475 29.0165C45.385 28.9765 45.275 28.8565 45.265 28.7665C45.235 28.4665 45.265 28.1665 45.265 27.8565C45.265 27.6565 45.265 27.4565 45.265 27.2565L45.235 27.2365ZM38.925 25.1465C38.945 25.0165 38.985 24.8765 39.145 24.8365C39.155 24.8365 39.165 24.8265 39.175 24.8165C39.465 24.4765 39.805 24.5665 40.165 24.6865C40.285 24.7265 40.405 24.7565 40.515 24.7765C40.775 24.8265 40.835 25.0765 40.975 25.2465C41.145 25.4465 41.265 25.6365 41.565 25.7065C41.945 25.7965 42.295 26.0065 42.655 26.1665C42.745 26.2065 42.865 26.1965 42.945 26.2565C43.145 26.3965 43.385 26.5165 43.525 26.7065C43.675 26.9265 43.845 27.1665 43.715 27.5065C43.645 27.6865 43.575 27.8265 43.395 27.8965C43.295 27.9365 43.165 27.9565 43.055 27.9465C42.885 27.9365 42.725 27.8865 42.555 27.8465C42.365 27.8065 42.165 27.7665 41.975 27.7165C41.775 27.6565 41.595 27.5765 41.395 27.5165C41.135 27.4465 40.865 27.4065 40.605 27.3365C40.465 27.2965 40.325 27.2265 40.185 27.1865C40.015 27.1365 39.825 27.1265 39.675 27.0465C39.445 26.9365 39.185 26.8365 39.065 26.5665C39.045 26.5165 38.985 26.4965 38.945 26.4565C38.945 26.4565 38.965 26.4365 38.975 26.4265C38.945 26.3165 38.915 26.2165 38.895 26.1065C38.885 26.0365 38.865 25.9765 38.865 25.9065C38.875 25.6465 38.885 25.3965 38.915 25.1365L38.925 25.1465ZM43.795 30.6065C43.785 30.7265 43.785 30.8065 43.765 30.8865C43.695 31.1265 43.435 31.4365 43.115 31.3465C42.925 31.2965 42.725 31.3165 42.535 31.2765C42.335 31.2365 42.135 31.1665 41.945 31.1065C41.835 31.0765 41.735 31.0365 41.645 31.0065C41.495 30.9765 41.365 30.9665 41.245 30.9365C41.115 30.8965 40.995 30.8165 40.865 30.8065C40.675 30.7965 40.515 30.7465 40.345 30.6565C40.175 30.5765 39.985 30.5565 39.805 30.5065C39.715 30.4765 39.615 30.4665 39.535 30.4165C39.235 30.2065 38.975 29.9965 38.915 29.5865C38.865 29.2365 38.865 28.8965 38.965 28.5765C39.095 28.1265 39.575 27.9565 39.985 28.0465C40.255 28.1065 40.475 28.2665 40.725 28.3665C40.765 28.3865 40.815 28.4265 40.835 28.4565C40.955 28.6265 41.065 28.8165 41.205 28.9765C41.285 29.0665 41.405 29.1265 41.525 29.1665C41.795 29.2665 42.085 29.3365 42.355 29.4365C42.815 29.6165 43.245 29.8265 43.585 30.2165C43.705 30.3465 43.605 30.5765 43.795 30.6165V30.6065ZM33.595 37.2365C33.545 37.4665 33.535 37.7265 33.415 37.9065C33.275 38.1165 33.055 38.2965 32.755 38.2865C32.705 38.2865 32.655 38.3065 32.615 38.2965C32.455 38.2865 32.295 38.2665 32.135 38.2365C32.045 38.2165 31.955 38.1765 31.865 38.1465C31.715 38.0865 31.505 38.1165 31.425 37.9165C31.425 37.8965 31.405 37.8765 31.385 37.8765C31.065 37.8165 30.975 37.5065 30.815 37.2965C30.705 37.1465 30.675 36.9265 30.615 36.7465C30.625 36.7465 30.645 36.7465 30.655 36.7365C30.635 36.6465 30.615 36.5565 30.595 36.4665C30.585 36.4165 30.555 36.3365 30.585 36.3065C30.735 36.1465 30.605 35.9665 30.615 35.7965C30.615 35.5965 30.615 35.3965 30.615 35.2065C30.615 35.0865 30.635 34.9665 30.625 34.8465C30.615 34.5665 30.595 34.2765 30.575 33.9965C30.575 33.9265 30.595 33.8465 30.595 33.7765C30.605 33.4465 30.625 33.1065 30.625 32.7765C30.625 32.4465 30.595 32.1065 30.595 31.7765C30.595 31.5165 30.665 31.2565 30.605 31.0165C30.555 30.8065 30.675 30.6665 30.685 30.4865C30.705 30.1265 31.255 29.8065 31.605 29.9265C31.865 30.0165 32.135 30.1165 32.365 30.2665C32.515 30.3665 32.605 30.5665 32.715 30.7365C32.755 30.8065 32.775 30.8865 32.815 30.9565C32.925 31.1865 32.955 31.4265 32.895 31.6865C32.875 31.7565 32.925 31.8465 32.925 31.9265C32.925 32.1365 32.895 32.3465 32.925 32.5665C32.955 32.7865 32.895 33.0065 32.895 33.2265C32.895 33.4365 32.915 33.6465 32.915 33.8665C32.915 34.0965 32.885 34.3265 32.885 34.5565C32.885 34.7965 32.915 35.0465 32.915 35.2865C32.915 35.4565 32.875 35.6265 32.895 35.7965C32.915 36.0165 32.985 36.1965 33.165 36.3565C33.285 36.4565 33.335 36.6365 33.415 36.7865C33.465 36.8865 33.505 37.0065 33.545 37.1165C33.565 37.1665 33.585 37.2165 33.575 37.2565L33.595 37.2365ZM37.315 38.4565C37.255 38.6165 37.275 38.7865 37.145 38.9465C36.975 39.1565 36.725 39.3265 36.465 39.3165C36.215 39.3065 35.955 39.3065 35.715 39.2065C35.505 39.1165 35.265 39.0765 35.105 38.8765C34.995 38.7365 34.865 38.6065 34.735 38.4665C34.525 38.2565 34.465 37.9865 34.445 37.7165C34.425 37.4865 34.455 37.2565 34.445 37.0365C34.435 36.7665 34.395 36.4965 34.385 36.2165C34.385 36.1465 34.415 36.0765 34.425 36.0065C34.415 36.0065 34.405 36.0065 34.385 36.0065C34.385 35.9165 34.385 35.8165 34.395 35.7265C34.395 35.6165 34.405 35.4965 34.405 35.3865C34.405 35.3265 34.405 35.2665 34.405 35.1965C34.405 34.9265 34.405 34.6565 34.405 34.3865C34.405 34.1265 34.385 33.8565 34.405 33.5965C34.435 33.3265 34.435 33.0565 34.415 32.7865C34.405 32.6265 34.415 32.4765 34.415 32.3165C34.415 32.0765 34.415 31.8365 34.435 31.6065C34.445 31.4865 34.545 31.3865 34.595 31.2765C34.625 31.2265 34.645 31.1765 34.655 31.1565C34.755 31.0865 34.835 31.0265 34.915 30.9765C34.935 30.9665 34.955 30.9365 34.975 30.9365C35.265 30.9365 35.565 30.9065 35.815 31.0665C36.055 31.2165 36.265 31.4165 36.465 31.6165C36.525 31.6765 36.535 31.7965 36.565 31.8865C36.565 31.8965 36.565 31.9165 36.565 31.9265C36.775 32.1465 36.675 32.4365 36.695 32.6865C36.715 32.9665 36.685 33.2565 36.685 33.5465C36.685 33.8365 36.705 34.1265 36.715 34.4165C36.715 34.6065 36.695 34.7965 36.695 34.9865C36.695 35.2565 36.715 35.5365 36.715 35.8065C36.715 36.1565 36.695 36.5065 36.685 36.8565C36.685 36.9165 36.705 36.9965 36.735 37.0465C36.825 37.1865 36.855 37.3565 37.025 37.4465C37.105 37.4865 37.145 37.6165 37.185 37.7065C37.285 37.9565 37.385 38.2165 37.285 38.4765L37.315 38.4565ZM37.905 22.8065C37.795 23.2465 37.925 23.6965 37.885 24.1365C37.865 24.3765 37.845 24.6165 37.845 24.8465C37.845 24.9765 37.885 25.1065 37.885 25.2365C37.885 25.5665 37.845 25.8965 37.835 26.2265C37.835 26.6765 37.835 27.1265 37.855 27.5765C37.855 27.7965 37.915 28.0265 37.875 28.2365C37.835 28.4465 37.915 28.6465 37.885 28.8365C37.855 29.0665 37.725 29.2765 37.655 29.5065C37.595 29.7065 37.465 29.8665 37.325 30.0165C37.215 30.1265 37.095 30.2265 36.965 30.3165C36.595 30.5665 36.145 30.5765 35.725 30.6565C35.525 30.6965 35.305 30.6265 35.095 30.5765C34.535 30.4365 33.975 30.3065 33.425 30.1265C33.135 30.0265 32.905 29.7565 32.615 29.6865C32.315 29.6065 32.185 29.3765 31.985 29.2165C31.785 29.0665 31.565 28.9165 31.465 28.6465C31.385 28.4465 31.225 28.2665 31.115 28.0765C31.085 28.0265 31.095 27.9665 31.085 27.9065C31.085 27.9065 31.065 27.9065 31.055 27.9065C30.995 27.7565 30.885 27.6065 30.865 27.4565C30.825 27.0465 30.835 26.6465 30.815 26.2365C30.795 25.8865 30.765 25.5365 30.755 25.1965C30.755 24.9765 30.795 24.7665 30.805 24.5465C30.805 24.2565 30.775 23.9665 30.795 23.6765C30.805 23.4365 30.645 23.3265 30.525 23.1665C30.345 22.9465 30.235 22.6765 30.175 22.3965C30.165 22.3465 30.215 22.2865 30.235 22.2265C30.155 22.0465 30.195 21.8565 30.265 21.6865C30.385 21.4165 30.625 21.3165 30.905 21.2165C31.175 21.1265 31.405 21.2565 31.655 21.2465C31.835 21.2465 32.025 21.3865 32.195 21.4865C32.365 21.5865 32.545 21.6765 32.675 21.8165C32.805 21.9565 32.905 22.1265 32.975 22.3065C33.085 22.5765 33.105 22.8665 33.115 23.1665C33.125 23.4865 33.105 23.8065 33.105 24.1165C33.105 24.4765 33.135 24.8365 33.155 25.1965C33.165 25.4465 33.185 25.6965 33.175 25.9365C33.175 26.1965 33.125 26.4665 33.115 26.7265C33.115 26.8965 33.135 27.0565 33.155 27.2265C33.185 27.4565 33.215 27.6765 33.245 27.9265C33.285 27.9765 33.335 28.0365 33.385 28.1065C33.525 28.3265 33.715 28.4765 33.965 28.5465C33.985 28.5465 33.995 28.5665 34.005 28.5765C34.095 28.7265 34.235 28.7165 34.385 28.7165C34.505 28.7165 34.635 28.7465 34.755 28.7665C35.015 28.8065 35.205 28.7165 35.365 28.5065C35.485 28.3565 35.515 28.2365 35.465 28.0565C35.435 27.9365 35.515 27.7865 35.525 27.6565C35.525 27.3165 35.525 26.9665 35.525 26.6265C35.525 26.4665 35.545 26.2965 35.545 26.1365C35.545 25.9165 35.545 25.7065 35.535 25.4865C35.535 25.0865 35.515 24.6765 35.515 24.2765C35.515 23.9765 35.515 23.6665 35.515 23.3665C35.515 23.0065 35.535 22.6465 35.545 22.2865C35.545 21.9265 35.545 21.5665 35.545 21.2065C35.545 20.8565 35.525 20.4965 35.535 20.1465C35.535 19.8565 35.615 19.5965 35.845 19.3865C36.155 19.0965 36.505 19.1665 36.845 19.2765C37.015 19.3365 37.175 19.4365 37.335 19.5465C37.555 19.6965 37.605 19.9265 37.735 20.1165C37.815 20.2365 37.785 20.4265 37.815 20.5965C37.835 20.7365 37.875 20.8765 37.885 21.0165C37.885 21.2265 37.875 21.4265 37.875 21.6365C37.875 21.7365 37.875 21.8465 37.875 21.9465C37.875 22.2065 37.885 22.4665 37.895 22.7265C37.895 22.7465 37.915 22.7765 37.915 22.7965L37.905 22.8065ZM45.415 38.0365C45.415 38.2565 45.325 38.4865 45.365 38.6865C45.425 38.9665 45.315 39.2265 45.315 39.4965C45.315 39.6765 45.225 39.8465 45.175 40.0265C45.105 40.2365 45.025 40.4265 44.845 40.5665C44.675 40.6965 44.515 40.8665 44.325 40.9465C44.175 41.0165 43.955 41.0165 43.825 41.0765C43.555 41.1965 43.295 41.1565 43.035 41.1465C42.735 41.1465 42.445 41.0565 42.145 40.9965C41.915 40.9465 41.695 40.8865 41.475 40.8265C41.165 40.7365 40.865 40.6365 40.595 40.4565C40.375 40.3165 40.135 40.2065 39.915 40.0665C39.805 39.9965 39.725 39.8865 39.625 39.7965C39.595 39.7665 39.565 39.7365 39.535 39.7165C39.275 39.5165 39.085 39.2565 38.905 38.9965C38.665 38.6565 38.545 38.2665 38.445 37.8765C38.395 37.7065 38.415 37.5165 38.405 37.3265C38.405 37.0765 38.395 36.8265 38.405 36.5765C38.405 36.4365 38.445 36.2965 38.475 36.1465C38.525 35.8965 38.635 35.6765 38.875 35.5665C39.025 35.4965 39.195 35.4565 39.365 35.4265C39.525 35.3965 39.695 35.4765 39.825 35.4665C40.115 35.4265 40.275 35.6865 40.535 35.6965C40.615 35.6965 40.685 35.8265 40.755 35.8865C40.855 35.9765 40.955 36.0565 41.055 36.1465C41.075 36.1665 41.095 36.1765 41.105 36.1965C41.175 36.3965 41.255 36.5865 41.305 36.7965C41.345 36.9765 41.375 37.1765 41.335 37.3565C41.295 37.4965 41.295 37.6865 41.085 37.7665C40.865 37.8465 40.835 38.0965 40.745 38.2865C40.725 38.3265 40.755 38.4065 40.785 38.4465C41.005 38.6765 41.225 38.9065 41.465 39.1165C41.555 39.1865 41.705 39.1865 41.825 39.2165C41.975 39.2565 42.125 39.3065 42.285 39.3365C42.385 39.3565 42.495 39.3065 42.595 39.3265C42.755 39.3565 42.775 39.2065 42.865 39.1465C43.095 38.9765 43.075 38.7465 43.065 38.5065C43.055 38.2065 43.085 37.8965 43.085 37.5965C43.085 37.2965 43.055 37.0065 43.045 36.7065C43.045 36.4665 43.045 36.2165 43.055 35.9765C43.075 35.7465 43.095 35.4965 42.995 35.3165C42.865 35.0765 42.715 34.8165 42.445 34.6865C42.375 34.6565 42.315 34.6065 42.255 34.5765C41.885 34.3565 41.455 34.3465 41.095 34.2365C40.705 34.2765 40.365 34.3065 40.025 34.3565C39.885 34.3765 39.765 34.4765 39.625 34.4865C39.485 34.4965 39.345 34.4565 39.205 34.4365C39.155 34.4365 39.115 34.4065 39.065 34.3965C39.035 34.3965 38.995 34.4065 38.985 34.3965C38.775 34.1865 38.575 33.9765 38.375 33.7665C38.345 33.7365 38.365 33.6565 38.355 33.6065C38.355 33.5265 38.345 33.4465 38.335 33.3765C38.335 33.3565 38.315 33.3265 38.325 33.3065C38.405 33.1465 38.475 32.9965 38.565 32.8365C38.725 32.5465 38.995 32.4465 39.305 32.3965C39.555 32.3565 39.805 32.2765 40.055 32.2565C40.245 32.2365 40.445 32.2965 40.635 32.2865C40.885 32.2765 41.115 32.3665 41.345 32.4165C41.545 32.4665 41.805 32.3865 41.975 32.5865C41.985 32.6065 42.035 32.5865 42.065 32.5865C42.105 32.5865 42.145 32.5865 42.185 32.5865C42.555 32.7465 42.935 32.8865 43.295 33.0765C43.545 33.2065 43.775 33.3565 43.985 33.5465C44.275 33.8065 44.535 34.0965 44.805 34.3765C44.815 34.3865 44.845 34.4065 44.845 34.4165C44.895 34.7265 45.205 34.9165 45.205 35.2465C45.205 35.3065 45.235 35.3765 45.265 35.4265C45.385 35.6365 45.335 35.8665 45.355 36.0965C45.375 36.3265 45.415 36.5465 45.425 36.7765C45.425 36.8265 45.345 36.9065 45.355 36.9165C45.555 37.0865 45.315 37.2765 45.395 37.4665C45.465 37.6365 45.425 37.8565 45.425 38.0565L45.415 38.0365ZM46.265 31.9265C46.105 31.8765 45.935 31.8265 45.775 31.7665C45.515 31.6665 45.475 31.6965 45.265 31.8865C45.185 31.9665 45.085 32.1365 44.905 32.0265C44.825 31.9765 44.725 31.9665 44.765 31.8265C44.775 31.7865 44.735 31.7265 44.725 31.7165C44.795 31.5165 44.855 31.3465 44.905 31.1765C44.945 31.0565 44.965 30.9365 45.005 30.8165C45.075 30.6265 45.155 30.4265 45.235 30.2365C45.305 30.0665 45.355 29.8665 45.475 29.7165C45.665 29.4765 46.085 29.5665 46.185 29.8465C46.275 30.0965 46.395 30.3465 46.485 30.5965C46.555 30.7865 46.565 30.9865 46.645 31.1665C46.765 31.4665 46.855 31.7765 46.875 32.0965C46.875 32.1265 46.905 32.1665 46.915 32.1965C46.985 32.3365 46.915 32.4365 46.805 32.4865C46.705 32.5365 46.595 32.5465 46.525 32.4065C46.455 32.2665 46.335 32.1565 46.255 32.0165C46.235 31.9865 46.245 31.9265 46.245 31.8965L46.265 31.9265ZM53.455 40.7365C53.455 40.9165 53.435 41.0865 53.435 41.2665C53.435 41.3165 53.435 41.3765 53.435 41.4265C53.435 41.5465 53.435 41.6665 53.435 41.7865C53.435 41.9765 53.435 42.1765 53.465 42.3665C53.505 42.7065 53.435 43.0165 53.285 43.3265C53.135 43.6465 52.805 43.5665 52.575 43.6865C52.575 43.6865 52.545 43.6465 52.525 43.6465C52.475 43.6265 52.405 43.5765 52.355 43.5965C52.145 43.6565 52.015 43.5365 51.875 43.4165C51.735 43.2965 51.595 43.1665 51.465 43.0365C51.425 42.9965 51.405 42.9165 51.385 42.8565C51.305 42.5865 51.215 42.3065 51.175 42.0265C51.145 41.8165 51.195 41.5965 51.205 41.3765C51.205 41.3165 51.195 41.2565 51.195 41.2065C51.195 40.9765 51.205 40.7465 51.205 40.5165C51.205 40.2365 51.205 39.9665 51.205 39.6865C51.205 39.3665 51.205 39.0365 51.205 38.7165C51.205 38.5465 51.175 38.3765 51.175 38.2065C51.175 38.0965 51.175 37.9765 51.195 37.8665C51.265 37.6265 51.135 37.4265 51.035 37.2465C50.925 37.0265 50.745 36.8365 50.565 36.6665C50.465 36.5765 50.315 36.5165 50.175 36.4965C49.965 36.4565 49.735 36.4365 49.515 36.4565C49.275 36.4765 49.055 36.5965 48.915 36.7965C48.865 36.8665 48.905 37.0265 48.935 37.1365C49.015 37.4065 49.135 37.6765 49.215 37.9465C49.275 38.1465 49.155 38.3065 49.055 38.4665C49.015 38.5365 48.985 38.6165 48.985 38.6965C48.985 38.8165 49.025 38.9165 48.945 39.0465C48.885 39.1365 48.945 39.3065 48.935 39.4365C48.935 39.7165 48.915 39.9865 48.905 40.2665C48.905 40.3165 48.915 40.3765 48.935 40.4265C49.035 40.6565 48.885 40.8865 48.935 41.1265C48.965 41.2365 48.965 41.3565 48.965 41.4765C48.965 41.5165 48.965 41.5665 48.965 41.6065C48.895 41.7865 48.835 41.9665 48.745 42.1365C48.595 42.3865 48.355 42.4965 48.105 42.4465C47.795 42.4665 47.605 42.3065 47.375 42.1965C47.125 42.0765 47.045 41.8465 46.875 41.6665C46.825 41.6165 46.815 41.5365 46.805 41.4565C46.765 41.1965 46.665 40.9265 46.705 40.6765C46.755 40.3765 46.735 40.1065 46.705 39.8165C46.675 39.5565 46.735 39.2865 46.735 39.0265C46.735 38.8765 46.695 38.7265 46.695 38.5765C46.695 38.4665 46.755 38.3565 46.745 38.2565C46.725 38.0265 46.835 37.8365 46.935 37.6365C46.985 37.5265 46.995 37.3565 46.955 37.2465C46.865 37.0065 46.735 36.7865 46.615 36.5565C46.515 36.3765 46.575 36.1965 46.645 36.0465C46.775 35.7965 46.935 35.5665 47.105 35.3565C47.205 35.2265 47.365 35.1265 47.515 35.0665C47.785 34.9565 48.075 34.8265 48.365 34.7965C48.755 34.7565 49.165 34.7765 49.555 34.8165C49.795 34.8365 50.035 34.9465 50.275 35.0065C50.585 35.0865 50.865 35.2565 51.155 35.3665C51.585 35.5265 51.925 35.7965 52.275 36.0665C52.475 36.2265 52.685 36.3965 52.855 36.5865C52.975 36.7265 53.045 36.9165 53.135 37.0865C53.185 37.1865 53.195 37.3065 53.255 37.3965C53.455 37.6665 53.435 37.9865 53.455 38.2865C53.475 38.5065 53.425 38.7265 53.435 38.9465C53.435 39.1865 53.475 39.4265 53.485 39.6665C53.485 39.7865 53.445 39.9065 53.445 40.0165C53.445 40.2465 53.475 40.4865 53.475 40.7165L53.455 40.7365ZM53.715 34.0165C53.715 34.0165 53.645 34.0965 53.595 34.1165C53.435 34.1865 53.275 34.2465 53.105 34.3065C53.085 34.3065 53.065 34.3265 53.055 34.3265C52.855 34.2665 52.645 34.2165 52.445 34.1465C52.345 34.1065 52.235 34.0465 52.155 33.9765C51.985 33.8265 51.815 33.6765 51.695 33.4865C51.635 33.4065 51.695 33.2365 51.715 33.1165C51.995 33.0565 52.175 33.1365 52.325 33.3665C52.375 33.4465 52.465 33.5065 52.545 33.5765C52.605 33.6165 52.685 33.6365 52.735 33.6865C52.835 33.7965 52.955 33.7465 53.035 33.6865C53.105 33.6365 53.145 33.5265 53.185 33.4365C53.185 33.4165 53.145 33.3465 53.115 33.3265C52.745 33.0765 52.365 32.8265 51.985 32.5765C51.775 32.4365 51.635 31.9965 51.715 31.7565C51.765 31.6065 52.105 31.3265 52.255 31.3265C52.445 31.3265 52.625 31.3565 52.805 31.4165C53.145 31.5165 53.385 31.7065 53.555 31.9965C53.615 32.0965 53.625 32.2465 53.625 32.3665C53.625 32.4165 53.535 32.5165 53.485 32.5165C53.415 32.5165 53.315 32.4665 53.265 32.4165C53.125 32.2765 52.995 32.1165 52.855 31.9765C52.755 31.8765 52.465 31.9365 52.315 32.0865C52.485 32.3565 52.745 32.4865 53.005 32.6265C53.355 32.8165 53.715 33.0465 53.765 33.5065C53.785 33.6765 53.745 33.8565 53.715 34.0265V34.0165Z" fill="#1D478D"/>
<path d="M48.5149 30.9465C48.3549 30.8365 48.1649 30.7665 47.9949 30.6865C47.9049 30.7365 47.8449 30.7465 47.8349 30.7765C47.7849 30.9265 47.6649 31.0665 47.8049 31.2365C47.8949 31.3465 47.9249 31.4765 48.1149 31.4965C48.2349 31.5065 48.3249 31.5565 48.4549 31.4965C48.6549 31.3965 48.7149 31.0665 48.5149 30.9465Z" fill="#1D478D"/>
<path d="M47.725 28.1167C47.905 28.1967 48.085 28.3166 48.255 28.2766C48.495 28.2766 48.585 28.1067 48.545 27.9367C48.475 27.6367 48.225 27.5667 47.995 27.4667C47.845 27.3967 47.705 27.4867 47.685 27.6267C47.665 27.7467 47.645 27.8667 47.645 27.9767C47.645 28.0267 47.685 28.0967 47.725 28.1167Z" fill="#1D478D"/>
<path d="M45.8153 30.6565C45.7053 30.6765 45.5753 30.9565 45.6253 31.0565C45.6353 31.0865 45.6553 31.1065 45.6753 31.1265C45.7253 31.1665 45.7853 31.1965 45.8653 31.2465C45.9053 31.2065 46.0053 31.1665 46.0053 31.1165C46.0053 30.9665 45.9553 30.8165 45.9153 30.6665C45.9153 30.6465 45.8453 30.6365 45.8153 30.6465V30.6565Z" fill="#1D478D"/>
</svg>
