<svg width="59" height="58" viewBox="0 0 59 58" fill="none" xmlns="http://www.w3.org/2000/svg">
<rect x="0.668945" y="0.00683594" width="57.8345" height="57.8345" rx="4" fill="white"/>
<path d="M36.871 29.4172C36.951 29.4172 36.971 29.4672 36.961 29.5372C36.931 29.7672 36.851 29.9672 36.671 30.1172C36.641 30.1072 36.641 30.1173 36.641 30.1473C36.571 30.2173 36.501 30.2872 36.431 30.3572C36.411 30.3472 36.411 30.3572 36.411 30.3672C36.391 30.3872 36.371 30.4072 36.341 30.4172C36.181 30.5072 36.171 30.6672 36.141 30.8172C36.061 31.1472 36.041 31.4872 36.011 31.8172C36.011 31.8972 36.011 31.9772 35.981 32.0472C35.941 32.1472 35.941 32.2472 35.901 32.3472C35.861 32.4372 35.871 32.5372 35.941 32.6172C35.981 32.7772 35.981 32.9273 35.901 33.0773C35.861 33.3973 35.851 33.7072 36.011 34.0072C36.081 34.1372 36.191 34.1372 36.271 34.0972C36.411 34.0272 36.451 33.8572 36.551 33.7472C36.601 33.6972 36.571 33.6072 36.531 33.5372C36.531 33.5172 36.541 33.4972 36.551 33.4872H36.561C36.561 33.4872 36.611 33.4272 36.641 33.4172C36.701 33.4272 36.761 33.4372 36.811 33.4072C36.851 33.3872 36.881 33.3672 36.921 33.3472C36.941 33.3472 36.961 33.3473 36.961 33.3273C37.011 33.3073 37.051 33.2872 37.101 33.2572C37.121 33.2672 37.131 33.2572 37.131 33.2472C37.191 33.2472 37.251 33.2273 37.301 33.2173C37.421 33.2373 37.541 33.2373 37.661 33.2173C37.851 33.2173 38.011 33.2872 38.131 33.4372C38.131 33.4372 38.221 33.5072 38.241 33.5672C38.321 33.7072 38.321 33.7072 38.451 33.6572C38.571 33.6172 38.661 33.5372 38.731 33.4372C38.861 33.2672 38.921 33.0772 38.971 32.8772C38.991 32.6772 39.151 32.5372 39.191 32.3472C39.261 32.0772 39.371 31.8172 39.451 31.5472C39.471 31.4772 39.481 31.3873 39.431 31.3373C39.301 31.1873 39.321 31.0172 39.331 30.8472C39.331 30.7872 39.331 30.7373 39.391 30.7073C39.441 30.6873 39.491 30.7072 39.521 30.7572C39.641 30.9072 39.721 30.7772 39.731 30.6972C39.751 30.4472 39.951 30.3972 40.111 30.2872C40.131 30.2772 40.161 30.2673 40.181 30.2773C40.281 30.3273 40.291 30.4572 40.411 30.4972C40.521 30.5372 40.481 30.6573 40.471 30.7673C40.441 30.9973 40.281 31.1572 40.201 31.3572C40.091 31.6472 40.021 31.9472 39.941 32.2472C39.841 32.6072 39.701 32.9472 39.601 33.3072C39.551 33.4672 39.481 33.6272 39.491 33.8072C39.491 33.9172 39.541 33.9972 39.651 34.0372C39.801 34.0872 39.951 34.1572 40.121 34.1672C40.381 34.1872 40.611 34.2973 40.851 34.3973C41.281 34.5773 41.751 34.6072 42.201 34.6972C42.401 34.7372 42.591 34.5873 42.631 34.3873C42.651 34.2773 42.661 34.1672 42.631 34.0572C42.551 33.5372 42.671 33.3772 43.041 33.1172C43.301 32.9372 43.331 32.8873 43.201 32.5873C43.151 32.4773 43.251 32.4172 43.291 32.3472C43.291 32.3372 43.301 32.3172 43.311 32.3072C43.351 32.2672 43.391 32.2573 43.441 32.2773C43.481 32.3273 43.481 32.3872 43.541 32.4172C43.561 32.6272 43.721 32.7372 43.851 32.8572C44.241 33.2572 44.661 33.6172 45.021 34.0372C45.291 34.3472 45.611 34.3173 45.961 34.2173C46.121 34.1773 46.291 34.1272 46.461 34.0972C46.551 34.0772 46.621 34.1372 46.681 34.1972C46.801 34.3273 46.931 34.3272 47.071 34.2272C47.171 34.1572 47.271 34.0772 47.361 33.9972C47.691 33.7072 48.101 33.5473 48.501 33.3873C48.641 33.3273 48.811 33.3172 48.971 33.3072C49.241 33.3072 49.551 33.8672 49.421 34.0972C49.391 34.1572 49.331 34.1773 49.281 34.2073C49.111 34.2873 49.021 34.4072 49.031 34.6072C49.051 34.8672 49.011 35.0972 48.791 35.2872C48.641 35.4172 48.481 35.5573 48.401 35.7673C48.321 35.9673 48.421 36.1673 48.631 36.2073C48.661 36.2073 48.691 36.2173 48.721 36.2173C49.071 36.2173 49.061 36.1972 49.061 36.5972C49.061 36.7272 49.061 36.8672 49.061 36.9972C49.061 37.1072 49.001 37.1672 48.881 37.1872C48.561 37.2472 48.251 37.3472 47.951 37.4972C47.711 37.6172 47.611 37.8273 47.581 38.0873C47.571 38.2073 47.551 38.3272 47.501 38.4372C47.411 38.6272 47.461 38.8372 47.521 39.0072C47.641 39.4072 47.741 39.7973 47.781 40.2173C47.811 40.4673 47.931 40.5972 48.171 40.6572C48.341 40.6972 48.521 40.7073 48.701 40.7073C48.851 40.7073 48.951 40.7672 49.051 40.8772C49.121 40.9572 49.141 41.0372 49.071 41.1172C48.991 41.2072 48.991 41.3172 48.991 41.4272C48.991 43.4572 48.991 45.4873 48.991 47.5173C48.991 47.7373 48.971 47.9572 48.961 48.1772C48.961 48.3172 48.891 48.3672 48.761 48.3772C48.221 48.4272 47.671 48.4072 47.131 48.4072C45.731 48.4072 44.331 48.4072 42.931 48.4072C42.031 48.4072 41.121 48.3772 40.221 48.4172C39.811 48.4372 39.401 48.3973 39.001 48.3973C37.741 48.3973 36.481 48.3973 35.221 48.3973C34.381 48.3973 33.551 48.3973 32.711 48.3973C31.181 48.3973 29.641 48.3973 28.111 48.3973C26.811 48.3973 25.511 48.3973 24.211 48.3973C21.431 48.3973 18.651 48.4372 15.871 48.4172C15.301 48.4172 14.711 48.4772 14.151 48.4172C12.951 48.2572 11.751 48.3873 10.561 48.3373C10.371 48.3373 10.381 48.2173 10.381 48.0873C10.411 48.0373 10.401 47.9772 10.401 47.9272C10.401 45.7472 10.411 43.5572 10.421 41.3772C10.421 41.2672 10.451 41.1572 10.401 41.0472C10.371 40.8772 10.391 40.7472 10.601 40.6972C10.761 40.6572 10.811 40.5272 10.761 40.3172C10.691 39.9972 10.551 39.7072 10.431 39.4072C10.321 39.1272 10.261 38.8572 10.361 38.5572C10.441 38.3372 10.361 38.0972 10.331 37.8672C10.331 37.8072 10.311 37.7472 10.301 37.6872C10.301 37.4572 10.261 37.2372 10.121 37.0372C10.121 37.0172 10.101 36.9873 10.101 36.9673C10.141 36.8973 10.111 36.8373 10.101 36.7773C9.85104 35.8773 9.79104 34.9672 9.99104 34.0472C10.021 33.9072 10.001 33.7972 9.93104 33.6872C9.83104 33.5372 9.75104 33.3772 9.73104 33.1972C9.69104 32.6372 9.75104 32.4773 10.201 32.2773C10.421 32.1773 10.641 32.1772 10.861 32.1772C11.011 32.1772 11.101 32.1373 11.201 32.0173C11.381 31.7973 11.481 31.5472 11.601 31.2972C11.791 30.8972 12.091 30.5572 12.291 30.1572C12.401 29.9272 12.541 29.7072 12.501 29.4372C12.481 29.2972 12.561 29.1973 12.671 29.1373C12.771 29.0773 12.801 28.9973 12.771 28.8873C12.831 28.7673 12.891 28.7973 12.921 28.8973C12.941 28.9973 12.971 29.0872 13.031 29.1672C13.081 29.2472 13.121 29.3072 13.241 29.3072C13.351 29.3072 13.421 29.3572 13.321 29.4772C13.211 29.6072 13.111 29.7472 12.991 29.8672C12.771 30.0872 12.681 30.3372 12.671 30.6572C12.671 30.9372 12.521 31.1973 12.431 31.4573C12.211 32.0973 11.941 32.7172 11.741 33.3672C11.661 33.6272 11.741 33.8472 11.841 34.0672C12.081 34.6172 12.341 35.1673 12.621 35.7073C12.881 36.2173 13.101 36.7573 13.191 37.3373C13.241 37.7173 13.421 38.0472 13.611 38.3672C13.811 38.6772 13.911 39.0272 14.051 39.3672C14.061 39.3972 14.071 39.4273 14.061 39.4573C14.001 39.6473 14.011 39.8472 14.011 40.0372C14.011 40.0872 13.991 40.1373 13.941 40.1473C13.881 40.1673 13.851 40.1273 13.831 40.0773C13.761 39.9273 13.691 39.8173 13.491 39.8273C13.401 39.8273 13.381 39.7173 13.351 39.6473C13.321 39.5573 13.261 39.5073 13.181 39.4673C13.021 39.3873 12.881 39.4673 12.881 39.6373C12.881 39.8373 12.881 40.0372 12.911 40.2372C12.931 40.4672 13.081 40.5972 13.311 40.6072C13.491 40.6072 13.671 40.6373 13.851 40.5773C14.151 40.4673 14.281 40.2272 14.371 39.9372C14.471 39.5872 14.661 39.2773 14.841 38.9673C14.861 38.9373 14.891 38.9173 14.921 38.8973C14.941 38.8673 14.961 38.8472 14.981 38.8172C14.991 38.7972 15.001 38.7772 15.021 38.7472C15.021 38.6972 15.051 38.6472 15.091 38.6072C15.111 38.4872 15.151 38.3672 15.201 38.2572C15.271 38.1272 15.271 37.9872 15.251 37.8472C15.221 37.6972 15.161 37.5772 14.971 37.5572C14.801 37.5372 14.651 37.4673 14.531 37.3373C14.531 37.3173 14.531 37.3172 14.511 37.3172C14.481 37.2972 14.451 37.2873 14.421 37.2673C14.421 37.2373 14.421 37.2372 14.391 37.2372C14.361 37.2172 14.341 37.1972 14.311 37.1772C14.281 37.0872 14.221 37.0473 14.121 37.0773C14.021 37.0773 13.931 37.0972 13.831 37.0972C13.821 37.0772 13.801 37.0772 13.791 37.0972C13.721 37.1372 13.651 37.1372 13.581 37.1172C13.531 37.0272 13.531 36.9672 13.631 36.9072C13.721 36.8572 13.841 36.8373 13.891 36.7073C13.771 36.6673 13.671 36.7273 13.581 36.7673C13.481 36.8073 13.411 36.7873 13.371 36.6972C13.321 36.5972 13.411 36.5772 13.471 36.5372C13.661 36.3872 13.951 36.4073 14.081 36.1473C14.091 36.1173 14.181 36.1072 14.221 36.1172C14.371 36.1772 14.491 36.0972 14.621 36.0472C14.891 35.9472 15.161 35.8673 15.401 35.7073C15.471 35.6573 15.521 35.6272 15.531 35.5372C15.601 35.1572 15.721 34.7972 15.841 34.4372C15.891 34.2772 15.971 34.1172 15.901 33.9372C15.901 33.8972 15.901 33.8572 15.901 33.8172C15.871 33.6872 15.881 33.5572 15.911 33.4272C15.981 33.2072 16.181 33.0672 16.291 32.8672C16.371 32.7372 16.571 32.6673 16.731 32.5873C16.981 32.4473 17.041 32.3072 16.951 32.0372C16.891 31.8272 16.841 31.6172 16.841 31.3772C16.841 31.0572 16.911 30.7572 16.981 30.4472C17.061 30.0772 17.301 29.8672 17.681 29.9172C17.871 29.9372 18.041 30.0073 18.221 30.0773C18.491 30.1673 18.591 30.3773 18.601 30.6473C18.601 30.9573 18.521 31.2573 18.521 31.5773C18.521 31.6973 18.471 31.8472 18.391 31.9372C18.201 32.1372 18.311 32.3172 18.391 32.4972C18.421 32.5572 18.461 32.6072 18.491 32.6672C18.621 32.9072 18.821 33.1173 18.881 33.3873C18.951 33.7073 19.101 34.0172 19.071 34.3572C19.071 34.3572 19.081 34.3773 19.111 34.3973C19.211 34.2373 19.261 34.0572 19.381 33.9072C19.451 33.8272 19.561 33.7572 19.581 33.6272C19.601 33.6072 19.631 33.5973 19.651 33.5773C19.661 33.5773 19.671 33.5772 19.671 33.5572C20.121 33.4072 20.511 33.5072 20.821 33.8572C20.991 34.0572 21.021 34.3373 21.071 34.5873C21.081 34.6473 21.091 34.7073 21.091 34.7673C21.111 35.0273 21.251 35.2073 21.491 35.2773C21.881 35.3873 22.261 35.4973 22.661 35.5773C22.881 35.6273 23.071 35.7272 23.281 35.7872C23.431 35.8272 23.591 35.8672 23.681 35.7272C23.771 35.5872 23.741 35.4273 23.641 35.2773C23.561 35.1673 23.501 35.0472 23.471 34.9172C23.511 34.9172 23.511 34.8872 23.511 34.8472C23.511 34.6072 23.511 34.3572 23.511 34.1172C23.511 33.8772 23.621 33.6772 23.771 33.5372C24.271 33.0772 24.811 33.2372 25.111 33.8072C25.221 34.0272 25.361 34.1872 25.591 34.2272C25.771 34.2672 25.951 34.3972 26.151 34.2872C26.341 34.1772 26.531 34.0772 26.741 34.0072C26.951 33.9372 27.171 33.8473 27.411 33.9673C27.651 34.0773 27.881 34.2072 28.111 34.3472C28.521 34.5872 28.931 34.8172 29.351 35.0372C29.481 35.1072 29.571 35.0472 29.551 34.9172C29.531 34.7772 29.511 34.6272 29.431 34.4972C29.271 34.2072 28.971 34.0572 28.731 33.8472C28.591 33.7272 28.461 33.6072 28.341 33.4772C28.071 33.1772 27.871 32.8173 27.591 32.5173C27.431 32.3373 27.231 32.1172 27.291 31.8572C27.351 31.5872 27.261 31.4372 27.101 31.2572C27.021 31.1772 26.901 31.0672 26.971 30.9472C27.061 30.7972 27.061 30.6772 26.981 30.5372C26.961 30.4972 26.951 30.4473 27.001 30.3973C27.031 30.4473 27.071 30.4972 27.101 30.5472C27.121 30.5772 27.141 30.6172 27.181 30.5972C27.211 30.5872 27.211 30.5473 27.221 30.5273C27.251 30.4573 27.131 30.3373 27.261 30.3373C27.371 30.3373 27.311 30.4673 27.331 30.5273C27.351 30.5673 27.361 30.6072 27.421 30.5972C27.471 30.5972 27.471 30.5473 27.471 30.5173C27.471 30.4773 27.461 30.4472 27.451 30.4072C27.451 30.3772 27.451 30.3473 27.481 30.3273C27.531 30.3073 27.541 30.3472 27.561 30.3772C27.601 30.4672 27.621 30.5572 27.621 30.6572C27.621 30.8672 27.721 30.9972 27.921 31.0572C27.981 31.0772 28.041 31.1072 27.991 31.1672C27.851 31.3572 27.951 31.5073 28.081 31.6373C28.481 32.0373 28.851 32.4672 29.301 32.8072C29.541 32.9872 29.831 33.0473 30.111 33.0873C30.161 33.0873 30.251 33.0873 30.241 33.0273C30.241 32.8573 30.341 32.7173 30.281 32.5273C30.171 32.2073 30.471 31.7972 30.811 31.8072C30.931 31.8072 31.001 31.7873 31.081 31.7073C31.111 31.6773 31.181 31.6072 31.211 31.6772C31.271 31.7672 31.351 31.7572 31.431 31.7872C31.551 31.8372 31.661 31.8973 31.741 32.0173C31.911 32.2673 31.961 32.5272 31.921 32.8172C31.891 33.0472 32.001 33.1173 32.201 33.0273C32.261 32.9973 32.311 32.9773 32.371 32.9573C32.741 32.8073 32.761 32.7873 32.761 32.3873C32.761 32.1873 32.761 31.9972 32.761 31.7972C32.761 31.7472 32.751 31.6773 32.771 31.6373C32.901 31.4473 32.931 31.2672 32.771 31.0672C32.721 30.9972 32.711 30.8572 32.791 30.7972C32.861 30.7372 32.941 30.8373 33.011 30.8873C33.071 30.9273 33.051 31.0073 33.051 31.0773C33.051 31.4873 33.051 31.8972 33.041 32.3072C33.041 32.3472 33.041 32.3972 33.071 32.4272C33.121 32.4572 33.161 32.4173 33.181 32.3873C33.331 32.1973 33.551 32.0772 33.721 31.9072C33.861 31.7672 34.011 31.6172 34.171 31.5072C34.361 31.3772 34.521 31.2072 34.691 31.0572C34.721 31.0272 34.731 30.9973 34.731 30.9573C34.731 30.8173 34.681 30.6673 34.911 30.6373C34.971 30.6373 35.011 30.5172 35.021 30.4372C35.051 30.3072 35.071 30.1772 35.101 30.0472C35.121 29.9572 35.171 29.9172 35.231 30.0072C35.301 30.1172 35.341 30.0372 35.371 29.9872C35.451 29.8472 35.391 29.7372 35.221 29.7272C35.011 29.7172 34.811 29.6473 34.611 29.5773C34.571 29.5673 34.541 29.5572 34.541 29.5072C34.541 29.4572 34.581 29.4572 34.611 29.4372C34.721 29.3672 34.841 29.3272 34.951 29.3772C35.161 29.4572 35.371 29.4272 35.581 29.4372C35.641 29.4372 35.731 29.4172 35.761 29.4972C35.791 29.5772 35.811 29.6872 35.741 29.7372C35.581 29.8672 35.651 30.0573 35.591 30.2073C35.581 30.2373 35.591 30.2872 35.621 30.2972C35.671 30.3172 35.691 30.2772 35.701 30.2472C35.781 30.1172 35.881 30.0073 35.971 29.8873C36.021 29.8273 36.041 29.7572 36.041 29.6872C36.041 29.5872 36.041 29.4873 36.041 29.3973C36.041 29.2673 36.111 29.2673 36.201 29.3373C36.301 29.4173 36.291 29.5172 36.271 29.6272C36.301 29.5672 36.311 29.5073 36.341 29.4573C36.381 29.3973 36.371 29.2773 36.441 29.2773C36.531 29.2773 36.481 29.3973 36.531 29.4573C36.531 29.4573 36.551 29.4672 36.571 29.4872C36.591 29.3772 36.691 29.3072 36.671 29.1872C36.731 29.1572 36.761 29.1872 36.791 29.2272C36.771 29.2872 36.751 29.3573 36.801 29.3973C36.831 29.4173 36.851 29.3573 36.881 29.3273L36.871 29.4172ZM29.641 37.1473C29.631 36.9173 29.691 36.6673 29.481 36.4673C29.331 36.3173 29.231 36.1172 29.061 36.0072C28.871 35.8772 28.631 35.8272 28.401 35.7472C28.211 35.6772 28.051 35.8172 28.071 36.0072C28.091 36.2272 28.101 36.4372 28.131 36.6572C28.191 37.1072 28.251 37.5673 28.321 38.0173C28.411 38.6273 28.511 39.2273 28.611 39.8373C28.621 39.9173 28.651 40.0173 28.591 40.0873C28.451 40.2673 28.511 40.4173 28.611 40.5873C28.711 40.7573 28.861 40.8073 29.081 40.7673C29.251 40.7273 29.221 40.5972 29.231 40.4772C29.231 40.4372 29.241 40.4072 29.251 40.3672C29.381 39.7972 29.441 39.2173 29.421 38.6373C29.421 38.4373 29.451 38.2372 29.511 38.0472C29.601 37.7572 29.671 37.4573 29.651 37.1473H29.641ZM22.751 39.5672C22.751 39.6572 22.781 39.7272 22.851 39.7872C23.001 39.9272 23.201 39.9873 23.371 40.0773C23.651 40.2173 23.961 40.2972 24.221 40.4772C24.321 40.5472 24.411 40.5373 24.501 40.4573C24.611 40.3573 24.731 40.2672 24.851 40.1672C25.021 40.0272 25.201 39.8972 25.261 39.6572C25.291 39.5472 25.271 39.4272 25.321 39.3172C25.441 39.0572 25.341 39.0373 25.121 39.0173C24.851 38.9973 24.601 38.9173 24.351 38.8373C23.981 38.7073 23.621 38.4973 23.201 38.5273C23.161 38.5273 23.111 38.5072 23.061 38.4872C22.931 38.4372 22.851 38.4672 22.871 38.6172C22.891 38.8672 22.851 39.0973 22.771 39.3373C22.751 39.4073 22.741 39.4772 22.731 39.5472L22.751 39.5672ZM35.191 31.6772C35.091 31.7972 35.001 31.9073 34.941 32.0273C34.851 32.1773 34.761 32.3372 34.631 32.4472C34.401 32.6372 34.211 32.8673 34.011 33.0873C33.741 33.3873 33.521 33.7372 33.261 34.0472C33.171 34.1472 33.071 34.2573 33.021 34.3873C32.881 34.7073 32.881 35.0372 32.881 35.3772C32.881 35.4472 32.921 35.4872 32.981 35.4872C33.221 35.4872 33.471 35.4972 33.701 35.4272C33.821 35.3972 33.851 35.3073 33.791 35.2173C33.601 34.9373 33.601 34.6272 33.571 34.3072C33.511 33.7172 33.851 33.4773 34.231 33.3873C34.401 33.3473 34.541 33.4372 34.681 33.4972C34.751 33.5272 34.821 33.5572 34.851 33.4372C34.961 32.9772 35.081 32.5272 35.181 32.0672C35.211 31.9572 35.231 31.8272 35.181 31.6772H35.191ZM23.841 37.3273C23.791 37.3273 23.731 37.3273 23.681 37.3273C23.631 37.3273 23.571 37.3273 23.521 37.3273C23.321 37.3573 23.301 37.3973 23.381 37.5773C23.421 37.6673 23.471 37.7472 23.491 37.8472C23.511 37.9372 23.571 37.9973 23.661 38.0273C24.011 38.1573 24.371 38.1972 24.741 38.1872C24.871 38.1872 24.921 38.1172 24.891 37.9772C24.851 37.7872 24.831 37.6072 24.811 37.4172C24.791 37.2472 24.701 37.1672 24.541 37.2272C24.321 37.3072 24.091 37.3072 23.861 37.3072L23.841 37.3273ZM18.701 38.8572C18.651 38.6372 18.601 38.3772 18.521 38.1172C18.501 38.0472 18.491 37.8772 18.391 37.9172C18.301 37.9472 18.351 38.0972 18.371 38.1972C18.381 38.2672 18.441 38.3372 18.391 38.4272C18.201 38.7772 18.121 39.1772 17.861 39.4972C17.781 39.5972 17.831 39.6473 17.951 39.6473C18.261 39.6473 18.701 39.2172 18.701 38.8572ZM31.301 40.0372C31.161 40.2272 31.151 40.4573 31.071 40.6473C31.051 40.6973 31.091 40.7272 31.141 40.7372C31.251 40.7572 31.361 40.7672 31.471 40.7372C31.521 40.7272 31.561 40.6872 31.541 40.6272C31.471 40.4272 31.441 40.2173 31.311 40.0273L31.301 40.0372ZM23.021 37.3572C22.921 37.3772 22.791 37.3873 22.661 37.3973C22.551 37.3973 22.511 37.4572 22.591 37.5672C22.691 37.6972 22.831 37.7572 22.981 37.8172C23.071 37.8472 23.141 37.7972 23.181 37.7372C23.241 37.6572 23.261 37.5472 23.221 37.4472C23.191 37.3672 23.121 37.3672 23.021 37.3772V37.3572Z" fill="#1D478D"/>
<path d="M18.0113 21.6471C18.1113 21.7871 18.2313 21.9271 18.3313 22.0671C18.5013 22.3071 18.6813 22.5371 18.9113 22.7171C19.3313 23.0471 19.7213 23.3971 20.1313 23.7371C20.5013 24.0571 20.8913 24.357 21.2813 24.657C21.6513 24.937 22.0013 25.2371 22.3513 25.5271C22.6513 25.7771 22.9313 26.0371 23.2313 26.2771C23.5913 26.5571 23.9513 26.827 24.2613 27.157C24.3713 27.277 24.4113 27.3871 24.3313 27.5371C24.2713 27.6571 24.3013 27.7371 24.4313 27.8171C24.6513 27.9571 24.9213 28.0471 25.0013 28.3271C25.0513 28.4971 25.0813 28.6871 25.1013 28.8671C25.1213 29.0171 25.1013 29.1371 24.9213 29.2371C24.6413 29.3871 24.6513 29.5871 24.8913 29.7971C24.9913 29.8871 25.0313 30.0071 25.0413 30.1371C25.0613 30.3771 24.9713 30.607 24.9713 30.847C24.9713 31.317 24.8513 31.7871 24.8613 32.2571C24.8613 32.4571 24.7613 32.6271 24.7513 32.8271C24.7513 32.9371 24.7513 33.0171 24.7313 33.0871C25.0313 33.1871 25.2813 33.4171 25.4613 33.7571C25.5613 33.9571 25.6313 33.9771 25.6913 33.9871C25.7713 34.0071 25.8313 34.0271 25.8913 34.0471C25.9313 34.0571 25.9813 34.0771 26.0013 34.0771C26.2013 33.9671 26.4013 33.8471 26.6313 33.7671H26.6513C26.8913 33.6771 27.2113 33.5671 27.5813 33.7371C27.8513 33.8671 28.1013 34.0071 28.3113 34.1271C28.4013 34.1771 28.4913 34.2271 28.5713 34.2771C28.5513 34.2571 28.5313 34.2471 28.5113 34.2271L28.4613 34.1771C28.3413 34.0671 28.2113 33.9571 28.0913 33.8271C27.9413 33.6571 27.8113 33.4871 27.6913 33.3071C27.5713 33.1471 27.4713 32.9971 27.3413 32.8571C27.1613 32.6571 26.8513 32.3171 26.9513 31.8771C26.9713 31.7871 26.9713 31.7471 26.8413 31.6071L26.8213 31.5871C26.5813 31.3371 26.5213 31.0871 26.6613 30.8571C26.6613 30.8471 26.6713 30.8371 26.6713 30.8271C26.6713 30.8271 26.6713 30.8171 26.6713 30.8071C26.5613 30.6071 26.6013 30.3771 26.7613 30.2271L27.0713 29.9271L27.1713 30.0671C27.1713 30.0671 27.2213 30.0571 27.2513 30.0571C27.3013 30.0571 27.3413 30.0571 27.3913 30.0671C27.5313 30.0271 27.7713 30.0371 27.9013 30.3071C27.9713 30.4471 28.0013 30.5971 28.0013 30.7471C28.0013 30.7671 28.0013 30.7771 28.0013 30.7871C28.0013 30.7871 28.0113 30.7871 28.0313 30.7971C28.2513 30.8671 28.3313 31.0071 28.3613 31.0871C28.4013 31.2071 28.3813 31.3271 28.3213 31.4371C28.3213 31.4371 28.3413 31.4571 28.3513 31.4671C28.4613 31.5771 28.5613 31.677 28.6613 31.7871C28.9513 32.087 29.2213 32.367 29.5313 32.597C29.6413 32.677 29.7813 32.7271 29.9513 32.7671C29.9513 32.7571 29.9513 32.7371 29.9513 32.7371C29.8613 32.4771 29.9113 32.1671 30.0913 31.9171C30.2513 31.6971 30.4913 31.5571 30.7413 31.5271C30.7513 31.4471 30.7813 31.3671 30.7713 31.2871C30.7513 30.767 30.8313 30.2371 30.8113 29.7171C30.8113 29.6471 30.7913 29.5671 30.8913 29.5371C30.9213 29.5371 30.9313 29.5071 30.9213 29.4871C30.8213 29.1771 30.8913 28.8571 30.8713 28.5471C30.8713 28.4471 30.8613 28.3471 30.7513 28.3271C30.6713 28.3071 30.5813 28.3771 30.5513 28.4571C30.4813 28.6171 30.3613 28.607 30.2313 28.597C30.1713 28.597 30.1413 28.5671 30.1313 28.5071C30.1313 28.4571 30.1313 28.4171 30.1813 28.3871C30.4513 28.2271 30.7213 28.0771 30.9813 27.8871C31.2013 27.7271 31.4213 27.5571 31.6413 27.3771C31.6813 27.4571 31.6413 27.5071 31.5913 27.5471C31.4613 27.6271 31.4513 27.7571 31.4313 27.8971C31.3713 28.2171 31.4013 28.5371 31.3613 28.8571C31.2813 29.6271 31.2613 30.4071 31.2213 31.1871C31.2213 31.2671 31.2113 31.3371 31.1713 31.3871C31.1913 31.3871 31.2013 31.3871 31.2213 31.3871C31.3213 31.3971 31.4113 31.4471 31.4713 31.5171C31.4913 31.5171 31.5213 31.5271 31.5513 31.5471C31.6913 31.5971 31.8913 31.6971 32.0413 31.9171C32.2013 32.1571 32.2813 32.4071 32.2913 32.6871C32.3213 32.6771 32.3613 32.6571 32.3813 32.6471C32.3813 32.5971 32.3813 32.5171 32.3813 32.4771C32.3813 32.3671 32.3813 32.257 32.3813 32.157C32.3813 32.067 32.3813 31.9871 32.3813 31.8971C32.3813 31.8971 32.3813 31.8871 32.3813 31.8771C32.3813 31.8071 32.3713 31.667 32.4613 31.5371C32.5013 31.4771 32.5013 31.4471 32.5013 31.4471C32.5013 31.4471 32.5013 31.4271 32.4713 31.3971C32.3013 31.1871 32.2913 30.8071 32.5513 30.6071C32.5813 30.5871 32.6313 30.5571 32.6913 30.5271C32.6913 30.4671 32.6913 30.427 32.7313 30.407C32.8013 30.377 32.8013 30.4671 32.8413 30.4971C32.9413 30.4971 33.0513 30.547 33.1813 30.657C33.1813 30.657 33.1913 30.6671 33.2013 30.6771C33.4213 30.8271 33.4013 31.077 33.4013 31.157C33.4013 31.157 33.4013 31.1671 33.4013 31.1771C33.4013 31.3771 33.4013 31.5771 33.4013 31.7871C33.4213 31.7771 33.4313 31.7571 33.4513 31.7471C33.5913 31.5971 33.7613 31.4371 33.9613 31.3071C34.0613 31.2471 34.1513 31.1571 34.2413 31.0671C34.2813 31.0371 34.3113 30.9971 34.3513 30.9671C34.3513 30.8871 34.3513 30.7971 34.3913 30.6971C34.4213 30.6171 34.5013 30.4971 34.6613 30.4271C34.6813 30.3471 34.6913 30.2671 34.7113 30.1871C34.7113 30.1671 34.7113 30.1471 34.7213 30.1171C34.6313 30.0871 34.5513 30.0571 34.4713 30.0371C34.1813 29.937 34.1513 29.7071 34.1513 29.6171C34.1513 29.5271 34.1813 29.3471 34.3913 29.2371C34.5513 29.1271 34.7213 29.087 34.8913 29.097C34.8113 29.057 34.7413 28.9771 34.6413 28.9671C34.5913 28.9671 34.6013 28.8671 34.6113 28.8171C34.6413 28.7371 34.7113 28.7771 34.7913 28.7571C34.9513 28.8771 35.1713 28.8071 35.3713 28.8871C35.5513 28.9571 35.7613 28.9071 35.9513 29.0171C35.9713 29.0171 35.9813 29.0371 35.9913 29.0471C36.0413 29.0371 36.0913 29.0271 36.1613 29.0371C36.1513 29.017 36.1313 28.9971 36.0913 28.9971C35.9413 28.9671 35.9213 28.8671 35.9213 28.7371C35.9213 28.4771 36.0113 28.2371 36.0813 27.9971C36.1713 27.6771 36.2813 27.367 36.5013 27.097C36.6213 26.947 36.7813 26.8471 36.8813 26.6871C37.0313 26.4571 37.1513 26.2171 37.4213 26.1071C37.4313 26.1071 37.4513 26.0771 37.4513 26.0671C37.4713 25.8871 37.6513 25.7871 37.6813 25.6071C37.6913 25.5271 37.7413 25.4571 37.8013 25.4171C37.8913 25.3471 37.9913 25.2971 37.9513 25.1471C37.9413 25.0971 38.0013 25.0571 38.0513 25.0371C38.2013 24.9871 38.2213 24.8471 38.1813 24.7271C38.1413 24.6171 38.1513 24.517 38.1813 24.407C38.2313 24.257 38.2813 24.1071 38.3113 23.9471C38.3613 23.6171 38.3113 23.2871 38.5513 22.9871C38.7213 22.7971 38.7513 22.4971 38.8013 22.2271C38.9113 21.6371 39.0013 21.0371 39.1013 20.4471C39.2213 19.7771 39.1513 19.1171 39.1213 18.4571C39.1213 18.3871 39.1113 18.3071 39.0313 18.2871C38.9613 18.2771 38.9213 18.3371 38.8813 18.3971C38.6713 18.6971 38.4413 18.9871 38.1513 19.2271C37.9713 19.3771 37.8513 19.3571 37.6713 19.2471C37.4813 19.1171 37.4713 19.0871 37.6313 18.9171C37.8713 18.6471 38.1513 18.4271 38.3613 18.1171C38.7513 17.5271 39.0913 16.9171 39.3813 16.2671C39.4813 16.0371 39.6213 15.8171 39.5713 15.5371C39.4913 15.1071 39.4213 14.6771 39.2613 14.2671C39.1413 13.9571 39.0113 13.6671 38.6813 13.5071C38.2413 13.2871 37.7713 13.2471 37.2913 13.2971C37.2113 13.2971 37.1313 13.3371 37.1113 13.4271C37.0713 13.5371 37.0313 13.6571 37.0013 13.7771C36.9113 14.1071 36.8213 14.4471 36.7513 14.7771C36.7013 15.0071 36.6113 15.2171 36.5513 15.4371C36.4813 15.7171 36.3713 15.9871 36.2413 16.2471C36.0913 16.5671 35.9113 16.8671 35.7213 17.1671C35.4613 17.5671 35.2313 17.987 35.0013 18.407C34.8213 18.747 34.5213 18.9771 34.2913 19.2771C34.1913 19.3971 34.1813 19.4971 34.2913 19.6171C34.6013 19.9771 34.9913 20.0971 35.4513 20.0071C35.5613 19.9871 35.6213 19.9971 35.6913 20.0671C35.7513 20.1371 35.8313 20.2071 35.9313 20.1671C36.0813 20.0871 36.3013 20.0771 36.3213 19.8371C36.3213 19.8071 36.3613 19.7671 36.3813 19.7571C36.6513 19.6171 36.9213 19.4771 37.1913 19.3371C37.2413 19.3071 37.2813 19.3171 37.3213 19.3571C37.3813 19.4371 37.3713 19.7571 37.3013 19.8171C37.1013 19.9771 36.8713 20.0871 36.6413 20.1671C36.3513 20.2671 36.0213 20.2971 35.7413 20.4171C35.2113 20.6371 34.7513 20.4571 34.2913 20.2471C34.2413 20.2271 34.2313 20.1971 34.2313 20.1471C34.2313 20.0371 34.1513 20.0071 34.0613 19.9971C33.6913 19.9471 33.4613 19.4671 33.6813 19.1671C33.7713 19.0471 33.8413 18.9171 33.9413 18.7971C34.0813 18.6371 34.2213 18.4771 34.3513 18.3171C34.4913 18.1371 34.5613 17.9171 34.7013 17.7371C35.0213 17.3271 35.2513 16.8471 35.5213 16.4171C35.8413 15.9071 36.0413 15.3271 36.2113 14.7371C36.3213 14.3371 36.4113 13.9371 36.5113 13.5271C36.5713 13.2771 36.5913 13.0071 36.5113 12.7671C36.3313 12.0871 36.0213 11.4771 35.4013 11.1071C34.7913 10.7371 34.1513 10.6071 33.4713 10.9271C33.1313 11.0871 32.8713 11.2871 32.7613 11.6671C32.7013 11.8671 32.6613 12.0771 32.6013 12.2771C32.4413 12.7871 32.3113 13.2971 32.1913 13.8171C32.0213 14.5071 31.9913 15.2171 31.8713 15.9171C31.8313 16.1571 31.7913 16.4071 31.7113 16.6171C31.5113 17.1071 31.3113 17.6171 30.9813 18.0471C30.7713 18.3271 30.7013 18.6171 30.8813 18.9371C30.9613 19.0771 30.8813 19.227 30.7213 19.347C30.5913 19.437 30.5113 19.3471 30.4213 19.2671C30.3913 19.2371 30.3613 19.2071 30.3413 19.1671C30.2713 19.0871 30.1913 19.0571 30.1013 19.1171C29.9013 19.2471 29.6913 19.2271 29.4813 19.1471C29.3713 19.1371 29.2613 19.1471 29.1713 19.0671C29.1013 19.0071 29.0913 18.9071 29.1513 18.8871C29.2813 18.8471 29.3713 18.7171 29.5213 18.7571C29.6313 18.7871 29.6913 18.7471 29.7713 18.6671C29.9113 18.5171 30.0613 18.3871 30.2913 18.4171C30.4513 18.4371 30.5613 18.3471 30.5413 18.1871C30.5113 17.9271 30.6613 17.7071 30.7413 17.4871C30.8313 17.2371 30.9713 16.9871 31.0513 16.7271C31.1713 16.3471 31.3013 15.9671 31.3213 15.5571C31.3313 15.3071 31.3613 15.0571 31.4113 14.8171C31.4913 14.3671 31.5513 13.9071 31.6813 13.4671C31.8513 12.8571 32.0013 12.2471 32.1713 11.6471C32.2113 11.5171 32.2813 11.3871 32.2913 11.2471C32.3213 10.9171 32.3113 10.5871 32.1313 10.2871C31.9513 9.98705 31.7013 9.73706 31.3713 9.60706C31.0713 9.49706 30.7613 9.42705 30.4313 9.40705C30.0913 9.38705 29.8113 9.4771 29.5313 9.6471C29.1313 9.8871 28.8013 10.1971 28.4513 10.4971C28.1613 10.7571 27.9913 11.0471 28.0013 11.4371C28.0013 11.7871 28.0013 12.1371 28.0013 12.4871C28.0013 12.5871 28.0013 12.6871 28.0213 12.7771C28.0913 13.1571 28.1713 13.5371 28.1913 13.9271C28.2013 14.1571 28.1913 14.3871 28.2313 14.6171C28.3613 15.3771 28.2513 16.117 28.0213 16.847C27.9313 17.147 27.7913 17.4371 27.6913 17.7371C27.6113 17.9571 27.3313 18.1071 27.1113 18.0271C27.0813 18.0171 27.0513 18.0071 27.0513 17.9671C27.0313 17.8971 27.2313 17.5971 27.3113 17.5771C27.5913 17.5171 27.6913 17.3071 27.5613 17.0471C27.5313 16.9871 27.5213 16.9371 27.5113 16.8771C27.4813 16.6471 27.5513 16.4371 27.5513 16.2071C27.5513 15.8071 27.6713 15.4271 27.6813 15.0271C27.6813 14.6471 27.6213 14.277 27.6013 13.907C27.5713 13.397 27.5113 12.8871 27.4613 12.3871C27.4613 12.3371 27.4513 12.2771 27.4313 12.2271C27.3113 11.8271 27.4413 11.4471 27.5113 11.0771C27.5513 10.8471 27.5113 10.6471 27.4413 10.4571C27.3113 10.1471 27.0513 9.9571 26.8313 9.7171C26.7413 9.6271 26.6413 9.5871 26.5213 9.5871C26.2513 9.5871 25.9813 9.5971 25.7113 9.5871C25.2313 9.5571 24.8713 9.7871 24.5513 10.0871C24.3013 10.3271 24.0713 10.5871 23.9013 10.8871C23.8313 11.0071 23.7413 11.1071 23.6713 11.2271C23.4713 11.5771 23.3813 11.967 23.2513 12.347C23.1813 12.537 23.2213 12.6371 23.4013 12.7471C23.4813 12.7971 23.5413 12.8371 23.5313 12.9471C23.5213 13.0471 23.4613 13.0871 23.3813 13.1271C23.1013 13.2671 22.8513 13.1171 22.6013 13.0271C22.4313 12.9671 22.2713 12.8771 22.1013 12.8171C21.6513 12.6471 21.1713 12.6071 20.7113 12.5371C20.3313 12.4771 19.9913 12.587 19.6813 12.847C19.4013 13.087 19.2813 13.4171 19.1113 13.7171C18.8313 14.1971 18.5113 14.6671 18.4413 15.2471C18.4213 15.3971 18.4013 15.5571 18.3713 15.7171C18.2513 16.2371 18.1413 16.7671 18.0013 17.2871C17.9213 17.5871 17.9213 17.8971 17.8313 18.1971C17.7313 18.5471 17.6613 18.9171 17.6013 19.2771C17.5813 19.4271 17.5313 19.5871 17.5213 19.7371C17.5013 20.1871 17.5613 20.6371 17.7313 21.0571C17.8113 21.2471 17.8413 21.4671 17.9713 21.6371L18.0113 21.6471ZM33.8213 28.5571C33.8213 28.5571 33.8613 28.5571 33.8713 28.5671C33.9213 28.6271 34.0713 28.5871 34.0413 28.6971C34.0113 28.7871 33.8813 28.8471 33.7813 28.8071C33.6413 28.7471 33.4913 28.7771 33.3613 28.7071C33.2613 28.6471 33.1113 28.7671 33.1113 28.8871C33.1113 29.0271 33.1113 29.1671 33.1113 29.3071C33.1113 29.4471 33.1113 29.5871 33.0313 29.7071C32.9213 29.8571 33.0113 30.0071 33.0713 30.1471C33.1013 30.2071 33.1113 30.2571 33.0813 30.3171C33.0713 30.3471 33.0313 30.3471 33.0013 30.3371C32.9413 30.3071 32.8813 30.2671 32.8813 30.1871C32.8813 30.0571 32.9013 29.9171 32.7013 29.8971C32.6413 29.8971 32.6513 29.8071 32.6613 29.7471C32.7013 29.4271 32.5913 29.1271 32.6113 28.8071C32.6113 28.6871 32.5213 28.607 32.4013 28.5371C32.8713 28.5371 33.3413 28.5371 33.8013 28.5371L33.8213 28.5571ZM32.1913 19.7371C32.2613 19.7371 32.3213 19.7371 32.3913 19.7371C32.3913 19.7371 32.4213 19.7371 32.4313 19.7371C32.5313 19.7671 32.6813 19.6571 32.7313 19.8171C32.7613 19.9071 32.5013 20.1071 32.3813 20.1071C32.3113 20.1071 32.2413 20.1071 32.1813 20.1071C32.0713 20.0871 31.9913 20.0271 32.0013 19.8971C32.0013 19.7571 32.0913 19.7471 32.2013 19.7471L32.1913 19.7371ZM31.0813 19.3371C31.1013 19.2771 31.1513 19.2371 31.2213 19.3071C31.3013 19.3871 31.3913 19.4671 31.5013 19.5671C31.4113 19.5871 31.3513 19.5871 31.3113 19.6071C31.2513 19.6371 31.1913 19.6971 31.1213 19.6071C31.0513 19.5171 31.0513 19.4271 31.0913 19.3371H31.0813ZM26.9513 18.3171C26.9213 18.4371 26.8913 18.5771 26.7713 18.6471C26.3713 18.8971 25.9413 18.9371 25.5513 18.6271C25.4813 18.5671 25.4413 18.497 25.4613 18.407C25.4913 18.297 25.5913 18.3371 25.6613 18.3371C25.7413 18.3371 25.8213 18.3371 25.9113 18.3371C26.2113 18.3571 26.5113 18.3171 26.8113 18.2171C26.9113 18.1871 26.9613 18.2371 26.9413 18.3271L26.9513 18.3171ZM23.4713 17.2671C23.5113 17.1171 23.6613 17.1171 23.7713 17.0771C24.4313 16.8471 25.1113 16.6571 25.7213 16.2971C26.0213 16.1171 26.3113 15.9271 26.5413 15.6771C26.6413 15.5771 26.7113 15.4571 26.7113 15.3071C26.7013 15.0471 26.8013 14.7971 26.7513 14.5271C26.6913 14.2471 26.5613 14.0971 26.2913 14.0371C25.8313 13.9371 25.3713 13.8271 24.9213 13.7071C24.7813 13.6671 24.6613 13.5871 24.5313 13.5171C24.4513 13.4771 24.3713 13.4271 24.2413 13.4171C24.3913 13.2771 24.5113 13.1771 24.7013 13.1971C24.8013 13.2071 24.9013 13.2171 25.0113 13.1771C25.0613 13.1571 25.1313 13.1571 25.1713 13.1771C25.3613 13.3171 25.6113 13.2471 25.8013 13.3371C26.0213 13.4471 26.2713 13.4571 26.5013 13.5471C26.6413 13.6071 26.7913 13.6371 26.9313 13.6871C27.1213 13.7471 27.2413 13.8871 27.2713 14.0771C27.3213 14.3471 27.4513 14.6071 27.4113 14.8971C27.3613 15.2471 27.3113 15.597 27.1213 15.907C27.0513 16.017 26.9513 16.0571 26.8613 16.1171C26.6013 16.2871 26.4113 16.5171 26.1413 16.6771C25.8313 16.8571 25.5213 17.0571 25.1813 17.1671C24.9813 17.2271 24.8813 17.4271 24.9713 17.6171C25.0313 17.7371 25.0413 17.8871 25.1613 17.9871C25.2213 18.0371 25.2113 18.0871 25.1213 18.1171C24.7413 18.2571 24.4713 18.1671 24.2813 17.7971C24.2113 17.6571 24.1213 17.5971 23.9713 17.6071C23.8913 17.6071 23.8113 17.607 23.7313 17.597C23.5313 17.567 23.4413 17.4371 23.4813 17.2571L23.4713 17.2671ZM19.7113 15.097C19.7613 15.047 19.8213 15.0971 19.8513 15.1371C20.0813 15.3871 20.3713 15.5671 20.5613 15.8671C20.6813 16.0671 20.8413 16.2371 21.0913 16.3171C21.2413 16.3571 21.3713 16.4771 21.5013 16.5671C21.7813 16.6971 22.0613 16.8271 22.3513 16.9471C22.4513 16.9871 22.5513 17.0371 22.6413 17.0771C22.7213 17.1171 22.7813 17.1771 22.7513 17.2571C22.7213 17.3471 22.6513 17.3871 22.5613 17.3971C22.3913 17.4171 22.2013 17.3671 22.0913 17.2971C21.8613 17.1371 21.5613 17.0871 21.3713 16.8671C21.3513 16.8471 21.3413 16.8271 21.3313 16.8071C20.9313 16.6371 20.6813 16.2671 20.3213 16.0271C20.1413 15.9071 20.0513 15.7071 19.9113 15.5471C19.8413 15.4571 19.7713 15.3671 19.7013 15.2771C19.6713 15.2271 19.6413 15.1571 19.7013 15.1071L19.7113 15.097Z" fill="#1D478D"/>
</svg>
