<svg width="59" height="59" viewBox="0 0 59 59" fill="none" xmlns="http://www.w3.org/2000/svg">
<rect x="0.668945" y="0.503418" width="57.8345" height="57.8345" rx="4" fill="white"/>
<path d="M33.6112 16.4888C33.2712 16.6288 32.9412 16.7788 32.6012 16.9188C32.5112 16.9588 32.5212 17.0088 32.5612 17.0788C32.6412 17.2188 32.7812 17.2688 32.9212 17.3088C33.3212 17.4188 33.7412 17.4988 34.1512 17.5488C34.3312 17.5688 34.5012 17.5989 34.6712 17.6489C35.0212 17.7689 35.2112 18.0188 35.2512 18.3788C35.2812 18.6388 35.2512 18.8989 35.2112 19.1489C35.1912 19.2689 35.1212 19.3288 35.0012 19.3688C34.4812 19.4988 33.9612 19.4488 33.4512 19.3188C33.4212 19.3188 33.3912 19.3088 33.3512 19.2988C33.1812 19.2388 33.0112 19.1888 32.8512 19.1288C32.5012 18.9688 32.1512 18.7988 31.8112 18.6288C31.7112 18.5788 31.6912 18.6088 31.6812 18.6988C31.5612 18.8888 31.4812 19.0988 31.3812 19.2988C31.3612 19.3488 31.3412 19.3888 31.3112 19.4388C31.1512 19.7588 30.9812 20.0689 30.6812 20.2889C30.5412 20.3889 30.3912 20.4588 30.2512 20.5488C30.0812 20.6188 29.9012 20.6788 29.7312 20.7488C29.5812 20.7788 29.4312 20.8388 29.2812 20.8788L28.7512 20.9789C28.6812 20.9589 28.6212 20.9689 28.5512 20.9789C28.3512 20.9789 28.1712 20.9088 27.9812 20.8588C27.9412 20.8388 27.9012 20.8188 27.8512 20.7988C27.5112 20.6388 27.2312 20.4088 27.0412 20.0788C26.8912 19.8188 26.8812 19.5588 27.0212 19.2988C27.1012 19.1488 27.2012 19.0088 27.3012 18.8788C27.4912 18.6188 27.7112 18.3788 27.9612 18.1288C27.7712 18.1388 27.6012 18.1589 27.4412 18.1589C27.0612 18.1789 26.6812 18.1188 26.3012 18.0688C26.0812 18.0188 25.8612 17.9589 25.6412 17.9089C25.6012 17.8689 25.5512 17.8589 25.5012 17.8389C25.2512 17.7489 25.0112 17.6388 24.7812 17.5088C24.4812 17.3288 24.2012 17.1388 24.2112 16.7688C24.1112 16.8588 24.0012 16.9488 23.8912 17.0488C23.7412 17.1588 23.5912 17.2788 23.4412 17.3888C22.8412 17.7888 22.1812 18.0588 21.5012 18.3088C21.4512 18.3188 21.3912 18.3289 21.3112 18.3989C21.4112 18.3689 21.4812 18.3488 21.5512 18.3288C21.7212 18.2988 21.8912 18.2589 22.0612 18.2289C22.3612 18.1789 22.6612 18.1088 22.9712 18.1888C23.2912 18.2688 23.4412 18.5489 23.3112 18.8489C23.2712 18.9489 23.2012 19.0489 23.1512 19.1489C22.9912 19.2889 22.8312 19.4188 22.6412 19.5088C22.5412 19.5388 22.4412 19.5689 22.3412 19.5989C22.0212 19.6889 21.6912 19.6888 21.3612 19.7088C21.3412 19.7088 21.3112 19.7088 21.2912 19.7088C21.0412 19.6488 20.8912 19.7488 20.8412 19.9988C20.6312 20.4088 20.4012 20.7988 19.9712 21.0188C19.7912 21.0988 19.5912 21.0988 19.4012 21.1388C19.1512 21.1188 18.8912 21.1188 18.6412 21.1388C18.3912 21.1188 18.1412 21.1288 17.8912 21.1288C17.8212 21.1288 17.7512 21.1288 17.6812 21.1288C17.3712 21.1288 17.0712 21.1288 16.7712 21.0688C16.5512 21.0188 16.3612 20.9388 16.1712 20.7988C16.0912 21.1488 15.9612 21.4588 15.8412 21.7688C15.7612 21.9288 15.6812 22.0888 15.6012 22.2488C15.4412 22.4988 15.2612 22.7488 15.1112 23.0088C14.9312 23.3288 14.9612 23.6488 15.1912 23.9388C15.3212 24.0988 15.4812 24.2188 15.6512 24.3288C15.8912 24.4788 16.1412 24.6188 16.3512 24.8188C16.6012 25.0788 16.7512 25.3988 16.8312 25.7588C16.8612 26.0388 16.8512 26.3088 16.7612 26.5788C16.6712 26.8388 16.5212 26.9988 16.2212 27.0088C15.8212 27.0188 15.4312 27.0788 15.0312 27.0088C14.7712 26.9588 14.5312 26.8588 14.3612 26.6188C14.2712 26.9188 14.2012 27.1989 14.1012 27.4789C13.8012 28.2789 13.3912 28.9989 12.8312 29.6489C12.5712 29.9589 12.2512 30.1188 11.8412 30.1088C11.7112 30.1088 11.5812 30.1088 11.4412 30.1088C11.1112 30.1088 10.9412 29.9789 10.8412 29.6589C10.6912 29.1889 10.6812 28.7089 10.7712 28.2289C10.8412 27.8489 10.9712 27.4888 11.1412 27.1388C11.2912 26.8388 11.2112 26.6788 10.8812 26.6188C10.6112 26.5688 10.3312 26.5788 10.0512 26.5088C9.62117 26.4088 9.20117 26.2589 8.82117 26.0389C8.27117 25.7189 8.36117 25.1988 8.66117 24.8588C8.83117 24.6588 9.07117 24.5388 9.29117 24.4188C9.37117 24.3788 9.45117 24.3388 9.53117 24.2988C9.99117 24.0788 10.2912 23.7188 10.3912 23.2088C10.4212 23.0388 10.4712 22.8789 10.5412 22.7289C10.6012 22.5789 10.6912 22.4488 10.8212 22.3688C11.2512 22.0788 11.3412 21.6488 11.2712 21.1788C11.2312 20.8788 11.1612 20.5889 11.1112 20.2889C11.0812 20.0989 11.0812 19.9089 11.1412 19.7189C11.2212 19.4589 11.3912 19.3188 11.6712 19.2988C12.1112 19.2688 12.3712 19.2989 12.7712 19.4789C12.5512 19.1189 12.4012 18.7389 12.3112 18.3389C12.2712 18.1689 12.2312 17.9988 12.2412 17.8188C12.2412 17.6188 12.3312 17.4788 12.5112 17.3888C13.1312 17.0688 13.9912 17.1988 14.5412 17.6988C14.6812 17.8288 14.8112 17.9689 15.0012 18.0289C15.1712 18.0789 15.1812 18.0689 15.1712 17.9089C15.1712 17.3889 15.3712 16.9688 15.8012 16.6688C15.8112 16.6688 15.8212 16.6488 15.8312 16.6388C15.8312 16.6388 15.8312 16.6388 15.8312 16.6188C15.6912 16.5688 15.5612 16.5288 15.4312 16.4588C15.1112 16.2688 14.9312 15.9188 14.9912 15.5488C15.0312 15.2888 15.1912 15.1289 15.4212 15.0289C15.6912 14.9089 15.9812 14.8888 16.2612 14.8588C16.5912 14.8188 16.9212 14.8088 17.2512 14.8188C17.2912 14.8188 17.3312 14.8388 17.3412 14.7688C17.4212 14.3288 17.6912 14.1089 18.1412 14.0989C18.3212 14.0989 18.5112 14.1189 18.7012 14.1589C18.7012 14.0489 18.6712 13.9388 18.7312 13.8288C18.8612 13.5988 19.1112 13.4888 19.4212 13.5788C19.9512 13.7388 20.4512 13.9988 20.9012 14.3288C21.0612 14.4488 21.2112 14.5788 21.3812 14.6688C21.4512 14.6988 21.5112 14.7488 21.6112 14.7388C21.1012 14.4788 20.7312 14.1088 20.4712 13.6188C20.2712 13.2288 20.1712 12.8188 20.2012 12.3788C20.2212 12.0788 20.3912 11.8888 20.6412 11.7488C21.0412 11.5188 21.4712 11.5389 21.9012 11.6589C22.3412 11.7789 22.7012 12.0388 23.0612 12.3188C23.3112 12.5088 23.5712 12.7088 23.8412 12.9188C23.8212 12.5988 23.7912 12.2988 23.7812 12.0088C23.7612 11.3788 23.8212 10.7588 24.1612 10.2088C24.4912 9.65885 24.9712 9.34882 25.6312 9.36882C25.7112 9.36882 25.8012 9.38886 25.8812 9.40886C26.2212 9.49886 26.2712 9.56882 26.2912 9.92882C26.3212 10.5588 26.3412 11.1888 26.2912 11.8288C26.2712 12.1088 26.2212 12.3888 26.1612 12.6788C26.1912 12.6588 26.2112 12.6589 26.2212 12.6489C26.9012 12.0689 27.7112 11.7888 28.5912 11.6688C29.1512 11.5988 29.7112 11.5588 30.2712 11.6688C30.7012 11.7488 31.0412 11.9688 31.1712 12.4188C31.2012 12.5288 31.1912 12.6389 31.1812 12.7789C31.7512 12.5489 32.3312 12.3989 32.9312 12.3489C32.8512 12.0489 32.6712 11.8189 32.4912 11.5989C32.3512 11.4389 32.2112 11.2788 32.0812 11.1088C31.8612 10.8388 31.7612 10.5188 31.7512 10.1788C31.7512 10.0288 31.7512 9.88882 31.7512 9.73882C31.7512 9.48882 31.8912 9.34885 32.1512 9.33885C32.3712 9.32885 32.5812 9.39884 32.7912 9.44884C33.2112 9.55884 33.6212 9.67882 34.0412 9.80882C34.4612 9.93883 34.7512 10.1988 34.9012 10.6188C34.9812 10.8288 35.0612 11.0288 35.2412 11.1888C35.3512 11.2888 35.3612 11.2889 35.4012 11.1489C35.6412 10.2489 36.3312 9.63886 37.2412 9.52886C37.4412 9.49886 37.6412 9.52884 37.8312 9.57884C38.1212 9.65884 38.3912 9.77883 38.6412 9.93883C38.9712 10.1488 39.0412 10.3988 38.8712 10.7488C38.5012 11.4888 38.0912 12.2089 37.6512 12.9089C37.6212 12.9489 37.6012 12.9988 37.5812 13.0488C37.9712 12.7588 38.4012 12.5788 38.8812 12.5088C39.3812 12.4388 39.8912 12.4188 40.3812 12.5788C40.8712 12.7388 41.1712 13.1188 41.1812 13.5588C41.1812 13.8888 41.0312 14.1288 40.7212 14.2488C40.4512 14.3588 40.1512 14.3789 39.8612 14.4089C39.0912 14.4989 38.3212 14.5188 37.5312 14.4988C37.5712 14.5588 37.6312 14.5589 37.6712 14.5889C37.9212 14.6989 38.1612 14.8289 38.3012 15.0889C38.4412 15.3489 38.4012 15.6188 38.1912 15.8288C37.9812 16.0288 37.7312 16.1289 37.4512 16.1489C36.6112 16.2089 35.9912 15.8588 35.5412 15.1288C35.4812 15.3188 35.3812 15.4888 35.2512 15.6288C35.0112 15.8688 34.7212 16.0189 34.4212 16.1589C34.3012 16.2089 34.1812 16.2688 34.0612 16.3188C33.9112 16.3788 33.7612 16.4488 33.6112 16.5088V16.4888ZM21.2312 18.4188C21.2312 18.4188 21.2712 18.4189 21.2912 18.3989C21.2712 18.3989 21.2512 18.4188 21.2312 18.4188C21.2312 18.4188 21.2312 18.4288 21.2212 18.4388C21.2212 18.4388 21.2212 18.4288 21.2212 18.4188C21.2212 18.4188 21.2312 18.4188 21.2412 18.4188H21.2312ZM35.8412 13.6388C35.9112 13.6388 35.9712 13.6288 36.0412 13.6088C36.3412 13.5288 36.4712 13.2689 36.3512 12.9789C36.2112 12.6189 35.6812 12.3688 35.3212 12.4388C34.8912 12.5088 34.7912 12.8888 34.9712 13.1688C35.1812 13.4788 35.4812 13.6088 35.8312 13.6388H35.8412ZM24.1512 14.7488C24.1512 14.7488 24.2812 14.7489 24.3612 14.7189C24.7012 14.6289 24.8312 14.2788 24.6112 13.9888C24.3512 13.6488 24.0112 13.5389 23.5912 13.5989C23.2512 13.6489 23.0812 14.0088 23.2612 14.2988C23.4512 14.6088 23.7512 14.7388 24.1412 14.7488H24.1512ZM12.1012 24.5188C12.1012 24.6588 12.1012 24.8088 12.1712 24.9388C12.2512 25.1088 12.3612 25.2589 12.5612 25.2889C12.7612 25.3189 12.9112 25.2388 13.0312 25.0688C13.2312 24.7688 13.2412 24.2988 13.0312 23.9988C12.8212 23.6888 12.4812 23.6789 12.2512 23.9689C12.1212 24.1289 12.0912 24.3188 12.1012 24.5188ZM28.1112 14.9588C28.0412 14.7188 28.0912 14.4888 28.0912 14.2588C28.0912 14.0988 28.1112 13.9488 28.0612 13.7988C28.0112 13.6488 27.9312 13.5988 27.7812 13.6188C27.6812 13.6388 27.5812 13.6789 27.4912 13.7289C27.2012 13.8789 26.9412 14.0888 26.6712 14.2688C26.6312 14.2988 26.5712 14.3088 26.5812 14.3688C26.5812 14.4288 26.6512 14.4388 26.7012 14.4588C27.1712 14.6288 27.6412 14.7888 28.1312 14.9588H28.1112ZM15.4112 18.6788C15.1612 18.6788 15.0112 18.7288 14.8312 18.8588C14.5412 19.0688 14.5812 19.4488 14.9012 19.6188C15.2312 19.7888 15.5712 19.7789 15.8812 19.5989C16.2312 19.3889 16.2612 18.9889 15.8812 18.7789C15.7312 18.6989 15.5712 18.6788 15.4012 18.6788H15.4112ZM30.1412 17.3489C30.3712 17.3489 30.6412 17.1889 30.8512 16.9089C30.9712 16.7589 31.0012 16.5789 30.9212 16.3989C30.8512 16.2289 30.6912 16.1489 30.5312 16.1489C30.1412 16.1389 29.7412 16.3388 29.5812 16.7488C29.4612 17.0588 29.6812 17.3489 30.1412 17.3489ZM18.5012 19.5788C18.5612 19.5788 18.6212 19.5788 18.6812 19.5688C19.0012 19.5088 19.1412 19.2188 18.9912 18.9288C18.8112 18.5788 18.2812 18.3688 17.9212 18.5088C17.5812 18.6388 17.5312 18.9088 17.6712 19.1388C17.8512 19.4288 18.1412 19.5888 18.5012 19.5788ZM19.9312 17.1388C19.8012 17.1388 19.7312 17.1988 19.7112 17.3288C19.7012 17.4188 19.7112 17.5089 19.7112 17.5989C19.7312 17.7989 19.7612 17.9988 19.8512 18.1888C19.9212 18.3288 19.9912 18.3389 20.1012 18.2289C20.1712 18.1589 20.2512 18.0888 20.3412 18.0488C20.4412 18.0088 20.5412 17.9788 20.6412 17.9388C20.8412 17.8588 20.8712 17.7088 20.7112 17.5788C20.5612 17.4488 20.4012 17.3189 20.2112 17.2289C20.1212 17.1889 20.0312 17.1389 19.9312 17.1489V17.1388ZM33.0012 14.5389C32.8112 14.4689 32.7012 14.3389 32.5912 14.2189C32.5112 14.1289 32.4312 14.0488 32.3212 14.0088C32.2412 13.9788 32.2012 13.9789 32.2112 14.0889C32.2312 14.3689 32.2412 14.6388 32.2412 14.9188C32.2412 15.0188 32.2812 15.0089 32.3412 14.9689C32.5512 14.8389 32.7612 14.6988 33.0012 14.5488V14.5389Z" fill="#1D478D"/>
<path d="M43.9012 26.5586C43.9012 26.5586 43.9012 26.5186 43.9012 26.4986C43.9012 26.3486 43.9812 26.2186 44.0012 26.0686C44.1212 25.8586 44.2312 25.6386 44.3112 25.4086C44.4412 25.0086 44.3512 24.7586 44.0112 24.5086C43.3912 24.0486 42.6812 23.7686 41.9512 23.5486C41.7912 23.4986 41.6312 23.4686 41.4612 23.5086C41.3912 23.5286 41.3712 23.5486 41.4012 23.6286C41.4512 23.7386 41.5112 23.8586 41.5512 23.9786C41.6312 24.1786 41.6912 24.3886 41.6612 24.6086C41.6012 25.0486 41.3712 25.3886 41.0312 25.6586C40.3312 26.2086 39.4912 26.3386 38.6312 26.3986C38.3512 26.4186 38.1812 26.2786 38.0812 25.9986C37.9912 25.7386 37.9312 25.4786 37.8812 25.2086C37.8812 25.1886 37.8812 25.1586 37.8612 25.1486C37.8312 24.8586 37.7912 24.5786 37.7612 24.2886C37.7312 23.9986 37.6312 23.7486 37.3712 23.5886C37.2312 23.4786 37.0612 23.4086 36.8912 23.3386C36.5212 23.1886 36.1412 23.0386 35.7712 22.8786C35.3112 22.6786 34.9112 22.4086 34.6412 21.9786C34.4112 21.6086 34.3612 21.2186 34.5012 20.7986C34.5712 20.5986 34.6612 20.4086 34.7512 20.2186C34.8712 19.9686 35.0712 19.8486 35.3512 19.8486C35.9812 19.8486 36.6112 19.8286 37.2312 19.8286C37.2612 19.8286 37.3012 19.8286 37.3312 19.8286C37.3312 19.7586 37.2912 19.7086 37.2612 19.6586C36.8512 18.7686 36.8212 17.8886 37.3412 17.0386C37.5312 16.7186 37.8112 16.4986 38.2012 16.4486C38.5412 16.4086 38.8312 16.5386 39.0812 16.7486C39.4312 17.0386 39.6412 17.4186 39.8012 17.8286C39.9212 18.1386 40.0312 18.4586 40.1712 18.7586C40.2712 18.9686 40.3912 19.1586 40.5212 19.3386C40.5912 19.4286 40.6412 19.4286 40.7212 19.3686C41.3112 18.9686 41.9012 18.5586 42.5112 18.1686C42.8712 17.9386 43.2512 17.7886 43.6912 17.8186C44.3112 17.8586 44.7212 18.3486 44.6312 18.9686C44.5312 19.6386 44.1812 20.1686 43.7012 20.6286C43.2712 21.0486 42.7712 21.3786 42.2612 21.6986C42.2412 21.7086 42.2112 21.7286 42.1612 21.7586C42.3812 21.7686 42.5812 21.7786 42.7712 21.7886C43.2712 21.8086 43.7612 21.8786 44.2412 22.0486C44.7112 22.2186 45.1212 22.4786 45.4412 22.8886C45.4712 22.7686 45.4812 22.6586 45.5112 22.5586C45.6412 22.0986 45.9212 21.7386 46.3712 21.5486C46.6312 21.4386 46.7412 21.2786 46.7512 20.9886C46.7512 20.5286 46.9512 20.1586 47.4012 19.9686C47.8312 19.7886 48.2712 19.9686 48.4812 20.3686C48.6112 20.6086 48.6612 20.8786 48.6712 21.1486C48.6912 21.8386 48.6812 22.5286 48.5312 23.2086C48.4712 23.4586 48.3812 23.7086 48.2612 23.9386C48.1112 24.2186 48.1312 24.2886 48.3812 24.4886C48.6012 24.6686 48.8312 24.8386 49.0212 25.0486C49.2412 25.2886 49.4112 25.5586 49.4412 25.8886C49.4912 26.4086 49.1812 26.8386 48.6312 27.0386C48.2812 27.1686 47.9312 27.1586 47.5712 27.1086C47.3812 27.0886 47.2012 27.0486 47.0012 27.0086C47.0912 27.2086 47.2112 27.3686 47.3312 27.5386C47.6012 27.9186 47.9112 28.2486 48.2512 28.5586C48.4812 28.7786 48.7112 29.0086 48.8912 29.2786C48.9812 29.4186 49.0512 29.5686 49.0912 29.7286C49.1312 29.9086 49.0912 29.9886 48.9212 30.0686C48.6112 30.2086 48.3012 30.1686 48.0012 30.0286C47.6612 29.8786 47.4012 29.6186 47.1812 29.3286C46.9612 29.0386 46.7712 28.7186 46.5312 28.4386C46.5112 28.4086 46.4812 28.3886 46.4412 28.3686C46.5012 28.5486 46.5712 28.7286 46.6312 28.9086C46.6412 28.9486 46.6612 28.9786 46.6712 29.0186C46.7212 29.1586 46.7812 29.3086 46.6512 29.4486C46.5312 29.5786 46.3712 29.5586 46.2112 29.5286C46.0412 29.4986 45.8912 29.4086 45.7612 29.3086C45.0412 28.7586 44.5012 28.0586 44.0512 27.2786C43.9512 27.0986 43.9012 26.9086 43.8812 26.6986C43.8812 26.6586 43.8812 26.6186 43.8812 26.5786L43.9012 26.5586ZM38.7312 21.0486C38.7312 21.1186 38.7312 21.1886 38.7712 21.2586C38.8712 21.4686 39.1112 21.5286 39.3012 21.5086C39.6712 21.4686 39.9612 21.2986 40.1412 20.9686C40.2912 20.6886 40.1712 20.3786 39.9012 20.3086C39.6212 20.2386 39.3612 20.2786 39.1312 20.4486C38.9312 20.5986 38.7412 20.7786 38.7312 21.0586V21.0486ZM47.2412 25.3186C47.2412 24.9386 47.0812 24.6686 46.8212 24.4686C46.6912 24.3686 46.5412 24.3186 46.3712 24.3886C46.1712 24.4686 46.0912 24.6286 46.0812 24.8386C46.0712 25.0386 46.1312 25.2186 46.2212 25.3886C46.2912 25.5086 46.3712 25.6086 46.4912 25.6886C46.6512 25.7986 46.8212 25.8586 47.0012 25.7586C47.1812 25.6586 47.2512 25.4886 47.2412 25.3186Z" fill="#1D478D"/>
<path d="M44.0013 26.0786C43.9813 26.2286 43.9113 26.3586 43.9013 26.5086C43.6813 26.5586 43.4913 26.6586 43.2813 26.7486C42.6513 27.0286 42.0013 27.2386 41.3313 27.4286C40.4713 27.6686 39.6013 27.8986 38.7313 28.0986C37.9613 28.2786 37.1913 28.4186 36.4113 28.4886C35.8713 28.5386 35.3413 28.5786 34.8013 28.5586C34.0013 28.5386 33.2013 28.4886 32.4113 28.3386C32.2713 28.3086 32.1513 28.2186 31.9913 28.2186C31.4013 28.2186 31.0213 28.5186 30.9013 29.0886C30.8813 29.1886 30.8713 29.2886 30.8313 29.3786C30.6313 29.8986 30.7213 30.3886 30.9513 30.8786C31.4313 31.9086 31.9213 32.9286 32.4413 33.9386C32.9813 34.9786 33.5713 35.9986 34.1113 37.0386C34.4613 37.6986 34.8013 38.3586 35.2013 38.9886C35.6613 39.7086 36.1413 40.4086 36.6013 41.1286C36.7313 41.3286 36.8313 41.5386 36.9513 41.7486C36.9713 41.7786 36.9913 41.8086 36.9513 41.8386C36.9113 41.8686 36.8813 41.8386 36.8513 41.8086C36.3813 41.3886 35.9113 40.9786 35.5013 40.5086C35.1713 40.1286 34.8213 39.7786 34.4913 39.4086C33.6813 38.4986 32.8513 37.5986 32.1713 36.5886C31.6413 35.7986 31.2013 34.9586 30.8513 34.0786C30.7913 33.9386 30.7413 33.7986 30.6613 33.6686C30.5313 33.4686 30.3513 33.3286 30.1313 33.2486C29.7313 33.0886 29.3113 32.9586 28.9213 32.7686C28.4413 32.5386 27.9913 32.2586 27.5613 31.9386C27.0713 31.5786 26.5913 31.2186 26.1313 30.8386C25.5613 30.3586 25.0213 29.8686 24.5313 29.2986C24.3813 29.1186 24.2013 28.9686 24.0113 28.8186C23.8613 28.6986 23.6613 28.6986 23.4713 28.6686C22.2213 28.4286 21.0213 28.0486 19.8413 27.5786C19.2713 27.3586 18.7213 27.0986 18.2013 26.7886C17.7613 26.5186 17.3413 26.2286 16.9513 25.8886C16.9013 25.8486 16.8513 25.8186 16.8013 25.7786C16.7213 25.4186 16.5813 25.1086 16.3213 24.8386C16.4013 24.7986 16.4613 24.8486 16.5313 24.8886C16.9213 25.1486 17.3213 25.4086 17.7113 25.6686C18.4913 26.1886 19.3013 26.6586 20.1813 26.9886C20.3613 27.0486 20.5313 27.1086 20.7413 27.1586C20.7013 27.1086 20.6813 27.0886 20.6613 27.0686C20.1613 26.5986 19.6613 26.1286 19.1613 25.6586C18.4113 24.9486 17.6613 24.2486 16.9013 23.5386C16.6613 23.3086 16.4113 23.0886 16.1713 22.8586C15.9713 22.6686 15.7713 22.4586 15.5713 22.2686C15.6513 22.1086 15.7313 21.9486 15.8113 21.7886C15.9513 21.9386 16.1313 22.0386 16.2813 22.1686C17.2113 22.9186 18.0713 23.7486 18.9513 24.5486C19.3713 24.9386 19.7913 25.3286 20.2113 25.7186C20.3313 25.8286 20.4513 25.9286 20.5713 26.0286C20.6113 26.0586 20.6713 26.0886 20.7113 26.0486C20.7513 26.0186 20.7113 25.9686 20.6913 25.9286C20.4913 25.4186 20.3413 24.8986 20.1713 24.3886C20.0313 23.9886 19.8713 23.5886 19.6113 23.2586C19.0913 22.5886 18.5513 21.9286 18.0213 21.2586C17.9713 21.1986 17.9213 21.1686 17.8513 21.1486C18.1013 21.1486 18.3513 21.1386 18.6013 21.1586C18.8513 21.4986 19.1713 21.7786 19.3913 22.1486C19.4013 22.1686 19.4213 22.1886 19.4513 22.1786C19.4913 22.1586 19.5313 22.1386 19.5313 22.0886C19.5313 22.0486 19.5313 22.0186 19.5313 21.9786C19.5013 21.7086 19.4013 21.4386 19.3813 21.1686C19.5713 21.1286 19.7713 21.1286 19.9513 21.0486C20.1113 21.6086 20.2713 22.1586 20.4013 22.7286C20.5013 23.1286 20.6013 23.5186 20.8613 23.8486C21.3313 24.4486 21.8013 25.0486 22.2713 25.6486C22.3513 25.7586 22.4413 25.8586 22.5313 25.9586C22.5613 25.9886 22.6113 26.0186 22.6613 25.9886C22.6913 25.9686 22.6613 25.9186 22.6613 25.8886C22.3513 24.8786 22.0313 23.8686 21.7213 22.8586C21.4813 22.0986 21.2613 21.3286 21.0213 20.5686C20.9613 20.3886 20.9413 20.1886 20.8313 20.0286C20.8813 19.7786 21.0313 19.6786 21.2813 19.7386C21.3013 19.7386 21.3313 19.7386 21.3513 19.7386C21.5713 20.5486 21.8413 21.3486 22.0913 22.1586C22.3213 22.9186 22.5713 23.6686 22.8113 24.4186C23.0113 25.0586 23.2213 25.6986 23.4213 26.3386C23.5113 26.6186 23.6313 26.9086 23.8813 27.0886C24.0913 27.2486 24.2313 27.4486 24.3613 27.6686C24.7013 28.2386 25.0913 28.7786 25.5213 29.2886C26.0613 29.9486 26.6713 30.5386 27.3313 31.0686C28.0213 31.6186 28.7913 32.0686 29.5413 32.5386C29.7413 32.6686 29.9413 32.8086 30.1713 32.8886C30.2013 32.8986 30.2413 32.9286 30.2713 32.8886C30.3113 32.8486 30.2913 32.8086 30.2713 32.7686C30.2113 32.6186 30.1513 32.4586 30.0913 32.3086C29.7513 31.4086 29.4913 30.4886 29.1913 29.5686C28.7413 28.1886 28.3113 26.8086 27.8813 25.4186C27.6513 24.6886 27.3913 23.9686 27.2113 23.2286C27.1513 22.9886 27.0813 22.7586 26.9313 22.5586C26.6413 22.1686 26.2713 21.8686 25.9013 21.5586C25.4513 21.1786 24.9513 20.8486 24.4413 20.5386C23.8413 20.1786 23.2313 19.8486 22.6113 19.5286C22.8013 19.4286 22.9613 19.2986 23.1213 19.1686C23.1813 19.1586 23.2213 19.1886 23.2713 19.2086C23.6713 19.4186 24.0613 19.6186 24.4613 19.8386C24.7813 20.0186 25.1013 20.1886 25.4013 20.4086C25.8013 20.6986 26.1113 21.0786 26.4613 21.4186C26.5513 21.5086 26.6313 21.6086 26.7213 21.6986C26.7513 21.7286 26.7913 21.7586 26.8313 21.7386C26.8813 21.7186 26.8713 21.6786 26.8613 21.6286C26.8413 21.5386 26.8313 21.4486 26.8113 21.3686C26.6913 20.8186 26.4613 20.3186 26.2813 19.7886C26.1313 19.3586 25.9213 18.9886 25.5013 18.7486C24.9713 18.4386 24.4813 18.0786 23.9613 17.7486C23.7813 17.6286 23.6213 17.4786 23.4113 17.4186C23.5613 17.3086 23.7113 17.1886 23.8613 17.0786C23.8913 17.0886 23.9113 17.0986 23.9413 17.1086C24.2713 17.3286 24.6013 17.5486 24.9313 17.7786C25.1613 17.9286 25.3713 18.0886 25.6313 18.2186C25.6513 18.1086 25.5713 18.0286 25.6013 17.9386C25.8213 17.9886 26.0413 18.0486 26.2613 18.0986C26.2013 18.1486 26.2113 18.2286 26.2013 18.2986C26.1713 18.7686 26.2613 19.2386 26.3513 19.6986C26.4013 19.9286 26.5213 20.0886 26.7013 20.2286C26.7713 20.2886 26.8513 20.3486 26.9313 20.3986C27.0713 20.4986 27.1613 20.6286 27.2013 20.7986C27.3013 21.1486 27.3913 21.4986 27.5213 21.8386C27.5613 21.9386 27.5813 22.0386 27.6613 22.1486C27.7713 21.7186 27.8613 21.3086 27.9413 20.8986C28.1313 20.9486 28.3113 21.0086 28.5113 21.0186C28.5013 21.1686 28.4913 21.3086 28.4713 21.4586C28.4313 21.8786 28.3913 22.2886 28.3313 22.7086C28.2813 23.1386 28.2413 23.5686 28.5013 23.9486C28.5213 23.9786 28.5313 24.0086 28.5413 24.0386C28.7613 24.7886 28.9713 25.5486 29.2113 26.2986C29.4513 27.0586 29.6313 27.8486 29.9613 28.5786C29.9913 28.6486 30.0013 28.7286 30.0713 28.7986C30.1113 28.6986 30.1413 28.6086 30.1713 28.5186C30.3313 27.8786 30.4913 27.2386 30.6513 26.5986C30.8213 25.9286 30.9813 25.2686 31.1513 24.5986C31.2013 24.4186 31.1513 24.2686 31.0313 24.1286C30.9213 24.0186 30.8413 23.8886 30.7613 23.7486C30.6213 23.4886 30.4813 23.2386 30.3413 22.9786C29.9613 22.2586 29.3713 21.7086 28.8113 21.1386C28.7713 21.0986 28.7313 21.0686 28.7113 21.0186C28.8913 20.9886 29.0613 20.9486 29.2413 20.9186C29.3613 21.0886 29.5313 21.1986 29.6813 21.3486C29.7413 21.4086 29.7513 21.3486 29.7513 21.3086C29.7613 21.1286 29.6913 20.9686 29.6913 20.7986C29.8613 20.7286 30.0413 20.6686 30.2113 20.5986C30.4513 21.6786 30.7913 22.7286 31.2413 23.7586C31.2913 23.6986 31.3013 23.6486 31.3113 23.5986C31.4313 23.1386 31.4713 22.6686 31.5013 22.1986C31.5413 21.3986 31.4913 20.6086 31.4113 19.8086C31.3913 19.6486 31.4113 19.4886 31.3413 19.3386C31.4413 19.1386 31.5213 18.9286 31.6413 18.7386C31.6613 19.0086 31.6913 19.2786 31.7113 19.5486C31.7613 20.0686 31.8013 20.5886 31.8513 21.1086C31.8713 21.3586 31.8913 21.6086 31.9113 21.8486C31.9113 21.8986 31.9113 21.9686 31.9713 21.9786C32.0513 21.9886 32.0413 21.9086 32.0613 21.8586C32.1413 21.5986 32.2113 21.3386 32.2813 21.0886C32.4613 20.4486 32.6413 19.8086 32.8213 19.1586C32.9913 19.2186 33.1613 19.2686 33.3213 19.3286C33.2613 19.6086 33.2113 19.8886 33.1513 20.1686C33.0213 20.8186 32.8513 21.4486 32.6813 22.0886C32.4013 23.1186 32.1313 24.1386 31.8513 25.1686C31.6913 25.7786 31.5213 26.3886 31.3613 26.9986C31.3113 27.1986 31.2913 27.3986 31.2513 27.5986C31.2513 27.6486 31.2313 27.7086 31.2813 27.7386C31.3313 27.7686 31.3713 27.7286 31.4113 27.7086C31.9513 27.4586 32.4913 27.2186 33.0313 26.9686C33.1413 26.9186 33.2713 26.8786 33.3513 26.9686C33.4113 27.0286 33.3113 27.1486 33.2913 27.2386C33.2813 27.3086 33.1513 27.3586 33.2313 27.4386C33.2813 27.4986 33.3713 27.4686 33.4513 27.4686C33.7813 27.4786 34.1213 27.4786 34.4513 27.5286C34.7213 27.5586 34.9213 27.4786 35.0913 27.2386C35.4313 26.7586 35.6713 26.2286 35.9013 25.6886C36.2013 24.9786 36.4913 24.2686 36.7913 23.5686C36.8113 23.5086 36.8313 23.4486 36.8513 23.3986C37.0213 23.4686 37.1813 23.5286 37.3313 23.6486C37.2813 23.6586 37.2813 23.6986 37.2713 23.7386C37.1013 24.3786 36.8913 24.9986 36.6113 25.5986C36.3813 26.0786 36.0813 26.5186 35.8213 26.9786C35.7313 27.1286 35.6113 27.2686 35.5713 27.4486C35.5713 27.4586 35.5513 27.4686 35.5413 27.4786C35.5413 27.4786 35.5413 27.4786 35.5413 27.4686C35.5513 27.4686 35.5613 27.4486 35.5713 27.4386C35.6113 27.4386 35.6413 27.4086 35.6613 27.3786C35.8813 27.1986 36.0713 27.0086 36.2613 26.7986C36.7413 26.2886 37.1613 25.7286 37.6213 25.1886C37.6946 25.1019 37.758 25.1019 37.8113 25.1886C37.8113 25.1886 37.8313 25.2286 37.8313 25.2486C37.8013 25.2886 37.8113 25.3386 37.8113 25.3886C37.8413 25.5786 37.8113 25.7586 37.6813 25.8986C37.5113 26.0986 37.3313 26.3086 37.1513 26.4986C36.8413 26.8186 36.6013 27.1986 36.2113 27.4186C36.1813 27.4386 36.1313 27.4586 36.1613 27.4986C36.1913 27.5386 36.1913 27.6186 36.2613 27.6186C36.3013 27.6186 36.3413 27.6186 36.3913 27.6186C36.8813 27.6186 37.3713 27.5786 37.8613 27.5386C38.5613 27.4786 39.2513 27.3686 39.9413 27.2286C40.5213 27.1086 41.1013 26.9686 41.6813 26.8086C42.2113 26.6586 42.7313 26.4986 43.2613 26.3286C43.5013 26.2486 43.7213 26.1486 43.9713 26.0986L44.0013 26.0786ZM21.3613 25.3286C21.3613 25.3286 21.3313 25.3486 21.3113 25.3586C21.3113 25.3786 21.3113 25.4086 21.3113 25.4286C21.3213 25.5086 21.3413 25.5886 21.3613 25.6586C21.6113 26.5086 22.1013 27.1886 22.8213 27.6886C23.0313 27.8386 23.2613 27.9586 23.5513 27.9686C23.3513 27.6286 23.2513 27.2586 23.0013 26.9686C22.8713 26.8186 22.7013 26.6986 22.5613 26.5586C22.1613 26.1486 21.7613 25.7386 21.3613 25.3186V25.3286Z" fill="#1D478D"/>
<path d="M45.4614 36.2488C45.8614 36.3788 46.2414 36.5388 46.6514 36.6788C46.2614 36.8688 45.8914 36.6888 45.4914 36.6988C45.6314 36.7988 45.7614 36.8288 45.8914 36.8388C46.0114 36.8388 46.1214 36.8988 46.2214 36.9388C46.2714 36.9588 46.3214 36.9888 46.3014 37.0488C46.2814 37.1188 46.2314 37.1388 46.1714 37.1288C45.9614 37.1088 45.7614 37.0788 45.5514 37.0588C45.1914 37.0188 44.8414 36.9688 44.4814 36.9288C44.3514 36.9188 44.2614 36.9488 44.2114 37.0788C44.1914 37.1288 44.1614 37.1388 44.1014 37.1388C43.6114 37.1088 43.1214 37.1288 42.6314 37.1288C42.5514 37.1288 42.4814 37.1588 42.4114 37.2088C42.5914 37.2788 42.7814 37.2788 42.9614 37.2988C43.2914 37.3288 43.6314 37.3588 43.9514 37.4688C44.1814 37.5488 44.3914 37.6688 44.5914 37.8688C43.7214 37.7288 42.8714 37.6688 42.0114 37.7288C42.5314 37.7888 43.0614 37.7788 43.5514 38.0188C42.7114 37.9888 41.8814 38.0188 41.0514 38.1688C41.2614 38.2288 41.4914 38.2288 41.6914 38.3888C41.2114 38.4788 40.7614 38.5788 40.3014 38.6488C40.0014 38.6988 39.7414 38.7888 39.5114 39.0088C39.0414 39.4688 38.5814 39.9388 38.1914 40.4688C38.0114 40.7088 37.9114 40.9688 37.8914 41.2588C37.8914 41.3888 37.8314 41.5188 37.7814 41.6388C37.7414 41.7388 37.6714 41.8088 37.5514 41.7788C37.4314 41.7488 37.4014 41.6588 37.4014 41.5488C37.4214 41.0488 37.5114 40.5588 37.6514 40.0788C37.9314 39.0888 38.3914 38.1988 39.1214 37.4588C39.7114 36.8588 40.4114 36.4688 41.2014 36.1988C42.2214 35.8588 43.2714 35.6288 44.2814 35.2988C45.5714 34.8788 46.8214 34.3488 47.8914 33.4788C48.0714 33.3288 48.2314 33.1688 48.3614 32.9688C48.7114 32.4188 49.1314 31.9188 49.3614 31.2988C49.5014 30.9388 49.6514 30.5888 49.8014 30.2288C49.9414 29.8988 50.1414 29.5988 50.2714 29.2588C50.4314 29.4688 50.2614 29.6888 50.3414 29.9288C50.4414 29.6788 50.5414 29.4588 50.6314 29.2388C50.7614 29.3788 50.7614 29.3988 50.7414 30.0888C50.7314 30.3888 50.5514 30.6388 50.4614 30.9188C50.5114 30.9388 50.5414 30.9188 50.5814 30.8988C50.6314 30.8788 50.6914 30.8488 50.7314 30.9088C50.7714 30.9688 50.7414 31.0188 50.7114 31.0688C50.5614 31.2988 50.4014 31.5188 50.2514 31.7488C50.2314 31.7788 50.1714 31.8088 50.2114 31.8488C50.2414 31.8888 50.2914 31.8588 50.3314 31.8488C50.3914 31.8288 50.4414 31.7888 50.5214 31.8188C50.4414 32.2388 50.0514 32.4288 49.8314 32.7688C49.9514 32.7888 50.0514 32.7588 50.1414 32.7088C50.2314 32.6588 50.3214 32.6088 50.4214 32.5688C50.4714 32.5488 50.5214 32.5388 50.5614 32.5988C50.6014 32.6588 50.5614 32.6888 50.5214 32.7288C50.2614 32.9988 49.9614 33.2188 49.6314 33.3988C49.5814 33.4288 49.5114 33.4488 49.5414 33.5188C49.5714 33.5988 49.6414 33.5688 49.7014 33.5488C49.7614 33.5288 49.8114 33.4988 49.8714 33.4788C49.9214 33.4588 49.9514 33.4788 49.9814 33.5088C50.0114 33.5488 49.9914 33.5888 49.9614 33.6188C49.6814 33.8388 49.3714 34.0288 49.0314 34.1388C48.9314 34.1688 48.8414 34.2088 48.7514 34.2988C48.8814 34.3388 49.0014 34.2788 49.1314 34.2988C49.0614 34.4688 48.8614 34.4688 48.7714 34.6088C48.9414 34.6388 49.1014 34.5588 49.2614 34.5588C49.3214 34.5588 49.4114 34.5288 49.4314 34.5788C49.4514 34.6488 49.3614 34.6788 49.3114 34.7188C49.1414 34.8588 48.9414 34.9388 48.7314 35.0088C48.5714 35.0688 48.4014 35.1288 48.2414 35.1788C48.1614 35.2088 48.1314 35.2488 48.1514 35.3288C48.1914 35.5088 48.1714 35.5588 48.0014 35.6288C47.7914 35.7288 47.5714 35.7788 47.3514 35.8488C46.8314 36.0088 46.2914 36.1188 45.7514 36.1888C45.6514 36.1988 45.5614 36.2388 45.4714 36.2588L45.4614 36.2488Z" fill="#1D478D"/>
<path d="M35.7013 45.7289C35.8113 45.6589 35.8613 45.5388 35.9513 45.4488C36.1213 45.2588 36.2813 45.0788 36.3713 44.8288C36.3713 44.8188 36.3813 44.7989 36.3913 44.7889C36.4313 44.7489 36.4813 44.6588 36.5513 44.6988C36.6113 44.7388 36.5713 44.8088 36.5513 44.8588C36.4113 45.1488 36.2513 45.4089 36.0413 45.6589C36.0313 45.6689 36.0113 45.6888 36.0013 45.6988C35.7613 45.9388 35.6313 46.2088 35.5813 46.5588C35.5013 47.1488 35.2813 47.6988 35.0113 48.2388C34.9113 48.4288 34.7613 48.5888 34.5713 48.6888C34.3513 48.8088 34.1913 48.7288 34.1513 48.4888C34.0913 48.1088 34.1613 47.7489 34.3313 47.4089C34.5913 46.8789 34.9313 46.4188 35.3913 46.0488C35.4213 46.0188 35.4513 45.9988 35.4513 45.9488C35.4513 45.7288 35.4713 45.5089 35.4713 45.2789C35.3713 45.4089 35.2713 45.5488 35.1113 45.6188C34.9413 45.6888 34.7813 45.6489 34.6613 45.4789C34.5513 45.6089 34.4313 45.7389 34.2913 45.8389C34.2113 45.8989 34.1313 45.9388 34.0313 45.9488C33.8113 45.9588 33.6713 45.8089 33.6913 45.5889C33.7013 45.4789 33.7113 45.3688 33.7213 45.2688C33.7213 45.2288 33.7213 45.1789 33.6913 45.1489C33.6413 45.1189 33.6113 45.1688 33.5913 45.1988C33.3613 45.4488 33.1413 45.7088 33.0813 46.0588C33.0713 46.1288 33.0313 46.1888 33.0013 46.2588C32.9713 46.3188 32.9313 46.3188 32.8713 46.3088C32.8113 46.2988 32.7813 46.2688 32.7713 46.2088C32.7713 46.0889 32.8013 45.9688 32.8013 45.8188C32.6813 45.9588 32.5613 46.0788 32.4013 46.1288C32.2013 46.1788 32.0913 46.0689 31.9913 45.9089C31.9213 45.9889 31.8613 46.0689 31.7913 46.1489C31.7513 46.1889 31.7113 46.2288 31.6713 46.2688C31.4213 46.4588 31.2213 46.3888 31.1413 46.0588C30.9913 46.2288 30.8613 46.4088 30.6613 46.5188C30.6213 46.5388 30.5813 46.5689 30.5413 46.5889C30.1513 46.7689 29.9313 46.6688 29.7813 46.2488C29.3213 46.7688 28.8213 46.8289 28.5813 46.4089C28.4813 46.5289 28.3713 46.6388 28.2513 46.7388C28.0313 46.9088 27.8613 46.9188 27.6313 46.7588C27.4913 46.6588 27.3813 46.5288 27.2513 46.3888C27.2013 46.5688 27.1613 46.7289 27.1213 46.8989C27.1013 46.9689 27.0813 47.0488 27.0413 47.1088C27.0113 47.1488 26.9913 47.1789 26.9413 47.1589C26.9013 47.1389 26.8813 47.1088 26.8913 47.0588C26.9213 46.9288 26.9413 46.7988 26.9713 46.6688C26.9713 46.6188 26.9913 46.5688 26.9913 46.5088C26.8713 46.6688 26.6713 46.7389 26.5413 46.9089C26.2913 47.2389 26.0713 47.2388 25.7913 46.9288C25.6613 47.1588 25.5613 47.4088 25.4113 47.6288C25.2213 47.9088 24.9913 48.1589 24.7113 48.3389C24.2413 48.6389 23.7013 48.5089 23.5013 47.9689C23.3113 47.4689 23.3513 46.9588 23.3813 46.4488C23.4013 46.1088 23.4113 45.7688 23.3813 45.4288C23.3813 45.3688 23.3713 45.3188 23.3513 45.2688C23.2913 45.1088 23.2613 45.0988 23.1113 45.1988C22.9513 45.3088 22.8213 45.4389 22.7113 45.5989C22.4013 46.0789 22.1213 46.5788 21.9513 47.1188C21.8413 47.4488 21.8013 47.8089 21.7313 48.1489C21.7313 48.1789 21.7213 48.2088 21.7113 48.2488C21.6913 48.3188 21.6613 48.3988 21.5713 48.3788C21.4813 48.3588 21.4213 48.2888 21.4313 48.1888C21.4513 48.0588 21.4613 47.9188 21.5413 47.7988C21.5913 47.7288 21.5713 47.6488 21.5913 47.5688C21.6713 47.2588 21.7513 46.9388 21.7813 46.6288C21.8113 46.2788 21.8513 45.9289 21.7413 45.5889C21.6813 45.4089 21.6313 45.3888 21.4913 45.5088C21.2213 45.7388 21.0213 46.0389 20.8413 46.3389C20.3213 47.2389 20.0013 48.2188 19.8713 49.2488C19.8713 49.2888 19.8513 49.3288 19.8513 49.3688C19.8513 49.4688 19.7813 49.5188 19.7013 49.4988C19.6213 49.4788 19.5513 49.4188 19.5713 49.3088C19.6313 49.0188 19.6713 48.7388 19.7313 48.4488C19.8113 48.0288 19.8613 47.6188 19.9013 47.1988C19.9513 46.7588 20.0213 46.3188 20.0213 45.8788C20.0213 45.8288 20.0413 45.7888 20.0413 45.7388C20.0413 45.6588 20.0913 45.6088 20.1713 45.6288C20.2413 45.6388 20.3013 45.6789 20.2913 45.7789C20.2613 46.1789 20.2513 46.5888 20.1913 46.9888C20.1913 46.9988 20.1913 47.0189 20.1913 47.0289C20.1913 47.0689 20.1613 47.1388 20.2213 47.1388C20.2713 47.1388 20.2313 47.0689 20.2513 47.0389C20.3313 46.9089 20.3513 46.7588 20.4313 46.6388C20.4813 46.5688 20.4913 46.4789 20.5413 46.4089C20.5813 46.3489 20.6013 46.2888 20.6713 46.2588C20.6913 46.2588 20.7113 46.2489 20.7113 46.2289C20.7113 46.0689 20.8513 46.0189 20.9113 45.9089C20.9813 45.7989 21.0513 45.6888 21.1213 45.5788C21.2113 45.4388 21.3513 45.3388 21.5013 45.2688C21.7113 45.1688 21.9013 45.2689 21.9713 45.4789C22.0113 45.6089 22.0313 45.7388 22.0313 45.8688C22.0313 46.0288 22.0313 46.1889 22.0313 46.3489C22.0313 46.3489 22.0313 46.3488 22.0513 46.3688C22.1013 46.3388 22.1213 46.2688 22.1813 46.2588C22.1813 46.2588 22.2013 46.2389 22.2013 46.2289C22.2013 46.1389 22.3313 45.8588 22.3713 45.7688C22.4413 45.6188 22.5413 45.4888 22.6613 45.3888C22.7613 45.3088 22.7813 45.1588 22.9413 45.1088C23.0113 45.0888 23.0913 44.9688 23.1913 44.9488C23.3613 44.8988 23.5513 45.0489 23.5913 45.2189C23.6213 45.3689 23.6213 45.5188 23.6213 45.6688C23.6213 46.0688 23.6013 46.4688 23.5913 46.8688C23.5913 47.2288 23.5913 47.5988 23.7313 47.9388C23.8613 48.2688 24.1413 48.3688 24.4513 48.2088C24.7113 48.0788 24.9213 47.8889 25.1013 47.6489C25.3813 47.2789 25.5913 46.8788 25.7713 46.4488C25.8813 46.1888 26.2113 45.9989 26.5013 46.0389C26.6013 46.0489 26.7213 46.1788 26.7513 46.2988C26.7513 46.3388 26.7613 46.3888 26.7713 46.4388C27.0613 46.2988 27.1313 46.0388 27.1713 45.7488C27.2413 45.3188 27.3413 44.8989 27.3913 44.4689C27.3913 44.3989 27.4513 44.3788 27.5113 44.3788C27.5913 44.3888 27.6413 44.4389 27.6213 44.5289C27.5913 44.7189 27.5513 44.9089 27.5213 45.0989C27.4613 45.4089 27.4013 45.7188 27.3313 46.0588C27.4913 45.9788 27.6113 45.8688 27.7213 45.7488C27.8113 45.6588 27.8913 45.5589 27.9913 45.4789C28.0513 45.4289 28.1113 45.4189 28.1813 45.4789C28.2413 45.5489 28.1813 45.5888 28.1413 45.6288C27.9513 45.8188 27.7413 46.0089 27.5113 46.1489C27.4413 46.1889 27.4413 46.2189 27.4913 46.2789C27.5813 46.3789 27.6613 46.4788 27.7713 46.5588C27.9213 46.6788 28.0313 46.6788 28.1913 46.5588C28.3713 46.4088 28.5013 46.2189 28.6313 46.0289C28.7513 45.8489 28.9113 45.6988 29.0813 45.5688C29.1313 45.5288 29.1813 45.4988 29.2513 45.4988C29.3713 45.4888 29.4613 45.5588 29.4413 45.6788C29.4013 45.9288 29.2413 46.0988 29.0513 46.2388C29.0313 46.2588 29.0013 46.2589 28.9813 46.2789C28.9413 46.3089 28.8613 46.3189 28.8913 46.3989C28.9113 46.4689 28.9713 46.4888 29.0413 46.4888C29.2313 46.4888 29.4213 46.4189 29.5513 46.2789C29.7113 46.0989 29.8113 45.9089 29.8813 45.6589C30.0213 45.1689 30.2513 44.6988 30.6213 44.3188C30.6613 44.2788 30.7113 44.2389 30.7813 44.2289C30.9313 44.1889 31.0113 44.2588 31.0113 44.4188C31.0113 44.9088 30.7413 45.2588 30.3813 45.5488C30.3213 45.5988 30.2513 45.6388 30.1813 45.6788C30.1213 45.7188 30.0813 45.7689 30.0813 45.8389C30.0713 46.0089 30.0613 46.1888 30.0913 46.3588C30.1213 46.4788 30.1913 46.5088 30.3013 46.4888C30.4813 46.4588 30.6213 46.3688 30.7613 46.2488C31.0113 46.0288 31.2213 45.7789 31.3713 45.4789C31.3913 45.4389 31.4013 45.3988 31.4513 45.3788C31.5013 45.3588 31.5413 45.3488 31.5813 45.3788C31.6313 45.4088 31.6013 45.4588 31.5813 45.4888C31.5213 45.6588 31.4213 45.8088 31.4313 45.9988C31.4313 46.0488 31.4213 46.1189 31.4813 46.1489C31.5313 46.1689 31.5813 46.1189 31.6213 46.0889C31.8713 45.8989 32.0413 45.6388 32.2013 45.3788C32.2413 45.3088 32.2913 45.2688 32.3713 45.2488C32.4113 45.2488 32.4313 45.2488 32.4613 45.2688C32.4913 45.3088 32.4613 45.3288 32.4513 45.3588C32.3713 45.4788 32.3213 45.5988 32.3013 45.7388C32.3013 45.8088 32.2813 45.8788 32.3413 45.9188C32.4113 45.9588 32.4613 45.9088 32.5013 45.8688C32.7213 45.6588 32.9213 45.4488 33.0413 45.1688C33.0613 45.1088 33.1013 45.0889 33.1613 45.0989C33.2113 45.0989 33.2513 45.1388 33.2513 45.1888C33.2513 45.2388 33.2513 45.2788 33.2513 45.3588C33.3513 45.2288 33.4413 45.1388 33.5513 45.0588C33.6513 44.9788 33.7513 44.9688 33.8513 45.0188C33.9513 45.0688 33.9913 45.1589 33.9813 45.2789C33.9713 45.3989 33.9613 45.5189 33.9713 45.6489C33.9713 45.7989 34.0113 45.8188 34.1413 45.7488C34.4113 45.6088 34.6113 45.3888 34.7813 45.1388C34.9413 44.8988 35.1413 44.7289 35.4213 44.6489C35.4613 44.6389 35.4913 44.6189 35.5113 44.5889C35.6813 44.3789 35.8913 44.2089 36.1113 44.0389C36.5713 43.6889 37.0513 43.3688 37.6013 43.1688C37.7813 43.0988 37.8613 42.9888 37.8713 42.7988C37.8713 42.7288 37.8713 42.6589 37.8713 42.5889C37.8713 42.4989 37.9313 42.4388 38.0113 42.4488C38.0913 42.4588 38.1613 42.5188 38.1513 42.6188C38.1413 42.7388 38.1213 42.8489 38.1013 42.9689C38.3013 42.9189 38.4913 42.8388 38.6913 42.8288C38.8913 42.8288 39.0913 42.7888 39.2813 42.8088C39.5213 42.8288 39.7413 42.9288 39.9213 43.0788C40.0613 43.1988 40.0713 43.3988 39.9413 43.5788C39.7713 43.8188 39.5613 44.0088 39.3213 44.1688C38.8513 44.4888 38.3313 44.6988 37.7713 44.8288C37.6013 44.8688 37.4613 45.0389 37.4613 45.2289C37.4613 45.2589 37.4713 45.2689 37.4913 45.2889C37.8413 45.6289 38.1613 46.0088 38.6013 46.2488C38.8413 46.3788 39.0913 46.4489 39.3513 46.4689C39.7013 46.4889 40.0613 46.4889 40.3713 46.2889C40.4413 46.2489 40.5313 46.3388 40.5713 46.2388C40.5813 46.2388 40.5913 46.2488 40.6013 46.2588C40.6213 46.2688 40.6213 46.2888 40.6013 46.3088C40.5613 46.3388 40.5213 46.3789 40.4813 46.4089C40.1813 46.5589 39.8613 46.6888 39.5213 46.6888C39.1813 46.6888 38.8513 46.6389 38.5413 46.4689C38.1513 46.2689 37.8313 45.9988 37.5413 45.6788C37.3913 45.5088 37.3713 45.5089 37.3113 45.7289C37.1613 46.2689 36.9413 46.7889 36.6913 47.2789C36.6113 47.4289 36.5313 47.5788 36.4113 47.7088C36.3613 47.7589 36.3213 47.7988 36.2413 47.8088C36.4213 47.6488 36.4613 47.4088 36.5613 47.1988C36.6213 47.0788 36.6813 46.9388 36.7113 46.7988C36.7213 46.7288 36.7713 46.6589 36.8013 46.5889C36.9013 46.3389 36.9813 46.0788 37.0713 45.8188C37.1113 45.6988 37.1213 45.5588 37.1813 45.4288C37.2113 45.3588 37.1913 45.2789 37.1113 45.2189C36.9913 45.1389 36.8813 45.0488 36.7313 45.0488C36.6513 45.0488 36.6113 44.9988 36.6213 44.9188C36.6213 44.8388 36.6913 44.8189 36.7613 44.8389C36.9313 44.8789 37.1013 44.8089 37.2613 44.7789C37.4013 44.7589 37.4313 44.6088 37.4313 44.4888C37.4313 44.2388 37.5513 44.0088 37.6113 43.7688C37.6413 43.6388 37.6613 43.4788 37.7613 43.3688C37.6813 43.3288 37.6213 43.3689 37.5713 43.3989C36.8913 43.7189 36.2713 44.1388 35.7113 44.6388C35.6513 44.6888 35.6213 44.7288 35.6813 44.8288C35.7613 44.9488 35.7413 45.0988 35.7413 45.2388C35.7413 45.4188 35.7413 45.5989 35.7413 45.7789L35.7013 45.7289ZM37.6713 44.6088C37.6713 44.6088 37.7613 44.5888 37.8113 44.5788C38.1713 44.4988 38.5013 44.3388 38.8313 44.1688C39.1513 43.9988 39.4513 43.8188 39.6613 43.5088C39.8513 43.2188 39.7513 43.0888 39.5013 43.0188C39.0113 42.8788 38.5413 42.9888 38.0713 43.1388C38.0313 43.1488 37.9913 43.1689 37.9813 43.2189C37.8613 43.6589 37.7413 44.0989 37.6113 44.5389C37.5913 44.5989 37.6113 44.6188 37.6713 44.6088ZM35.4213 46.2988C35.3613 46.2988 35.3413 46.3488 35.3113 46.3788C34.9413 46.6988 34.7113 47.1288 34.5013 47.5588C34.3713 47.8188 34.3113 48.0988 34.3213 48.3888C34.3213 48.5488 34.4113 48.5888 34.5413 48.4988C34.6713 48.4088 34.7613 48.2789 34.8413 48.1489C35.1913 47.5789 35.3213 46.9389 35.4213 46.2889V46.2988ZM30.1613 45.3989C30.5013 45.2389 30.8713 44.6089 30.7913 44.3489C30.4813 44.6389 30.3013 44.9889 30.1613 45.3989ZM35.2713 44.7988C35.0913 44.9388 34.9213 45.0688 34.8813 45.2988C34.8813 45.3488 34.8513 45.4188 34.9213 45.4488C34.9813 45.4688 35.0413 45.4489 35.0913 45.4089C35.2013 45.3089 35.2913 45.1988 35.3613 45.0688C35.3713 45.0488 35.4113 45.0088 35.3713 44.9988C35.2713 44.9688 35.3113 44.8688 35.2613 44.7988H35.2713ZM26.5913 46.4089C26.5913 46.2789 26.5213 46.1788 26.4113 46.1788C26.3013 46.1788 26.2313 46.2189 26.2113 46.3389C26.2013 46.4489 26.3213 46.5889 26.4313 46.5889C26.5613 46.5889 26.5813 46.4989 26.5913 46.4089ZM26.0013 46.4089C25.9113 46.6189 25.9513 46.8388 26.0913 46.9288C26.2413 47.0188 26.3113 46.8789 26.4213 46.7889C26.2413 46.7089 26.0613 46.6389 26.0013 46.4089ZM28.9213 46.0488C29.0813 45.9588 29.2113 45.8589 29.2613 45.6489C29.0813 45.7489 28.9913 45.8888 28.9213 46.0488Z" fill="#1D478D"/>
<path d="M15.341 34.6686C15.361 34.6086 15.3711 34.5287 15.4011 34.4687C15.4411 34.3887 15.4911 34.4487 15.5311 34.4687C15.6611 34.5487 15.7311 34.6787 15.8211 34.7887C16.1811 35.2587 16.6311 35.6186 17.1311 35.9186C17.6611 36.2386 18.2311 36.4986 18.8211 36.6986C19.3611 36.8886 19.9211 37.0186 20.4911 37.1086C21.3511 37.2486 22.221 37.3686 23.091 37.4886C23.591 37.5586 24.1011 37.6086 24.6011 37.6786C25.1411 37.7586 25.691 37.8386 26.231 37.9286C27.011 38.0486 27.791 38.2087 28.551 38.4087C29.021 38.5287 29.481 38.6786 29.941 38.8386C30.961 39.1986 31.871 39.7586 32.731 40.3886C33.291 40.7986 33.8211 41.2686 34.3611 41.7086C34.3711 41.7086 34.3811 41.7286 34.3911 41.7386C34.4211 41.7786 34.4911 41.8186 34.4711 41.8586C34.4311 41.9186 34.3811 41.8586 34.341 41.8286C33.831 41.5486 33.3211 41.2787 32.8111 40.9787C32.2211 40.6387 31.6311 40.2886 31.0011 40.0186C30.2911 39.7086 29.5611 39.4686 28.8211 39.2586C28.1711 39.0786 27.5111 38.9286 26.8511 38.8186C26.1611 38.6986 25.4711 38.6086 24.7811 38.5186C24.2811 38.4486 23.7811 38.3886 23.2911 38.3086C22.9011 38.2486 22.5011 38.1886 22.1011 38.1286C21.6111 38.0486 21.1311 37.9586 20.6411 37.8586C20.1011 37.7486 19.5511 37.6486 19.0111 37.5086C18.1411 37.2786 17.3611 36.8686 16.6511 36.3086C16.2911 36.0186 15.9311 35.7286 15.6511 35.3586C15.4911 35.1486 15.3811 34.9287 15.3311 34.6587L15.341 34.6686Z" fill="#1D478D"/>
<path d="M43.3514 44.3686C43.2914 44.4286 43.2514 44.4686 43.2114 44.5086C43.1014 44.6086 42.9814 44.6686 42.8414 44.6086C42.6914 44.5486 42.6414 44.4186 42.6414 44.2586C42.6414 44.1286 42.6614 43.9986 42.6714 43.8386C42.5614 43.9086 42.5014 43.9986 42.4414 44.0886C42.3614 44.2086 42.3014 44.3486 42.2514 44.4786C42.2214 44.5486 42.1814 44.5986 42.1114 44.5786C42.0214 44.5486 42.0314 44.4686 42.0614 44.3986C42.1014 44.2986 42.1814 44.2086 42.1814 44.0886C42.1814 44.0186 42.1814 43.9386 42.1314 43.8986C42.0714 43.8586 42.0114 43.9186 41.9714 43.9586C41.6614 44.2386 41.4214 44.5586 41.2914 44.9586C41.2814 44.9986 41.2614 45.0386 41.2514 45.0786C41.2214 45.1486 41.1714 45.1486 41.1114 45.1286C41.0514 45.0986 41.0314 45.0586 41.0614 44.9886C41.1414 44.7986 41.2114 44.6086 41.2314 44.3786C41.1714 44.4086 41.1614 44.4586 41.1414 44.4986C41.0114 44.7386 40.8414 44.9286 40.6214 45.0886C40.4614 45.1986 40.2814 45.2286 40.1114 45.1286C39.9514 45.0386 39.9014 44.8686 39.9114 44.6886C39.9214 44.4786 39.9614 44.2686 40.1014 44.0886C40.1414 44.0486 40.1614 44.0086 40.2314 44.0386C40.2914 44.0686 40.2714 44.1186 40.2514 44.1586C40.1814 44.3586 40.1314 44.5686 40.1714 44.7786C40.2014 44.9686 40.2914 45.0086 40.4514 44.9086C40.6214 44.7986 40.7614 44.6486 40.8814 44.4786C41.0014 44.3086 41.1614 44.1686 41.1914 43.9486C41.1914 43.8986 41.2514 43.8886 41.2914 43.8986C41.3514 43.9086 41.3914 43.9486 41.4014 44.0186C41.4114 44.0986 41.4014 44.1886 41.4414 44.2786C41.5514 44.1286 41.6314 43.9886 41.7614 43.8786C41.9914 43.6786 42.1414 43.6286 42.3614 43.8586C42.4514 43.7786 42.5314 43.6986 42.6214 43.6186C42.6814 43.5686 42.7514 43.5586 42.8114 43.6086C42.8814 43.6486 42.8814 43.7086 42.8714 43.7786C42.8414 43.9386 42.8214 44.0986 42.8414 44.2586C42.8614 44.4086 42.9114 44.4386 43.0314 44.3486C43.2614 44.1786 43.4514 43.9786 43.5414 43.6886C43.5614 43.6086 43.5414 43.4786 43.6714 43.4886C43.8114 43.4986 43.7714 43.6186 43.7814 43.7286C43.8714 43.6186 43.9714 43.5286 44.0814 43.4386C44.1714 43.3686 44.2714 43.3486 44.3714 43.4086C44.4614 43.4586 44.5114 43.5486 44.5014 43.6686C44.4914 43.7986 44.4914 43.9386 44.5014 44.0786C44.5014 44.1686 44.5514 44.2086 44.6414 44.1586C44.8514 44.0486 45.0414 43.9086 45.1614 43.6986C45.3014 43.4586 45.5314 43.2986 45.7314 43.1186C45.8214 43.0386 45.9514 43.0286 46.0614 43.0886C46.1214 43.1186 46.1814 43.1486 46.2614 43.1586C46.3514 43.1586 46.3514 43.2386 46.3314 43.3086C46.2914 43.4186 46.2614 43.5386 46.2614 43.6486C46.2614 43.7286 46.2514 43.8286 46.3314 43.8686C46.4114 43.9086 46.4914 43.8486 46.5514 43.7886C46.6614 43.6886 46.7614 43.5686 46.8314 43.4386C46.8914 43.3186 47.0414 43.2386 47.0514 43.0786C47.0514 43.0286 47.1114 43.0386 47.1414 43.0386C47.1914 43.0386 47.2314 43.0886 47.2414 43.1386C47.2514 43.2186 47.2614 43.3086 47.2714 43.4186C47.3914 43.2686 47.4814 43.1186 47.6114 43.0086C47.6714 42.9486 47.7514 42.9086 47.8214 42.8686C47.9214 42.8286 48.0314 42.8286 48.1014 42.9086C48.1914 43.0186 48.2514 42.9886 48.3214 42.8986C48.3614 42.8486 48.4214 42.8086 48.4814 42.7586C48.5314 42.7186 48.5914 42.7086 48.6514 42.7486C48.7114 42.7786 48.7314 42.8386 48.7214 42.8986C48.6914 43.0586 48.6814 43.2186 48.6914 43.3786C48.7014 43.5486 48.7614 43.5786 48.9014 43.4886C49.1214 43.3386 49.2714 43.1186 49.4014 42.8886C49.4214 42.8486 49.4414 42.7986 49.4814 42.7286C49.5014 42.8386 49.5214 42.9186 49.4814 42.9986C49.3814 43.2286 49.2514 43.4286 49.0814 43.6086C48.9514 43.7486 48.8114 43.7786 48.6914 43.7286C48.5614 43.6686 48.4814 43.5186 48.4914 43.3386C48.4914 43.2186 48.5214 43.1086 48.5314 42.9786C48.4314 43.0086 48.3814 43.0886 48.3314 43.1486C48.2314 43.2786 48.1614 43.4286 48.1014 43.5886C48.0714 43.6586 48.0314 43.7386 47.9414 43.6986C47.8514 43.6586 47.8714 43.5686 47.9114 43.4986C47.9714 43.3986 48.0214 43.2886 48.0214 43.1686C48.0214 43.1086 48.0214 43.0486 47.9714 43.0086C47.9214 42.9686 47.8614 43.0086 47.8214 43.0486C47.5014 43.3186 47.2714 43.6586 47.1214 44.0586C47.1114 44.0886 47.1014 44.1286 47.0914 44.1686C47.0614 44.2486 47.0114 44.2686 46.9314 44.2386C46.8614 44.2086 46.8614 44.1486 46.8914 44.0886C46.9914 43.8786 47.0514 43.6486 47.0614 43.3886C46.9614 43.5486 46.8814 43.6786 46.7914 43.8086C46.7314 43.8886 46.6714 43.9686 46.5914 44.0286C46.4114 44.1686 46.2214 44.1486 46.0814 43.9786C46.0514 43.9486 46.0314 43.9086 46.0014 43.8786C45.8914 43.9786 45.7914 44.0786 45.6814 44.1786C45.5914 44.2586 45.5014 44.3086 45.3814 44.3286C45.2514 44.3586 45.1414 44.3286 45.0714 44.2086C45.0314 44.1286 44.9914 44.1386 44.9414 44.1986C44.8314 44.2986 44.7114 44.3886 44.5414 44.3786C44.3514 44.3586 44.2514 44.2686 44.2514 44.0786C44.2514 43.9586 44.2714 43.8386 44.2814 43.7086C44.2814 43.6686 44.3014 43.6086 44.2514 43.5786C44.1914 43.5486 44.1714 43.6086 44.1414 43.6386C43.9414 43.8286 43.7914 44.0586 43.6814 44.3086C43.6314 44.4186 43.6314 44.5486 43.5714 44.6586C43.5414 44.7186 43.5114 44.7486 43.4414 44.7386C43.3714 44.7186 43.3314 44.6886 43.3314 44.6086C43.3314 44.5286 43.3314 44.4386 43.3514 44.3386V44.3686ZM45.2714 44.0186C45.2714 44.1686 45.3014 44.1986 45.4214 44.1286C45.6914 43.9786 45.8814 43.7486 46.0014 43.4586C46.0114 43.4286 46.0114 43.3886 46.0014 43.3586C45.9914 43.2386 45.9214 43.2086 45.8214 43.2686C45.6414 43.3786 45.5114 43.5286 45.3914 43.6886C45.3214 43.7886 45.2814 43.8986 45.2714 44.0086V44.0186Z" fill="#1D478D"/>
<path d="M40.2013 43.6087C40.1413 43.6087 40.1013 43.5887 40.0813 43.5587C40.0613 43.5187 40.0613 43.4887 40.0913 43.4587C40.2513 43.2887 40.4313 43.1588 40.6313 43.0388C40.6613 43.0188 40.7113 43.0287 40.7413 43.0487C40.7713 43.0687 40.7513 43.1087 40.7413 43.1387C40.6113 43.3287 40.4613 43.4987 40.2513 43.6087C40.2313 43.6087 40.2113 43.6087 40.2113 43.6187L40.2013 43.6087Z" fill="#1D478D"/>
<path d="M33.6113 16.4888C33.7613 16.4288 33.9113 16.3588 34.0613 16.2988C34.0613 16.3288 34.0413 16.3589 34.0313 16.3889C33.9013 16.6789 33.8613 16.6888 33.6113 16.4888Z" fill="#1D478D"/>
<path d="M43.9013 26.5586C43.9013 26.5586 43.9013 26.6386 43.9013 26.6786C43.8713 26.6386 43.8813 26.5986 43.9013 26.5586Z" fill="#1D478D"/>
<path d="M21.501 18.3188C21.501 18.3188 21.531 18.3289 21.551 18.3389C21.481 18.3589 21.421 18.3789 21.311 18.4089C21.391 18.3389 21.441 18.3288 21.501 18.3188Z" fill="#1D478D"/>
<path d="M21.2314 18.4189C21.2314 18.4189 21.2715 18.4089 21.2915 18.3989C21.2715 18.4289 21.2414 18.3889 21.2314 18.4189Z" fill="#1D478D"/>
<path d="M21.2309 18.4287C21.2309 18.4287 21.2209 18.4287 21.2109 18.4287C21.2109 18.4287 21.2109 18.4387 21.2109 18.4487C21.2109 18.4487 21.2109 18.4387 21.2209 18.4287H21.2309Z" fill="#1D478D"/>
</svg>
