<svg width="59" height="59" viewBox="0 0 59 59" fill="none" xmlns="http://www.w3.org/2000/svg">
<rect x="0.668945" y="0.583008" width="57.8345" height="57.8345" rx="4" fill="white"/>
<path d="M30.5363 28.9593H32.2563V22.0393H30.5263V23.6093C30.4263 23.6093 30.3463 23.6093 30.2663 23.6093C29.0463 23.6093 27.8163 23.6093 26.5963 23.6093C26.5063 23.6093 26.3963 23.6493 26.3363 23.7093C26.0263 24.0193 25.7263 24.3393 25.4263 24.6593C25.3563 24.7393 25.3063 24.8693 25.2963 24.9793C25.2963 25.6593 25.2963 26.3493 25.2963 27.0293C25.2963 27.0893 25.3063 27.1493 25.3163 27.2093H27.0363C27.0363 26.7493 27.0363 26.2893 27.0363 25.8393C27.0363 25.5693 27.2663 25.3293 27.5263 25.3293C28.4563 25.3293 29.3863 25.3293 30.3063 25.3293C30.4863 25.3293 30.5263 25.3893 30.5263 25.5493C30.5263 26.3093 30.5263 27.0793 30.5263 27.8393C30.5263 28.2093 30.5363 28.5893 30.5463 28.9593C29.2163 28.9593 27.8863 28.9593 26.5563 28.9593C26.4863 28.9593 26.3863 29.0092 26.3363 29.0592C26.0463 29.3492 25.7763 29.6592 25.4863 29.9392C25.3563 30.0692 25.2963 30.2093 25.3063 30.3993C25.3163 31.8793 25.3163 33.3593 25.3263 34.8493C25.3263 35.1693 25.2463 35.5292 25.3663 35.8092C25.4863 36.0892 25.8263 36.2793 26.0263 36.5393C26.3163 36.9193 26.6663 37.0393 27.1263 36.9893C27.5263 36.9493 27.9263 36.9893 28.3363 36.9893V35.2793C28.3363 35.2793 28.2963 35.2593 28.2763 35.2593C28.0363 35.2593 27.8063 35.2593 27.5663 35.2593C27.3263 35.2593 27.0763 35.0193 27.0763 34.7693C27.0763 33.5793 27.0763 32.3792 27.0663 31.1892C27.0663 30.9292 27.3063 30.6993 27.5763 30.6993C28.4863 30.6993 29.4063 30.6993 30.3163 30.6993C30.3963 30.6993 30.4663 30.6992 30.5663 30.6892V28.9693L30.5363 28.9593ZM16.3663 14.9793C16.2663 14.9793 16.1863 14.9793 16.1063 14.9793C14.7763 14.9793 13.4463 14.9793 12.1163 14.9793C11.7963 14.9793 11.4363 14.8993 11.1563 15.0093C10.8763 15.1193 10.6963 15.4493 10.4463 15.6593C10.2863 15.7993 10.2363 15.9593 10.2363 16.1693C10.2363 19.3993 10.2363 22.6293 10.2363 25.8593C10.2363 31.5493 10.2363 37.2393 10.2363 42.9293C10.2363 43.0893 10.2763 43.1992 10.3863 43.3092C10.5963 43.4992 10.7863 43.6993 10.9863 43.8993C11.0863 43.9993 11.1863 44.0393 11.3263 44.0393C12.9263 44.0393 14.5363 44.0393 16.1363 44.0393C16.2163 44.0393 16.2863 44.0393 16.3563 44.0393V42.0193H12.2763V16.9893H16.3563V14.9793H16.3663ZM42.8063 44.0193C42.8063 44.0193 42.8563 44.0393 42.8763 44.0393C44.5563 44.0393 46.2463 44.0393 47.9263 44.0393C47.9963 44.0393 48.0763 43.9993 48.1263 43.9493C48.3363 43.7493 48.5263 43.5393 48.7463 43.3493C48.8763 43.2293 48.9263 43.0993 48.9263 42.9193C48.9263 34.1293 48.9263 25.3393 48.9263 16.5493C48.9263 16.0693 48.8463 15.6993 48.4463 15.4193C48.3363 15.3393 48.2563 15.2193 48.1463 15.1393C48.0563 15.0693 47.9363 15.0093 47.8363 15.0093C46.2263 15.0093 44.6163 15.0093 43.0063 15.0093C42.9363 15.0093 42.8663 15.0093 42.7963 15.0093V17.0393H46.8763V42.0592H42.7963V44.0493L42.8063 44.0193ZM32.2563 30.7393H30.5463V36.9793H32.2563V30.7393ZM34.8763 30.6993C34.8763 30.1493 34.8763 29.6293 34.8763 29.0993C34.8763 29.0593 34.8063 28.9793 34.7663 28.9793C34.2363 28.9793 33.7063 28.9793 33.1663 28.9793V30.6993H34.8763Z" fill="#1D478D"/>
<path d="M16.3661 14.9793V16.9893H12.2861V42.0193H16.3661V44.0393C16.2961 44.0393 16.2161 44.0393 16.1461 44.0393C14.5461 44.0393 12.9361 44.0393 11.3361 44.0393C11.1961 44.0393 11.0961 43.9993 10.9961 43.8993C10.8061 43.6993 10.6061 43.4892 10.3961 43.3092C10.2761 43.1992 10.2461 43.0893 10.2461 42.9293C10.2461 37.2393 10.2461 31.5493 10.2461 25.8593C10.2461 22.6293 10.2461 19.3993 10.2461 16.1693C10.2461 15.9593 10.2861 15.7993 10.4561 15.6593C10.6961 15.4493 10.8861 15.1293 11.1661 15.0093C11.4461 14.8993 11.8061 14.9793 12.1261 14.9793C13.4561 14.9793 14.7861 14.9793 16.1161 14.9793C16.1961 14.9793 16.2761 14.9793 16.3761 14.9793H16.3661Z" fill="#1D478D"/>
<path d="M42.8062 44.0092V42.0192H46.8862V16.9992H42.8062V14.9692C42.8762 14.9692 42.9461 14.9692 43.0161 14.9692C44.6261 14.9692 46.2361 14.9692 47.8461 14.9692C47.9561 14.9692 48.0661 15.0392 48.1561 15.0992C48.2661 15.1792 48.3461 15.2992 48.4561 15.3792C48.8461 15.6592 48.9361 16.0292 48.9361 16.5092C48.9161 25.2992 48.9261 34.0892 48.9361 42.8792C48.9361 43.0592 48.8861 43.1892 48.7561 43.3092C48.5461 43.4992 48.3462 43.7192 48.1362 43.9092C48.0862 43.9592 48.0061 43.9992 47.9361 43.9992C46.2561 43.9992 44.5662 43.9992 42.8862 43.9992C42.8662 43.9992 42.8461 43.9992 42.8161 43.9792L42.8062 44.0092Z" fill="#1D478D"/>
<path d="M30.5464 28.9693C30.5464 28.5993 30.5364 28.2193 30.5264 27.8493C30.5264 27.0893 30.5264 26.3193 30.5264 25.5593C30.5264 25.3893 30.4864 25.3393 30.3064 25.3393C29.3764 25.3393 28.4464 25.3393 27.5264 25.3393C27.2664 25.3393 27.0364 25.5793 27.0364 25.8493C27.0364 26.2993 27.0364 26.7493 27.0364 27.2193H25.3164C25.3164 27.1593 25.2964 27.0993 25.2964 27.0393C25.2964 26.3593 25.2864 25.6693 25.2964 24.9893C25.2964 24.8793 25.3464 24.7493 25.4264 24.6693C25.7164 24.3393 26.0264 24.0293 26.3364 23.7193C26.3964 23.6593 26.5064 23.6193 26.5964 23.6193C27.8164 23.6193 29.0464 23.6193 30.2664 23.6193C30.3464 23.6193 30.4164 23.6193 30.5264 23.6193V22.0493H32.2564V28.9693H30.5364H30.5464Z" fill="#1D478D"/>
<path d="M30.5361 28.9592V30.6793C30.4361 30.6793 30.3561 30.6892 30.2861 30.6892C29.3761 30.6892 28.4561 30.6892 27.5461 30.6892C27.2861 30.6892 27.0361 30.9193 27.0361 31.1793C27.0361 32.3693 27.0361 33.5692 27.0461 34.7592C27.0461 35.0092 27.2961 35.2492 27.5361 35.2492C27.7761 35.2492 28.0061 35.2492 28.2461 35.2492C28.2561 35.2492 28.2761 35.2492 28.3061 35.2692V36.9792C27.8961 36.9792 27.4961 36.9492 27.0961 36.9792C26.6361 37.0192 26.2861 36.8992 25.9961 36.5292C25.7961 36.2692 25.4561 36.0793 25.3361 35.7993C25.2161 35.5193 25.2961 35.1592 25.2961 34.8392C25.2961 33.3592 25.2961 31.8792 25.2761 30.3892C25.2761 30.1992 25.3261 30.0693 25.4561 29.9293C25.7461 29.6393 26.0261 29.3393 26.3061 29.0493C26.3561 28.9993 26.4461 28.9492 26.5261 28.9492C27.8561 28.9492 29.1861 28.9492 30.5161 28.9492L30.5361 28.9592Z" fill="#1D478D"/>
<path d="M32.2564 30.7295V36.9695H30.5464V30.7295H32.2564Z" fill="#1D478D"/>
<path d="M34.8765 30.6892H33.1665V28.9692C33.7065 28.9692 34.2365 28.9692 34.7665 28.9692C34.8065 28.9692 34.8765 29.0492 34.8765 29.0892C34.8765 29.6092 34.8765 30.1392 34.8765 30.6892Z" fill="#1D478D"/>
</svg>
