<svg width="59" height="59" viewBox="0 0 59 59" fill="none" xmlns="http://www.w3.org/2000/svg">
<rect x="0.834473" y="0.172363" width="57.8345" height="57.8345" rx="4" fill="white"/>
<path d="M7.74489 20.6894C8.99155 20.5428 9.87488 20.9394 10.3949 21.8794C10.7649 22.5494 11.1049 23.2294 11.5049 23.8794C11.6249 24.0794 11.8649 24.2994 12.0649 24.3194C12.7249 24.3794 13.3949 24.3394 14.2349 24.3394C13.4449 22.9294 12.7349 21.6694 11.9949 20.3394C12.2349 20.1594 12.4249 20.0394 12.6049 19.8794C13.5749 18.9894 14.0349 17.9194 13.8249 16.5794C13.6049 15.1994 12.8649 14.0795 11.5449 13.8595C9.55488 13.5295 7.50488 13.5494 5.50488 13.4294V24.2894H7.75488V20.6994L7.74489 20.6894ZM7.74489 15.6994C8.65489 15.6994 9.55488 15.6294 10.4349 15.7194C11.1649 15.7994 11.5849 16.5094 11.4849 17.2894C11.3849 18.0294 10.9349 18.4294 10.1949 18.4594C9.41489 18.4794 8.62488 18.4594 7.75488 18.4594V15.6894L7.74489 15.6994Z" fill="#1D478D"/>
<path d="M37.5149 19.5591C38.2849 18.7291 39.0149 17.8691 39.8549 16.9091C38.5249 16.8091 37.3649 16.5491 36.5649 17.8691C36.1649 18.5291 35.5349 19.0591 35.0049 19.6391C34.9449 19.6091 34.8849 19.5791 34.8249 19.5391V13.5891H32.8149V24.2591H34.8449C34.8749 23.2291 34.6549 22.1591 35.8249 21.5791C36.1649 22.0791 36.6049 22.5391 36.8449 23.0891C37.4849 24.5691 38.6549 24.4591 40.0149 24.2591C39.1349 22.9891 38.3349 21.7791 37.4749 20.6091C37.1749 20.1991 37.1749 19.9291 37.5249 19.5591H37.5149Z" fill="#1D478D"/>
<path d="M44.0553 16.8391C42.2553 16.8891 40.7653 18.1391 40.3953 19.9291C40.0553 21.5791 41.0253 23.3391 42.6753 24.0591C44.1453 24.6991 46.7053 24.3691 47.5553 22.9791C47.2253 22.5691 46.8753 22.1591 46.5453 21.7491C44.6753 23.0391 43.2153 22.8291 42.6153 21.1991C42.6953 21.1691 42.7253 21.1591 42.7453 21.1591C44.2653 21.1591 45.7953 21.1191 47.3153 21.1491C47.8953 21.1591 48.0753 20.9691 48.0753 20.3991C48.0753 18.2491 46.4353 16.7891 44.0453 16.8591L44.0553 16.8391ZM42.5853 19.6491C43.0553 18.7091 43.7653 18.5591 44.5753 18.6291C45.3053 18.6991 45.5653 18.9091 45.8353 19.6491H42.5853Z" fill="#1D478D"/>
<path d="M18.9449 24.3893C21.0449 24.4793 23.0049 22.6993 23.0549 20.6693C23.1049 18.6793 21.3349 16.8893 19.2649 16.8393C16.9749 16.7793 15.1049 18.3793 15.0249 20.4793C14.9549 22.5093 16.7549 24.3093 18.9449 24.3993V24.3893ZM19.1149 18.7193C20.1149 18.7793 20.8649 19.6293 20.8349 20.6593C20.8049 21.6593 19.9249 22.5093 18.9649 22.4593C17.9749 22.3993 17.2149 21.5493 17.2449 20.5193C17.2749 19.5093 18.1449 18.6693 19.1149 18.7293V18.7193Z" fill="#1D478D"/>
<path d="M6.9351 29.9094C6.9951 29.8894 7.0551 29.8694 7.1151 29.8494C7.8351 30.7394 8.5651 31.6294 9.3351 32.5994C10.0951 31.6494 10.8051 30.7594 11.5051 29.8694L11.6851 29.9594V34.4694H13.2051V27.1794C12.2651 26.9094 11.6651 27.1794 11.1551 27.9694C10.6451 28.7694 9.9751 29.4694 9.3251 30.2694C8.6451 29.4194 7.9851 28.7094 7.4651 27.8994C6.9451 27.0894 6.3151 26.9394 5.4751 27.1894V34.4794H6.9251V29.9195L6.9351 29.9094Z" fill="#1D478D"/>
<path d="M31.3449 22.8894C31.1549 22.6894 30.9649 22.4694 30.7649 22.2694C30.5649 22.0694 30.3449 21.8894 30.1549 21.7094C28.7449 22.7494 27.6049 22.7994 26.7949 21.8894C26.1149 21.1194 26.1249 20.1094 26.8349 19.3494C27.7049 18.4194 28.7249 18.4894 30.0549 19.5794C30.4649 19.1694 30.8849 18.7594 31.3049 18.3494C30.4149 17.0694 28.7849 16.5294 27.1449 17.0094C25.4349 17.5094 24.2449 18.9294 24.1949 20.5394C24.1449 22.1394 25.2849 23.6694 26.9349 24.2294C28.6149 24.7994 30.2849 24.2994 31.3449 22.8994V22.8894Z" fill="#1D478D"/>
<path d="M53.9551 22.6492C53.9551 22.6492 53.9051 22.5492 53.8751 22.4892C53.2751 22.5092 52.4951 22.6792 52.3951 21.8392C52.2751 20.8092 52.3651 19.7592 52.3651 18.6292H53.9551V16.8792C53.3851 16.8492 52.8951 16.8192 52.3251 16.7892V14.4792H50.4951C50.2751 15.4992 50.9551 17.0192 49.0151 16.8692V18.6393C49.4351 18.6693 49.7751 18.6992 50.2151 18.7292C50.2151 19.5292 50.1851 20.2792 50.2151 21.0392C50.2451 21.7392 50.2451 22.4592 50.4451 23.1192C50.7751 24.2092 52.0751 24.6992 53.4951 24.2992C54.4351 24.0392 53.8151 23.2192 53.9551 22.6592V22.6492Z" fill="#1D478D"/>
<path d="M24.4053 29.8192C22.9753 29.0792 21.8553 29.2091 21.0553 30.1591C20.2653 31.0891 20.2153 32.5292 20.9353 33.4992C21.7253 34.5492 22.8753 34.7492 24.3253 34.0892C24.7353 34.8192 25.3353 34.4492 25.8553 34.4592V27.1292H24.4053V29.8192ZM23.2153 33.1992C22.5553 33.2192 21.9253 32.5992 21.9253 31.9192C21.9253 31.2592 22.4553 30.6692 23.1053 30.6392C23.8053 30.5992 24.4153 31.1492 24.4453 31.8592C24.4753 32.5292 23.8853 33.1892 23.2153 33.2092V33.1992Z" fill="#1D478D"/>
<path d="M20.4952 39.5795C19.7852 39.4595 19.0152 39.6495 18.1852 39.7095V37.2395H16.8452V44.6695C17.4452 44.5295 17.9552 44.4195 18.6152 44.2695C19.5852 44.8195 20.7452 44.6995 21.5452 43.8495C22.3552 42.9895 22.5152 41.4895 21.7852 40.5295C21.4652 40.1095 20.9752 39.6495 20.4952 39.5695V39.5795ZM19.4952 43.3195C18.8352 43.3195 18.2152 42.6695 18.2252 41.9995C18.2252 41.3795 18.8452 40.7395 19.4552 40.7095C20.0752 40.6795 20.7552 41.3495 20.7752 41.9995C20.7952 42.6695 20.1652 43.3195 19.5052 43.3195H19.4952Z" fill="#1D478D"/>
<path d="M15.4553 34.0395C16.6753 34.8295 18.1953 34.6395 19.2053 33.5395C18.9853 33.2595 18.7553 32.9696 18.5453 32.6996C17.0453 33.5696 16.1453 33.4095 15.9253 32.2395H19.4953C19.6453 30.7495 18.9953 29.7395 17.7553 29.3995C16.3853 29.0295 15.0053 29.6596 14.4653 30.8896C13.9653 32.0396 14.3653 33.3396 15.4453 34.0296L15.4553 34.0395ZM18.0453 31.2395H15.9253C16.4553 30.2995 17.2953 30.2795 18.0453 31.2395Z" fill="#1D478D"/>
<path d="M15.8151 41.2994C15.7051 40.3594 15.0651 39.6494 14.1751 39.4594C13.1051 39.2394 12.1651 39.5994 11.5751 40.5294C11.7851 40.7394 12.0151 40.9694 12.2151 41.1794C13.5751 40.4894 13.8951 40.5194 14.2751 41.3894C13.6651 41.5094 13.0551 41.5894 12.4651 41.7494C11.7651 41.9294 11.2451 42.3094 11.2351 43.1394C11.2151 44.2494 12.3851 44.9194 13.6251 44.5094C13.8651 44.4294 14.1251 44.2794 14.3451 44.3194C14.7851 44.3894 15.2151 44.5694 15.8251 44.7494C15.8251 43.6794 15.8251 42.8894 15.8251 42.0994C15.8251 41.8394 15.8351 41.5694 15.8051 41.3094L15.8151 41.2994ZM13.2651 43.4194C13.0751 43.4194 12.8851 43.1494 12.7051 43.0094C12.8551 42.8294 12.9651 42.5594 13.1551 42.4894C13.4951 42.3594 13.8851 42.3394 14.3351 42.2594C14.3351 43.0894 13.9451 43.4394 13.2651 43.4294V43.4194Z" fill="#1D478D"/>
<path d="M32.6849 29.4294C31.5749 29.0494 30.5649 29.3694 29.7949 30.3394C30.0149 30.5894 30.2349 30.8494 30.4249 31.0694C31.7249 30.3794 32.1949 30.4394 32.4949 31.2494C31.7849 31.4094 31.0549 31.5094 30.3649 31.7394C29.7749 31.9394 29.2949 32.4494 29.4749 33.0694C29.6149 33.5594 30.0349 34.1594 30.4749 34.3094C31.0649 34.5194 31.7949 34.3594 32.4649 34.3594C32.9349 34.4194 33.4349 34.4794 34.0349 34.5594C34.0349 33.4894 34.0349 32.5594 34.0349 31.6294C34.0349 30.4394 33.5949 29.7194 32.6849 29.4194V29.4294ZM31.4449 33.2694C31.2449 33.2394 31.0849 32.9194 30.9049 32.7394C31.4249 32.5194 31.9349 32.2894 32.5949 32.0094C32.5249 33.0094 32.1449 33.3694 31.4449 33.2694Z" fill="#1D478D"/>
<path d="M6.9251 37.2395H5.4751V44.5595H10.3651V43.1395H6.9251V37.2395Z" fill="#1D478D"/>
<path d="M28.515 29.3894H27.165V34.4594H28.565C28.565 32.9194 28.565 31.4294 28.565 29.9394C28.565 29.7694 28.535 29.5994 28.525 29.3894H28.515Z" fill="#1D478D"/>
<path d="M27.8048 27.1491C27.4948 27.1991 27.2448 27.6391 26.9648 27.9091C27.2248 28.1691 27.4649 28.6191 27.7449 28.6491C28.0449 28.6791 28.3948 28.3191 28.7148 28.1291C28.7148 27.9891 28.7248 27.8391 28.7348 27.6991C28.4248 27.4991 28.0748 27.1091 27.8048 27.1491Z" fill="#1D478D"/>
</svg>
