<svg width="58" height="59" viewBox="0 0 58 59" fill="none" xmlns="http://www.w3.org/2000/svg">
<rect y="0.834473" width="57.8345" height="57.8345" rx="4" fill="white"/>
<path d="M21.4478 32.0782C21.6778 31.5082 21.9478 30.9582 22.1178 30.3682C22.7778 29.8582 23.4878 29.4182 24.1878 28.9582C24.4278 28.8082 24.5678 28.6382 24.4878 28.3482C24.4878 27.7782 24.4878 27.1982 24.4878 26.6282C24.5478 26.4182 24.4878 26.3182 24.2478 26.2982C23.6878 26.2582 23.1278 26.1782 22.5678 26.1382C22.1278 26.1082 22.1378 26.1082 22.2978 25.6882C22.4378 25.3082 22.7078 24.9782 22.7378 24.5582C23.0878 23.9982 23.3078 23.3782 23.5378 22.7582C23.8178 22.3582 23.9478 21.8882 24.1478 21.4482C25.0078 19.4782 25.8578 17.5082 26.7078 15.5382C27.3178 14.1382 27.9278 12.7482 28.5478 11.3482C28.7478 10.8882 28.9578 10.4282 29.1878 9.88818C29.5378 10.6682 29.8678 11.3682 30.1678 12.0782C30.8478 13.6482 31.5078 15.2382 32.2078 16.7982C32.8578 18.2682 33.4778 19.7382 34.1278 21.2082C34.3578 21.7282 34.5378 22.2782 34.8478 22.7582C35.0578 23.3782 35.3178 23.9782 35.6278 24.5582C35.7378 24.9982 35.9678 25.3882 36.1178 25.8082C36.2278 26.0982 36.2178 26.1082 35.9078 26.1382C35.3278 26.1782 34.7478 26.2282 34.1678 26.2882C33.9578 26.3082 33.8178 26.3982 33.9078 26.6482C33.8778 27.2382 33.8678 27.8282 33.9078 28.4082C33.9078 28.4682 33.9278 28.5282 33.8878 28.5782C33.9178 28.7782 34.0578 28.8782 34.2178 28.9782C34.9078 29.4182 35.5978 29.8582 36.2478 30.3682C36.4378 30.9582 36.6978 31.5182 36.9378 32.0882C37.0978 32.6482 37.3478 33.1682 37.6178 33.6882C37.7778 34.2982 38.0678 34.8682 38.3078 35.4582C39.1978 37.6782 40.1078 39.8882 41.0178 42.1082C41.4078 43.0582 41.7878 44.0082 42.1778 44.9582C42.3078 45.2682 42.5178 45.4782 42.7978 45.6782C43.2478 45.9982 43.7278 46.2982 43.9978 46.8382C44.1978 47.2382 44.4578 47.6182 44.7078 47.9982C44.8278 48.1782 44.7878 48.2782 44.6078 48.3782C43.2578 49.0782 41.8778 49.7082 40.4478 50.2182C38.4478 50.9182 36.4078 51.4382 34.3078 51.7582C31.3878 52.1982 28.4578 52.2682 25.5178 51.9482C22.6678 51.6382 19.9078 50.9782 17.2378 49.9682C16.0278 49.5082 14.8678 48.9582 13.7278 48.3682C13.5878 48.2982 13.5478 48.2182 13.6478 48.0582C13.9578 47.5682 14.2378 47.0482 14.5678 46.5682C14.8578 46.1482 15.3078 45.8982 15.7078 45.5882C15.9678 45.3882 16.1478 45.1582 16.2678 44.8582C17.7778 41.1482 19.2878 37.4482 20.7878 33.7382C21.0278 33.1882 21.2778 32.6482 21.4578 32.0882L21.4478 32.0782ZM35.1978 38.1482C35.2578 38.2482 35.2178 38.3582 35.1978 38.4682C35.0778 40.5082 34.9278 42.5482 34.8778 44.5982C34.8778 44.7282 34.8378 44.8582 34.7978 44.9782C34.6478 45.3682 34.4678 45.7582 34.3178 46.1482C34.1378 46.6282 33.8278 47.0682 33.7978 47.5882C33.7578 48.5982 33.7778 49.5982 33.7678 50.6082C33.7678 50.7682 33.8178 50.8182 33.9878 50.7982C37.2778 50.3082 40.4678 49.4882 43.5178 48.1282C43.6878 48.0482 43.7278 47.9782 43.6378 47.8182C43.4078 47.3982 43.1578 47.0082 42.7278 46.7582C42.4478 46.5982 42.2078 46.3782 41.9378 46.1982C41.6978 46.0382 41.5478 45.8282 41.4478 45.5682C40.5078 43.0582 39.5578 40.5582 38.6178 38.0582C37.7278 35.6882 36.8378 33.3082 35.9478 30.9382C35.8478 30.6682 35.6878 30.4782 35.4378 30.3282C34.8678 29.9782 34.2978 29.6082 33.7178 29.2582C33.5278 29.1382 33.4278 28.9982 33.4278 28.7682C33.4278 27.7482 33.4378 26.7382 33.4378 25.7182C33.4378 25.4882 33.5378 25.4282 33.7478 25.4182C34.1378 25.3982 34.5278 25.3582 34.9178 25.3282C35.0678 25.3182 35.1378 25.2882 35.0578 25.1082C34.7178 24.3382 34.3878 23.5682 34.0478 22.7982C34.0278 22.7582 33.9978 22.7082 33.9778 22.6682V22.6482C34.0178 22.6482 34.0278 22.6682 33.9778 22.6782C33.8878 22.7082 33.9178 22.7482 33.9378 22.8082C34.0178 23.0382 34.0778 23.2682 34.1678 23.4982C34.2478 23.6882 34.2078 23.8382 34.0678 23.9882C33.7278 24.3582 33.4078 24.7482 33.0778 25.1282C32.9478 25.2782 32.8478 25.4282 32.8478 25.6382C32.8478 26.5182 32.8478 27.3882 32.8478 28.2682C32.8478 28.3682 32.8478 28.4982 32.9878 28.4882C33.2978 28.4682 33.2878 28.6682 33.2578 28.8582C33.2178 29.1782 33.3378 29.3882 33.6078 29.5582C34.1078 29.8582 34.5778 30.1982 35.0778 30.4982C35.3378 30.6582 35.4878 30.8582 35.5778 31.1382C35.7478 31.6482 35.9278 32.1482 36.1078 32.6482C36.9278 34.9482 37.7478 37.2582 38.5578 39.5582C39.3178 41.6982 40.0678 43.8482 40.8178 45.9882C40.9078 46.2482 41.0678 46.4282 41.3178 46.5582C41.7178 46.7782 42.1378 46.9882 42.4878 47.2982C42.6478 47.4382 42.6312 47.5448 42.4378 47.6182C41.6778 47.8982 40.8978 48.1482 40.1478 48.4782C38.3678 49.2582 36.4878 49.6182 34.5978 49.9482C34.4778 49.9682 34.2778 50.0882 34.2678 49.8082C34.2578 49.5982 34.2578 49.4382 34.5378 49.4082C34.8678 49.3782 35.1878 49.2982 35.5178 49.2282C36.2978 49.0682 37.0978 48.9982 37.8478 48.7282C38.8878 48.3582 39.9178 47.9482 40.9478 47.5582C41.0178 47.5282 41.1278 47.5382 41.1378 47.4482C41.1378 47.3582 41.0378 47.3382 40.9678 47.2982C40.7078 47.1182 40.3978 47.0082 40.2678 46.6682C39.7078 45.1782 39.1378 43.6982 38.5678 42.2182C38.2578 41.4082 37.9378 40.5982 37.6278 39.7982C37.7778 40.4382 37.9778 41.0682 38.1778 41.6882C38.7378 43.4482 39.3078 45.2082 39.8778 46.9682C39.9278 47.1282 39.8978 47.2082 39.7278 47.2582C38.6878 47.5982 37.6878 48.0682 36.5878 48.2082C35.8878 48.2982 35.1978 48.4582 34.5078 48.5682C34.3878 48.5882 34.2178 48.6782 34.2178 48.4182C34.2178 47.9782 34.2078 47.5382 34.4078 47.1182C34.5778 46.7782 34.7078 46.4182 34.8278 46.0482C34.9878 45.5582 35.2778 45.1182 35.3078 44.5982C35.3478 43.8882 35.3878 43.1682 35.4278 42.4582C35.5078 40.9482 35.5578 39.4382 35.6678 37.9282C35.7278 37.0682 35.3578 36.3982 34.8878 35.7382C34.8078 35.6282 34.6878 35.5782 34.5578 35.5482C34.2278 35.4682 33.8878 35.3982 33.5578 35.3182C33.3278 35.2582 33.1178 35.2782 32.9278 35.4182C32.8678 35.4582 32.8078 35.5282 32.7378 35.4882C32.6578 35.4382 32.7078 35.3382 32.7178 35.2682C32.8978 34.1682 33.0678 33.0582 33.2478 31.9582C33.3578 31.2782 33.5378 30.5982 33.1278 29.9382C33.0078 29.7482 32.8878 29.6382 32.6678 29.5982C32.2578 29.5282 31.8578 29.4582 31.4478 29.3782C31.2878 29.3482 31.2078 29.3782 31.1778 29.5482C31.1378 29.7482 31.2578 29.7582 31.3978 29.7782C31.7378 29.8282 32.0678 29.8982 32.4078 29.9482C32.5778 29.9782 32.6878 30.0382 32.7678 30.2182C32.8878 30.4982 32.9478 30.7682 32.8978 31.0682C32.5578 32.9182 32.3478 34.7882 31.9478 36.6382C31.8878 36.9082 31.7778 36.9382 31.5378 36.9082C30.9478 36.8382 30.4078 36.6782 29.8878 36.3682C29.6678 36.2382 29.5878 36.1282 29.6378 35.8682C30.0278 33.6982 30.4178 31.5282 30.8078 29.3582C30.8378 29.1882 30.8278 29.0382 30.7578 28.8882C30.6278 28.6182 30.5278 28.3382 30.4978 28.0382C30.4778 27.8482 30.3678 27.7582 30.1778 27.7382C29.7378 27.6882 29.2978 27.6382 28.8578 27.5982C28.7278 27.5882 28.5878 27.5682 28.4778 27.6582C28.1778 27.9182 27.9078 28.2082 27.8378 28.6182C27.7378 29.1282 27.6778 29.6482 27.5878 30.1682C27.3078 31.9082 27.0178 33.6482 26.7478 35.3882C26.7178 35.5882 26.6178 35.7082 26.4378 35.7982C26.1878 35.9082 25.9478 36.0382 25.7078 36.1582C26.1478 36.1182 26.5778 36.0482 26.9978 35.9382C27.2078 35.8882 27.3878 35.9182 27.5778 35.9982C28.2378 36.2782 28.8778 36.5882 29.5578 36.8082C30.1278 36.9982 30.5278 37.2982 30.6878 37.8882C30.6978 37.9382 30.7178 37.9782 30.7378 38.0282C30.7678 38.0982 30.7678 38.1782 30.7378 38.2382C30.4978 38.6282 30.3578 39.0782 29.7878 39.1882C29.1178 39.3182 28.4778 39.5782 27.7978 39.2282C27.6178 39.1382 27.4278 39.0882 27.3078 38.8982C27.1878 38.7082 27.0378 38.5382 26.8978 38.3682C26.9078 38.5682 26.9478 38.7382 27.0178 38.9082C27.1078 39.1182 27.0778 39.2882 26.9278 39.4582C26.7578 39.6582 26.6178 39.8782 26.4778 40.0882C26.5478 40.1682 26.6378 40.1582 26.7078 40.1682C27.2878 40.2382 27.8078 40.5082 28.1878 40.8982C29.0378 41.7882 29.7078 42.8182 30.1878 43.9582C30.3778 44.4082 30.5278 44.8682 30.6878 45.3182C30.4278 43.2482 29.6578 41.4382 28.0678 40.0082C28.7378 40.0382 29.3678 40.0282 29.9778 39.8082C30.1478 39.7482 30.2778 39.8182 30.3578 39.9782C30.4978 40.2682 30.7278 40.4082 31.0278 40.4782C31.2578 40.5382 31.4978 40.5982 31.7178 40.6982C32.2178 40.9082 32.6078 40.8182 32.9778 40.4082C33.6678 39.6482 34.6178 39.1282 35.0978 38.1682C35.0978 38.1682 35.1178 38.1682 35.1378 38.1682L35.1978 38.1482ZM29.1178 10.8982C28.5978 12.1682 28.0778 13.4482 27.5578 14.7182C26.1378 18.1682 24.7178 21.6182 23.2978 25.0682C23.2078 25.2982 23.2778 25.3382 23.4778 25.3582C23.9978 25.4082 24.5178 25.4882 25.0378 25.5382C25.2278 25.5582 25.3278 25.6182 25.3178 25.8382C25.3078 26.4282 25.3078 27.0282 25.3178 27.6182C25.3178 27.8982 25.2478 28.1682 25.0678 28.3782C24.8178 28.6782 24.7678 29.0182 24.7378 29.3882C24.6478 30.4382 24.5578 31.4982 24.4478 32.5482C24.2878 34.1382 23.9678 35.7082 23.6278 37.2782C23.4978 37.8882 23.4078 38.5082 22.9378 38.9882C22.8578 39.0782 22.7878 39.2182 22.7878 39.3382C22.7378 40.2682 22.5878 41.1882 23.2278 42.0482C24.1678 43.3282 24.9978 44.6882 25.8878 46.0082C26.3778 46.7382 26.3278 47.5782 26.4578 48.3882C26.4678 48.4582 26.4378 48.5282 26.4178 48.5982C26.3178 48.8982 26.2178 49.1882 26.1178 49.4882C25.9378 50.0182 25.9378 50.0282 25.3878 49.9782C23.5678 49.8082 21.7778 49.4882 20.0878 48.7382C19.3278 48.3982 18.6078 47.9982 18.1378 47.2682C17.9978 47.0582 17.9778 46.8582 18.0578 46.6082C18.3178 45.7382 18.5578 44.8682 18.8078 43.9982C19.6878 40.9382 20.5578 37.8882 21.4378 34.8282C21.6678 34.0282 21.8878 33.2182 22.1178 32.4182C22.0378 32.5082 21.9878 32.5982 21.9478 32.7082C21.6178 33.5682 21.2878 34.4382 20.9578 35.2982C19.6678 38.6882 18.3778 42.0882 17.0878 45.4782C16.9978 45.7182 16.8578 45.9182 16.6178 46.0482C15.8678 46.4282 15.2678 46.9482 14.9978 47.7782C14.9978 47.7782 14.9978 47.7982 14.9778 47.8082C14.8378 47.9882 14.8878 48.0982 15.0978 48.1982C15.7278 48.4982 16.3878 48.7682 17.0478 49.0082C18.9478 49.6982 20.9078 50.2082 22.8978 50.5882C23.7478 50.7482 24.6078 50.8882 25.4578 51.0082C25.6978 51.0382 25.8278 50.9682 25.9178 50.7382C26.1278 50.1982 26.3378 49.6482 26.5978 49.1282C26.8578 48.6082 26.9078 48.0982 26.7778 47.5482C26.7078 47.2482 26.6578 46.9382 26.6078 46.6282C26.5678 46.4182 26.4878 46.2282 26.3678 46.0482C25.3678 44.5482 24.3778 43.0482 23.3878 41.5482C23.2778 41.3782 23.1478 41.2182 23.1478 40.9982C23.1478 40.5282 23.1478 40.0482 23.1478 39.5782C23.1478 39.4482 23.1978 39.3382 23.2778 39.2482C23.7178 38.8082 23.8478 38.2582 23.9778 37.6782C24.3478 35.9982 24.7078 34.3182 24.8678 32.5982C24.9778 31.4482 25.0878 30.2882 25.1978 29.1382C25.2078 29.0182 25.1778 28.8582 25.2878 28.7982C25.6678 28.6182 25.9778 28.2582 26.4778 28.4182C26.7678 28.5082 27.0678 28.5582 27.3578 28.6182C27.4678 28.6382 27.5878 28.6682 27.6178 28.4982C27.6478 28.3482 27.6078 28.2382 27.4378 28.2182C26.8978 28.1482 26.3978 27.8982 25.8378 27.9682C25.8378 27.6682 26.0778 27.6182 26.2778 27.5482C26.4578 27.4882 26.5378 27.3882 26.5378 27.1982C26.5378 26.6782 26.5378 26.1482 26.5378 25.6282C26.5378 25.4782 26.4778 25.3582 26.3678 25.2682C26.1078 25.0482 25.8478 24.8282 25.5778 24.6082C25.4278 24.4882 25.3778 24.3582 25.4378 24.1582C25.6678 23.4182 25.8878 22.6782 26.1078 21.9382C26.8678 19.4282 27.6278 16.9182 28.4078 14.4082C28.5778 13.8482 28.7078 13.2782 28.9078 12.7282C29.1178 12.1582 29.2478 11.5582 29.1078 10.9182L29.1178 10.8982ZM31.5578 18.3582C31.5778 18.4282 31.6078 18.5082 31.6278 18.5782C32.1778 20.0882 32.7378 21.5982 33.2878 23.1082C33.3778 23.3482 33.3578 23.5382 33.2078 23.7582C32.9378 24.1282 32.6778 24.4982 32.4578 24.8882C32.2478 25.2582 31.9878 25.3882 31.5578 25.3782C30.2178 25.3482 28.8778 25.3682 27.5278 25.3682C27.6878 25.4482 27.8478 25.4882 28.0078 25.5182C29.2878 25.7482 30.5578 25.9782 31.8378 26.1982C32.0478 26.2382 32.1178 26.3182 32.1178 26.5282C32.0978 27.0882 32.1178 27.6582 32.1178 28.2182C32.1178 28.3682 32.1478 28.4782 32.3278 28.4682C32.4978 28.4682 32.4978 28.3582 32.4978 28.2182C32.4878 27.3682 32.4778 26.5282 32.4678 25.6782C32.4678 25.4682 32.5278 25.2882 32.6578 25.1282C32.9878 24.7182 33.3078 24.3082 33.6378 23.8982C33.8178 23.6882 33.8378 23.4882 33.7278 23.2282C33.3678 22.4282 33.0278 21.6082 32.6778 20.8082C32.3178 19.9782 31.9578 19.1582 31.5578 18.3482V18.3582Z" fill="#1D478D"/>
<path d="M34.8378 22.7583C34.5278 22.2783 34.3478 21.7283 34.1178 21.2083C33.4778 19.7383 32.8478 18.2583 32.1978 16.7983C31.4978 15.2283 30.8478 13.6483 30.1578 12.0783C29.8478 11.3683 29.5278 10.6683 29.1778 9.8883C28.9478 10.4183 28.7378 10.8783 28.5378 11.3483C27.9278 12.7483 27.3078 14.1383 26.6978 15.5383C25.8378 17.5083 24.9978 19.4883 24.1378 21.4483C23.9478 21.8883 23.8078 22.3583 23.5278 22.7583C20.2678 22.7583 16.9978 22.7583 13.7378 22.7583C13.5178 22.7583 13.3978 22.6883 13.3778 22.4583C13.2778 21.3883 13.1878 20.3083 13.2578 19.2283C13.3078 18.3383 13.4278 17.4483 13.6278 16.5883C14.1178 14.4183 15.0178 12.4383 16.3378 10.6483C17.0778 9.64829 17.9178 8.7283 18.8678 7.9183C19.9378 6.9983 21.1278 6.2383 22.4078 5.6383C23.3878 5.1783 24.4178 4.7983 25.4678 4.5483C27.1578 4.1483 28.8778 4.0083 30.6178 4.1683C32.3778 4.3383 34.0678 4.7983 35.6978 5.5083C37.8378 6.4583 39.6678 7.82829 41.2178 9.5683C42.3678 10.8583 43.2477 12.3183 43.9077 13.8983C44.2377 14.6883 44.5078 15.4983 44.7078 16.3383C44.9178 17.2583 45.0178 18.1883 45.1078 19.1183C45.1678 19.7283 45.1777 20.3383 45.1577 20.9483C45.1377 21.4583 45.0478 21.9583 44.9978 22.4683C44.9778 22.6683 44.8678 22.7383 44.6778 22.7283C43.9378 22.7283 43.2078 22.7283 42.4678 22.7283C39.9278 22.7283 37.3878 22.7283 34.8478 22.7283L34.8378 22.7583Z" fill="#1D478D"/>
<path d="M33.8979 26.6385C33.8079 26.3885 33.9479 26.2985 34.1579 26.2785C34.7379 26.2285 35.3179 26.1785 35.8979 26.1285C36.2179 26.1085 36.2179 26.0985 36.1079 25.7985C35.9479 25.3785 35.7179 24.9885 35.6179 24.5485C35.8279 24.4985 36.0379 24.4985 36.2479 24.4985C38.7379 24.4985 41.2179 24.4985 43.7079 24.4985C43.7179 24.4985 43.7279 24.4985 43.7379 24.4985C44.6879 24.5685 44.5279 24.4085 44.2979 25.2985C44.2079 25.6485 44.0179 25.9785 43.8879 26.3285C43.7979 26.5585 43.6679 26.6385 43.4179 26.6385C40.3479 26.6385 37.2779 26.6385 34.2079 26.6385C34.1079 26.6385 34.0079 26.6385 33.9079 26.6385H33.8979Z" fill="#1D478D"/>
<path d="M22.7277 24.5485C22.6977 24.9685 22.4377 25.3085 22.2877 25.6785C22.1277 26.0985 22.1177 26.0985 22.5577 26.1285C23.1177 26.1685 23.6777 26.2485 24.2377 26.2885C24.4777 26.3085 24.5277 26.4185 24.4777 26.6185C21.3077 26.6185 18.1377 26.6185 14.9577 26.6185C14.6977 26.6185 14.5677 26.5085 14.4777 26.2985C14.2677 25.8085 14.1077 25.2885 13.9377 24.7785C13.8677 24.5785 13.9077 24.4985 14.1277 24.4985C14.4977 24.4985 14.8677 24.4785 15.2477 24.4785C17.6177 24.4785 19.9777 24.4785 22.3477 24.4785C22.4777 24.4785 22.6077 24.5085 22.7377 24.5385L22.7277 24.5485Z" fill="#1D478D"/>
<path d="M24.4775 28.3584C24.5475 28.6484 24.4075 28.8184 24.1775 28.9684C23.4775 29.4184 22.7675 29.8584 22.1075 30.3784C20.6575 30.3784 19.2075 30.3284 17.7575 30.3884C17.0875 30.4184 16.6875 30.1584 16.3575 29.6384C16.1575 29.3284 15.9475 29.0184 15.7375 28.7184C15.6775 28.6284 15.6175 28.5484 15.6575 28.4484C15.7075 28.3484 15.8175 28.3884 15.8975 28.3884C18.2175 28.3884 20.5475 28.3884 22.8675 28.3884C23.3975 28.3884 23.9275 28.4384 24.4575 28.3684L24.4775 28.3584Z" fill="#1D478D"/>
<path d="M36.2376 30.3582C35.5876 29.8582 34.9075 29.4082 34.2075 28.9682C34.0475 28.8682 33.9076 28.7582 33.8776 28.5682C33.8476 28.3882 33.9576 28.3982 34.0776 28.3982C36.8876 28.3982 39.6876 28.3982 42.4976 28.3982C42.5776 28.3982 42.6876 28.3582 42.7276 28.4682C42.7576 28.5482 42.7075 28.6082 42.6575 28.6882C42.3375 29.1882 41.9776 29.6582 41.6076 30.1282C41.4776 30.2882 41.3276 30.3582 41.1176 30.3582C39.4876 30.3582 37.8576 30.3582 36.2276 30.3582H36.2376Z" fill="#1D478D"/>
<path d="M37.598 33.6784C37.328 33.1584 37.078 32.6384 36.918 32.0784C37.708 32.0784 38.498 32.0784 39.288 32.0884C39.388 32.0884 39.538 32.0184 39.588 32.1284C39.658 32.2784 39.468 32.3184 39.388 32.3884C38.828 32.8784 38.218 33.2984 37.578 33.6784H37.598Z" fill="#1D478D"/>
<path d="M21.4475 32.0784C21.2575 32.6484 21.0075 33.1884 20.7775 33.7284C20.1775 33.2484 19.4875 32.8784 18.9275 32.3284C18.8675 32.2684 18.7475 32.2384 18.7975 32.1284C18.8475 32.0284 18.9575 32.0784 19.0475 32.0784C19.8475 32.0784 20.6475 32.0784 21.4475 32.0784Z" fill="#1D478D"/>
<path d="M20.8579 54.8786C20.9279 54.5886 20.9779 54.3286 21.0479 54.0686C21.1079 53.8386 21.1479 53.6286 21.0579 53.3886C20.9879 53.1886 21.4079 52.8086 21.6379 52.8386C21.7379 52.8486 21.8379 52.8586 21.9379 52.8886C22.1079 52.9386 22.2579 52.9586 22.3579 52.7486C22.3879 52.6786 22.5179 52.5686 22.6079 52.6186C22.7179 52.6786 22.6179 52.7986 22.6079 52.8886C22.5079 53.4086 22.3579 53.9186 22.2879 54.4486C22.2579 54.7086 22.1279 54.9286 21.8279 55.0886C21.9279 54.5986 22.0179 54.1686 22.1079 53.7286C22.1379 53.5786 22.2579 53.3586 22.1179 53.2786C21.9079 53.1586 21.6479 53.0986 21.3979 53.1186C21.2979 53.1186 21.2479 53.2286 21.3079 53.3286C21.3579 53.4086 21.3879 53.5286 21.5279 53.4086C21.6379 53.3186 21.7679 53.2886 21.8879 53.3886C21.9979 53.4786 22.0079 53.6086 21.9979 53.7486C21.9979 53.8386 21.9779 53.8986 21.8779 53.9086C21.7679 53.9186 21.7379 53.8686 21.7179 53.7786C21.7079 53.7086 21.7379 53.5886 21.6179 53.5986C21.5179 53.5986 21.5079 53.7086 21.4879 53.7786C21.4279 53.9986 21.3679 54.2286 21.3279 54.4486C21.2879 54.6886 21.1379 54.7986 20.8879 54.8686L20.8579 54.8786Z" fill="#1D478D"/>
<path d="M39.8778 53.7883C39.8978 53.8483 39.8978 53.9083 39.9178 53.9583C39.9778 54.1083 39.8578 54.1783 39.7878 54.2683C39.7578 54.3083 39.6878 54.3383 39.6578 54.2883C39.5878 54.1683 39.3678 54.0783 39.4278 53.9683C39.5578 53.7283 39.4078 53.5383 39.3678 53.3383C39.3178 53.1183 39.2378 52.9183 39.1778 52.7083C39.1678 52.6583 39.1478 52.6083 39.1178 52.5683C39.0778 52.5083 38.8778 52.5883 38.9978 52.4083C39.0478 52.3383 39.0678 52.2283 39.1878 52.2583C39.2978 52.2783 39.3878 52.3283 39.4278 52.4583C39.5178 52.7483 39.6278 53.0283 39.7178 53.3183C39.7678 53.4583 39.7878 53.6183 40.0078 53.4783C40.0978 53.4183 40.1978 53.4983 40.3378 53.5083C40.2278 53.1683 40.1378 52.8483 40.0078 52.5283C39.9178 52.3083 39.9778 52.1483 40.1578 51.9683C40.3578 52.5483 40.5478 53.0883 40.7378 53.6383C40.7978 53.7983 40.6978 53.9183 40.6078 54.0183C40.4878 54.1583 40.4578 53.9583 40.3678 53.9283C40.1978 53.8783 40.0578 53.7383 39.8478 53.7883H39.8778Z" fill="#1D478D"/>
<path d="M37.8476 52.8685C37.7942 53.1418 37.7209 53.3352 37.6276 53.4485C37.5676 53.2085 37.4176 53.0185 37.5676 52.7585C37.6776 52.5685 37.8176 52.5485 37.9976 52.5785C38.1876 52.6085 38.1876 52.7585 38.1876 52.8985C38.1876 53.2385 38.2076 53.5785 38.2176 53.9285C38.2176 54.0885 38.2676 54.2285 38.4176 54.3085C38.5176 54.3685 38.6176 54.3585 38.7076 54.3085C38.7976 54.2485 38.7376 54.1585 38.7176 54.0885C38.6076 53.5385 38.3876 53.0285 38.2776 52.4785C38.2376 52.2785 38.2776 52.1385 38.4376 51.9585C38.4976 52.2385 38.7176 52.4385 38.5376 52.7185C38.5176 52.7585 38.5376 52.7885 38.5676 52.8185C38.9576 53.1385 38.9176 53.6285 39.0476 54.0485C39.1276 54.2985 38.7076 54.6485 38.4076 54.6485C38.0776 54.6485 37.8776 54.4385 37.8876 54.0785C37.8976 53.7685 37.9276 53.4585 37.9376 53.1385C37.9376 53.0485 37.9876 52.9385 37.8676 52.8685H37.8476Z" fill="#1D478D"/>
<path d="M25.2678 53.0283C25.3078 53.2883 25.2178 53.5583 25.1978 53.8183C25.1678 54.1983 25.0878 54.5783 25.0578 54.9583C25.0378 55.2183 24.9178 55.3783 24.6578 55.5283C24.6978 55.1483 24.7278 54.8083 24.7878 54.4683C24.8478 54.1483 24.6178 54.1283 24.4278 54.0783C24.1878 54.0183 24.2078 54.2083 24.1878 54.3483C24.1578 54.4983 24.1578 54.6483 24.1178 54.7983C24.0378 55.0683 24.0878 55.2483 24.4278 55.2883C24.2878 55.4683 24.1478 55.5083 23.9678 55.4283C23.7778 55.3483 23.7378 55.1983 23.7678 55.0083C23.8078 54.7483 23.8378 54.4883 23.8978 54.2383C23.9678 53.8983 24.2578 53.7583 24.6278 53.8483C24.7078 53.8683 24.8278 53.9883 24.8678 53.8183C24.9078 53.6483 24.7478 53.6983 24.6678 53.6783C24.5578 53.6583 24.4478 53.6583 24.3378 53.6583C24.2278 53.6583 24.1578 53.5883 24.1578 53.4983C24.1578 53.4183 24.2178 53.3283 24.3378 53.3383C24.3578 53.3383 24.3778 53.3383 24.3978 53.3383C24.6878 53.3883 24.9678 53.4083 25.1378 53.0983C25.1578 53.0583 25.2078 53.0183 25.2778 53.0383L25.2678 53.0283Z" fill="#1D478D"/>
<path d="M31.328 55.7484C31.308 55.3584 31.268 55.0284 31.268 54.6984C31.268 54.3484 31.018 54.4184 30.828 54.3984C30.598 54.3684 30.648 54.5584 30.648 54.6884C30.648 54.8284 30.668 54.9684 30.648 55.1084C30.638 55.3684 30.658 55.5984 31.028 55.5584C30.918 55.7784 30.768 55.8184 30.588 55.7684C30.408 55.7184 30.338 55.5884 30.338 55.4084C30.338 55.1684 30.318 54.9284 30.308 54.6884C30.298 54.2984 30.498 54.0984 30.888 54.1084C30.948 54.1084 31.008 54.1184 31.068 54.1184C31.128 54.1184 31.218 54.1584 31.218 54.0284C31.218 53.9284 31.158 53.9184 31.078 53.9184C30.848 53.9184 30.618 53.9184 30.368 53.9184C30.458 53.6884 30.588 53.5784 30.848 53.5684C31.518 53.5684 31.518 53.5484 31.558 54.2284C31.578 54.5384 31.588 54.8484 31.618 55.1584C31.638 55.3984 31.548 55.5584 31.328 55.7284V55.7484Z" fill="#1D478D"/>
<path d="M26.4878 55.7385C26.5278 55.1685 26.5678 54.6685 26.5978 54.1685C26.6178 53.8385 26.5678 53.8085 26.2078 53.8885C26.3078 53.9785 26.5078 53.8785 26.5478 54.0685C26.5778 54.2685 26.4478 54.3885 26.3178 54.4585C26.0078 54.6285 25.8978 54.8785 25.8878 55.2185C25.8878 55.4385 25.8578 55.4385 25.5278 55.5885C25.4878 55.2685 25.5778 54.9685 25.5878 54.6685C25.5878 54.5485 25.5978 54.4285 25.5578 54.3085C25.4478 53.9985 25.5778 53.6885 25.8678 53.5385C25.8978 53.5185 25.9578 53.4985 25.9778 53.5085C26.1478 53.6385 26.3178 53.5485 26.4878 53.5485C26.8478 53.5485 26.9378 53.6385 26.9178 53.9985C26.8978 54.4085 26.8678 54.8185 26.8478 55.2385C26.8478 55.4685 26.6878 55.5685 26.4878 55.7385ZM26.3278 54.1785C26.1678 54.1385 25.9078 54.2585 26.0278 53.9385C26.0478 53.8685 25.9278 53.8185 25.8478 53.8185C25.7778 53.8185 25.7078 53.8685 25.7078 53.9485C25.7278 54.1385 25.8578 54.2785 25.9878 54.3885C26.0578 54.4485 26.2278 54.3285 26.3278 54.1785Z" fill="#1D478D"/>
<path d="M15.7277 51.3482C15.7277 51.3482 15.7877 51.4282 15.8277 51.4582C16.0677 51.6482 16.1577 51.8682 15.9677 52.1582C15.8777 52.2882 15.8477 52.4582 15.7777 52.5982C15.6277 52.9682 15.1677 53.1382 14.8077 52.9482C14.4777 52.7782 14.3977 52.4682 14.6177 52.1682C14.7977 51.9282 14.8777 51.5582 15.2877 51.5982C15.3377 51.6282 15.3177 51.6582 15.2977 51.6982C15.1577 51.9182 15.0177 52.1382 14.8777 52.3582C14.7377 52.5882 14.9377 52.6782 15.0777 52.7782C15.2477 52.8882 15.3277 52.7882 15.3877 52.6382C15.4477 52.4682 15.5277 52.3082 15.5977 52.1382C15.7377 51.8182 15.6277 51.6382 15.2777 51.6082C15.2977 51.3882 15.0177 51.4482 14.9877 51.2882C15.5077 50.7782 15.9877 51.1082 16.4977 51.3382C16.3377 51.4882 16.1877 51.5282 15.9977 51.4382C15.9077 51.3982 15.8277 51.3282 15.7177 51.3682C15.7377 51.2982 15.6777 51.3282 15.6577 51.3082C15.6577 51.3082 15.6477 51.3082 15.6377 51.3082C15.6577 51.3382 15.6777 51.3682 15.7177 51.3582L15.7277 51.3482Z" fill="#1D478D"/>
<path d="M43.6377 52.2786C43.4977 51.9686 43.3677 51.6686 43.2377 51.3686C43.1577 51.1886 43.1843 50.9886 43.3177 50.7686C43.5677 51.3186 43.8477 51.8386 44.0277 52.3986C44.0577 52.4986 44.0977 52.6486 43.9577 52.7486C43.8277 52.8486 43.7677 52.6986 43.6677 52.6786C43.5777 52.6586 43.4977 52.6186 43.4077 52.6086C43.3377 52.6086 43.2477 52.5986 43.2077 52.6286C43.1477 52.6986 43.2277 52.7586 43.2777 52.7986C43.4077 52.9486 43.2677 52.9886 43.1877 53.0786C43.0877 53.1886 43.0177 53.1586 42.9477 53.0586C42.8677 52.9486 42.6477 52.8986 42.8077 52.6786C42.8477 52.6286 42.7377 52.4586 42.6977 52.3486C42.5977 52.1086 42.4977 51.8686 42.3977 51.6286C42.3777 51.5786 42.3377 51.5286 42.3177 51.4686C42.2877 51.4086 42.0877 51.5286 42.1677 51.3486C42.1977 51.2686 42.2077 51.1586 42.3277 51.1486C42.4377 51.1486 42.5377 51.1786 42.5877 51.2686C42.6577 51.3986 42.7177 51.5386 42.7777 51.6786C42.8477 51.8286 42.9377 51.9586 42.9777 52.1186C43.0277 52.3186 43.0577 52.4886 43.2977 52.2786C43.3877 52.1986 43.5077 52.3186 43.6277 52.2786H43.6377Z" fill="#1D478D"/>
<path d="M20.8278 52.7186C20.6778 53.2786 20.5378 53.8386 20.3878 54.3986C20.3378 54.5686 20.1678 54.5786 20.0178 54.6686C19.9678 54.4586 19.8678 54.2886 19.7378 54.1386C19.6478 54.0286 19.5578 53.9986 19.5178 54.1786C19.5078 54.2386 19.4778 54.3086 19.4378 54.3386C19.3478 54.3886 19.1878 54.4886 19.1478 54.3886C19.0878 54.2686 18.9878 54.0386 19.1178 53.9586C19.3178 53.8486 19.3078 53.6686 19.3678 53.5086C19.4578 53.2586 19.5178 53.0086 19.5978 52.7586C19.6078 52.7086 19.6178 52.6586 19.6278 52.6086C19.6378 52.5386 19.3778 52.5286 19.5878 52.4286C19.6678 52.3886 19.7378 52.2986 19.8278 52.3686C19.9278 52.4486 19.9778 52.5486 19.9478 52.6886C19.8578 53.0086 19.7778 53.3286 19.6978 53.6486C19.6878 53.6986 19.6778 53.7486 19.6578 53.8286C19.8478 53.8086 20.0178 53.8486 20.0978 54.0486C20.4078 53.6186 20.1978 52.9486 20.7478 52.6586C20.7778 52.6786 20.8078 52.6886 20.8378 52.7086L20.8278 52.7186Z" fill="#1D478D"/>
<path d="M34.5477 55.4486C34.4577 54.8886 34.3677 54.3786 34.3077 53.8586C34.2877 53.6686 34.2177 53.6186 34.0377 53.6486C33.8577 53.6786 33.6777 53.6986 33.4577 53.7286C33.7877 53.9686 33.7577 54.3186 33.7877 54.6286C33.8177 54.9386 34.0277 55.2886 33.5877 55.5586C33.5377 55.1986 33.4977 54.8586 33.4477 54.5286C33.4177 54.3086 33.4777 54.0486 33.1877 53.9386C33.1677 53.9386 33.1577 53.8886 33.1577 53.8686C33.1577 53.7586 33.5477 53.3686 33.6577 53.3586C33.8677 53.3286 34.0777 53.3186 34.2877 53.2686C34.4777 53.2186 34.5277 53.2986 34.5577 53.4686C34.6277 53.9486 34.7077 54.4186 34.7777 54.8986C34.8177 55.1786 34.8177 55.1786 34.5377 55.4486H34.5477Z" fill="#1D478D"/>
<path d="M41.8076 51.3984C41.9276 51.9684 42.3676 52.3884 42.2476 53.0184C42.2876 53.0584 42.3776 53.0184 42.4476 53.0284C42.5376 53.0484 42.6776 53.0184 42.5976 53.1984C42.5576 53.3084 42.5676 53.4684 42.3776 53.3984C42.0776 53.2884 41.8476 53.3584 41.6776 53.6284C41.5576 53.8284 41.4176 53.7784 41.2876 53.6484C41.1676 53.5384 41.1276 53.3984 41.0976 53.2484C41.0376 52.9684 40.9776 52.6984 40.9476 52.4184C40.9176 52.1584 40.8576 51.9784 40.5176 52.1184C40.5776 51.9484 40.5276 51.7584 40.7476 51.7484C40.9576 51.7484 41.1076 51.8384 41.1676 52.0584C41.2576 52.4384 41.3576 52.8184 41.4676 53.1984C41.5576 53.5084 41.6176 53.4984 41.8576 53.2884C42.0676 53.0984 42.0776 52.9384 41.9576 52.7084C41.8476 52.5084 41.8076 52.2684 41.7076 52.0684C41.5976 51.8484 41.5876 51.6484 41.8076 51.4084V51.3984Z" fill="#1D478D"/>
<path d="M16.4578 51.8683C16.9578 51.3483 17.4678 51.5283 17.9778 51.8083C17.7178 52.2383 17.3778 51.8383 17.0778 51.8983C17.6878 52.4283 17.5778 52.2583 17.3478 52.9983C17.2478 53.3083 17.1178 53.5283 16.7578 53.5983C16.4578 53.6583 16.0778 53.4683 15.9978 53.1583C15.9778 53.0883 15.9578 53.0083 16.0578 52.9883C16.1478 52.9783 16.2578 52.9083 16.3378 53.0183C16.3778 53.0683 16.3878 53.1283 16.4278 53.1783C16.5078 53.2783 16.6078 53.3883 16.7478 53.3783C16.9078 53.3783 16.8978 53.2083 16.9378 53.1083C17.2278 52.3883 17.2178 52.3883 16.5778 51.9583C16.5278 51.9283 16.4878 51.8983 16.4478 51.8683H16.4578Z" fill="#1D478D"/>
<path d="M17.918 52.3985C18.408 51.8385 18.928 52.0285 19.448 52.2785C19.188 52.6985 18.838 52.3585 18.538 52.3885C18.538 52.4185 18.538 52.4385 18.548 52.4485C19.078 52.7885 19.078 52.7885 18.888 53.4085C18.798 53.7185 18.738 54.0285 18.338 54.1085C18.028 54.1685 17.698 54.0585 17.558 53.7585C17.528 53.6885 17.458 53.5985 17.578 53.5585C17.668 53.5285 17.768 53.4385 17.878 53.5585C18.348 54.0585 18.348 54.0585 18.558 53.4085C18.708 52.9385 18.688 52.8785 18.268 52.6085C18.158 52.5385 18.048 52.4785 17.928 52.4085L17.918 52.3985Z" fill="#1D478D"/>
<path d="M36.4379 53.2685C36.5879 53.2785 36.6579 53.2885 36.7279 53.2885C37.2879 53.3385 37.4079 53.4185 37.4679 53.9485C37.4979 54.1985 37.6779 54.4885 37.3879 54.7685C37.1079 55.0385 36.8079 55.1285 36.4779 54.9085C36.4179 54.8685 36.2979 54.8385 36.3679 54.7385C36.4279 54.6585 36.4879 54.5385 36.6279 54.5885C36.6779 54.6085 36.7079 54.6485 36.7579 54.6585C36.8979 54.7085 37.0579 54.7785 37.1879 54.6585C37.2979 54.5585 37.1879 54.4285 37.1779 54.3185C37.0279 53.5885 37.0079 53.5785 36.2679 53.5585C36.2079 53.5585 36.1479 53.5585 36.0879 53.5585C36.2479 52.9885 36.6179 52.7085 37.2179 52.7085C37.3279 52.7085 37.3779 52.7385 37.3179 52.8485C37.2579 52.9685 37.2079 53.0785 37.0479 53.1085C36.8679 53.1385 36.6879 53.1985 36.4279 53.2585L36.4379 53.2685Z" fill="#1D478D"/>
<path d="M27.2678 54.1584C27.6578 53.5984 27.9978 53.4784 28.6878 53.6684C28.5078 54.1184 28.1078 53.8884 27.8078 53.9684C27.8078 53.9784 27.8078 54.0084 27.8278 54.0084C28.0378 54.1184 28.3778 54.0984 28.4278 54.3484C28.4978 54.6884 28.4978 55.0584 28.4278 55.3884C28.3778 55.6084 28.1278 55.7584 27.8778 55.7884C27.6178 55.8184 27.4078 55.7284 27.2478 55.5084C27.1978 55.4484 27.2078 55.3884 27.2678 55.3584C27.3478 55.3184 27.4078 55.2184 27.5378 55.2984C28.1178 55.6284 28.1178 55.6184 28.1478 54.9684C28.1678 54.4584 28.1578 54.4484 27.6778 54.2884C27.5578 54.2484 27.4278 54.2084 27.2778 54.1684L27.2678 54.1584Z" fill="#1D478D"/>
<path d="M34.8977 53.4985C35.0277 53.1385 35.1577 53.0585 35.5077 53.0785C35.6477 53.0785 35.6477 53.1785 35.6577 53.2585C35.7577 53.7685 35.8577 54.2885 35.9577 54.7985C35.9977 54.9985 35.8877 55.1085 35.6977 55.2585C35.6177 54.8285 35.5377 54.4485 35.4777 54.0485C35.3977 53.4985 35.3977 53.4885 34.8877 53.4985H34.8977Z" fill="#1D478D"/>
<path d="M22.9679 55.2683C23.0579 54.7483 23.1279 54.2583 23.2379 53.7883C23.2879 53.5483 23.2579 53.4283 22.9979 53.4183C22.9379 53.4183 22.8679 53.4183 22.8479 53.3583C22.8279 53.2783 22.9079 53.2683 22.9479 53.2283C23.1479 53.0083 23.3779 53.1283 23.5879 53.1983C23.6879 53.2283 23.6479 53.3383 23.6279 53.4083C23.5479 53.8983 23.4579 54.3783 23.3879 54.8683C23.3579 55.0983 23.2379 55.2283 22.9779 55.2883L22.9679 55.2683Z" fill="#1D478D"/>
<path d="M29.8476 53.6482C29.8476 54.1682 29.8276 54.6282 29.8476 55.0782C29.8476 55.2482 29.7276 55.4782 29.9876 55.5982C30.0276 55.6182 29.9676 55.6782 29.9376 55.7182C29.8576 55.8082 29.7676 55.8282 29.6676 55.7882C29.5476 55.7482 29.5176 55.6482 29.5176 55.5282C29.5176 55.0282 29.5176 54.5182 29.5176 54.0182C29.5176 53.8082 29.6376 53.7482 29.8576 53.6382L29.8476 53.6482Z" fill="#1D478D"/>
<path d="M29.1577 54.6185C29.1577 54.8585 29.1577 55.0985 29.1577 55.3385C29.1577 55.4085 29.1577 55.4785 29.1777 55.5485C29.1777 55.6185 29.4077 55.5785 29.2577 55.7185C29.1777 55.7985 29.0977 55.8485 28.9877 55.8085C28.8777 55.7685 28.8277 55.6985 28.8377 55.5785C28.8377 55.3985 28.8377 55.2185 28.8377 55.0385C28.8377 54.7085 28.8377 54.3785 28.8377 54.0485C28.8377 53.9585 28.8277 53.8685 28.9177 53.8085C28.9777 53.7785 29.0177 53.6985 29.0977 53.7185C29.1877 53.7485 29.1577 53.8385 29.1577 53.8985C29.1577 54.1385 29.1577 54.3785 29.1577 54.6185Z" fill="#1D478D"/>
<path d="M38.668 55.0982C38.728 54.9482 38.758 54.7782 38.988 54.8082C39.218 54.8382 39.368 54.9382 39.418 55.1882C39.458 55.3782 39.468 55.5382 39.298 55.6682C39.218 55.7282 39.178 55.7282 39.148 55.6282C39.128 55.5582 39.118 55.4882 39.098 55.4282C39.038 55.2148 38.898 55.1015 38.678 55.0882L38.668 55.0982Z" fill="#1D478D"/>
<path d="M42.6777 54.6583C42.6177 54.4983 42.5577 54.3483 42.5077 54.1983C42.4377 53.9883 42.2677 54.0783 42.1177 54.0683C42.1477 53.9183 42.1677 53.7583 42.3677 53.7583C42.5477 53.7583 42.7277 53.7583 42.8177 53.9683C42.9177 54.2183 43.0177 54.4583 42.6777 54.6683V54.6583Z" fill="#1D478D"/>
<path d="M32.9676 54.9186C32.8576 55.2286 32.5876 55.2586 32.3176 55.2886C32.1776 55.2986 32.0676 55.2086 32.0176 55.0786C31.9676 54.9586 32.0776 54.8986 32.1376 54.8286C32.1576 54.8086 32.2076 54.7786 32.2076 54.7886C32.4076 55.1086 32.7276 54.8086 32.9676 54.9286V54.9186Z" fill="#1D478D"/>
<path d="M32.8679 53.8683C32.6779 54.1483 32.4079 54.2683 32.1479 54.1983C32.0479 54.1683 31.9579 54.1183 31.9279 54.0083C31.8979 53.8983 31.9779 53.8383 32.0379 53.7783C32.0579 53.7583 32.1079 53.7383 32.1079 53.7383C32.3079 54.0383 32.6079 53.7683 32.8579 53.8683H32.8679Z" fill="#1D478D"/>
<path d="M28.2379 53.1583C28.1879 53.2183 28.1579 53.2883 28.1079 53.3283C28.0279 53.3883 27.9379 53.3783 27.8679 53.2983C27.7979 53.2183 27.7979 53.1483 27.8679 53.0583C28.0479 52.8283 28.1779 52.7883 28.5979 52.8583C28.5679 52.9183 28.3479 52.9983 28.0479 53.0783C28.0679 53.1983 28.1779 53.1283 28.2479 53.1583H28.2379Z" fill="#1D478D"/>
<path d="M30.5879 29.1284C30.4879 29.6984 30.3879 30.2784 30.2879 30.8484C30.0079 32.5184 29.6879 34.1684 29.3479 35.8284C29.2979 36.0484 29.2179 36.0984 29.0279 36.0384C28.4679 35.8484 27.9179 35.6284 27.3379 35.4884C27.1979 35.4584 27.1879 35.3384 27.2179 35.2184C27.4979 33.8584 27.6379 32.4784 27.8379 31.0984C27.9379 30.4084 28.0479 29.7284 28.1179 29.0384C28.1579 28.6284 28.3779 28.3584 28.6379 28.0884C28.7079 28.0184 28.7979 28.0084 28.8879 28.0184C29.2379 28.0584 29.5879 28.0984 29.9379 28.1284C30.2479 28.1584 30.4579 28.2884 30.4779 28.6384C30.4779 28.7984 30.5479 28.9484 30.5879 29.1184V29.1284Z" fill="#1D478D"/>
<path d="M30.9278 37.2083C31.2278 37.2083 31.4878 37.3283 31.7478 37.3783C31.9578 37.4183 32.0978 37.3883 32.1478 37.1483C32.1678 37.0583 32.2278 36.9883 32.2478 36.8983C32.3678 36.4083 32.6578 36.0783 33.1078 35.8583C33.2878 35.7683 33.4578 35.7083 33.6578 35.7683C33.6778 35.7683 33.6978 35.7783 33.7178 35.7883C34.3578 35.9416 34.8345 36.305 35.1478 36.8783C35.2278 37.0183 35.2378 37.1383 35.1578 37.2783C35.0678 37.4383 34.9778 37.5983 34.9178 37.7683C34.6378 38.6183 33.8878 39.0483 33.2778 39.6083C33.0178 39.8483 32.7378 40.0583 32.4878 40.2983C32.3178 40.4583 32.1578 40.4883 31.9478 40.4083C31.4978 40.2283 30.9778 40.2083 30.6378 39.7883C30.5178 39.6383 30.4978 39.5483 30.5778 39.3983C30.7478 39.0883 30.8778 38.7583 31.0578 38.4683C31.2378 38.1883 31.2378 37.9283 31.0778 37.6483C31.0078 37.5283 30.9778 37.3883 30.9178 37.2383L30.9278 37.2083Z" fill="#1D478D"/>
<path d="M27.7277 39.7284C27.6577 39.8184 27.7277 39.9984 27.5577 39.9784C27.4477 39.9684 27.2977 39.9284 27.2877 39.7884C27.2777 39.6684 27.3377 39.5684 27.4777 39.5684C27.5877 39.5684 27.6977 39.6084 27.7277 39.7284Z" fill="#1D478D"/>
</svg>
