<svg xmlns="http://www.w3.org/2000/svg" fill="none" viewBox="0 0 59 59"><rect width="58.832" height="57.834" y=".583" fill="#fff" rx="4"/><path fill="#1D478D" d="M32.202 25.358l-.918 2.786c-.074.227-.099.53-.26.656-.148.113-.452.032-.687.032-.428 0-.856-.004-1.28-.008-.013 0-.03-.012-.05-.024l.857-6.041c.588 0 1.202-.005 1.82.004.057 0 .131.072.16.133.107.199.206.405.288.616.058.141.123.178.284.133 1.058-.287 2.128-.53 3.178-.85.622-.19 1.21.287 1.116.834-.02.13-.004.263-.004.43.103-.02.185-.033.263-.053l4.726-1.203c.618-.158 1.066.105 1.136.729.05.43.033.87.033 1.304 0 .826-.008 1.648-.012 2.474-.004.502 0 1.008 0 1.534-.659 0-1.272.004-1.89-.008-.045 0-.115-.11-.127-.178a150.682 150.682 0 01-.622-3.017c-.045-.226-.127-.303-.366-.291-.44.02-.885.012-1.33 0-.165-.004-.235.048-.284.198-.33 1.029-.675 2.053-1.005 3.086-.053.162-.123.214-.296.21-.642-.012-1.28-.004-1.922-.004h-.235c-.23-1.105-.461-2.182-.68-3.263-.032-.166-.086-.231-.271-.227-.543.016-1.079.008-1.622.008zM13.508 17.568h1.947c.148 1.923.292 3.838.44 5.77.779-.15 1.532-.292 2.29-.438.436-.085.868-.17 1.3-.25.568-.106 1.021.25 1.058.846.025.396.013.793.013 1.19-.005 1.308-.009 2.616-.017 3.923 0 .07-.008.138-.012.22h-2c-.248-1.175-.49-2.345-.738-3.536-.597 0-1.181-.004-1.766.008-.062 0-.148.118-.173.195-.354 1.057-.7 2.113-1.045 3.17-.033.101-.054.182-.198.178-.61-.012-1.219-.012-1.828-.02-.045 0-.09-.012-.148-.016l.877-11.24zM47.323 29.622c-1.276-.227-2.499-.446-3.75-.672 0-.486.004-.956 0-1.422-.013-1.729-.03-3.453-.046-5.182-.012-1.308-.029-2.616-.037-3.924-.004-.429.23-.676.663-.68a70.615 70.615 0 011.853 0c.502.008.749.308.662.802a605.205 605.205 0 01-.683 3.79c-.07.388-.074.396.313.404.663.02 1.33.029 1.992.04h.227c-.078.284-.19.548-.214.819-.029.291.136.534.374.753-.39.158-.65.42-.704.834-.053.413.12.74.44 1.032-.077.037-.135.07-.197.094a.953.953 0 00-.56.595.757.757 0 01-.218.311c-.333.276-.716.478-1.157.478-.23 0-.46-.113-.695-.17a.494.494 0 00-.23.004c.415.563 1.177.502 2.243-.137.14.186.276.372.42.567-.358.068-.663.247-.836.603-.19.356-.148.7.14 1.06zm-1.132-3.669c-.013-.324-.132-.595-.404-.781-.366-.255-.815-.065-.868.376a.912.912 0 00.284.806c.181.174.395.267.646.166.251-.105.325-.324.342-.567zm1.667-.49a.883.883 0 00-.46-.769c-.334-.186-.684-.04-.783.324-.095.356.016.664.276.915.18.174.407.251.65.138.239-.106.313-.316.317-.608zM21.276 22.65h2.149c.181.87.362 1.736.54 2.603.049.227.102.457.143.684.02.125.066.19.214.186.453-.008.902-.012 1.355 0 .16.004.197-.089.235-.202.333-1.02.67-2.04 1-3.061.05-.154.115-.219.296-.215.671.012 1.342.004 2.022.004l-.886 6.276c-.638 0-1.3.004-1.963-.008-.066 0-.144-.077-.194-.138-.127-.166-.21-.425-.374-.49-.165-.068-.412.05-.618.09-.91.174-1.815.348-2.725.518-.683.125-1.198-.275-1.206-.956-.013-.971-.005-1.947-.005-2.92 0-.74.005-1.477.009-2.218 0-.044.004-.089.008-.154zM12.701 19.224H10.38v9.604H8.082v-9.6h-1.98v-1.66h6.772c-.058.546-.111 1.085-.173 1.656z"/><path fill="#1D478D" d="M52.897 25.783c-.012.612-.486 1.02-1.1.92-.97-.163-1.942-.34-2.914-.519a.868.868 0 01-.7-1.028c.087-.442.482-.68.992-.595.272.044.544.097.816.145.56.102 1.115.21 1.675.304.202.032.408.02.61.048.403.061.63.337.62.725zM49.315 22.791c.93.045 1.865.085 2.796.134a.57.57 0 01.242.077c.437.263.606 1.069.305 1.482-.21.291-.502.4-.848.34-.864-.15-1.725-.304-2.59-.462-.477-.089-.77-.465-.716-.919.046-.397.38-.668.811-.652zM48.204 28.164c.51.09 1.075.19 1.643.292.387.069.778.133 1.165.214.473.097.778.551.675.992a.844.844 0 01-1.037.648 133.77 133.77 0 01-2.742-.648c-.465-.113-.68-.409-.618-.797.062-.397.437-.709.914-.7zM48.719 26.451c.683.102 1.44.215 2.198.324.181.029.358.049.54.081.481.09.753.482.675.96a.822.822 0 01-.964.656 91.25 91.25 0 01-2.766-.632c-.412-.101-.63-.429-.568-.769.07-.397.378-.636.885-.62zM45.866 25.564c-.465.045-.597.24-.457.652-.194-.109-.35-.392-.284-.611.037-.126.14-.288.247-.324.218-.073.362.09.494.283zM47.537 25.115c-.49.077-.617.308-.399.725-.247-.158-.354-.368-.33-.611.013-.134.108-.316.219-.365.094-.044.263.061.395.114.037.016.066.076.115.137zM44.602 35.882c.395.263.745.486 1.082.724.857.612 1.717 1.223 2.561 1.85.33.244.334.284.045.58-.74.77-1.498 1.518-2.252 2.271-.045.045-.123.065-.189.073a8.083 8.083 0 01-.543.016c-2.087.012-4.179.02-6.266.029-.029 0-.062-.008-.107-.012-.004-.073-.012-.138-.012-.207-.013-1.968-.025-3.94-.046-5.908a1.346 1.346 0 00-.152-.574c-.132-.26-.321-.328-.613-.276-1.244.227-2.487.458-3.73.689-.046.008-.09.012-.165.02l-.177-2.292h4.829v-2.462h2.017v2.418h2.462v1.587h-2.453c.222 1.968.44 3.899.666 5.879 1.54-.486 3.08-.875 4.55-1.539-1.104-1.028-2.33-1.866-3.533-2.785 1.964-1.033 3.911-2.057 5.904-3.11v1.72c0 .551 0 .556-.54.66l-3.338.649z"/><path fill="#1D478D" d="M31.206 30.403h1.902c.152 1.879.309 3.75.46 5.636 1.133-.222 2.257-.408 3.36-.668.766-.178 1.206.3 1.202.988-.008 1.442-.004 2.88-.004 4.32v.721H36.78c-.605 0-.605 0-.733-.579-.193-.898-.387-1.793-.576-2.692-.025-.126-.066-.19-.21-.186-.482.008-.968.004-1.45.004-.16 0-.242.056-.296.222-.317 1.025-.654 2.045-.98 3.07-.045.141-.106.194-.263.194-.617-.008-1.23-.004-1.865-.004.268-3.68.531-7.341.799-11.026zM30.44 32.274c-.025.478-.041.947-.07 1.421-.136 2.065-.28 4.13-.412 6.191-.008.142-.053.206-.19.239-1.753.433-3.507.87-5.26 1.304-.013.004-.03 0-.083-.004l-.399-2.519c.498-.02.98-.044 1.457-.06.939-.033 1.882-.061 2.82-.098.074-.004.144-.073.214-.113-.066-.04-.123-.101-.193-.113-.704-.11-1.416-.166-2.108-.316-1.433-.312-2.441-1.405-2.66-2.835-.11-.72.182-1.316.705-1.797.708-.656 1.593-.968 2.523-1.09.968-.125 1.951-.145 2.927-.206.227-.016.457-.004.729-.004zm-1.77 1.138c-.597-.097-1.161-.093-1.717.085-.865.275-1.33.963-1.334 1.96 0 .894.416 1.457 1.31 1.745.485.157.987.186 1.498.178.206-.004.276-.057.267-.268-.02-.506-.024-1.012-.028-1.514 0-.725.004-1.445.004-2.186zM22.314 34.67h.428c.346 2.26.687 4.491 1.033 6.763H19.09c.626-2.24 1.256-4.483 1.89-6.746h.403c-.345-.251-.646-.526-.72-.96-.078-.437.066-.797.395-1.093a1.196 1.196 0 011.647.081c.288.3.379.664.292 1.061-.078.393-.354.652-.683.895zM18.402 33.254c.075-.725-.518-1.839-1.041-2.325-.708-.655-5.352-.781-5.986-.781-.292 3.765-.584 7.499-.873 11.244.054.008.1.016.149.016.609.008 1.218.008 1.828.02.144.005.164-.076.197-.178.346-1.056.96-3.364 1.021-3.364.585-.017 1.367-.009 1.964-.009.247 1.19.494 2.361.737 3.535h2c.005-.085-1.692-4.64-2.338-5.401 1.301-.239 2.091-.239 2.343-2.758zm-3.396-1.875c.865.275 1.33.963 1.334 1.96 0 .894-.416 1.457-1.31 1.745-.427.137-.868.178-1.316.178-.103-1.332-.202-2.66-.305-3.984.551-.081 1.079-.065 1.597.1z"/></svg>