<svg width="58" height="58" viewBox="0 0 58 58" fill="none" xmlns="http://www.w3.org/2000/svg">
<rect y="0.00683594" width="57.8345" height="57.8345" rx="4" fill="white"/>
<path d="M53.648 29.5593C53.328 29.3293 53.328 29.3293 53.648 29.1093C54.788 28.3093 54.858 26.8893 54.348 25.8693C53.908 24.9693 53.098 24.5293 52.128 24.4193C51.178 24.3093 50.228 24.3693 49.278 24.3793C48.538 24.3893 48.068 24.9093 48.088 25.6393C48.108 26.7693 48.088 27.8993 48.088 29.0293C48.088 30.1993 48.088 31.3793 48.088 32.5493C48.088 32.7559 48.1947 32.8593 48.408 32.8593C48.758 32.8593 49.108 32.8593 49.448 32.8593C49.668 32.8593 49.778 32.7526 49.778 32.5393C49.778 31.7893 49.778 31.0293 49.778 30.2793C49.778 30.1293 49.818 30.0593 49.988 30.0593C50.438 30.0593 50.888 30.0593 51.328 30.0593C51.578 30.0593 51.828 30.1093 52.058 30.2093C52.558 30.4393 53.028 30.7393 52.958 31.5393C52.928 31.9093 52.958 32.2893 52.958 32.6693C52.958 32.8093 52.998 32.8593 53.138 32.8593C53.588 32.8593 54.038 32.8593 54.478 32.8593C54.638 32.8593 54.668 32.7993 54.668 32.6593C54.668 32.2593 54.648 31.8593 54.668 31.4693C54.698 30.6293 54.308 30.0193 53.648 29.5493V29.5593ZM51.398 28.6093C50.928 28.6193 50.458 28.6093 49.988 28.6093C49.828 28.6093 49.778 28.5493 49.778 28.3993C49.778 27.9993 49.778 27.6093 49.778 27.2093C49.778 26.8193 49.778 26.4293 49.778 26.0393C49.778 25.9093 49.808 25.8493 49.948 25.8493C50.558 25.8493 51.168 25.8493 51.778 25.8693C52.438 25.8993 52.868 26.3693 52.888 27.0193C52.918 27.9993 52.368 28.5893 51.388 28.6093H51.398Z" fill="#1D478D"/>
<path d="M9.6282 24.3894C8.5082 24.3894 7.3782 24.3894 6.2582 24.3894C5.1582 24.3894 4.0582 24.3894 2.9582 24.3894C2.8782 24.3894 2.7882 24.3894 2.7082 24.3794C2.6782 24.4294 2.6582 24.4894 2.6582 24.5494C2.6582 24.9094 2.6582 25.2694 2.6582 25.6394C2.6582 25.7694 2.6982 25.8094 2.8282 25.7994C3.5482 25.7994 4.2682 25.7994 4.9782 25.7994C5.3482 25.7994 5.3482 25.7994 5.3482 26.1694C5.3482 28.3094 5.3482 30.4494 5.3482 32.5894C5.3482 32.8094 5.4182 32.8694 5.6282 32.8594C6.0082 32.8394 6.3982 32.8594 6.7782 32.8594C6.97154 32.8594 7.0682 32.766 7.0682 32.5794C7.0682 30.4294 7.0682 28.2894 7.0682 26.1394C7.0682 25.8394 7.0982 25.8094 7.3982 25.8094C8.1682 25.8094 8.9482 25.8094 9.7182 25.8194C9.8082 25.8194 9.8582 25.7994 9.8582 25.7094C9.8582 25.3494 9.8582 24.9894 9.8682 24.6294C9.8682 24.4394 9.8182 24.3894 9.6282 24.3894Z" fill="#1D478D"/>
<path d="M2.71795 24.3194C2.71795 24.3194 2.71795 24.2894 2.68795 24.2994C2.67795 24.2994 2.65795 24.3294 2.64795 24.3494C2.64795 24.3894 2.66795 24.3994 2.69795 24.3994C2.69795 24.3894 2.71795 24.3694 2.71795 24.3594C2.71795 24.3594 2.71795 24.3394 2.69795 24.3294L2.71795 24.3194Z" fill="#1D478D"/>
<path d="M38.1078 28.2393C38.2178 28.2893 38.2778 28.1893 38.3378 28.1293C38.8478 27.6193 39.3678 27.1093 39.8778 26.5993C40.0678 26.4093 40.1578 26.1793 40.1578 25.9093C40.1578 25.1993 40.1578 24.4893 40.1578 23.7793C40.1578 23.0493 40.1578 22.3293 40.1578 21.5993C40.1578 21.1893 40.0078 20.9993 39.6178 20.8993C39.4078 20.8493 39.1878 20.7993 38.9778 20.7493C38.1778 20.5693 37.3778 20.3893 36.5678 20.1993C36.1278 20.0993 35.7378 20.1493 35.4078 20.4793C34.9378 20.9493 34.4578 21.4193 33.9878 21.8993C33.9178 21.9693 33.8178 22.0293 33.8578 22.1493C33.8978 22.2693 34.0178 22.2693 34.1178 22.2993C34.5378 22.3993 34.9578 22.4893 35.3878 22.5893C36.0778 22.7493 36.7678 22.9193 37.4578 23.0693C37.9378 23.1693 38.0078 23.2393 38.0078 23.7293C38.0078 25.1493 38.0078 26.5693 38.0078 27.9993C38.0078 28.0993 38.0078 28.2093 38.1078 28.2593V28.2393Z" fill="#1D478D"/>
<path d="M23.6678 31.7793C23.6678 31.3593 23.6978 31.4093 23.3078 31.4093C22.1878 31.4093 21.0778 31.4093 19.9578 31.4093C19.5578 31.4093 19.5478 31.5093 19.5478 30.9893C19.5478 28.8793 19.5378 26.7693 19.5378 24.6593C19.5378 24.4693 19.4878 24.3893 19.2778 24.3993C18.8678 24.4093 18.4578 24.4193 18.0378 24.3993C17.8278 24.3993 17.7778 24.4693 17.7778 24.6693C17.7778 25.8593 17.7778 27.0393 17.7778 28.2293C17.7778 29.3693 17.8078 30.5193 17.7778 31.6593C17.7578 32.4093 18.3678 32.8493 18.9478 32.8593C20.4478 32.8793 21.9478 32.8593 23.4478 32.8593C23.6178 32.8593 23.6678 32.7893 23.6678 32.6293C23.6678 32.3493 23.6678 32.0593 23.6678 31.7793Z" fill="#1D478D"/>
<path d="M40.1078 29.0792C40.0278 29.0492 39.9778 29.1392 39.9178 29.1992C39.3778 29.7292 38.8378 30.2692 38.2978 30.8092C38.1678 30.9492 38.0278 31.0992 38.0178 31.2992C38.0078 31.6192 38.0178 31.9392 38.0078 32.2592C38.0078 32.3592 38.0578 32.4192 38.1478 32.4392C38.6978 32.5592 39.2378 32.6892 39.7878 32.7992C40.0678 32.8592 40.1478 32.7792 40.1478 32.4892C40.1478 31.9592 40.1478 31.4192 40.1478 30.8892C40.1478 30.3592 40.1478 29.8392 40.1478 29.3092C40.1478 29.2292 40.1978 29.1192 40.0978 29.0792H40.1078Z" fill="#1D478D"/>
<path d="M35.4779 25.3392C34.8579 25.3192 34.2379 25.2892 33.6279 25.1792C33.0079 25.0692 32.3879 24.9392 31.8479 24.5792C31.7779 24.5292 31.7279 24.4392 31.6279 24.4792C31.5279 24.5292 31.5579 24.6392 31.5579 24.7292C31.5579 26.5592 31.5579 28.3992 31.5579 30.2292C31.5579 32.0492 31.5579 33.8692 31.5579 35.6892C31.5579 35.9992 31.6679 36.2192 31.9479 36.3592C32.0579 36.4092 32.1579 36.4792 32.2679 36.5292C33.2779 36.9392 34.3379 37.0792 35.4079 37.0892C35.7079 37.0892 35.8279 36.9592 35.8379 36.6592C35.8379 36.5792 35.8379 36.4992 35.8379 36.4292C35.8379 32.9692 35.8379 29.5092 35.8379 26.0392C35.8379 25.9292 35.8379 25.8092 35.8379 25.6992C35.8179 25.4692 35.6879 25.3392 35.4779 25.3392Z" fill="#1D478D"/>
</svg>
