<svg width="59" height="59" viewBox="0 0 59 59" fill="none" xmlns="http://www.w3.org/2000/svg">
<rect x="0.834473" y="0.834473" width="57.8345" height="57.8345" rx="4" fill="white"/>
<path d="M22.6202 26.8117H17.6702C17.8002 27.5717 17.1802 28.5317 18.4502 28.8017C18.5202 28.8217 18.6102 29.0917 18.5802 29.2117C18.2302 30.6317 17.8502 32.0517 17.4102 33.7417C16.8202 31.9417 16.3202 30.4317 15.8002 28.8417C17.3002 28.5617 16.7702 27.6017 16.7402 26.7917H12.2802C12.3202 27.6417 11.8102 28.6317 13.3002 28.8517C12.7802 30.4217 12.2902 31.9217 11.7902 33.4217C11.3002 32.2817 11.0502 31.1217 10.6902 30.0017C10.4302 29.1917 10.4402 28.6117 11.4202 28.4917V26.8017H6.4502V28.3917C6.5502 28.3717 6.65019 28.3617 6.75019 28.3417C7.04019 28.7917 7.42019 29.2117 7.59019 29.7117C8.36019 31.9917 9.0702 34.3017 9.8102 36.6517C10.7702 36.6517 11.7102 36.6217 12.6402 36.6617C13.1602 36.6817 13.3802 36.4917 13.5102 36.0017C13.7902 34.9417 14.1302 33.8917 14.5202 32.5717C15.0002 34.1217 15.4002 35.3917 15.7902 36.6517C16.7802 36.6517 17.6502 36.6117 18.5202 36.6617C19.1302 36.7017 19.3502 36.4617 19.5202 35.9017C20.1602 33.7417 20.8602 31.6017 21.5402 29.4517C21.6202 29.2117 21.7002 28.8117 21.8502 28.7817C23.1602 28.4717 22.6002 27.5617 22.6102 26.8117H22.6202Z" fill="#1D478D"/>
<path d="M34.0902 26.8117C34.2702 27.5017 34.4102 28.0817 34.5802 28.6517C34.6702 28.9617 34.9702 29.2917 34.9102 29.5617C34.6402 30.8517 34.2802 32.1217 33.8702 33.7017C33.4102 31.9217 33.0302 30.4117 32.6402 28.8817C33.8902 28.4417 33.3602 27.5617 33.3802 26.7917H28.5102C28.5902 27.5417 27.9802 28.4617 29.2602 28.7617C29.4102 28.8017 29.5102 29.1817 29.5802 29.4217C30.2802 31.6017 30.9902 33.7717 31.6502 35.9617C31.8102 36.4817 32.0202 36.7117 32.5802 36.6717C33.2602 36.6217 33.9502 36.5817 34.6102 36.6717C35.6002 36.8117 35.9302 36.3517 36.1702 35.4717C36.7202 33.4517 37.3802 31.4617 38.0002 29.4617C38.0702 29.2217 38.1502 28.8217 38.3002 28.7917C39.5902 28.4917 39.0902 27.5817 39.0802 26.8117H34.0902Z" fill="#1D478D"/>
<path d="M51.6304 31.2116C51.0804 30.8916 50.4504 30.6916 49.8604 30.4416C49.5104 30.2916 49.1104 30.1916 48.8104 29.9616C48.6104 29.8116 48.4004 29.4716 48.4504 29.2616C48.4904 29.0816 48.8604 28.9116 49.1104 28.8616C49.9604 28.6816 50.1204 29.2816 50.1804 30.0116C50.6704 30.0116 51.1204 29.9716 51.5604 30.0116C52.3704 30.1016 52.7004 29.7716 52.6404 28.9816C52.6204 28.6316 52.7004 28.2616 52.6404 27.9216C52.5804 27.6516 52.4104 27.3016 52.1904 27.2016C50.6404 26.4916 49.0204 26.3216 47.3704 26.7916C46.1704 27.1316 45.5104 28.0416 45.4604 29.2916C45.3904 31.0016 45.9804 31.9316 47.5904 32.5816C48.1904 32.8216 48.8304 32.9516 49.4104 33.2216C49.6804 33.3516 49.8504 33.7016 50.0604 33.9616C49.7604 34.1516 49.4704 34.4316 49.1404 34.5016C48.1204 34.7216 48.1304 33.7916 47.9104 33.2316C45.1104 33.1816 45.5404 32.7816 45.4404 35.4416C45.4404 35.6716 45.6904 36.0216 45.9104 36.1216C47.4904 36.8116 49.1404 37.0316 50.8304 36.6016C52.0304 36.2916 52.7904 35.5116 53.0004 34.2716C53.2204 32.9716 52.7604 31.8816 51.6304 31.2116Z" fill="#1D478D"/>
<path d="M25.6703 29.0718C23.5203 29.0518 22.2203 30.1218 22.1603 31.9618C22.1403 32.5118 22.1603 33.0618 22.1603 33.6118C22.1803 35.1418 22.7903 36.0118 24.2303 36.5218C25.3703 36.9218 26.5103 36.9118 27.6403 36.4718C28.9203 35.9718 29.1203 35.6018 28.8203 33.9518C28.1003 34.1418 27.4003 34.3818 26.6903 34.5018C26.2403 34.5818 25.7503 34.5518 25.3203 34.4318C25.1603 34.3918 25.1003 33.9518 24.9603 33.5818H28.9903C28.9903 32.9818 28.9903 32.5118 28.9903 32.0318C28.9603 30.1618 27.7503 29.0818 25.6903 29.0618L25.6703 29.0718ZM26.2603 32.1118C25.8803 32.1418 25.5103 32.1618 25.1303 32.1918L24.8903 31.8618C25.1403 31.6418 25.3803 31.2818 25.6503 31.2518C25.8703 31.2218 26.1403 31.5918 26.3903 31.7818C26.3503 31.8918 26.3003 32.0018 26.2603 32.1018V32.1118Z" fill="#1D478D"/>
<path d="M43.8703 28.692C44.8303 28.192 44.2802 27.452 44.3202 26.802H39.9703C40.1003 27.512 39.5902 28.302 40.5402 28.732C40.6702 28.792 40.6903 29.202 40.6903 29.442C40.7003 30.932 40.7003 32.412 40.6903 33.902C40.6903 34.152 40.6802 34.562 40.5502 34.622C39.5402 35.072 40.1203 35.882 40.0003 36.602H44.3603C44.2903 35.892 44.8402 35.102 43.8202 34.662C43.7002 34.612 43.6802 34.262 43.6802 34.042C43.6702 32.492 43.6702 30.942 43.6802 29.392C43.6802 29.152 43.7302 28.782 43.8802 28.702L43.8703 28.692Z" fill="#1D478D"/>
<path d="M42.1103 25.7918C43.0403 25.8118 43.7103 25.1718 43.7103 24.2518C43.7103 23.3418 43.0203 22.6618 42.1203 22.6818C41.2903 22.7018 40.6003 23.4118 40.5903 24.2418C40.5903 25.1018 41.2403 25.7718 42.1003 25.7918H42.1103Z" fill="#1D478D"/>
</svg>
